<svg xmlns="http://www.w3.org/2000/svg" width="90" height="90" viewBox="0 0 90 90">
  <g id="Grupo_1182233" data-name="Grupo 1182233" transform="translate(-751.711 -718)">
    <g id="Grupo_1182232" data-name="Grupo 1182232">
      <circle id="Elipse_13689" data-name="Elipse 13689" cx="45" cy="45" r="45" transform="translate(751.711 718)" fill="#fff"/>
      <g id="pagina-de-inicio" transform="translate(769.267 737.073)">
        <path id="Trazado_1002624" data-name="Trazado 1002624" d="M201.161,382.25h-8.02s-.065,5.581-2.815,9.053a1.129,1.129,0,0,0,.9,1.82H203.08a1.129,1.129,0,0,0,.9-1.82c-2.751-3.472-2.815-9.053-2.815-9.053Zm0,0" transform="translate(-169.707 -341.271)" fill="#bddff4"/>
        <path id="Trazado_1002625" data-name="Trazado 1002625" d="M271.263,393.124h-2.891a1.129,1.129,0,0,0,.9-1.82c-2.751-3.471-2.815-9.053-2.815-9.053h2.89s.065,5.582,2.815,9.053A1.129,1.129,0,0,1,271.263,393.124Zm0,0" transform="translate(-237.889 -341.271)" fill="#adc9e2"/>
        <path id="Trazado_1002626" data-name="Trazado 1002626" d="M54.889,45.4V80.97A1.127,1.127,0,0,1,53.762,82.1H1.127A1.127,1.127,0,0,1,0,80.97V45.4a1.691,1.691,0,0,1,1.691-1.69H53.2a1.69,1.69,0,0,1,1.691,1.69Zm0,0" transform="translate(0 -39.025)" fill="#7dbfff"/>
        <path id="Trazado_1002627" data-name="Trazado 1002627" d="M44.332,43.711H89.716V76.7H44.332Zm0,0" transform="translate(-39.58 -39.025)" fill="#19538d"/>
        <path id="Trazado_1002629" data-name="Trazado 1002629" d="M54.889,339v5.6a1.127,1.127,0,0,1-1.127,1.127H1.127A1.127,1.127,0,0,1,0,344.6V339Zm0,0" transform="translate(0 -302.654)" fill="#4e7693"/>
        <path id="Trazado_1002630" data-name="Trazado 1002630" d="M472.993,339v5.6a1.127,1.127,0,0,1-1.127,1.127h-3.557a1.127,1.127,0,0,0,1.127-1.127V339Zm0,0" transform="translate(-418.103 -302.654)" fill="#38627c"/>
        <path id="Trazado_1002631" data-name="Trazado 1002631" d="M56.769,1.111V36.342H99.487V1.111A1.111,1.111,0,0,0,98.375,0H57.881a1.111,1.111,0,0,0-1.111,1.111Zm0,0" transform="translate(-50.683 0)" fill="#e3f4ff"/>
        <path id="Trazado_1002632" data-name="Trazado 1002632" d="M431.445,0V36.342H434V1.111A1.112,1.112,0,0,0,432.884,0Zm0,0" transform="translate(-385.192 0)" fill="#bddff4"/>
        <path id="Trazado_1002633" data-name="Trazado 1002633" d="M56.762,118.465H99.48v13.9H56.762Zm0,0" transform="translate(-50.677 -105.765)" fill="#27e6fc"/>
        <path id="Trazado_1002634" data-name="Trazado 1002634" d="M240.131,183.969a5.341,5.341,0,0,1-.417,2.077H229.8a5.373,5.373,0,1,1,10.328-2.077Zm0,0" transform="translate(-204.795 -159.451)" fill="#fdb659"/>
        <path id="Trazado_1002635" data-name="Trazado 1002635" d="M274.374,183.969a5.337,5.337,0,0,1-.416,2.078h-2.519a5.375,5.375,0,0,0-3.7-7.3,5.375,5.375,0,0,1,6.632,5.223Zm0,0" transform="translate(-239.039 -159.451)" fill="#fede93"/>
        <path id="Trazado_1002636" data-name="Trazado 1002636" d="M80.79,168.616H56.761v-4.735l4.481-4.482a1.112,1.112,0,0,1,1.572,0l5.332,5.332,3.594-3.593a1.112,1.112,0,0,1,1.572,0Zm0,0" transform="translate(-50.676 -142.021)" fill="#12967e"/>
        <path id="Trazado_1002637" data-name="Trazado 1002637" d="M199.281,183.1h-3.073l-6.727-6.727.751-.751a1.112,1.112,0,0,1,1.572,0Zm0,0" transform="translate(-169.167 -156.501)" fill="#21c69c"/>
        <path id="Trazado_1002638" data-name="Trazado 1002638" d="M106.5,195.19a.826.826,0,0,1-.586-.242l-1.658-1.658a.828.828,0,1,1,1.171-1.172l1.659,1.659a.828.828,0,0,1-.586,1.414Zm0,0" transform="translate(-92.862 -171.305)" fill="#0b7f69"/>
        <path id="Trazado_1002639" data-name="Trazado 1002639" d="M431.445,118.465h2.55v13.9h-2.55Zm0,0" transform="translate(-385.192 -105.765)" fill="#06c7f4"/>
        <path id="Trazado_1002640" data-name="Trazado 1002640" d="M56.765,1.111V5.549H99.484V1.111A1.112,1.112,0,0,0,98.372,0H57.877a1.112,1.112,0,0,0-1.112,1.111Zm0,0" transform="translate(-50.68 0)" fill="#618baa"/>
        <path id="Trazado_1002641" data-name="Trazado 1002641" d="M56.766,1.111V5.549h12.54V0H57.877a1.112,1.112,0,0,0-1.112,1.111Zm0,0" transform="translate(-50.68 0)" fill="#32dfb7"/>
        <path id="Trazado_1002642" data-name="Trazado 1002642" d="M431.445,0V5.549H434V1.111A1.112,1.112,0,0,0,432.884,0Zm0,0" transform="translate(-385.192 0)" fill="#4e7693"/>
        <g id="Grupo_1182230" data-name="Grupo 1182230" transform="translate(9.483 7.982)">
          <path id="Trazado_1002643" data-name="Trazado 1002643" d="M102.784,76.118H89.29a.828.828,0,1,1,0-1.657h13.494a.828.828,0,0,1,0,1.657Zm0,0" transform="translate(-88.461 -74.461)" fill="#93c0d1"/>
          <path id="Trazado_1002644" data-name="Trazado 1002644" d="M271.3,76.118h-1.891a.828.828,0,0,1,0-1.657H271.3a.828.828,0,1,1,0,1.657Zm0,0" transform="translate(-249.275 -74.461)" fill="#93c0d1"/>
          <path id="Trazado_1002645" data-name="Trazado 1002645" d="M311.926,76.118h-1.891a.828.828,0,1,1,0-1.657h1.891a.828.828,0,1,1,0,1.657Zm0,0" transform="translate(-285.542 -74.461)" fill="#93c0d1"/>
          <path id="Trazado_1002646" data-name="Trazado 1002646" d="M352.547,76.118h-1.891a.828.828,0,1,1,0-1.657h1.891a.828.828,0,0,1,0,1.657Zm0,0" transform="translate(-321.808 -74.461)" fill="#93c0d1"/>
          <path id="Trazado_1002647" data-name="Trazado 1002647" d="M393.169,76.118h-1.891a.828.828,0,1,1,0-1.657h1.891a.828.828,0,1,1,0,1.657Zm0,0" transform="translate(-358.075 -74.461)" fill="#93c0d1"/>
        </g>
        <path id="Trazado_1002648" data-name="Trazado 1002648" d="M87.091,20.145h-.005a.829.829,0,0,1,0-1.657H87.1a.828.828,0,0,1-.005,1.657Zm0,0" transform="translate(-77.011 -16.506)" fill="#21c69c"/>
        <path id="Trazado_1002649" data-name="Trazado 1002649" d="M109.149,20.211a.828.828,0,0,1-.009-1.657h.009a.828.828,0,0,1,0,1.657Zm0,0" transform="translate(-96.705 -16.566)" fill="#21c69c"/>
        <path id="Trazado_1002650" data-name="Trazado 1002650" d="M131.208,20.274H131.2a.828.828,0,0,1,0-1.657h.014a.828.828,0,0,1-.005,1.656Zm0,0" transform="translate(-116.399 -16.621)" fill="#21c69c"/>
        <path id="Trazado_1002651" data-name="Trazado 1002651" d="M241.771,364.313h-2a.828.828,0,1,1,0-1.657h2a.828.828,0,1,1,0,1.657Zm0,0" transform="translate(-213.326 -323.777)" fill="#38627c"/>
        <path id="Trazado_1002652" data-name="Trazado 1002652" d="M119.522,282.694h-6.669a1.112,1.112,0,0,1-1.111-1.112v-.963a1.111,1.111,0,0,1,1.111-1.111h6.669a1.112,1.112,0,0,1,1.111,1.111v.963A1.112,1.112,0,0,1,119.522,282.694Zm0,0" transform="translate(-99.763 -249.543)" fill="#fdb659"/>
        <path id="Trazado_1002653" data-name="Trazado 1002653" d="M325.1,282.694h-6.669a1.112,1.112,0,0,1-1.112-1.112v-.963a1.112,1.112,0,0,1,1.112-1.111H325.1a1.112,1.112,0,0,1,1.112,1.111v.963A1.112,1.112,0,0,1,325.1,282.694Zm0,0" transform="translate(-283.299 -249.543)" fill="#fc3e81"/>
        <path id="Trazado_1002654" data-name="Trazado 1002654" d="M249.1,272.6a.828.828,0,0,1-.828-.828v-4a.828.828,0,0,1,1.657,0v4A.828.828,0,0,1,249.1,272.6Zm0,0" transform="translate(-221.657 -238.328)" fill="#93c0d1"/>
        <path id="Trazado_1002655" data-name="Trazado 1002655" d="M351.078,158.7h-6.246a.828.828,0,1,1,0-1.656h6.246a.828.828,0,1,1,0,1.656Zm0,0" transform="translate(-307.125 -140.211)" fill="#06c7f4"/>
        <path id="Trazado_1002656" data-name="Trazado 1002656" d="M392.544,184.277h-1.266a.828.828,0,1,1,0-1.656h1.266a.828.828,0,1,1,0,1.656Zm0,0" transform="translate(-348.591 -163.043)" fill="#06c7f4"/>
        <path id="Trazado_1002657" data-name="Trazado 1002657" d="M392.544,201.556h-1.266a.828.828,0,1,1,0-1.657h1.266a.828.828,0,1,1,0,1.657Zm0,0" transform="translate(-348.591 -178.469)" fill="#06c7f4"/>
      </g>
    </g>
  </g>
</svg>
