<svg xmlns="http://www.w3.org/2000/svg" width="90" height="90" viewBox="0 0 90 90">
  <g id="Grupo_1182231" data-name="Grupo 1182231" transform="translate(-751.711 -718)">
    <g id="Grupo_1182232" data-name="Grupo 1182232">
      <g id="Grupo_1182239" data-name="Grupo 1182239">
        <circle id="Elipse_13689" data-name="Elipse 13689" cx="45" cy="45" r="45" transform="translate(751.711 718)" fill="#fff"/>
        <g id="noticias-falsas" transform="translate(769.122 717.431)">
          <path id="Trazado_1002697" data-name="Trazado 1002697" d="M243.171,375.447l-.667-.7h-3.936l-.512.411-1.577,6.9.479.85h6.879l.694-.517Z" transform="translate(-210.994 -316.382)" fill="#bddff4"/>
          <path id="Trazado_1002698" data-name="Trazado 1002698" d="M206.451,374.748h-3.685l-.6.7-1.359,6.945.544.517h3.5Z" transform="translate(-179.166 -316.382)" fill="#adc9e2"/>
          <path id="Trazado_1002699" data-name="Trazado 1002699" d="M80.008,20.152H34.2l-1.581.263-1.2,1.776V57.853l1.535.86,1.248.352h45.8a3.2,3.2,0,0,0,3.2-3.2v-32.5a3.205,3.205,0,0,0-3.2-3.205Z" transform="translate(-28.035 0)" fill="#bddff4"/>
          <path id="Trazado_1002700" data-name="Trazado 1002700" d="M3.849,55.969V23.248a3.227,3.227,0,0,1,2.32-3.1H3.2a3.2,3.2,0,0,0-3.2,3.2v32.5a3.2,3.2,0,0,0,3.2,3.2H6.168a3.227,3.227,0,0,1-2.32-3.1Z" fill="#adc9e2"/>
          <path id="Trazado_1002701" data-name="Trazado 1002701" d="M206.05,445.213a75.923,75.923,0,0,0-14.67-1.29c-2.1,0-4.131.068-6.058.2l-.762.2-.985,1.651v1.193l.375.375.559.213c7.568-.612,16.224-.194,22.387,1.3a1.126,1.126,0,0,0,1.39-1.1,2.8,2.8,0,0,0-2.236-2.747Z" transform="translate(-163.791 -378.102)" fill="#bddff4"/>
          <g id="Grupo_1182236" data-name="Grupo 1182236" transform="translate(10.683 66.017)">
            <path id="Trazado_1002702" data-name="Trazado 1002702" d="M108.536,448.312a3.023,3.023,0,0,1,1.439-2.576,65.2,65.2,0,0,0-8.612,1.095,2.8,2.8,0,0,0-2.236,2.747,1.126,1.126,0,0,0,1.39,1.1,57.021,57.021,0,0,1,8.645-1.3A1.211,1.211,0,0,1,108.536,448.312Z" transform="translate(-99.127 -445.736)" fill="#adc9e2"/>
          </g>
          <path id="Trazado_1002703" data-name="Trazado 1002703" d="M108.25,54.7h-7.772l-2.387-2.887-.941-.245H65.286L64.2,52.04V83.515l.846.155,1.17-.772H80.956l1.269.816h26.628a.222.222,0,0,0,.222-.222v-28Z" transform="translate(-57.283 -28.035)" fill="#ffebbe"/>
          <path id="Trazado_1002704" data-name="Trazado 1002704" d="M35.27,82.382V52.9a1.538,1.538,0,0,1,.769-1.331h-4.4a.222.222,0,0,0-.222.222v31.7a.222.222,0,0,0,.222.222h4.4A1.538,1.538,0,0,1,35.27,82.382Z" transform="translate(-28.035 -28.035)" fill="#b5dcff"/>
          <path id="Trazado_1002705" data-name="Trazado 1002705" d="M424.037,51.573h-6.581L420.108,55a1.591,1.591,0,0,0,.63.486h3.52V51.8A.222.222,0,0,0,424.037,51.573Z" transform="translate(-372.467 -28.035)" fill="#32dfb7"/>
          <path id="Trazado_1002706" data-name="Trazado 1002706" d="M377.792,54.91l-2.58-3.337h-5.274l2.58,3.337a1.493,1.493,0,0,0,1.181.58h5.274A1.493,1.493,0,0,1,377.792,54.91Z" transform="translate(-330.07 -28.035)" fill="#32dfb7"/>
          <path id="Trazado_1002707" data-name="Trazado 1002707" d="M150.93,120.488h-.557l-2.3,2.415v4.469l1.832,1.76,1.029.053a5.014,5.014,0,0,0,0-8.7Z" transform="translate(-132.112 -89.523)" fill="#ffcebe"/>
          <path id="Trazado_1002708" data-name="Trazado 1002708" d="M109.9,119.313a5.012,5.012,0,0,1,2.517-4.348,5.015,5.015,0,1,0,0,8.7A5.012,5.012,0,0,1,109.9,119.313Z" transform="translate(-93.595 -84)" fill="#ffb1a0"/>
          <path id="Trazado_1002709" data-name="Trazado 1002709" d="M324.05,125.63H312.192l-1,.918v17.615l1.1,1.06H324.05a1.336,1.336,0,0,0,1.332-1.332V126.962A1.336,1.336,0,0,0,324.05,125.63Z" transform="translate(-277.657 -94.111)" fill="#f27182"/>
          <path id="Trazado_1002710" data-name="Trazado 1002710" d="M276.152,143.891V126.962a1.336,1.336,0,0,1,1.332-1.332h-5a1.336,1.336,0,0,0-1.332,1.332v16.928a1.336,1.336,0,0,0,1.332,1.332h5A1.336,1.336,0,0,1,276.152,143.891Z" transform="translate(-241.934 -94.111)" fill="#ed5469"/>
          <path id="Trazado_1002711" data-name="Trazado 1002711" d="M120.937,238.363h-2.388l-3.05,1.869-.909,2.692v7.449h12.593v-5.766a6.264,6.264,0,0,0-6.245-6.245Z" transform="translate(-102.24 -194.695)" fill="#60b9fe"/>
          <path id="Trazado_1002712" data-name="Trazado 1002712" d="M82.557,238.366c-.041,0-.081,0-.121,0H77.683a6.263,6.263,0,0,0-6.245,6.245v5.766h5v-5.766A6.263,6.263,0,0,1,82.557,238.366Z" transform="translate(-63.739 -194.695)" fill="#1ca8ff"/>
          <g id="Grupo_1182238" data-name="Grupo 1182238" transform="translate(33.827 36.658)">
            <path id="Trazado_1002713" data-name="Trazado 1002713" d="M337.53,178.275a.432.432,0,0,1,0-.61l1.476-1.476a1.7,1.7,0,0,0,.089-2.33,1.665,1.665,0,0,0-2.411-.058l-1.51,1.51a.432.432,0,0,1-.61,0l-1.451-1.451h-.307l-.611,1.5,2.35,2.606-2.35,2.7.318,1.184.6.223,1.451-1.451a.432.432,0,0,1,.61,0l1.51,1.51a1.665,1.665,0,0,0,2.411-.058,1.7,1.7,0,0,0-.089-2.33Z" transform="translate(-330.223 -173.312)" fill="#dbedff"/>
            <g id="Grupo_1182237" data-name="Grupo 1182237" transform="translate(0 0)">
              <path id="Trazado_1002714" data-name="Trazado 1002714" d="M316.866,179.751l1.476-1.476a.432.432,0,0,0,0-.61l-1.476-1.476a1.7,1.7,0,0,1-.09-2.33l-.059-.059a1.665,1.665,0,0,0-2.411.058,1.7,1.7,0,0,0,.089,2.33l1.476,1.476a.432.432,0,0,1,0,.61l-1.476,1.476a1.7,1.7,0,0,0-.089,2.33,1.665,1.665,0,0,0,2.411.058l.059-.059A1.7,1.7,0,0,1,316.866,179.751Z" transform="translate(-313.885 -173.312)" fill="#b5dcff"/>
            </g>
          </g>
        </g>
      </g>
    </g>
  </g>
</svg>
