<svg xmlns="http://www.w3.org/2000/svg" xmlns:xlink="http://www.w3.org/1999/xlink" width="129" height="127" viewBox="0 0 129 127">
  <defs>
    <clipPath id="clip-path">
      <rect id="Rectángulo_454807" data-name="Rectángulo 454807" width="129" height="127" transform="translate(399.059 5904)" fill="#9ecfff"/>
    </clipPath>
  </defs>
  <g id="Grupo_1179111" data-name="Grupo 1179111" transform="translate(-399.059 -4700)">
    <g id="Grupo_1177492" data-name="Grupo 1177492" transform="translate(0 -1204)">
      <rect id="Rectángulo_454806" data-name="Rectángulo 454806" width="129" height="127" transform="translate(399.059 5904)" fill="#9ecfff"/>
      <path id="Rectángulo_454808" data-name="Rectángulo 454808" d="M0,0H79A12,12,0,0,1,91,12V91a0,0,0,0,1,0,0H12A12,12,0,0,1,0,79V0A0,0,0,0,1,0,0Z" transform="translate(418.059 5922)" fill="#fff"/>
      <g id="OUTLINE" transform="translate(412.557 5917.971)">
        <path id="Trazado_1002715" data-name="Trazado 1002715" d="M200.443,326.381l-3.729-1.554a5.493,5.493,0,0,0,2.712-4.747V313.1a1.1,1.1,0,0,0-1.1-1.1h-4.408a5.516,5.516,0,0,0-5.509,5.509v2.571a5.494,5.494,0,0,0,2.712,4.747l-3.729,1.553a5.5,5.5,0,0,0-3.39,5.086v4.775a1.1,1.1,0,0,0,1.1,1.1h17.63a1.1,1.1,0,0,0,1.1-1.1v-4.775A5.5,5.5,0,0,0,200.443,326.381Zm-9.832-6.3v-2.571a3.309,3.309,0,0,1,3.306-3.306h3.306v5.877a3.3,3.3,0,0,1-2.034,3.051l-1.271.53-1.271-.53A3.3,3.3,0,0,1,190.611,320.08Zm11.019,15.059H186.2v-3.673a3.3,3.3,0,0,1,2.034-3.051l5.679-2.366,5.679,2.366a3.3,3.3,0,0,1,2.034,3.051Z" transform="translate(-144.738 -255.206)" fill="#19538d"/>
        <path id="Trazado_1002716" data-name="Trazado 1002716" d="M85.025,258.086l1.236-1.235a3.284,3.284,0,0,0,.968-2.337v-2.79a3.314,3.314,0,0,0-2.657-3.241l-2.852-.57v-4.606a3.306,3.306,0,1,0-6.611,0v6.155l-.536-.536a3.138,3.138,0,0,0-4.63,4.228l4.064,4.876v4.009a1.1,1.1,0,0,0,1.1,1.1h8.815a1.1,1.1,0,0,0,1.1-1.1Zm-8.815,2.849v-2.2h6.611v2.2Zm8.492-5.643-1.236,1.236H75.624l-3.988-4.786a.934.934,0,0,1,1.378-1.259l2.417,2.417a1.1,1.1,0,0,0,1.881-.779v-8.815a1.1,1.1,0,0,1,2.2,0v5.509a1.1,1.1,0,0,0,.886,1.08l3.738.748a1.1,1.1,0,0,1,.886,1.08v2.79a1.094,1.094,0,0,1-.323.779Z" transform="translate(-45.763 -193.122)" fill="#19538d"/>
        <path id="Trazado_1002717" data-name="Trazado 1002717" d="M140.245,39.935a14.324,14.324,0,1,1,24.687-.22l1.908,1.1a16.528,16.528,0,1,0-28.482.254Z" transform="translate(-103.345)" fill="#19538d"/>
        <path id="Trazado_1002718" data-name="Trazado 1002718" d="M187.019,56a11.019,11.019,0,1,0,11.019,11.019A11.019,11.019,0,0,0,187.019,56Zm0,19.834a8.815,8.815,0,1,1,8.815-8.815A8.815,8.815,0,0,1,187.019,75.834Z" transform="translate(-137.84 -34.465)" fill="#19538d"/>
        <rect id="Rectángulo_458247" data-name="Rectángulo 458247" width="2.204" height="2.204" transform="translate(44.771 28.146)" fill="#19538d"/>
        <rect id="Rectángulo_458248" data-name="Rectángulo 458248" width="2.204" height="2.204" transform="translate(51.382 28.146)" fill="#19538d"/>
        <path id="Trazado_1002719" data-name="Trazado 1002719" d="M228.407,146.2a2.206,2.206,0,0,1-2.2-2.2H224a4.407,4.407,0,0,0,8.815,0h-2.2A2.206,2.206,0,0,1,228.407,146.2Z" transform="translate(-179.229 -110.345)" fill="#19538d"/>
        <path id="Trazado_1002720" data-name="Trazado 1002720" d="M326.611,264.241h2.2v-2.2h5.509a1.1,1.1,0,0,0,1.1-1.1v-6.611a1.1,1.1,0,0,0-1.1-1.1h-5.509v-2.2h5.509a1.1,1.1,0,0,0,1.1-1.1v-6.611a1.1,1.1,0,0,0-1.1-1.1h-5.509V240h-2.2v2.2H321.1a1.1,1.1,0,0,0-1.1,1.1v6.611a1.1,1.1,0,0,0,1.1,1.1h5.509v2.2H321.1a1.1,1.1,0,0,0-1.1,1.1v6.611a1.1,1.1,0,0,0,1.1,1.1h5.509ZM322.2,244.407h11.019v4.407H322.2Zm0,11.019h11.019v4.407H322.2Z" transform="translate(-262.007 -193.122)" fill="#19538d"/>
        <path id="Trazado_1002721" data-name="Trazado 1002721" d="M32.65,238.925a14.323,14.323,0,1,1,13.384-19.44l2.058-.787a16.52,16.52,0,1,0-10.72,21.746l-.629-2.112A14.338,14.338,0,0,1,32.65,238.925Z" transform="translate(0 -165.602)" fill="#19538d"/>
        <path id="Trazado_1002722" data-name="Trazado 1002722" d="M279.324,208a16.534,16.534,0,0,0-15.442,10.626l2.058.787a14.317,14.317,0,1,1,9.291,18.847l-.629,2.112A16.53,16.53,0,1,0,279.324,208Z" transform="translate(-213.618 -165.53)" fill="#19538d"/>
      </g>
    </g>
    <path id="Trazado_998457" data-name="Trazado 998457" d="M21.193,13.724H3.483l2.43-5.5h17.71Z" transform="translate(406.088 4714.021)" fill="#fff"/>
    <path id="Trazado_998459" data-name="Trazado 998459" d="M21.193,13.724H3.483l2.43-5.5h17.71Z" transform="translate(497.088 4790.021)" fill="#fff"/>
    <path id="Trazado_998458" data-name="Trazado 998458" d="M21.193,13.724H3.483l2.43-5.5h17.71Z" transform="translate(401.088 4719.524)" fill="#9ecfff"/>
    <path id="Trazado_998461" data-name="Trazado 998461" d="M18.607,11.366H3.483L4.872,8.221H20Z" transform="translate(494.518 4795.524)" fill="#9ecfff"/>
    <path id="Trazado_998462" data-name="Trazado 998462" d="M18.607,11.366H3.483L4.872,8.221H20Z" transform="translate(497.088 4734.779)" fill="#9ecfff"/>
    <path id="Trazado_998463" data-name="Trazado 998463" d="M18.607,11.366H3.483L4.872,8.221H20Z" transform="translate(402.902 4780.779)" fill="#9ecfff"/>
  </g>
</svg>
