<svg xmlns="http://www.w3.org/2000/svg" xmlns:xlink="http://www.w3.org/1999/xlink" width="129" height="127" viewBox="0 0 129 127">
  <defs>
    <clipPath id="clip-path">
      <rect id="Rectángulo_454807" data-name="Rectángulo 454807" width="129" height="127" transform="translate(399.059 5904)" fill="#9ecfff"/>
    </clipPath>
    <clipPath id="clip-path-2">
      <rect id="Rectángulo_458250" data-name="Rectángulo 458250" width="67.454" height="67.454" fill="#19538d"/>
    </clipPath>
  </defs>
  <g id="Grupo_1182470" data-name="Grupo 1182470" transform="translate(-404.711 -2318.327)">
    <g id="Grupo_1180254" data-name="Grupo 1180254" transform="translate(5.652 -2381.673)">
      <g id="Grupo_1177492" data-name="Grupo 1177492" transform="translate(0 -1204)">
        <rect id="Rectángulo_454806" data-name="Rectángulo 454806" width="129" height="127" transform="translate(399.059 5904)" fill="#9ecfff"/>
        <path id="Rectángulo_454808" data-name="Rectángulo 454808" d="M0,0H79A12,12,0,0,1,91,12V91a0,0,0,0,1,0,0H12A12,12,0,0,1,0,79V0A0,0,0,0,1,0,0Z" transform="translate(418.059 5922)" fill="#fff"/>
        <g id="Grupo_1177491" data-name="Grupo 1177491" transform="translate(13.418 -2497.802)">
          <g id="Grupo_1099776" data-name="Grupo 1099776" transform="translate(412.387 8428.781)">
            <g id="Grupo_1099618" data-name="Grupo 1099618" transform="translate(0 0)">
              <rect id="Rectángulo_401104" data-name="Rectángulo 401104" width="72.17" height="73.039" transform="translate(0)" fill="none"/>
            </g>
          </g>
        </g>
        <g id="Grupo_1182242" data-name="Grupo 1182242" transform="translate(427.805 5933.672)">
          <g id="Grupo_1182242-2" data-name="Grupo 1182242" clip-path="url(#clip-path-2)">
            <path id="Trazado_1002734" data-name="Trazado 1002734" d="M255.613,434.435a.988.988,0,0,1-.988-.988v-5c0-1.155-1.757-2.522-4.272-3.324a.988.988,0,0,1,.6-1.882c2.73.871,5.647,2.7,5.647,5.206v5a.988.988,0,0,1-.988.988m-18.893,0a.988.988,0,0,1-.988-.988v-5c0-2.055,2-3.964,5.341-5.106a.988.988,0,1,1,.639,1.869c-2.395.818-4,2.119-4,3.237v5a.988.988,0,0,1-.988.988" transform="translate(-212.439 -381.381)" fill="#19538d"/>
            <path id="Trazado_1002735" data-name="Trazado 1002735" d="M175.214,583.453h-38.69a.988.988,0,0,1-.988-.988v-7.709a.988.988,0,0,1,.988-.988h38.69a.988.988,0,0,1,.988.988v7.709a.988.988,0,0,1-.988.988m-37.7-1.976h36.714v-5.733H137.512Z" transform="translate(-122.144 -517.075)" fill="#19538d"/>
            <path id="Trazado_1002736" data-name="Trazado 1002736" d="M14.383,458.316H.991A.988.988,0,0,1,0,457.329v-6.663a.988.988,0,0,1,1.976,0v5.675H13.4V447.4a.988.988,0,0,1,1.976,0v9.93a.988.988,0,0,1-.988.988M.991,447.18A.988.988,0,0,1,0,446.192V439.53a4.649,4.649,0,0,1,3.973-4.607.988.988,0,0,1,.3,1.953,2.683,2.683,0,0,0-2.293,2.657v6.659a.988.988,0,0,1-.988.988" transform="translate(-0.003 -391.938)" fill="#19538d"/>
            <path id="Trazado_1002737" data-name="Trazado 1002737" d="M541.48,458.42h-13.4a.988.988,0,0,1-.988-.988V447.5a.988.988,0,0,1,1.975,0v8.943h11.421V450.77a.988.988,0,0,1,1.975,0v6.663a.988.988,0,0,1-.988.988m0-11.137a.988.988,0,0,1-.988-.988v-6.662a2.692,2.692,0,0,0-2.245-2.645.988.988,0,0,1,.332-1.947,4.665,4.665,0,0,1,3.888,4.589V446.3a.988.988,0,0,1-.988.988" transform="translate(-475.014 -392.042)" fill="#19538d"/>
            <path id="Trazado_1002738" data-name="Trazado 1002738" d="M115.472,450.27h-8.2a3.808,3.808,0,0,1-3.026-1.51l-4.38-5.8a.988.988,0,0,1,1.576-1.191l4.381,5.8a1.824,1.824,0,0,0,1.449.724h8.2a1.821,1.821,0,0,0,0-3.641h-6.8a.988.988,0,0,1-.788-.392l-5.307-7.028a1.827,1.827,0,0,0-1.434-.72.988.988,0,0,1,.008-1.975h.008a3.815,3.815,0,0,1,2.995,1.5l5.011,6.636h6.313a3.8,3.8,0,1,1,0,7.592" transform="translate(-89.821 -391.6)" fill="#19538d"/>
            <path id="Trazado_1002739" data-name="Trazado 1002739" d="M396.6,450.246h-8.194a3.8,3.8,0,1,1,0-7.592h6.31l5.011-6.636a3.8,3.8,0,0,1,3.2-1.5.988.988,0,1,1-.087,1.974,1.824,1.824,0,0,0-1.536.722L396,444.237a.988.988,0,0,1-.788.392h-6.8a1.821,1.821,0,1,0,0,3.641h8.2a1.829,1.829,0,0,0,1.452-.724l4.377-5.8a.988.988,0,0,1,1.577,1.19l-4.377,5.8a3.815,3.815,0,0,1-3.029,1.509" transform="translate(-346.605 -391.576)" fill="#19538d"/>
            <path id="Trazado_1002740" data-name="Trazado 1002740" d="M11.478,38.7a.988.988,0,0,1-.987-.988V33.854a6.025,6.025,0,0,1-5-5.905V16.876a6.021,6.021,0,0,1,5.989-5.988H33.168a6.022,6.022,0,0,1,5.992,5.985V27.946a6.021,6.021,0,0,1-5.989,5.992H16.652l-4.476,4.476a.987.987,0,0,1-.7.289M33.166,12.864H11.478A4.04,4.04,0,0,0,7.462,16.88V27.946a4.04,4.04,0,0,0,4.019,4.016.988.988,0,0,1,.985.988V35.33l3.079-3.079a.987.987,0,0,1,.7-.289H33.168a4.04,4.04,0,0,0,4.017-4.019V16.876a4.04,4.04,0,0,0-4.019-4.013" transform="translate(-4.944 -9.812)" fill="#19538d"/>
            <path id="Trazado_1002741" data-name="Trazado 1002741" d="M282.511,113.829a.988.988,0,0,1-.7-.289l-4.476-4.476h-5.4a.988.988,0,0,1,0-1.976h5.807a.988.988,0,0,1,.7.289l3.079,3.079v-2.381a.988.988,0,0,1,.984-.988,2.8,2.8,0,0,0,2.784-2.787V94.788a2.8,2.8,0,0,0-2.783-2.781H264.742a.988.988,0,1,1,0-1.976h17.769a4.778,4.778,0,0,1,4.756,4.753V104.3a4.787,4.787,0,0,1-3.768,4.653v3.884a.988.988,0,0,1-.987.988m-15.047-4.765h-5.822a4.775,4.775,0,0,1-4.745-4.795.988.988,0,0,1,.988-.983h.005a.988.988,0,0,1,.983.993,2.8,2.8,0,0,0,2.78,2.809h5.812a.988.988,0,0,1,0,1.976" transform="translate(-231.513 -81.136)" fill="#19538d"/>
            <path id="Trazado_1002742" data-name="Trazado 1002742" d="M83.46,77.272H74.314a.988.988,0,1,1,0-1.976H83.46a.988.988,0,1,1,0,1.976m9.146-5.2H74.314a.988.988,0,1,1,0-1.976H92.606a.988.988,0,1,1,0,1.976m0-5.2H74.314a.988.988,0,1,1,0-1.976H92.606a.988.988,0,1,1,0,1.976" transform="translate(-66.081 -58.487)" fill="#19538d"/>
            <path id="Trazado_1002743" data-name="Trazado 1002743" d="M281.856,321.658a6.355,6.355,0,0,1-6.324-6.317v-5.717a3.991,3.991,0,0,1,3.973-3.972h7.68a.988.988,0,0,1,.988.988v8.7a6.354,6.354,0,0,1-6.317,6.317m-2.348-14.031a2.01,2.01,0,0,0-2,2v5.711a4.345,4.345,0,1,0,8.69,0v-7.708Zm7.678,7.71h0Z" transform="translate(-248.307 -275.451)" fill="#19538d"/>
            <path id="Trazado_1002744" data-name="Trazado 1002744" d="M20.125,321.658a6.355,6.355,0,0,1-6.324-6.317v-5.717a3.99,3.99,0,0,1,3.969-3.972h4.7a3.99,3.99,0,0,1,3.972,3.969v5.717a6.355,6.355,0,0,1-6.317,6.321m-4.348-6.323a4.345,4.345,0,1,0,8.69,0v-5.711a2.009,2.009,0,0,0-2-2H17.773a2.009,2.009,0,0,0-2,2Zm0,0h0Z" transform="translate(-12.437 -275.451)" fill="#19538d"/>
            <path id="Trazado_1002745" data-name="Trazado 1002745" d="M547.254,321.658a6.352,6.352,0,0,1-6.324-6.318v-5.717a3.986,3.986,0,0,1,3.97-3.972h4.7a3.986,3.986,0,0,1,3.972,3.97v5.719a6.35,6.35,0,0,1-6.314,6.318m2.34-14.031H544.9a2.006,2.006,0,0,0-2,2v5.712a4.343,4.343,0,1,0,8.687,0v-5.713a2.006,2.006,0,0,0-2-2m2.986,7.71h0Z" transform="translate(-487.481 -275.451)" fill="#19538d"/>
            <path id="Trazado_1002746" data-name="Trazado 1002746" d="M17.207,355.961a9.3,9.3,0,0,1-2.711-.455.988.988,0,1,1,.58-1.888c1.7.523,2.99.491,3.829-.1,1.069-.749,1.367-2.378,1.43-3.613A.988.988,0,0,1,22,349.236a3.185,3.185,0,0,0,3.113.576.988.988,0,1,1,.686,1.853,4.919,4.919,0,0,1-3.675-.078,5.41,5.41,0,0,1-2.081,3.553,4.817,4.817,0,0,1-2.831.822" transform="translate(-12.434 -314.488)" fill="#19538d"/>
            <path id="Trazado_1002747" data-name="Trazado 1002747" d="M550.161,355.931a4.814,4.814,0,0,1-2.833-.823,5.4,5.4,0,0,1-2.077-3.551,4.916,4.916,0,0,1-3.674.078.988.988,0,1,1,.687-1.852,3.19,3.19,0,0,0,3.119-.582.985.985,0,0,1,1.655.679c.061,1.234.357,2.862,1.425,3.611.838.588,2.126.621,3.829.1a.988.988,0,1,1,.58,1.888,9.3,9.3,0,0,1-2.711.455" transform="translate(-487.483 -314.458)" fill="#19538d"/>
            <path id="Trazado_1002748" data-name="Trazado 1002748" d="M287.185,355.252H276.52a.988.988,0,0,1,0-1.975h10.666a.988.988,0,0,1,0,1.975" transform="translate(-248.307 -318.37)" fill="#19538d"/>
          </g>
        </g>
      </g>
      <path id="Trazado_998457" data-name="Trazado 998457" d="M21.193,13.724H3.483l2.43-5.5h17.71Z" transform="translate(406.088 4714.021)" fill="#fff"/>
      <path id="Trazado_998459" data-name="Trazado 998459" d="M21.193,13.724H3.483l2.43-5.5h17.71Z" transform="translate(497.088 4790.021)" fill="#fff"/>
      <path id="Trazado_998458" data-name="Trazado 998458" d="M21.193,13.724H3.483l2.43-5.5h17.71Z" transform="translate(401.088 4719.524)" fill="#9ecfff"/>
      <path id="Trazado_998461" data-name="Trazado 998461" d="M18.607,11.366H3.483L4.872,8.221H20Z" transform="translate(494.518 4795.524)" fill="#9ecfff"/>
      <path id="Trazado_998462" data-name="Trazado 998462" d="M18.607,11.366H3.483L4.872,8.221H20Z" transform="translate(497.088 4734.779)" fill="#9ecfff"/>
      <path id="Trazado_998463" data-name="Trazado 998463" d="M18.607,11.366H3.483L4.872,8.221H20Z" transform="translate(402.902 4780.779)" fill="#9ecfff"/>
    </g>
  </g>
</svg>
