<svg xmlns="http://www.w3.org/2000/svg" width="69.323" height="69.323" viewBox="0 0 69.323 69.323">
  <g id="Grupo_1180073" data-name="Grupo 1180073" transform="translate(-918.711 -1228)">
    <rect id="Rectángulo_456278" data-name="Rectángulo 456278" width="69.323" height="69.323" transform="translate(918.711 1228)" fill="#62249e"/>
    <g id="inversion" transform="translate(925.711 1235)">
      <path id="Trazado_1000053" data-name="Trazado 1000053" d="M40.124,32.268A13.134,13.134,0,1,0,27,19.135,13.118,13.118,0,0,0,40.124,32.268Zm.008-22.031a8.9,8.9,0,1,1-6.3,15.193,8.928,8.928,0,0,1,6.3-15.193Z" transform="translate(-3.512 0)" fill="#fff"/>
      <path id="Trazado_1000054" data-name="Trazado 1000054" d="M41.2,27.407a7.2,7.2,0,1,0-7.2-7.2,7.221,7.221,0,0,0,7.2,7.2Zm.525-6.355H40.676a2.419,2.419,0,0,1-.322-4.813c-.21-1.565,1.87-1.607,1.694-.034H43.3a.847.847,0,0,1,0,1.695H40.676a.729.729,0,0,0,0,1.457h1.051a2.419,2.419,0,0,1,.322,4.813c.21,1.565-1.87,1.607-1.694.034H39.1a.847.847,0,0,1,0-1.695h2.627a.729.729,0,0,0,0-1.457Z" transform="translate(-4.581 -1.07)" fill="#fff"/>
      <path id="Trazado_1000055" data-name="Trazado 1000055" d="M9.3,34.1h-3.6A1.7,1.7,0,0,0,4,35.794V48.531a1.7,1.7,0,0,0,1.695,1.695H9.3a2.561,2.561,0,0,0,2.542-2.542V36.506A2.565,2.565,0,0,0,9.3,34.1ZM7.923,39.362a.847.847,0,0,1,0-1.695A.847.847,0,0,1,7.923,39.362Z" transform="translate(0 -4.291)" fill="#fff"/>
      <path id="Trazado_1000056" data-name="Trazado 1000056" d="M52.953,41.538a3.334,3.334,0,0,0-4.068-2.093l-7.449,2.161a5.464,5.464,0,0,1-5.194,7.22H30.014a.848.848,0,0,1,0-1.695h6.228a3.784,3.784,0,0,0,0-7.568H30.115a2.683,2.683,0,0,1-1.432-.415L25.65,37.225A7.858,7.858,0,0,0,21.421,36h-6.3a4.576,4.576,0,0,1,.1.695V47.97a4.3,4.3,0,0,1-.1.932h.72a1.853,1.853,0,0,1,.915.246L23.3,52.962a12.285,12.285,0,0,0,11.465.491l16.473-7.8a3.307,3.307,0,0,0,1.712-4.11Z" transform="translate(-1.699 -4.581)" fill="#fff"/>
    </g>
  </g>
</svg>
