<svg xmlns="http://www.w3.org/2000/svg" width="90" height="90" viewBox="0 0 90 90">
  <g id="Grupo_1180067" data-name="Grupo 1180067" transform="translate(-751.711 -718)">
    <circle id="Elipse_13689" data-name="Elipse 13689" cx="45" cy="45" r="45" transform="translate(751.711 718)" fill="#fff"/>
    <g id="flat" transform="translate(745.711 712)">
      <path id="Trazado_1000013" data-name="Trazado 1000013" d="M353.9,290.943a.948.948,0,0,0-1.271.424l-.166.332a9.418,9.418,0,0,0-7.516-3.7.948.948,0,0,0,0,1.9,7.535,7.535,0,0,1,5.923,2.843h-.237a.948.948,0,1,0,0,1.9h1.9a.948.948,0,0,0,.848-.524l.948-1.9A.948.948,0,0,0,353.9,290.943Z" transform="translate(-282.092 -232.725)" fill="#9cb26d"/>
      <path id="Trazado_1000014" data-name="Trazado 1000014" d="M89.477,288a9.418,9.418,0,0,0-7.516,3.7l-.166-.332a.948.948,0,1,0-1.7.848l.948,1.9a.948.948,0,0,0,.847.523h1.9a.948.948,0,0,0,0-1.9h-.237a7.535,7.535,0,0,1,5.923-2.843.948.948,0,0,0,0-1.9Z" transform="translate(-49.366 -232.725)" fill="#9cb26d"/>
      <path id="Trazado_1000015" data-name="Trazado 1000015" d="M350.634,169.9h.237a7.535,7.535,0,0,1-5.923,2.843.948.948,0,0,0,0,1.9,9.418,9.418,0,0,0,7.516-3.7l.166.332a.948.948,0,0,0,1.7-.848l-.948-1.9a.948.948,0,0,0-.847-.523h-1.9a.948.948,0,1,0,0,1.9Z" transform="translate(-282.092 -126.941)" fill="#9cb26d"/>
      <path id="Trazado_1000016" data-name="Trazado 1000016" d="M275.534,68.771a7.6,7.6,0,0,1,7.849-2.644.948.948,0,1,0,.472-1.836,9.495,9.495,0,0,0-10.185,3.816.948.948,0,0,0-1.56,1.048l.948,1.9a.947.947,0,0,0,1.271.424l1.9-.948a.948.948,0,0,0-.692-1.756Z" transform="translate(-218.632 -35.254)" fill="#b5cf7f"/>
      <path id="Trazado_1000017" data-name="Trazado 1000017" d="M89.476,172.739a7.535,7.535,0,0,1-5.923-2.843h.237a.948.948,0,0,0,0-1.9h-1.9a.948.948,0,0,0-.848.524l-.948,1.9a.948.948,0,1,0,1.7.848l.166-.332a9.418,9.418,0,0,0,7.516,3.7.948.948,0,0,0,0-1.9Z" transform="translate(-49.365 -126.941)" fill="#9cb26d"/>
      <path id="Trazado_1000018" data-name="Trazado 1000018" d="M140.39,67.886a.948.948,0,0,0-1.136.223,9.491,9.491,0,0,0-11.029-3.556.948.948,0,1,0,.642,1.783,7.6,7.6,0,0,1,8.524,2.436.948.948,0,0,0-.692,1.756l1.9.948a.947.947,0,0,0,1.271-.424l.948-1.9A.948.948,0,0,0,140.39,67.886Z" transform="translate(-91.326 -35.256)" fill="#b5cf7f"/>
      <path id="Trazado_1000019" data-name="Trazado 1000019" d="M285.255,389.809a.948.948,0,0,0-1.213-.571,7.6,7.6,0,0,1-8.524-2.436.948.948,0,0,0,.692-1.756l-1.9-.948a.948.948,0,0,0-1.271.424l-.948,1.9a.947.947,0,0,0,1.559,1.048,9.491,9.491,0,0,0,11.03,3.556A.948.948,0,0,0,285.255,389.809Z" transform="translate(-218.617 -317.352)" fill="#b5cf7f"/>
      <path id="Trazado_1000020" data-name="Trazado 1000020" d="M149.993,384.523a.948.948,0,0,0-1.271-.424l-1.9.948a.948.948,0,0,0,.692,1.756,7.535,7.535,0,0,1-5.954,2.883,7.665,7.665,0,0,1-1.361-.122.948.948,0,0,0-.336,1.865,9.562,9.562,0,0,0,1.7.152,9.418,9.418,0,0,0,7.818-4.115.947.947,0,0,0,1.559-1.048Z" transform="translate(-101.453 -317.352)" fill="#b5cf7f"/>
      <path id="Trazado_1000021" data-name="Trazado 1000021" d="M182.745,265.445c0,2.243-5.092,4.062-11.372,4.062S160,267.688,160,265.445v-4.874h22.745Z" transform="translate(-119.889 -208.546)" fill="#5ebef7"/>
      <path id="Trazado_1000022" data-name="Trazado 1000022" d="M182.745,224.3c0,2.243-5.092,4.062-11.372,4.062S160,226.546,160,224.3v-4.874h22.745Z" transform="translate(-119.889 -172.278)" fill="#92d1f7"/>
      <path id="Trazado_1000023" data-name="Trazado 1000023" d="M182.745,183.16c0,2.243-5.092,4.062-11.372,4.062S160,185.4,160,183.16v-4.874h22.745Z" transform="translate(-119.889 -136.009)" fill="#5ebef7"/>
      <ellipse id="Elipse_13691" data-name="Elipse 13691" cx="11.372" cy="4.062" rx="11.372" ry="4.062" transform="translate(40.111 38.216)" fill="#92d1f7"/>
      <g id="Grupo_1180069" data-name="Grupo 1180069" transform="translate(24 24)">
        <path id="Trazado_1000024" data-name="Trazado 1000024" d="M366.689,380.32H353.422A1.422,1.422,0,0,1,352,378.9v-9.477A1.422,1.422,0,0,1,353.422,368h6.16l.948,1.9h6.16a1.422,1.422,0,0,1,1.422,1.422V378.9A1.422,1.422,0,0,1,366.689,380.32Z" transform="translate(-313.144 -327.249)" fill="#ecab2c"/>
        <path id="Trazado_1000025" data-name="Trazado 1000025" d="M38.689,380.32H25.422A1.422,1.422,0,0,1,24,378.9v-9.477A1.422,1.422,0,0,1,25.422,368h6.16l.948,1.9h6.16a1.422,1.422,0,0,1,1.422,1.422V378.9A1.422,1.422,0,0,1,38.689,380.32Z" transform="translate(-24 -327.249)" fill="#ecab2c"/>
        <path id="Trazado_1000026" data-name="Trazado 1000026" d="M366.689,36.32H353.422A1.422,1.422,0,0,1,352,34.9V25.422A1.422,1.422,0,0,1,353.422,24h6.16l.948,1.9h6.16a1.422,1.422,0,0,1,1.422,1.422V34.9A1.422,1.422,0,0,1,366.689,36.32Z" transform="translate(-313.144 -24)" fill="#ecab2c"/>
        <path id="Trazado_1000027" data-name="Trazado 1000027" d="M38.689,36.32H25.422A1.422,1.422,0,0,1,24,34.9V25.422A1.422,1.422,0,0,1,25.422,24h6.16l.948,1.9h6.16a1.422,1.422,0,0,1,1.422,1.422V34.9A1.422,1.422,0,0,1,38.689,36.32Z" transform="translate(-24 -24)" fill="#ecab2c"/>
      </g>
    </g>
  </g>
</svg>
