<svg xmlns="http://www.w3.org/2000/svg" width="65" height="65" viewBox="0 0 65 65">
  <g id="Grupo_1180158" data-name="Grupo 1180158" transform="translate(-276.711 -8118)">
    <path id="Trazado_999702" data-name="Trazado 999702" d="M0,0H65V65H0Z" transform="translate(276.711 8118)" fill="#19538d"/>
    <g id="estudiar" transform="translate(289.711 8131)">
      <g id="Grupo_1180146" data-name="Grupo 1180146" transform="translate(12.936)">
        <g id="Grupo_1180145" data-name="Grupo 1180145">
          <path id="Trazado_1000327" data-name="Trazado 1000327" d="M173.013,0a7.052,7.052,0,1,0,7.013,7.091A7.088,7.088,0,0,0,173.013,0Z" transform="translate(-166)" fill="#fff"/>
        </g>
      </g>
      <g id="Grupo_1180148" data-name="Grupo 1180148" transform="translate(12.921 14.105)">
        <g id="Grupo_1180147" data-name="Grupo 1180147">
          <path id="Trazado_1000328" data-name="Trazado 1000328" d="M175.176,181H170.5a10.482,10.482,0,0,0-4.69,1.151,29.33,29.33,0,0,1,7.028,2.912,29.331,29.331,0,0,1,7.028-2.912A10.482,10.482,0,0,0,175.176,181Z" transform="translate(-165.81 -181)" fill="#fff"/>
        </g>
      </g>
      <g id="Grupo_1180150" data-name="Grupo 1180150" transform="translate(35.223 21.118)">
        <g id="Grupo_1180149" data-name="Grupo 1180149">
          <path id="Trazado_1000329" data-name="Trazado 1000329" d="M454.338,271A2.338,2.338,0,0,0,452,273.338v4.676a2.338,2.338,0,0,0,4.676,0v-4.676A2.338,2.338,0,0,0,454.338,271Z" transform="translate(-452 -271)" fill="#fff"/>
        </g>
      </g>
      <g id="Grupo_1180152" data-name="Grupo 1180152" transform="translate(0 21.118)">
        <g id="Grupo_1180151" data-name="Grupo 1180151">
          <path id="Trazado_1000330" data-name="Trazado 1000330" d="M2.338,271A2.338,2.338,0,0,0,0,273.338v4.676a2.338,2.338,0,0,0,4.676,0v-4.676A2.338,2.338,0,0,0,2.338,271Z" transform="translate(0 -271)" fill="#fff"/>
        </g>
      </g>
      <g id="Grupo_1180154" data-name="Grupo 1180154" transform="translate(2.338 16.443)">
        <g id="Grupo_1180153" data-name="Grupo 1180153">
          <path id="Trazado_1000331" data-name="Trazado 1000331" d="M31.169,211A1.168,1.168,0,0,0,30,212.169v1.169a4.68,4.68,0,0,1,4.676,4.676v4.676A4.68,4.68,0,0,1,30,227.365v1.169a1.168,1.168,0,0,0,1.169,1.169,27.411,27.411,0,0,1,15.274,4.754V214.787A29.483,29.483,0,0,0,31.169,211Z" transform="translate(-30 -211)" fill="#fff"/>
        </g>
      </g>
      <g id="Grupo_1180156" data-name="Grupo 1180156" transform="translate(21.118 16.443)">
        <g id="Grupo_1180155" data-name="Grupo 1180155">
          <path id="Trazado_1000332" data-name="Trazado 1000332" d="M287.443,213.338v-1.169A1.168,1.168,0,0,0,286.274,211,29.483,29.483,0,0,0,271,214.787v19.669a27.411,27.411,0,0,1,15.274-4.754,1.168,1.168,0,0,0,1.169-1.169v-1.169a4.68,4.68,0,0,1-4.676-4.676v-4.676A4.68,4.68,0,0,1,287.443,213.338Z" transform="translate(-271 -211)" fill="#fff"/>
        </g>
      </g>
    </g>
  </g>
</svg>
