<svg xmlns="http://www.w3.org/2000/svg" xmlns:xlink="http://www.w3.org/1999/xlink" width="96" height="96" viewBox="0 0 96 96">
  <defs>
    <clipPath id="clip-path">
      <rect id="Rectángulo_455533" data-name="Rectángulo 455533" width="95.999" height="92.163" fill="#19538d"/>
    </clipPath>
  </defs>
  <g id="Grupo_1181716" data-name="Grupo 1181716" transform="translate(-383.746 -8399)">
    <circle id="Elipse_13674" data-name="Elipse 13674" cx="41.5" cy="41.5" r="41.5" transform="translate(389.746 8406)" fill="#19538d"/>
    <g id="Grupo_1179062" data-name="Grupo 1179062" transform="translate(383.745 8399)">
      <rect id="Rectángulo_455531" data-name="Rectángulo 455531" width="96" height="96" transform="translate(0 0)" fill="none"/>
      <g id="Grupo_1179061" data-name="Grupo 1179061" transform="translate(0 2.203)">
        <path id="Trazado_998445" data-name="Trazado 998445" d="M114.467,95.838H96.727l2.4-4.484h17.739Z" transform="translate(-23.693 -22.7)" fill="#19538d"/>
        <path id="Trazado_998446" data-name="Trazado 998446" d="M1.458,86.893,0,89.861H19.558l1.458-2.968Z" transform="translate(0 -21.618)" fill="#19538d"/>
        <path id="Trazado_998447" data-name="Trazado 998447" d="M117.539,31.293H98.809l1.469-3.326h18.73Z" transform="translate(-24.246 -6.956)" fill="#19538d"/>
        <path id="Trazado_998448" data-name="Trazado 998448" d="M28.088,11.547H3.483L4.952,8.221H29.557Z" transform="translate(-0.925 -2.184)" fill="#19538d"/>
        <g id="Grupo_1179060" data-name="Grupo 1179060" transform="translate(0)">
          <g id="Grupo_1179059" data-name="Grupo 1179059" clip-path="url(#clip-path)">
            <path id="Trazado_998449" data-name="Trazado 998449" d="M48.653,99.141a40.772,40.772,0,0,1-39.711-49.9H3.518A46.036,46.036,0,0,0,84.512,87.248h-7.1A40.6,40.6,0,0,1,48.653,99.141" transform="translate(-0.653 -12.277)" fill="#19538d"/>
            <path id="Trazado_998450" data-name="Trazado 998450" d="M110.835,87.933h6.025c.484-.964.923-1.952,1.34-2.953h-5.792c-.487,1.007-1.008,1.994-1.573,2.953" transform="translate(-27.709 -21.189)" fill="#19538d"/>
            <path id="Trazado_998451" data-name="Trazado 998451" d="M95.384,46.081a46.043,46.043,0,0,0-90.011-13.7h5.589A40.752,40.752,0,1,1,87.147,61.291h5.644a45.915,45.915,0,0,0,2.592-15.209" transform="translate(-1.343)" fill="#19538d"/>
            <path id="Trazado_998452" data-name="Trazado 998452" d="M108.562,81.649v2.5h3.277q.594-1.228,1.106-2.5Z" transform="translate(-27.141 -20.358)" fill="#19538d"/>
            <path id="Trazado_998453" data-name="Trazado 998453" d="M126.164,81.649h-4.551q-.444,1.268-.958,2.5h5.509Z" transform="translate(-30.164 -20.358)" fill="#19538d"/>
          </g>
        </g>
        <path id="Trazado_998444" data-name="Trazado 998444" d="M2.2,37.025,0,41.509H13.317l2.2-4.484Z" transform="translate(0 -9.2)" fill="#19538d"/>
      </g>
    </g>
    <g id="Grupo_1177669" data-name="Grupo 1177669" transform="translate(403.444 8418.662)">
      <g id="Grupo_1099618" data-name="Grupo 1099618" transform="translate(0 0)">
        <rect id="Rectángulo_401104" data-name="Rectángulo 401104" width="56.349" height="57.028" transform="translate(0)" fill="none"/>
      </g>
      <path id="toma-de-decisiones" d="M34.892,104.224a6.5,6.5,0,0,1,3.286,12.109l4.472,4.472h7.716a2.938,2.938,0,0,1,2.937,2.856h1.919V106.834a3.142,3.142,0,0,1,3.222-3.034H71.552a3.142,3.142,0,0,1,3.222,3.034v16.827h1.975a1.721,1.721,0,0,1,1.716,1.716v2.711a1.718,1.718,0,0,1-.505,1.208v0a1.711,1.711,0,0,1-1.212.5H43.478a1.722,1.722,0,0,1-1.712-1.712v-1.41h-.331v0a2.927,2.927,0,0,1-2.1-.881v3.57a.891.891,0,0,0,.888.888H42a3.23,3.23,0,0,1,3.229,3.229v12.98a3.231,3.231,0,0,1-6.461,0v-5.489a8.026,8.026,0,0,1-1.748.118v8.845a2.172,2.172,0,0,1-2.17,2.167c-.97,0-1.766.118-2.519-.635a2.159,2.159,0,0,1-.639-1.531V141.08H28.282v8.856a2.172,2.172,0,0,1-2.17,2.167c-.97,0-1.766.118-2.519-.635a2.159,2.159,0,0,1-.639-1.531V139.748a5.288,5.288,0,0,1-2.383-4.3V125.339a3.235,3.235,0,0,1,4.771-2.842v-3.065a4.8,4.8,0,0,1,4.376-4.771,6.5,6.5,0,0,1,5.175-10.437Zm1.481,12.83a6.362,6.362,0,0,1-1.481.17,6.441,6.441,0,0,1-3.175-.827H30.129A3.046,3.046,0,0,0,27.1,119.43v11.815c0,.231.008.455.029.672a3.273,3.273,0,0,0,1.919,2.782,3.444,3.444,0,0,0,1.048.2l6.419.06H37.93a2.585,2.585,0,0,1,.86.145,2.155,2.155,0,0,1,1.556,1.514,2.457,2.457,0,0,1,.17.81,7.69,7.69,0,0,1,0,1.574v7.46a1.476,1.476,0,1,0,2.952,0V133.479A1.474,1.474,0,0,0,42,132.006H40.227a2.647,2.647,0,0,1-2.643-2.643v-5.325l-2.974-2.974a.876.876,0,1,1,1.239-1.239l4.753,4.753a1.171,1.171,0,0,0,.835.348v0h8.93a1.181,1.181,0,1,0,0-2.362H42.29a.906.906,0,0,1-.622-.259l-4.355-4.358A12.026,12.026,0,0,0,36.373,117.053Zm1.876-9.687a4.749,4.749,0,1,0,1.39,3.357A4.745,4.745,0,0,0,38.249,107.366Zm14.528,18.049a2.935,2.935,0,0,1-2.412,1.261H43.52v1.367H76.708v-2.629H52.777ZM38.764,139v-1.321c-.118-.739-.472-.927-.863-.962l-1.026,0H30.807a8.225,8.225,0,0,1-1.477-.128c-4.436-.625-4.209-5.247-4.039-8.7a16.294,16.294,0,0,0,.008-2.358.847.847,0,0,1-.021-.188,1.476,1.476,0,1,0-2.952,0v10.107c0,2.32,2.571,3.878,4.7,3.878h9.108C36.619,139.323,38.764,139.472,38.764,139Zm-3.5,2.078H33.444v8.856a.417.417,0,0,0,.416.412h.987a.418.418,0,0,0,.416-.412v-8.856Zm-8.736-.021a7.177,7.177,0,0,1-1.818-.4v9.275a.417.417,0,0,0,.416.412h.987a.418.418,0,0,0,.416-.412v-8.877Zm40.321-24.574a.876.876,0,0,1,1.239,1.239l-1.851,1.851,1.851,1.855a.876.876,0,1,1-1.239,1.239L65,120.815l-1.851,1.851a.876.876,0,1,1-1.239-1.239l1.851-1.855-1.851-1.851a.876.876,0,0,1,1.239-1.239L65,118.333Zm-5.4-6.177a.876.876,0,1,1,1.239-1.239l1.89,1.89,2.589-4.49a.876.876,0,0,1,1.516.877l-3.133,5.425a.876.876,0,0,1-1.407.234Zm10.1-4.749H58.444a1.392,1.392,0,0,0-1.471,1.278v6.9H73.022v-6.9A1.39,1.39,0,0,0,71.552,105.556Zm1.47,18.105v-8.177H56.973v8.177Z" transform="translate(-21.162 -98.061)" fill="#fff"/>
    </g>
  </g>
</svg>
