<svg xmlns="http://www.w3.org/2000/svg" xmlns:xlink="http://www.w3.org/1999/xlink" width="1020" height="481.896" viewBox="0 0 1020 481.896">
  <defs>
    <clipPath id="clip-path">
      <path id="Trazado_1001523" data-name="Trazado 1001523" d="M15.845,0h988.311C1012.906,0,1020,7.472,1020,16.689V465.208c0,9.217-7.094,16.689-15.845,16.689H15.845C7.094,481.9,0,474.425,0,465.208V16.689C0,7.472,7.094,0,15.845,0Z" transform="translate(0 0)" fill="#dfefff"/>
    </clipPath>
  </defs>
  <g id="Grupo_1182464" data-name="Grupo 1182464" transform="translate(-290 -14109.375)">
    <g id="Grupo_1182463" data-name="Grupo 1182463">
      <g id="Grupo_1182461" data-name="Grupo 1182461">
        <g id="Grupo_1181710" data-name="Grupo 1181710">
          <g id="Grupo_1181709" data-name="Grupo 1181709">
            <g id="Enmascarar_grupo_1178534" data-name="Enmascarar grupo 1178534" transform="translate(290 14109.375)" clip-path="url(#clip-path)">
              <path id="Trazado_1001522" data-name="Trazado 1001522" d="M0,0H1039.806V504.844H0Z" transform="translate(-8.913 -12.517)" fill="#dfefff"/>
            </g>
            <rect id="Rectángulo_457104" data-name="Rectángulo 457104" width="604" height="56" transform="translate(498 14514.791)" fill="#f1e2ff"/>
            <g id="Trazado_1001526" data-name="Trazado 1001526" transform="translate(180.422 24717.943)" fill="#9ecfff">
              <path d="M 433 -10452.87890625 L 156.2890625 -10452.87890625 L 156.2890625 -10497.779296875 L 433 -10497.779296875 L 433 -10452.87890625 Z" stroke="none"/>
              <path d="M 432 -10453.87890625 L 432 -10496.779296875 L 157.2890625 -10496.779296875 L 157.2890625 -10453.87890625 L 432 -10453.87890625 M 434 -10451.87890625 L 155.2890625 -10451.87890625 L 155.2890625 -10498.779296875 L 434 -10498.779296875 L 434 -10451.87890625 Z" stroke="none" fill="#19538d"/>
            </g>
            <g id="Trazado_1001527" data-name="Trazado 1001527" transform="translate(505.422 24717.943)" fill="#9ecfff">
              <path d="M 433 -10452.87890625 L 156.2890625 -10452.87890625 L 156.2890625 -10497.779296875 L 433 -10497.779296875 L 433 -10452.87890625 Z" stroke="none"/>
              <path d="M 432 -10453.87890625 L 432 -10496.779296875 L 157.2890625 -10496.779296875 L 157.2890625 -10453.87890625 L 432 -10453.87890625 M 434 -10451.87890625 L 155.2890625 -10451.87890625 L 155.2890625 -10498.779296875 L 434 -10498.779296875 L 434 -10451.87890625 Z" stroke="none" fill="#19538d"/>
            </g>
            <g id="Trazado_1001528" data-name="Trazado 1001528" transform="translate(831.422 24717.943)" fill="#9ecfff">
              <path d="M 433 -10452.87890625 L 156.2890625 -10452.87890625 L 156.2890625 -10497.779296875 L 433 -10497.779296875 L 433 -10452.87890625 Z" stroke="none"/>
              <path d="M 432 -10453.87890625 L 432 -10496.779296875 L 157.2890625 -10496.779296875 L 157.2890625 -10453.87890625 L 432 -10453.87890625 M 434 -10451.87890625 L 155.2890625 -10451.87890625 L 155.2890625 -10498.779296875 L 434 -10498.779296875 L 434 -10451.87890625 Z" stroke="none" fill="#19538d"/>
            </g>
            <rect id="Rectángulo_457107" data-name="Rectángulo 457107" width="278.711" height="232.454" transform="translate(335.711 14262.254)" fill="#fff"/>
            <rect id="Rectángulo_457115" data-name="Rectángulo 457115" width="278.711" height="232.454" transform="translate(660.645 14262.254)" fill="#fff"/>
            <rect id="Rectángulo_457116" data-name="Rectángulo 457116" width="278.711" height="232.454" transform="translate(986.711 14262.254)" fill="#fff"/>
            <path id="Trazado_1003055" data-name="Trazado 1003055" d="M118.768,15.117h4.977V17h-7.32V5.625h2.344ZM127.322,17h-2.266V8.547h2.266Zm-2.4-10.641a1.112,1.112,0,0,1,.34-.836,1.465,1.465,0,0,1,1.848,0,1.105,1.105,0,0,1,.344.836,1.108,1.108,0,0,1-.348.844,1.448,1.448,0,0,1-1.836,0A1.108,1.108,0,0,1,124.924,6.359ZM136.8,12.852a5.119,5.119,0,0,1-.867,3.168,2.872,2.872,0,0,1-2.422,1.137,2.639,2.639,0,0,1-2.2-1.055l-.1.9h-2.031V5h2.258V9.3a2.571,2.571,0,0,1,2.055-.914,2.9,2.9,0,0,1,2.426,1.137,5.126,5.126,0,0,1,.879,3.2Zm-2.258-.164a3.363,3.363,0,0,0-.406-1.871,1.374,1.374,0,0,0-1.211-.59,1.489,1.489,0,0,0-1.484.883v3.336a1.509,1.509,0,0,0,1.5.891,1.394,1.394,0,0,0,1.438-1.078A5.562,5.562,0,0,0,134.541,12.688Zm8.4-2.023a6.134,6.134,0,0,0-.812-.062,1.654,1.654,0,0,0-1.68.867V17h-2.258V8.547h2.133l.063,1.008a2.092,2.092,0,0,1,1.883-1.164,2.366,2.366,0,0,1,.7.1Zm.453,2.031a5.013,5.013,0,0,1,.484-2.242,3.546,3.546,0,0,1,1.395-1.523,4.069,4.069,0,0,1,2.113-.539,3.849,3.849,0,0,1,2.793,1.047,4.2,4.2,0,0,1,1.207,2.844l.016.578a4.418,4.418,0,0,1-1.086,3.121,4.209,4.209,0,0,1-5.832,0,4.5,4.5,0,0,1-1.09-3.187Zm2.258.16A3.16,3.16,0,0,0,146.1,14.7a1.628,1.628,0,0,0,2.578.008,3.457,3.457,0,0,0,.461-2.015,3.128,3.128,0,0,0-.461-1.831,1.5,1.5,0,0,0-1.3-.649,1.474,1.474,0,0,0-1.281.646A3.516,3.516,0,0,0,145.65,12.856Z" transform="translate(341.711 14233.164)" fill="#12263f"/>
            <path id="Trazado_1003059" data-name="Trazado 1003059" d="M14.182,17H11.924V8.3l-2.7.836V7.3l4.711-1.687h.242Zm3.906-1.109a1.137,1.137,0,0,1,.363-.875,1.412,1.412,0,0,1,1.828,0,1.137,1.137,0,0,1,.363.875,1.121,1.121,0,0,1-.359.863,1.435,1.435,0,0,1-1.836,0A1.121,1.121,0,0,1,18.088,15.891Zm4.648,0a1.137,1.137,0,0,1,.363-.875,1.412,1.412,0,0,1,1.828,0,1.137,1.137,0,0,1,.363.875,1.121,1.121,0,0,1-.359.863,1.435,1.435,0,0,1-1.836,0A1.121,1.121,0,0,1,22.736,15.891Zm4.648,0a1.137,1.137,0,0,1,.363-.875,1.412,1.412,0,0,1,1.828,0,1.137,1.137,0,0,1,.363.875,1.121,1.121,0,0,1-.359.863,1.435,1.435,0,0,1-1.836,0A1.121,1.121,0,0,1,27.385,15.891Zm6.328-6.41L31.26,8.786l.461-1.413,2.43.976-.156-2.724h1.531L35.369,8.4l2.367-.96L38.2,8.872l-2.5.695,1.641,2.078-1.242.883-1.422-2.281-1.406,2.2-1.242-.844Z" transform="translate(614.422 14233.164)" fill="#62249e"/>
            <path id="Trazado_1003060" data-name="Trazado 1003060" d="M16.354,12.3a5.763,5.763,0,0,1-.977,3.609,3.409,3.409,0,0,1-2.859,1.25A3.433,3.433,0,0,1,9.674,15.93a5.594,5.594,0,0,1-1.008-3.516V10.32A5.687,5.687,0,0,1,9.654,6.7,3.434,3.434,0,0,1,12.5,5.469a3.437,3.437,0,0,1,2.844,1.223A5.576,5.576,0,0,1,16.354,10.2ZM14.1,9.995a4.165,4.165,0,0,0-.387-2.061A1.307,1.307,0,0,0,12.5,7.289a1.284,1.284,0,0,0-1.176.614,3.9,3.9,0,0,0-.4,1.92v2.768a4.372,4.372,0,0,0,.379,2.068,1.29,1.29,0,0,0,1.215.676,1.268,1.268,0,0,0,1.2-.649A4.268,4.268,0,0,0,14.1,12.7Zm3.992,5.9a1.137,1.137,0,0,1,.363-.875,1.412,1.412,0,0,1,1.828,0,1.137,1.137,0,0,1,.363.875,1.121,1.121,0,0,1-.359.863,1.435,1.435,0,0,1-1.836,0A1.121,1.121,0,0,1,18.088,15.891Zm4.648,0a1.137,1.137,0,0,1,.363-.875,1.412,1.412,0,0,1,1.828,0,1.137,1.137,0,0,1,.363.875,1.121,1.121,0,0,1-.359.863,1.435,1.435,0,0,1-1.836,0A1.121,1.121,0,0,1,22.736,15.891Zm4.648,0a1.137,1.137,0,0,1,.363-.875,1.412,1.412,0,0,1,1.828,0,1.137,1.137,0,0,1,.363.875,1.121,1.121,0,0,1-.359.863,1.435,1.435,0,0,1-1.836,0A1.121,1.121,0,0,1,27.385,15.891Zm6.328-6.41L31.26,8.786l.461-1.413,2.43.976-.156-2.724h1.531L35.369,8.4l2.367-.96L38.2,8.872l-2.5.695,1.641,2.078-1.242.883-1.422-2.281-1.406,2.2-1.242-.844Z" transform="translate(940.925 14233.164)" fill="#62249e"/>
            <path id="Trazado_1003056" data-name="Trazado 1003056" d="M102.068,12.992V17H99.725V5.625h4.438a5.134,5.134,0,0,1,2.254.469,3.454,3.454,0,0,1,1.5,1.332,3.714,3.714,0,0,1,.523,1.965,3.266,3.266,0,0,1-1.145,2.637,4.767,4.767,0,0,1-3.168.965Zm0-1.9h2.094a2.059,2.059,0,0,0,1.418-.437,1.591,1.591,0,0,0,.488-1.25,1.876,1.876,0,0,0-.492-1.352,1.839,1.839,0,0,0-1.359-.531h-2.148Zm12.578-.43a6.134,6.134,0,0,0-.812-.062,1.654,1.654,0,0,0-1.68.867V17H109.9V8.547h2.133l.063,1.008a2.092,2.092,0,0,1,1.883-1.164,2.366,2.366,0,0,1,.7.1Zm4.977,6.492a4.15,4.15,0,0,1-3.027-1.141,4.054,4.054,0,0,1-1.168-3.039v-.219a5.106,5.106,0,0,1,.492-2.277,3.612,3.612,0,0,1,1.395-1.547,3.914,3.914,0,0,1,2.059-.543,3.508,3.508,0,0,1,2.73,1.094,4.444,4.444,0,0,1,1,3.1v.922h-5.383a2.1,2.1,0,0,0,.66,1.328,2,2,0,0,0,1.395.5,2.437,2.437,0,0,0,2.039-.945l1.109,1.242a3.389,3.389,0,0,1-1.375,1.121A4.511,4.511,0,0,1,119.623,17.156Zm-.258-6.945a1.411,1.411,0,0,0-1.09.455,2.357,2.357,0,0,0-.535,1.3h3.141v-.181a1.681,1.681,0,0,0-.406-1.165A1.456,1.456,0,0,0,119.365,10.211Zm.2-5.211h2.461l-2.164,2.422h-1.836Zm9.391,9.664a.727.727,0,0,0-.41-.652,4.659,4.659,0,0,0-1.316-.426q-3.016-.633-3.016-2.562a2.323,2.323,0,0,1,.934-1.879,3.766,3.766,0,0,1,2.441-.754,4.053,4.053,0,0,1,2.574.758,2.388,2.388,0,0,1,.965,1.969h-2.258a1.092,1.092,0,0,0-.312-.8,1.322,1.322,0,0,0-.977-.316,1.351,1.351,0,0,0-.883.258.814.814,0,0,0-.312.656.7.7,0,0,0,.355.605,3.657,3.657,0,0,0,1.2.4,9.8,9.8,0,0,1,1.422.379,2.336,2.336,0,0,1,1.789,2.273,2.205,2.205,0,0,1-.992,1.871,4.28,4.28,0,0,1-2.562.715,4.47,4.47,0,0,1-1.887-.379,3.166,3.166,0,0,1-1.293-1.039,2.414,2.414,0,0,1-.469-1.426h2.141a1.179,1.179,0,0,0,.445.922,1.766,1.766,0,0,0,1.109.32,1.635,1.635,0,0,0,.98-.246A.766.766,0,0,0,128.959,14.664Zm6.352-8.2V8.547h1.445V10.2h-1.445v4.219a1.007,1.007,0,0,0,.18.672.9.9,0,0,0,.688.2,3.6,3.6,0,0,0,.664-.055v1.711a4.648,4.648,0,0,1-1.367.2,2.156,2.156,0,0,1-2.422-2.4V10.2h-1.234V8.547h1.234V6.469ZM142.912,17a2.507,2.507,0,0,1-.227-.758,2.732,2.732,0,0,1-2.133.914,3,3,0,0,1-2.059-.719,2.312,2.312,0,0,1-.816-1.812,2.389,2.389,0,0,1,1-2.062,4.915,4.915,0,0,1,2.879-.727h1.039v-.484a1.393,1.393,0,0,0-.3-.937,1.183,1.183,0,0,0-.949-.352,1.345,1.345,0,0,0-.895.273.929.929,0,0,0-.324.75h-2.258a2.268,2.268,0,0,1,.453-1.359,3,3,0,0,1,1.281-.98,4.669,4.669,0,0,1,1.859-.355,3.689,3.689,0,0,1,2.48.785,2.747,2.747,0,0,1,.918,2.207v3.664a4.041,4.041,0,0,0,.336,1.82V17Zm-1.867-1.57a1.945,1.945,0,0,0,.922-.223,1.462,1.462,0,0,0,.625-.6V13.156h-.844q-1.7,0-1.8,1.172l-.008.133a.9.9,0,0,0,.3.7A1.153,1.153,0,0,0,141.045,15.43Zm7.664-6.883.07.945a2.971,2.971,0,0,1,2.43-1.1,2.255,2.255,0,0,1,2.242,1.289,2.9,2.9,0,0,1,2.539-1.289,2.521,2.521,0,0,1,2.047.8,3.681,3.681,0,0,1,.672,2.41V17h-2.266V11.609a1.61,1.61,0,0,0-.281-1.051,1.246,1.246,0,0,0-.992-.332,1.409,1.409,0,0,0-1.406.969l.008,5.8h-2.258V11.617a1.59,1.59,0,0,0-.289-1.062,1.259,1.259,0,0,0-.984-.328,1.463,1.463,0,0,0-1.391.8V17h-2.258V8.547ZM160.092,12.7a5.013,5.013,0,0,1,.484-2.242,3.546,3.546,0,0,1,1.395-1.523,4.069,4.069,0,0,1,2.113-.539,3.849,3.849,0,0,1,2.793,1.047,4.2,4.2,0,0,1,1.207,2.844l.016.578a4.418,4.418,0,0,1-1.086,3.121,4.209,4.209,0,0,1-5.832,0,4.5,4.5,0,0,1-1.09-3.187Zm2.258.16A3.16,3.16,0,0,0,162.8,14.7a1.628,1.628,0,0,0,2.578.008,3.457,3.457,0,0,0,.461-2.015,3.128,3.128,0,0,0-.461-1.831,1.5,1.5,0,0,0-1.3-.649,1.474,1.474,0,0,0-1.281.646A3.516,3.516,0,0,0,162.35,12.856Z" transform="translate(666.645 14233.164)" fill="#12263f"/>
            <path id="Trazado_1003057" data-name="Trazado 1003057" d="M103.307,12.07h-4.5v3.047h5.281V17H96.463V5.625h7.609v1.9H98.807v2.711h4.5Zm6.586,2.594a.727.727,0,0,0-.41-.652,4.659,4.659,0,0,0-1.316-.426q-3.016-.633-3.016-2.562a2.323,2.323,0,0,1,.934-1.879,3.766,3.766,0,0,1,2.441-.754,4.053,4.053,0,0,1,2.574.758,2.388,2.388,0,0,1,.965,1.969h-2.258a1.092,1.092,0,0,0-.312-.8,1.322,1.322,0,0,0-.977-.316,1.351,1.351,0,0,0-.883.258.814.814,0,0,0-.312.656.7.7,0,0,0,.355.605,3.657,3.657,0,0,0,1.2.4,9.8,9.8,0,0,1,1.422.379,2.336,2.336,0,0,1,1.789,2.273,2.2,2.2,0,0,1-.992,1.871,4.28,4.28,0,0,1-2.562.715,4.47,4.47,0,0,1-1.887-.379,3.166,3.166,0,0,1-1.293-1.039,2.414,2.414,0,0,1-.469-1.426h2.141a1.179,1.179,0,0,0,.445.922,1.766,1.766,0,0,0,1.109.32,1.635,1.635,0,0,0,.98-.246A.766.766,0,0,0,109.893,14.664Zm6.352-8.2V8.547h1.445V10.2h-1.445v4.219a1.007,1.007,0,0,0,.18.672.9.9,0,0,0,.688.2,3.6,3.6,0,0,0,.664-.055v1.711a4.648,4.648,0,0,1-1.367.2,2.156,2.156,0,0,1-2.422-2.4V10.2h-1.234V8.547h1.234V6.469Zm7.766,9.672a2.831,2.831,0,0,1-2.312,1.016,2.67,2.67,0,0,1-2.074-.781,3.335,3.335,0,0,1-.73-2.289V8.547h2.258v5.467q0,1.322,1.2,1.322a1.63,1.63,0,0,0,1.578-.8V8.547H126.2V17h-2.125Zm3.539-3.43a5.094,5.094,0,0,1,.887-3.148,2.877,2.877,0,0,1,2.426-1.172,2.589,2.589,0,0,1,2.039.922V5h2.266V17h-2.039l-.109-.9a2.657,2.657,0,0,1-2.172,1.055,2.869,2.869,0,0,1-2.395-1.176A5.258,5.258,0,0,1,127.549,12.711Zm2.258.168a3.337,3.337,0,0,0,.414,1.823,1.349,1.349,0,0,0,1.2.634,1.511,1.511,0,0,0,1.477-.884V11.111a1.489,1.489,0,0,0-1.461-.884Q129.807,10.227,129.807,12.879ZM139.3,17h-2.266V8.547H139.3ZM136.9,6.359a1.112,1.112,0,0,1,.34-.836,1.465,1.465,0,0,1,1.848,0,1.105,1.105,0,0,1,.344.836,1.109,1.109,0,0,1-.348.844,1.448,1.448,0,0,1-1.836,0A1.109,1.109,0,0,1,136.9,6.359ZM146.057,17a2.507,2.507,0,0,1-.227-.758,2.732,2.732,0,0,1-2.133.914,3,3,0,0,1-2.059-.719,2.312,2.312,0,0,1-.816-1.812,2.389,2.389,0,0,1,1-2.062,4.915,4.915,0,0,1,2.879-.727h1.039v-.484a1.393,1.393,0,0,0-.3-.937,1.183,1.183,0,0,0-.949-.352,1.345,1.345,0,0,0-.895.273.929.929,0,0,0-.324.75H141.01a2.268,2.268,0,0,1,.453-1.359,3,3,0,0,1,1.281-.98,4.669,4.669,0,0,1,1.859-.355,3.689,3.689,0,0,1,2.48.785A2.747,2.747,0,0,1,148,11.383v3.664a4.041,4.041,0,0,0,.336,1.82V17Zm-1.867-1.57a1.945,1.945,0,0,0,.922-.223,1.462,1.462,0,0,0,.625-.6V13.156h-.844q-1.7,0-1.8,1.172l-.008.133a.9.9,0,0,0,.3.7A1.153,1.153,0,0,0,144.189,15.43Zm7.625-6.883.07.977a2.951,2.951,0,0,1,2.43-1.133,2.453,2.453,0,0,1,2,.789,3.682,3.682,0,0,1,.672,2.359V17h-2.258V11.594a1.465,1.465,0,0,0-.312-1.043,1.4,1.4,0,0,0-1.039-.324,1.553,1.553,0,0,0-1.43.813V17h-2.258V8.547ZM161.4,6.469V8.547h1.445V10.2H161.4v4.219a1.007,1.007,0,0,0,.18.672.9.9,0,0,0,.688.2,3.6,3.6,0,0,0,.664-.055v1.711a4.648,4.648,0,0,1-1.367.2,2.156,2.156,0,0,1-2.422-2.4V10.2h-1.234V8.547h1.234V6.469Zm6.594,10.688a4.15,4.15,0,0,1-3.027-1.141,4.054,4.054,0,0,1-1.168-3.039v-.219a5.106,5.106,0,0,1,.492-2.277,3.612,3.612,0,0,1,1.395-1.547,3.914,3.914,0,0,1,2.059-.543,3.508,3.508,0,0,1,2.73,1.094,4.444,4.444,0,0,1,1,3.1v.922h-5.383a2.1,2.1,0,0,0,.66,1.328,2,2,0,0,0,1.395.5,2.437,2.437,0,0,0,2.039-.945l1.109,1.242a3.389,3.389,0,0,1-1.375,1.121A4.511,4.511,0,0,1,167.994,17.156Zm-.258-6.945a1.411,1.411,0,0,0-1.09.455,2.357,2.357,0,0,0-.535,1.3h3.141v-.181a1.681,1.681,0,0,0-.406-1.165A1.456,1.456,0,0,0,167.736,10.211Z" transform="translate(992.711 14233.164)" fill="#12263f"/>
            <text id="_-_isbn:_String_-_título:_String_-_autor:_String_-_categoría:_String_-_disponible:_Boolean_buscar_:_Libro_reservar_:_Boolean" data-name="- isbn: String
- título: String
- autor: String
- categoría: String
- disponible: Boolean
+ buscar( ): Libro[ ]
+ reservar( ): Boolean" transform="translate(370.711 14283.283)" fill="#12263f" font-size="16" font-family="Roboto-Regular, Roboto"><tspan x="0" y="17">- isbn: String</tspan><tspan x="0" y="47">- título: String</tspan><tspan x="0" y="77">- autor: String</tspan><tspan x="0" y="107">- categoría: String</tspan><tspan x="0" y="137">- disponible: Boolean</tspan><tspan fill="#62249e"><tspan x="0" y="167">+ buscar( ): Libro[ ]</tspan><tspan x="0" y="197">+ reservar( ): Boolean</tspan></tspan></text>
            <text id="_-_id:_Integer_-_fechaInicio:_Date_-_fechaVencimiento:_Date_-_estado:_Enum_-_libro:_Libro_registrar_:_void_devolver_:_void" data-name="- id: Integer
- fechaInicio: Date
- fechaVencimiento: Date
- estado: Enum
- libro: Libro
+ registrar( ): void
+ devolver( ): void" transform="translate(695.645 14283.283)" fill="#12263f" font-size="16" font-family="Roboto-Regular, Roboto"><tspan x="0" y="17">- id: Integer</tspan><tspan x="0" y="47">- fechaInicio: Date</tspan><tspan x="0" y="77">- fechaVencimiento: Date</tspan><tspan x="0" y="107">- estado: Enum</tspan><tspan x="0" y="137">- libro: Libro</tspan><tspan fill="#62249e"><tspan x="0" y="167">+ registrar( ): void</tspan><tspan x="0" y="197">+ devolver( ): void</tspan></tspan></text>
            <text id="_-_id:_Integer_-_nombre:_String_-_correo:_String_-_bloqueado:_Boolean_solicitarPrestamo_verHistorial_:_List" data-name="- id: Integer
- nombre: String
- correo: String
- bloqueado: Boolean

+ solicitarPrestamo( )
+ verHistorial( ): List" transform="translate(1021.711 14283.283)" fill="#12263f" font-size="16" font-family="Roboto-Regular, Roboto"><tspan x="0" y="17">- id: Integer</tspan><tspan x="0" y="47">- nombre: String</tspan><tspan x="0" y="77">- correo: String</tspan><tspan x="0" y="107">- bloqueado: Boolean</tspan><tspan x="0" y="137"></tspan><tspan fill="#62249e"><tspan x="0" y="167">+ solicitarPrestamo( )</tspan><tspan x="0" y="197">+ verHistorial( ): List</tspan></tspan></text>
            <path id="Trazado_1001529" data-name="Trazado 1001529" d="M-6983,2735.152h278.572" transform="translate(7318.711 11572)" fill="none" stroke="#19538d" stroke-width="1.5"/>
            <path id="Trazado_1001532" data-name="Trazado 1001532" d="M-6983,2735.152h278.572" transform="translate(7318.711 11693)" fill="none" stroke="#19538d" stroke-width="1.5"/>
            <path id="Trazado_1001533" data-name="Trazado 1001533" d="M-6983,2735.152h278.572" transform="translate(7643.714 11693)" fill="none" stroke="#19538d" stroke-width="1.5"/>
            <path id="Trazado_1001534" data-name="Trazado 1001534" d="M-6983,2735.152h278.572" transform="translate(7969.925 11693)" fill="none" stroke="#19538d" stroke-width="1.5"/>
            <path id="Trazado_1001530" data-name="Trazado 1001530" d="M-6983,2735.152h278.572" transform="translate(7643.714 11572)" fill="none" stroke="#19538d" stroke-width="1.5"/>
            <path id="Trazado_1001531" data-name="Trazado 1001531" d="M-6983,2735.152h278.572" transform="translate(7969.425 11572)" fill="none" stroke="#19538d" stroke-width="1.5"/>
            <path id="Trazado_1003058" data-name="Trazado 1003058" d="M233.383,15.773h5.391V17h-6.9V5.625h1.508Zm10.423,1.383a3.693,3.693,0,0,1-2.8-1.129,4.19,4.19,0,0,1-1.078-3.02v-.266a5.073,5.073,0,0,1,.48-2.246,3.748,3.748,0,0,1,1.344-1.547,3.378,3.378,0,0,1,1.871-.559,3.166,3.166,0,0,1,2.563,1.086,4.7,4.7,0,0,1,.914,3.109v.6h-5.727a3,3,0,0,0,.73,2.02,2.3,2.3,0,0,0,1.777.77,2.517,2.517,0,0,0,1.3-.312,3.258,3.258,0,0,0,.93-.828l.883.688A3.55,3.55,0,0,1,243.805,17.156Zm-.18-7.578a1.928,1.928,0,0,0-1.469.637A3.1,3.1,0,0,0,241.423,12h4.234v-.109a2.753,2.753,0,0,0-.594-1.707A1.815,1.815,0,0,0,243.626,9.578Zm7.954,5.3,1.969-6.336H255.1L251.7,18.3q-.789,2.109-2.508,2.109l-.273-.023-.539-.1V19.117l.391.031a1.923,1.923,0,0,0,1.145-.3,2.148,2.148,0,0,0,.676-1.086l.32-.859-3.016-8.359h1.578Zm8.352,2.273a3.693,3.693,0,0,1-2.8-1.129,4.19,4.19,0,0,1-1.078-3.02v-.266a5.073,5.073,0,0,1,.48-2.246,3.748,3.748,0,0,1,1.344-1.547,3.379,3.379,0,0,1,1.871-.559,3.166,3.166,0,0,1,2.563,1.086,4.7,4.7,0,0,1,.914,3.109v.6H257.5a3,3,0,0,0,.73,2.02,2.3,2.3,0,0,0,1.777.77,2.517,2.517,0,0,0,1.3-.312,3.259,3.259,0,0,0,.93-.828l.883.688A3.55,3.55,0,0,1,259.932,17.156Zm-.18-7.578a1.928,1.928,0,0,0-1.469.637A3.1,3.1,0,0,0,257.549,12h4.234v-.109a2.753,2.753,0,0,0-.594-1.707A1.815,1.815,0,0,0,259.753,9.578Zm6.556-1.031.047,1.063a3.08,3.08,0,0,1,2.531-1.219q2.68,0,2.7,3.023V17h-1.445V11.406a1.946,1.946,0,0,0-.418-1.352,1.675,1.675,0,0,0-1.277-.437,2.086,2.086,0,0,0-1.234.375,2.546,2.546,0,0,0-.828.984V17h-1.445V8.547Zm7.149,4.156a4.952,4.952,0,0,1,.922-3.129,3.137,3.137,0,0,1,4.766-.168V5h1.445V17h-1.328l-.07-.906a2.943,2.943,0,0,1-2.414,1.063,2.887,2.887,0,0,1-2.395-1.2,5.008,5.008,0,0,1-.926-3.141Zm1.445.164a3.749,3.749,0,0,0,.594,2.25,1.92,1.92,0,0,0,1.641.813,2.109,2.109,0,0,0,2.008-1.234V10.813a2.125,2.125,0,0,0-1.992-1.2,1.929,1.929,0,0,0-1.656.82A4.128,4.128,0,0,0,274.9,12.867ZM288.091,17a3.036,3.036,0,0,1-.2-.891,3.225,3.225,0,0,1-2.406,1.047,2.984,2.984,0,0,1-2.051-.707,2.288,2.288,0,0,1-.8-1.793,2.39,2.39,0,0,1,1-2.051,4.733,4.733,0,0,1,2.824-.73h1.406v-.664A1.623,1.623,0,0,0,287.412,10a1.821,1.821,0,0,0-1.336-.449,2.108,2.108,0,0,0-1.3.391,1.151,1.151,0,0,0-.523.945H282.8a2,2,0,0,1,.449-1.223,3.066,3.066,0,0,1,1.219-.934,4.1,4.1,0,0,1,1.691-.344,3.342,3.342,0,0,1,2.289.73,2.635,2.635,0,0,1,.859,2.012v3.891a4.757,4.757,0,0,0,.3,1.852V17Zm-2.4-1.1a2.54,2.54,0,0,0,1.289-.352,2.126,2.126,0,0,0,.883-.914V12.9h-1.133q-2.656,0-2.656,1.555a1.316,1.316,0,0,0,.453,1.063A1.742,1.742,0,0,0,285.693,15.9Zm5.876.344a.905.905,0,0,1,.223-.625.848.848,0,0,1,.668-.25.874.874,0,0,1,.676.25.887.887,0,0,1,.23.625.839.839,0,0,1-.23.6.89.89,0,0,1-.676.242.8.8,0,0,1-.891-.844Zm.008-6.9a.905.905,0,0,1,.223-.625.848.848,0,0,1,.668-.25.874.874,0,0,1,.676.25.887.887,0,0,1,.23.625.839.839,0,0,1-.23.6.89.89,0,0,1-.676.242.8.8,0,0,1-.891-.844Zm11.9,3.039a12.079,12.079,0,0,1,.473-3.391,9.849,9.849,0,0,1,1.41-2.953,6,6,0,0,1,1.945-1.875l.3.953a6.222,6.222,0,0,0-1.871,2.672,11.583,11.583,0,0,0-.8,4.023l-.008.664a11.643,11.643,0,0,0,1.1,5.234,6.252,6.252,0,0,0,1.578,2.078l-.3.883a6.192,6.192,0,0,1-1.984-1.937A10.859,10.859,0,0,1,303.478,12.383Zm8.571.375h-3.812v-1.18h3.813Zm4.782-.3a12.084,12.084,0,0,1-.457,3.34,9.876,9.876,0,0,1-1.4,2.949A6.127,6.127,0,0,1,313,20.672l-.3-.883a6.281,6.281,0,0,0,1.934-2.863,12.387,12.387,0,0,0,.746-4.309v-.25a12.862,12.862,0,0,0-.344-3.051,10.3,10.3,0,0,0-.957-2.527A5.838,5.838,0,0,0,312.7,5.047l.3-.883a6.1,6.1,0,0,1,1.965,1.906,9.9,9.9,0,0,1,1.4,2.945A12.363,12.363,0,0,1,316.831,12.461ZM328.318,17a3.036,3.036,0,0,1-.2-.891,3.225,3.225,0,0,1-2.406,1.047,2.984,2.984,0,0,1-2.051-.707,2.288,2.288,0,0,1-.8-1.793,2.39,2.39,0,0,1,1-2.051,4.733,4.733,0,0,1,2.824-.73h1.406v-.664A1.623,1.623,0,0,0,327.638,10a1.821,1.821,0,0,0-1.336-.449,2.108,2.108,0,0,0-1.3.391,1.151,1.151,0,0,0-.523.945h-1.453a2,2,0,0,1,.449-1.223,3.066,3.066,0,0,1,1.219-.934,4.1,4.1,0,0,1,1.691-.344,3.342,3.342,0,0,1,2.289.73,2.635,2.635,0,0,1,.859,2.012v3.891a4.757,4.757,0,0,0,.3,1.852V17Zm-2.4-1.1a2.54,2.54,0,0,0,1.289-.352,2.126,2.126,0,0,0,.883-.914V12.9h-1.133q-2.656,0-2.656,1.555a1.316,1.316,0,0,0,.453,1.063A1.742,1.742,0,0,0,325.919,15.9ZM333.8,6.5V8.547h1.578V9.664H333.8v5.249a1.173,1.173,0,0,0,.211.763.888.888,0,0,0,.719.254,3.5,3.5,0,0,0,.688-.094V17a4.215,4.215,0,0,1-1.109.155,1.8,1.8,0,0,1-1.461-.586,2.517,2.517,0,0,1-.492-1.664V9.664h-1.539V8.547h1.539V6.5Zm7.392,3.344a4.331,4.331,0,0,0-.711-.055A1.9,1.9,0,0,0,338.554,11v6h-1.445V8.547h1.406l.023.977a2.251,2.251,0,0,1,2.016-1.133,1.477,1.477,0,0,1,.641.109ZM344.133,17h-1.445V8.547h1.445ZM342.57,6.3a.863.863,0,0,1,.215-.594.807.807,0,0,1,.637-.242.819.819,0,0,1,.641.242.854.854,0,0,1,.219.594.826.826,0,0,1-.219.586.834.834,0,0,1-.641.234.821.821,0,0,1-.637-.234A.834.834,0,0,1,342.57,6.3Zm11.071,6.563a5.026,5.026,0,0,1-.891,3.113,2.846,2.846,0,0,1-2.391,1.176,2.947,2.947,0,0,1-2.477-1.133l-.07.977h-1.328V5h1.445V9.477a2.93,2.93,0,0,1,2.414-1.086,2.863,2.863,0,0,1,2.418,1.164,5.177,5.177,0,0,1,.879,3.188ZM352.2,12.7a3.906,3.906,0,0,0-.57-2.281,1.888,1.888,0,0,0-1.641-.8,2.122,2.122,0,0,0-2.055,1.328V14.6A2.181,2.181,0,0,0,350,15.93a1.878,1.878,0,0,0,1.617-.8A4.153,4.153,0,0,0,352.2,12.7Zm8.524,3.461a3.07,3.07,0,0,1-2.477.992,2.628,2.628,0,0,1-2.059-.785,3.4,3.4,0,0,1-.715-2.324v-5.5h1.445v5.461q0,1.922,1.563,1.922a2.163,2.163,0,0,0,2.2-1.234V8.547h1.445V17h-1.375Zm5.6-9.664V8.547H367.9V9.664h-1.578v5.249a1.173,1.173,0,0,0,.211.763.888.888,0,0,0,.719.254,3.5,3.5,0,0,0,.688-.094V17a4.215,4.215,0,0,1-1.109.155,1.8,1.8,0,0,1-1.461-.586,2.517,2.517,0,0,1-.492-1.664V9.664h-1.539V8.547h1.539V6.5Zm2.767,6.2a4.993,4.993,0,0,1,.488-2.234,3.643,3.643,0,0,1,1.359-1.531,3.7,3.7,0,0,1,1.988-.539,3.565,3.565,0,0,1,2.793,1.2,4.6,4.6,0,0,1,1.066,3.18v.1a5.036,5.036,0,0,1-.473,2.215,3.589,3.589,0,0,1-1.352,1.527,3.743,3.743,0,0,1-2.02.547,3.556,3.556,0,0,1-2.785-1.2A4.575,4.575,0,0,1,369.09,12.8Zm1.453.172a3.616,3.616,0,0,0,.652,2.258,2.211,2.211,0,0,0,3.5-.012,3.955,3.955,0,0,0,.648-2.418,3.61,3.61,0,0,0-.66-2.254,2.1,2.1,0,0,0-1.754-.863,2.075,2.075,0,0,0-1.727.852A3.925,3.925,0,0,0,370.543,12.867Zm19.236,0a5.062,5.062,0,0,1-.883,3.109,2.829,2.829,0,0,1-2.391,1.18,3.1,3.1,0,0,1-2.422-.977v4.07h-1.445V8.547h1.32l.07.938a2.977,2.977,0,0,1,2.453-1.094,2.882,2.882,0,0,1,2.41,1.148,5.117,5.117,0,0,1,.887,3.2Zm-1.445-.164a3.735,3.735,0,0,0-.609-2.258,1.963,1.963,0,0,0-1.672-.828,2.125,2.125,0,0,0-1.969,1.164V14.82a2.129,2.129,0,0,0,1.984,1.156,1.954,1.954,0,0,0,1.652-.824A4.077,4.077,0,0,0,388.334,12.7Zm7.407-2.859a4.331,4.331,0,0,0-.711-.055A1.9,1.9,0,0,0,393.1,11v6h-1.445V8.547h1.406l.023.977A2.251,2.251,0,0,1,395.1,8.391a1.477,1.477,0,0,1,.641.109ZM398.679,17h-1.445V8.547h1.445ZM397.117,6.3a.863.863,0,0,1,.215-.594.807.807,0,0,1,.637-.242.819.819,0,0,1,.641.242.854.854,0,0,1,.219.594.826.826,0,0,1-.219.586.834.834,0,0,1-.641.234.821.821,0,0,1-.637-.234A.834.834,0,0,1,397.117,6.3Zm6.7,8.734,2.094-6.492h1.477L404.36,17h-1.1L400.2,8.547h1.477ZM413.923,17a3.036,3.036,0,0,1-.2-.891,3.225,3.225,0,0,1-2.406,1.047,2.984,2.984,0,0,1-2.051-.707,2.288,2.288,0,0,1-.8-1.793,2.39,2.39,0,0,1,1-2.051,4.733,4.733,0,0,1,2.824-.73H413.7v-.664A1.623,1.623,0,0,0,413.244,10a1.821,1.821,0,0,0-1.336-.449,2.108,2.108,0,0,0-1.3.391,1.151,1.151,0,0,0-.523.945h-1.453a2,2,0,0,1,.449-1.223,3.066,3.066,0,0,1,1.219-.934,4.1,4.1,0,0,1,1.691-.344,3.342,3.342,0,0,1,2.289.73,2.635,2.635,0,0,1,.859,2.012v3.891a4.757,4.757,0,0,0,.3,1.852V17Zm-2.4-1.1a2.54,2.54,0,0,0,1.289-.352,2.126,2.126,0,0,0,.883-.914V12.9h-1.133q-2.656,0-2.656,1.555a1.316,1.316,0,0,0,.453,1.063A1.742,1.742,0,0,0,411.525,15.9Zm5.571-3.2a4.952,4.952,0,0,1,.922-3.129,3.137,3.137,0,0,1,4.766-.168V5h1.445V17H422.9l-.07-.906a2.943,2.943,0,0,1-2.414,1.063,2.887,2.887,0,0,1-2.395-1.2,5.008,5.008,0,0,1-.926-3.141Zm1.445.164a3.749,3.749,0,0,0,.594,2.25,1.92,1.92,0,0,0,1.641.813,2.109,2.109,0,0,0,2.008-1.234V10.813a2.125,2.125,0,0,0-1.992-1.2,1.929,1.929,0,0,0-1.656.82A4.128,4.128,0,0,0,418.542,12.867Zm7.587-.172a4.993,4.993,0,0,1,.488-2.234,3.643,3.643,0,0,1,1.359-1.531,3.7,3.7,0,0,1,1.988-.539,3.565,3.565,0,0,1,2.793,1.2,4.6,4.6,0,0,1,1.066,3.18v.1a5.036,5.036,0,0,1-.473,2.215A3.589,3.589,0,0,1,432,16.609a3.743,3.743,0,0,1-2.02.547,3.556,3.556,0,0,1-2.785-1.2,4.575,4.575,0,0,1-1.066-3.164Zm1.453.172a3.616,3.616,0,0,0,.652,2.258,2.211,2.211,0,0,0,3.5-.012,3.955,3.955,0,0,0,.648-2.418,3.61,3.61,0,0,0-.66-2.254,2.1,2.1,0,0,0-1.754-.863,2.075,2.075,0,0,0-1.727.852A3.925,3.925,0,0,0,427.582,12.867Zm12.041-.484a12.079,12.079,0,0,1,.473-3.391,9.849,9.849,0,0,1,1.41-2.953,6,6,0,0,1,1.945-1.875l.3.953a6.222,6.222,0,0,0-1.871,2.672,11.583,11.583,0,0,0-.8,4.023l-.008.664a11.643,11.643,0,0,0,1.1,5.234,6.252,6.252,0,0,0,1.578,2.078l-.3.883a6.192,6.192,0,0,1-1.984-1.937A10.859,10.859,0,0,1,439.622,12.383Zm9.7-1.484H452.5v1.367h-3.172v3.594h-1.453V12.266H444.7V10.9h3.172V7.578h1.453Zm8.306,1.563a12.084,12.084,0,0,1-.457,3.34,9.876,9.876,0,0,1-1.4,2.949,6.127,6.127,0,0,1-1.973,1.922l-.3-.883a6.281,6.281,0,0,0,1.934-2.863,12.387,12.387,0,0,0,.746-4.309v-.25a12.862,12.862,0,0,0-.344-3.051,10.3,10.3,0,0,0-.957-2.527A5.838,5.838,0,0,0,453.5,5.047l.3-.883a6.1,6.1,0,0,1,1.965,1.906,9.9,9.9,0,0,1,1.4,2.945A12.363,12.363,0,0,1,457.632,12.461Zm7.627-3.914.039.938a3.122,3.122,0,0,1,2.508-1.094A2.417,2.417,0,0,1,470.22,9.75a3.2,3.2,0,0,1,1.1-.984,3.242,3.242,0,0,1,1.6-.375q2.781,0,2.828,2.945V17H474.3V11.422a1.941,1.941,0,0,0-.414-1.355,1.823,1.823,0,0,0-1.391-.449,1.916,1.916,0,0,0-1.336.48,1.949,1.949,0,0,0-.617,1.293V17h-1.453V11.461a1.613,1.613,0,0,0-1.8-1.844,1.934,1.934,0,0,0-1.945,1.211V17h-1.445V8.547Zm16.212,8.609a3.693,3.693,0,0,1-2.8-1.129,4.19,4.19,0,0,1-1.078-3.02v-.266a5.073,5.073,0,0,1,.48-2.246,3.748,3.748,0,0,1,1.344-1.547,3.379,3.379,0,0,1,1.871-.559,3.166,3.166,0,0,1,2.563,1.086,4.7,4.7,0,0,1,.914,3.109v.6h-5.727a3,3,0,0,0,.73,2.02,2.3,2.3,0,0,0,1.777.77,2.517,2.517,0,0,0,1.3-.312,3.259,3.259,0,0,0,.93-.828l.883.688A3.55,3.55,0,0,1,481.471,17.156Zm-.18-7.578a1.928,1.928,0,0,0-1.469.637A3.1,3.1,0,0,0,479.088,12h4.234v-.109a2.753,2.753,0,0,0-.594-1.707A1.815,1.815,0,0,0,481.291,9.578Zm.7-4.578h1.75l-2.094,2.3-1.164,0Zm6.446,1.5V8.547h1.578V9.664h-1.578v5.249a1.173,1.173,0,0,0,.211.763.888.888,0,0,0,.719.254,3.5,3.5,0,0,0,.688-.094V17a4.215,4.215,0,0,1-1.109.155,1.8,1.8,0,0,1-1.461-.586A2.517,2.517,0,0,1,487,14.906V9.664h-1.539V8.547H487V6.5Zm2.767,6.2a4.993,4.993,0,0,1,.488-2.234,3.643,3.643,0,0,1,1.359-1.531,3.7,3.7,0,0,1,1.988-.539,3.565,3.565,0,0,1,2.793,1.2,4.6,4.6,0,0,1,1.066,3.18v.1a5.036,5.036,0,0,1-.473,2.215,3.589,3.589,0,0,1-1.352,1.527,3.743,3.743,0,0,1-2.02.547,3.556,3.556,0,0,1-2.785-1.2,4.575,4.575,0,0,1-1.066-3.164Zm1.453.172a3.616,3.616,0,0,0,.652,2.258,2.211,2.211,0,0,0,3.5-.012,3.955,3.955,0,0,0,.648-2.418,3.61,3.61,0,0,0-.66-2.254,2.1,2.1,0,0,0-1.754-.863,2.075,2.075,0,0,0-1.727.852A3.925,3.925,0,0,0,492.66,12.867ZM500.4,12.7a4.952,4.952,0,0,1,.922-3.129,3.137,3.137,0,0,1,4.766-.168V5h1.445V17h-1.328l-.07-.906a2.943,2.943,0,0,1-2.414,1.063,2.887,2.887,0,0,1-2.395-1.2,5.008,5.008,0,0,1-.926-3.141Zm1.445.164a3.749,3.749,0,0,0,.594,2.25,1.92,1.92,0,0,0,1.641.813,2.109,2.109,0,0,0,2.008-1.234V10.813a2.125,2.125,0,0,0-1.992-1.2,1.929,1.929,0,0,0-1.656.82A4.128,4.128,0,0,0,501.849,12.867Zm7.587-.172a4.993,4.993,0,0,1,.488-2.234,3.643,3.643,0,0,1,1.359-1.531,3.7,3.7,0,0,1,1.988-.539,3.565,3.565,0,0,1,2.793,1.2,4.6,4.6,0,0,1,1.066,3.18v.1a5.036,5.036,0,0,1-.473,2.215,3.589,3.589,0,0,1-1.352,1.527,3.743,3.743,0,0,1-2.02.547,3.556,3.556,0,0,1-2.785-1.2,4.575,4.575,0,0,1-1.066-3.164Zm1.453.172a3.616,3.616,0,0,0,.652,2.258,2.211,2.211,0,0,0,3.5-.012,3.954,3.954,0,0,0,.648-2.418,3.61,3.61,0,0,0-.66-2.254,2.1,2.1,0,0,0-1.754-.863,2.075,2.075,0,0,0-1.727.852A3.925,3.925,0,0,0,510.889,12.867Zm19.236,0a5.061,5.061,0,0,1-.883,3.109,2.829,2.829,0,0,1-2.391,1.18,3.1,3.1,0,0,1-2.422-.977v4.07h-1.445V8.547h1.32l.07.938a2.977,2.977,0,0,1,2.453-1.094,2.882,2.882,0,0,1,2.41,1.148,5.117,5.117,0,0,1,.887,3.2ZM528.68,12.7a3.735,3.735,0,0,0-.609-2.258,1.963,1.963,0,0,0-1.672-.828,2.125,2.125,0,0,0-1.969,1.164V14.82a2.129,2.129,0,0,0,1.984,1.156,1.954,1.954,0,0,0,1.652-.824A4.077,4.077,0,0,0,528.68,12.7Zm8.54,3.461a3.07,3.07,0,0,1-2.477.992,2.628,2.628,0,0,1-2.059-.785,3.4,3.4,0,0,1-.715-2.324v-5.5h1.445v5.461q0,1.922,1.563,1.922a2.163,2.163,0,0,0,2.2-1.234V8.547h1.445V17h-1.375ZM536.048,5h1.75L535.7,7.3l-1.164,0Zm11.97,7.867a5.026,5.026,0,0,1-.891,3.113,2.846,2.846,0,0,1-2.391,1.176,2.947,2.947,0,0,1-2.477-1.133l-.07.977h-1.328V5h1.445V9.477a2.93,2.93,0,0,1,2.414-1.086,2.863,2.863,0,0,1,2.418,1.164,5.177,5.177,0,0,1,.879,3.188Zm-1.445-.164a3.906,3.906,0,0,0-.57-2.281,1.888,1.888,0,0,0-1.641-.8,2.122,2.122,0,0,0-2.055,1.328V14.6a2.181,2.181,0,0,0,2.07,1.328,1.878,1.878,0,0,0,1.617-.8A4.153,4.153,0,0,0,546.572,12.7Zm4.876,4.3H550V5h1.445Zm3.923,0h-1.445V8.547h1.445ZM553.808,6.3a.863.863,0,0,1,.215-.594.807.807,0,0,1,.637-.242.819.819,0,0,1,.641.242.854.854,0,0,1,.219.594.826.826,0,0,1-.219.586.834.834,0,0,1-.641.234.821.821,0,0,1-.637-.234A.834.834,0,0,1,553.808,6.3Zm7.306,9.672a2.082,2.082,0,0,0,1.352-.469,1.649,1.649,0,0,0,.641-1.172h1.367a2.621,2.621,0,0,1-.5,1.383,3.293,3.293,0,0,1-1.23,1.047,3.55,3.55,0,0,1-1.629.391A3.482,3.482,0,0,1,558.368,16a4.59,4.59,0,0,1-1.02-3.152v-.242a5.089,5.089,0,0,1,.453-2.2,3.451,3.451,0,0,1,1.3-1.492,3.7,3.7,0,0,1,2-.531,3.39,3.39,0,0,1,2.363.852,3.043,3.043,0,0,1,1,2.211h-1.367a1.992,1.992,0,0,0-.621-1.348,1.932,1.932,0,0,0-1.379-.527,2.023,2.023,0,0,0-1.707.793,3.724,3.724,0,0,0-.605,2.293v.273a3.65,3.65,0,0,0,.6,2.25A2.033,2.033,0,0,0,561.114,15.977Zm4.642-3.281a4.993,4.993,0,0,1,.488-2.234A3.642,3.642,0,0,1,567.6,8.93a3.7,3.7,0,0,1,1.988-.539,3.565,3.565,0,0,1,2.793,1.2,4.6,4.6,0,0,1,1.066,3.18v.1a5.036,5.036,0,0,1-.473,2.215,3.589,3.589,0,0,1-1.352,1.527,3.743,3.743,0,0,1-2.02.547,3.556,3.556,0,0,1-2.785-1.2,4.575,4.575,0,0,1-1.066-3.164Zm1.453.172a3.616,3.616,0,0,0,.652,2.258,2.211,2.211,0,0,0,3.5-.012,3.954,3.954,0,0,0,.648-2.418,3.61,3.61,0,0,0-.66-2.254,2.1,2.1,0,0,0-1.754-.863,2.075,2.075,0,0,0-1.727.852A3.925,3.925,0,0,0,567.209,12.867ZM583.906,17h-1.453V7.367l-2.914,1.07V7.125l4.141-1.555h.227Zm4.454-.758a.905.905,0,0,1,.223-.625.848.848,0,0,1,.668-.25.874.874,0,0,1,.676.25.887.887,0,0,1,.23.625.839.839,0,0,1-.23.6.89.89,0,0,1-.676.242.8.8,0,0,1-.891-.844Zm4.251,0a.905.905,0,0,1,.223-.625.848.848,0,0,1,.668-.25.874.874,0,0,1,.676.25.887.887,0,0,1,.23.625.839.839,0,0,1-.23.6.89.89,0,0,1-.676.242.8.8,0,0,1-.891-.844Zm5.7-6.926-2.359-.7.359-1.178,2.359.874-.07-2.685h1.2l-.078,2.724,2.32-.859.359,1.186-2.4.71,1.547,2.117-.969.734-1.453-2.25-1.406,2.2-.977-.711Zm10.807-.77.039.938a3.122,3.122,0,0,1,2.508-1.094,2.417,2.417,0,0,1,2.414,1.359,3.2,3.2,0,0,1,1.1-.984,3.242,3.242,0,0,1,1.6-.375q2.781,0,2.828,2.945V17h-1.445V11.422a1.941,1.941,0,0,0-.414-1.355,1.823,1.823,0,0,0-1.391-.449,1.917,1.917,0,0,0-1.336.48,1.949,1.949,0,0,0-.617,1.293V17H612.95V11.461a1.613,1.613,0,0,0-1.8-1.844,1.934,1.934,0,0,0-1.945,1.211V17h-1.445V8.547Zm17.923,7.617a3.07,3.07,0,0,1-2.477.992,2.628,2.628,0,0,1-2.059-.785,3.4,3.4,0,0,1-.715-2.324v-5.5h1.445v5.461q0,1.922,1.563,1.922a2.163,2.163,0,0,0,2.2-1.234V8.547h1.445V17h-1.375Zm5.212.836h-1.445V5h1.445ZM636.57,6.5V8.547h1.578V9.664H636.57v5.249a1.173,1.173,0,0,0,.211.763.888.888,0,0,0,.719.254,3.5,3.5,0,0,0,.688-.094V17a4.215,4.215,0,0,1-1.109.155,1.8,1.8,0,0,1-1.461-.586,2.517,2.517,0,0,1-.492-1.664V9.664h-1.539V8.547h1.539V6.5ZM641.446,17H640V8.547h1.445ZM639.883,6.3a.863.863,0,0,1,.215-.594.807.807,0,0,1,.637-.242.819.819,0,0,1,.641.242.854.854,0,0,1,.219.594.826.826,0,0,1-.219.586.834.834,0,0,1-.641.234.821.821,0,0,1-.637-.234A.834.834,0,0,1,639.883,6.3Zm11.056,6.563a5.061,5.061,0,0,1-.883,3.109,2.829,2.829,0,0,1-2.391,1.18,3.1,3.1,0,0,1-2.422-.977v4.07H643.8V8.547h1.32l.07.938a2.977,2.977,0,0,1,2.453-1.094,2.882,2.882,0,0,1,2.41,1.148,5.117,5.117,0,0,1,.887,3.2Zm-1.445-.164a3.735,3.735,0,0,0-.609-2.258,1.963,1.963,0,0,0-1.672-.828,2.125,2.125,0,0,0-1.969,1.164V14.82a2.129,2.129,0,0,0,1.984,1.156,1.954,1.954,0,0,0,1.652-.824A4.077,4.077,0,0,0,649.494,12.7Zm4.892,4.3H652.94V5h1.445Zm3.923,0h-1.445V8.547h1.445ZM656.745,6.3a.863.863,0,0,1,.215-.594.807.807,0,0,1,.637-.242.819.819,0,0,1,.641.242.854.854,0,0,1,.219.594.826.826,0,0,1-.219.586.834.834,0,0,1-.641.234.821.821,0,0,1-.637-.234A.834.834,0,0,1,656.745,6.3Zm7.306,9.672a2.082,2.082,0,0,0,1.352-.469,1.649,1.649,0,0,0,.641-1.172h1.367a2.621,2.621,0,0,1-.5,1.383,3.293,3.293,0,0,1-1.23,1.047,3.55,3.55,0,0,1-1.629.391A3.482,3.482,0,0,1,661.305,16a4.59,4.59,0,0,1-1.02-3.152v-.242a5.089,5.089,0,0,1,.453-2.2,3.451,3.451,0,0,1,1.3-1.492,3.7,3.7,0,0,1,2-.531,3.39,3.39,0,0,1,2.363.852,3.043,3.043,0,0,1,1,2.211h-1.367a1.992,1.992,0,0,0-.621-1.348,1.932,1.932,0,0,0-1.379-.527,2.023,2.023,0,0,0-1.707.793,3.724,3.724,0,0,0-.605,2.293v.273a3.65,3.65,0,0,0,.6,2.25A2.033,2.033,0,0,0,664.051,15.977ZM670.646,17H669.2V8.547h1.445ZM669.083,6.3a.863.863,0,0,1,.215-.594.807.807,0,0,1,.637-.242.819.819,0,0,1,.641.242.854.854,0,0,1,.219.594.826.826,0,0,1-.219.586.834.834,0,0,1-.641.234.821.821,0,0,1-.637-.234A.834.834,0,0,1,669.083,6.3Zm3.563,6.4a4.952,4.952,0,0,1,.922-3.129,3.137,3.137,0,0,1,4.766-.168V5h1.445V17h-1.328l-.07-.906a2.943,2.943,0,0,1-2.414,1.063,2.887,2.887,0,0,1-2.395-1.2,5.008,5.008,0,0,1-.926-3.141Zm1.445.164a3.749,3.749,0,0,0,.594,2.25,1.919,1.919,0,0,0,1.641.813,2.108,2.108,0,0,0,2.008-1.234V10.813a2.125,2.125,0,0,0-1.992-1.2,1.929,1.929,0,0,0-1.656.82A4.128,4.128,0,0,0,674.092,12.867ZM687.281,17a3.036,3.036,0,0,1-.2-.891,3.225,3.225,0,0,1-2.406,1.047,2.984,2.984,0,0,1-2.051-.707,2.287,2.287,0,0,1-.8-1.793,2.39,2.39,0,0,1,1-2.051,4.733,4.733,0,0,1,2.824-.73h1.406v-.664A1.623,1.623,0,0,0,686.6,10a1.821,1.821,0,0,0-1.336-.449,2.107,2.107,0,0,0-1.3.391,1.151,1.151,0,0,0-.523.945h-1.453a1.994,1.994,0,0,1,.449-1.223,3.066,3.066,0,0,1,1.219-.934,4.1,4.1,0,0,1,1.691-.344,3.342,3.342,0,0,1,2.289.73,2.635,2.635,0,0,1,.859,2.012v3.891a4.756,4.756,0,0,0,.3,1.852V17Zm-2.4-1.1a2.54,2.54,0,0,0,1.289-.352,2.127,2.127,0,0,0,.883-.914V12.9h-1.133q-2.656,0-2.656,1.555a1.316,1.316,0,0,0,.453,1.063A1.742,1.742,0,0,0,684.882,15.9Zm5.571-3.2a4.952,4.952,0,0,1,.922-3.129,3.137,3.137,0,0,1,4.766-.168V5h1.445V17h-1.328l-.07-.906a2.943,2.943,0,0,1-2.414,1.063,2.887,2.887,0,0,1-2.395-1.2,5.008,5.008,0,0,1-.926-3.141Zm1.445.164a3.749,3.749,0,0,0,.594,2.25,1.919,1.919,0,0,0,1.641.813,2.108,2.108,0,0,0,2.008-1.234V10.813a2.125,2.125,0,0,0-1.992-1.2,1.929,1.929,0,0,0-1.656.82A4.128,4.128,0,0,0,691.9,12.867Z" transform="translate(335.711 14533.291)" fill="#12263f"/>
            <path id="Sustracción_114" data-name="Sustracción 114" d="M7466.623,11783H7352.8a61,61,0,1,1,113.826,0Z" transform="translate(-6934.999 2436)" fill="#fff"/>
            <path id="Sustracción_115" data-name="Sustracción 115" d="M7466.623,11783H7352.8a61,61,0,1,1,113.826,0Z" transform="translate(-6609.999 2436)" fill="#fff"/>
            <path id="Sustracción_116" data-name="Sustracción 116" d="M7466.623,11783H7352.8a61,61,0,1,1,113.826,0Z" transform="translate(-6283.999 2436)" fill="#fff"/>
            <g id="libro_2_" data-name="libro (2)" transform="translate(425.471 14137.687)">
              <path id="Trazado_1002083" data-name="Trazado 1002083" d="M95.583,26.151l-.341.047-38.465,4.61-37.8-4.455h-.016l-7.125-.838L4,24.6l36.059-4.331a23.239,23.239,0,0,1,5.5,0Z" transform="translate(1.657)" fill="#7070f2"/>
              <path id="Trazado_1002084" data-name="Trazado 1002084" d="M77.911,37.954,77.57,38,39.1,42.611a1.211,1.211,0,0,1-.341-.047C37.211,42.176,36,39.227,36,35.625c0-3.865,1.4-6.985,3.1-6.985L77.57,24.03c-1.552.388-2.763,3.337-2.763,6.939C74.807,34.834,76.2,37.954,77.911,37.954Z" transform="translate(19.329 2.168)" fill="#eaeaea"/>
              <path id="Trazado_1002085" data-name="Trazado 1002085" d="M77.911,46.954a1.707,1.707,0,0,0-.481.062L39.1,51.611a1.211,1.211,0,0,1-.341-.047C37.211,51.176,36,48.227,36,44.625c0-3.865,1.4-6.985,3.1-6.985L77.57,33.03c-1.552.388-2.763,3.337-2.763,6.939C74.807,43.834,76.2,46.954,77.911,46.954Z" transform="translate(19.329 7.138)" fill="#eaeaea"/>
              <path id="Trazado_1002086" data-name="Trazado 1002086" d="M77.57,33.03c-.993.248-1.847,1.537-2.328,3.384L39.1,40.745c-1.459,0-2.7,2.3-3.027,5.4-.047-.481-.078-.993-.078-1.521,0-3.865,1.4-6.985,3.1-6.985Z" transform="translate(19.329 7.138)" fill="#dad4d4"/>
              <path id="Trazado_1002087" data-name="Trazado 1002087" d="M77.57,24.03c-.993.248-1.847,1.537-2.328,3.384L39.1,31.745c-1.459,0-2.7,2.3-3.027,5.4-.047-.481-.078-.993-.078-1.521,0-3.865,1.4-6.985,3.1-6.985Z" transform="translate(19.329 2.168)" fill="#dad4d4"/>
              <path id="Trazado_1002088" data-name="Trazado 1002088" d="M78.463,63.71l-1.118.14-14.4,1.723V53.154l-9.314,1.118V66.69l-13.97,1.676-.481-.062a1.627,1.627,0,0,1-.435-.155,2.7,2.7,0,0,1-.4-.233.048.048,0,0,1-.031-.016c-.109-.078-.233-.171-.341-.264a4.162,4.162,0,0,1-.435-.466,3.869,3.869,0,0,1-.357-.481,8.227,8.227,0,0,1-.636-1.1c-.124-.264-.233-.543-.357-.838-.078-.217-.155-.45-.233-.683a6.125,6.125,0,0,1-.233-.807c-.078-.264-.14-.543-.2-.823a18.73,18.73,0,0,1-.4-2.608v-.047A22.031,22.031,0,0,1,35,57.5c0-6.007,2.08-10.866,4.657-10.866L77.982,42.04a.292.292,0,0,0-.155.062c-2.266.683-4.02,5.231-4.02,10.742,0,6.007,2.08,10.866,4.657,10.866Z" transform="translate(18.777 12.114)" fill="#eaeaea"/>
              <path id="Trazado_1002089" data-name="Trazado 1002089" d="M78.463,63.71l-1.118.14-14.4,1.723V60.916a7.109,7.109,0,0,0,6.209-7.192v-.306a4.949,4.949,0,0,0-5.5-5l-24,2.872a3.182,3.182,0,0,0-2.5,1.7,8.244,8.244,0,0,0-.233,8.657,3.851,3.851,0,0,0,2.248,2l.481.062,13.97-1.676V66.69l-13.97,1.676-.481-.062a1.626,1.626,0,0,1-.435-.155,2.7,2.7,0,0,1-.4-.233.048.048,0,0,1-.031-.016c-.109-.078-.233-.171-.341-.264a4.163,4.163,0,0,1-.435-.466,3.87,3.87,0,0,1-.357-.481,8.226,8.226,0,0,1-.636-1.1c-.124-.264-.233-.543-.357-.838-.078-.217-.155-.45-.233-.683a6.124,6.124,0,0,1-.233-.807c-.078-.264-.14-.543-.2-.823a18.729,18.729,0,0,1-.4-2.608v-.047A22.034,22.034,0,0,1,35,57.5c0-6.007,2.08-10.866,4.657-10.866L77.982,42.04a.292.292,0,0,0-.155.062c-2.266.683-4.02,5.231-4.02,10.742C73.807,58.851,75.887,63.71,78.463,63.71Z" transform="translate(18.777 12.114)" fill="#dad4d4"/>
              <path id="Trazado_1002090" data-name="Trazado 1002090" d="M56.314,61.618v7.451L51.657,62.86,47,70.621V50.333L56.314,49.2Z" transform="translate(25.404 16.068)" fill="#ed1c24"/>
              <path id="Trazado_1002091" data-name="Trazado 1002091" d="M53.209,49.573v2.833a9.624,9.624,0,0,1-6.145,9.081L47,61.509v9.112l4.657-7.761,4.657,6.209V49.2Z" transform="translate(25.404 16.068)" fill="#c1272d"/>
              <path id="Trazado_1002092" data-name="Trazado 1002092" d="M14.288,24.13l37.8,4.455c-1.707,0-3.1,3.12-3.1,6.985,0,3.6,1.211,6.551,2.763,6.939L40.6,41.2l-6.83-.807-20.288-2.39A17.585,17.585,0,0,1,12.5,31.69c0-3.648.745-6.721,1.77-7.56Z" transform="translate(6.348 2.223)" fill="#5e5eea"/>
              <path id="Trazado_1002093" data-name="Trazado 1002093" d="M42.493,36.434a1.211,1.211,0,0,0,.341.047c-1.707,0-3.1,3.12-3.1,6.985,0,3.6,1.211,6.551,2.763,6.939l-9.515-1.118-2.592-.295a15.453,15.453,0,0,1-1.133-6.3c0-3.679.9-6.768,2.1-7.56Z" transform="translate(15.599 8.298)" fill="#99e0d4"/>
              <path id="Trazado_1002094" data-name="Trazado 1002094" d="M42.077,45.368a1.211,1.211,0,0,0,.341.047c-2.577,0-4.657,4.859-4.657,10.866,0,5.635,1.832,10.26,4.176,10.8L32.67,66C31.1,64.072,30,59.9,30,55.054c0-4.719,1.04-8.8,2.561-10.8Z" transform="translate(16.016 13.334)" fill="#ffca3a"/>
              <path id="Trazado_1002095" data-name="Trazado 1002095" d="M34.879,66.251l-6.271-.73C27.056,63.55,26,59.421,26,54.656s1.071-8.91,2.623-10.866l3.555.419,2.592.295c-1.521,2-2.561,6.085-2.561,10.8,0,4.843,1.1,9.019,2.67,10.943Z" transform="translate(13.807 13.08)" fill="#f7931e"/>
              <path id="Trazado_1002096" data-name="Trazado 1002096" d="M26.872,34.61l6.83.807c-1.2.792-2.1,3.881-2.1,7.56a15.453,15.453,0,0,0,1.133,6.3l-3.555-.419-2.53-.295a12.729,12.729,0,0,1-1.645-7.14,12.96,12.96,0,0,1,1.863-6.814Z" transform="translate(13.245 8.011)" fill="#7070f2"/>
              <path id="Trazado_1002097" data-name="Trazado 1002097" d="M34.925,44.517l2.53.295C35.9,46.768,34.832,50.9,34.832,55.678s1.056,8.894,2.608,10.866L12.262,63.579a20.727,20.727,0,0,1-2.235-10.307c0-5.216,1.288-9.655,3.073-11.332Z" transform="translate(4.974 12.059)" fill="#ffca3a"/>
              <path id="Trazado_1002098" data-name="Trazado 1002098" d="M19.277,33.661l20.288,2.39A12.96,12.96,0,0,0,37.7,42.866a12.729,12.729,0,0,0,1.645,7.14L17.523,47.429,11.3,46.7,5.1,45.97C3.4,45.97,2,42.85,2,38.985S3.4,32,5.1,32l7.591.885V32.9Z" transform="translate(0.552 6.569)" fill="#99e0d4"/>
              <path id="Trazado_1002099" data-name="Trazado 1002099" d="M42.452,46.947l-9.515-1.118-2.592-.295A13.008,13.008,0,0,1,29.32,41.39l10.6,1.211c.4,2.344,1.366,4.051,2.53,4.346Z" transform="translate(15.64 11.755)" fill="#5bd3c7"/>
              <path id="Trazado_1002100" data-name="Trazado 1002100" d="M32.653,45.8,29.1,45.381l-2.53-.295A8.96,8.96,0,0,1,25.14,40.91l6.488.745A13.008,13.008,0,0,0,32.653,45.8Z" transform="translate(13.332 11.49)" fill="#5858dd"/>
              <path id="Trazado_1002101" data-name="Trazado 1002101" d="M39.259,46.544,17.434,43.967l-6.225-.73-6.194-.73c-1.273,0-2.375-1.739-2.856-4.238l8.988,1.024,10.524,1.211,16.159,1.863a8.96,8.96,0,0,0,1.428,4.176Z" transform="translate(0.641 10.032)" fill="#5bd3c7"/>
              <path id="Trazado_1002102" data-name="Trazado 1002102" d="M9.638,23.59l7.125.838c-1.024.838-1.77,3.912-1.77,7.56a17.586,17.586,0,0,0,.978,6.318L9.39,37.545v-.016a14.706,14.706,0,0,1-1.382-7.094,14.636,14.636,0,0,1,1.63-6.845Z" transform="translate(3.858 1.925)" fill="#99e0d4"/>
              <path id="Trazado_1002103" data-name="Trazado 1002103" d="M9.085,41.47l6.225.73c-1.785,1.676-3.073,6.116-3.073,11.332a20.727,20.727,0,0,0,2.235,10.307l-6.194-.73A20.609,20.609,0,0,1,6.027,52.786c0-5.2,1.273-9.64,3.058-11.316Z" transform="translate(2.765 11.799)" fill="#f7931e"/>
              <path id="Trazado_1002104" data-name="Trazado 1002104" d="M5.1,23l7.839.916a14.636,14.636,0,0,0-1.63,6.845A14.706,14.706,0,0,0,12.7,37.855L5.1,36.97C3.4,36.97,2,33.85,2,29.985S3.4,23,5.1,23Z" transform="translate(0.552 1.599)" fill="#5e5eea"/>
              <path id="Trazado_1002105" data-name="Trazado 1002105" d="M51.664,38.643,13.4,34.141a12.263,12.263,0,0,1-.761-3.011L49.4,35.461c.481,1.739,1.3,2.949,2.266,3.182Z" transform="translate(6.428 6.089)" fill="#5b52d8"/>
              <path id="Trazado_1002106" data-name="Trazado 1002106" d="M9.254,33.662v-.016A8.41,8.41,0,0,1,8.23,30.62l6.845.792a12.263,12.263,0,0,0,.761,3.011Z" transform="translate(3.993 5.807)" fill="#5bd3c7"/>
              <path id="Trazado_1002107" data-name="Trazado 1002107" d="M12.557,34.172l-7.591-.885c-1.164,0-2.189-1.459-2.716-3.617a1.756,1.756,0,0,0,1.164.512l8.118.962a8.41,8.41,0,0,0,1.024,3.027Z" transform="translate(0.69 5.282)" fill="#5b52d8"/>
              <path id="Trazado_1002108" data-name="Trazado 1002108" d="M5.657,41l6.194.73c-1.785,1.676-3.058,6.116-3.058,11.316a20.609,20.609,0,0,0,2.251,10.323l-5.386-.636C3.08,62.732,1,57.873,1,51.866S3.08,41,5.657,41Z" transform="translate(0 11.54)" fill="#ffca3a"/>
              <path id="Trazado_1002109" data-name="Trazado 1002109" d="M41.7,61.053l-9.267-1.087a11.965,11.965,0,0,1-2.018-4.8l1.226.14,6.6.714C38.973,58.787,40.246,60.712,41.7,61.053Z" transform="translate(16.248 19.365)" fill="#f7931e"/>
              <path id="Trazado_1002110" data-name="Trazado 1002110" d="M34.653,60.2l-6.271-.73A12.3,12.3,0,0,1,26.41,54.74l.667.078,5.557.59a11.965,11.965,0,0,0,2.018,4.8Z" transform="translate(14.033 19.128)" fill="#f15a24"/>
              <path id="Trazado_1002111" data-name="Trazado 1002111" d="M37.223,60.435,12.045,57.471A13.994,13.994,0,0,1,10.4,53l24.852,2.7a12.3,12.3,0,0,0,1.971,4.734Z" transform="translate(5.191 18.167)" fill="#f7931e"/>
              <path id="Trazado_1002112" data-name="Trazado 1002112" d="M14.249,57.714l-6.194-.73A13.829,13.829,0,0,1,6.41,52.56l4.5.5,1.692.186a13.994,13.994,0,0,0,1.645,4.471Z" transform="translate(2.988 17.924)" fill="#f15a24"/>
              <path id="Trazado_1002113" data-name="Trazado 1002113" d="M10.739,57.277,5.353,56.64c-1.583,0-2.965-1.816-3.8-4.61l5.34.59,2.2.233a13.829,13.829,0,0,0,1.645,4.424Z" transform="translate(0.304 17.631)" fill="#f7931e"/>
              <path id="Trazado_1002114" data-name="Trazado 1002114" d="M46.27,52.771a1.552,1.552,0,0,1-.179-3.094l13.64-1.647a1.553,1.553,0,0,1,.368,3.084L46.453,52.76A1.469,1.469,0,0,1,46.27,52.771Z" transform="translate(24.146 15.416)" fill="#dad4d4"/>
            </g>
            <g id="entregar" transform="translate(728.194 14148.191)">
              <path id="Trazado_1002115" data-name="Trazado 1002115" d="M162.071,370.131a4.616,4.616,0,0,1,1.584-2.754l-33.414-2.453c-3.692,0-6.7,1.516-6.7,5.208s3,5.208,6.7,5.208l33.414-2.453A4.681,4.681,0,0,1,162.071,370.131Z" transform="translate(-68.112 -310.624)" fill="#e6ffff"/>
              <path id="Trazado_1002116" data-name="Trazado 1002116" d="M274.819,375.6a4.616,4.616,0,0,1,1.584-2.754l-20.4-1.5v8.5l20.4-1.5A4.682,4.682,0,0,1,274.819,375.6Z" transform="translate(-180.861 -316.09)" fill="#cbf0ff"/>
              <path id="Trazado_1002117" data-name="Trazado 1002117" d="M145.193,67.078H110.238a6.7,6.7,0,0,0-6.7,6.7L105.03,99.8v16.8a6.7,6.7,0,0,0,6.7,6.7h33.467a2.232,2.232,0,0,0,0-4.464H111.726a2.232,2.232,0,0,1,0-4.464h34.955a2.232,2.232,0,0,0,2.232-2.232l-1.488-21.564V69.31A2.232,2.232,0,0,0,145.193,67.078Z" transform="translate(-51.086 -57.097)" fill="#7070f2"/>
              <path id="Trazado_1002118" data-name="Trazado 1002118" d="M274.967,67.078H256v47.294h20.453a2.232,2.232,0,0,0,2.232-2.232L277.2,90.576V69.31A2.232,2.232,0,0,0,274.967,67.078Z" transform="translate(-180.86 -57.097)" fill="#5e5eea"/>
              <path id="Trazado_1002119" data-name="Trazado 1002119" d="M274.967,414.922H256v4.464h18.965a2.232,2.232,0,0,0,0-4.464Z" transform="translate(-180.86 -353.183)" fill="#5e5eea"/>
              <path id="Trazado_1002120" data-name="Trazado 1002120" d="M223.741,193.866l-4.464-4.464a2.232,2.232,0,0,0-3.157,0l-4.464,4.464a2.232,2.232,0,0,0,3.157,3.156l.654-.654v5.7a2.232,2.232,0,0,0,4.464,0v-5.7l.654.654a2.232,2.232,0,1,0,3.156-3.156Z" transform="translate(-142.557 -160.663)" fill="#ff9b8b"/>
              <path id="Trazado_1002121" data-name="Trazado 1002121" d="M262.044,193.866,257.58,189.4a2.232,2.232,0,0,0-1.578-.654V204.3a2.232,2.232,0,0,0,2.232-2.232v-5.7l.654.654a2.232,2.232,0,0,0,3.157-3.156Z" transform="translate(-180.86 -160.663)" fill="#dc7571"/>
              <path id="Trazado_1002122" data-name="Trazado 1002122" d="M45.1,33.867,53.943,42.7V22.16l5.76,5.76a4.464,4.464,0,1,0,6.313-6.313l-3.888-6.864L60.863,2.22A2.528,2.528,0,0,0,58.407,0H45.758a2.239,2.239,0,0,0-2.232,2.232V30.056a6.21,6.21,0,0,0,1.578,3.81Z" transform="translate(0)" fill="#ffd2c7"/>
              <path id="Trazado_1002123" data-name="Trazado 1002123" d="M330.762,233.835,321.923,225v20.545l-5.76-5.76a4.464,4.464,0,1,0-6.313,6.313l3.888,6.864L315,265.481a2.528,2.528,0,0,0,2.456,2.221h12.649a2.238,2.238,0,0,0,2.232-2.232V237.645A6.21,6.21,0,0,0,330.762,233.835Z" transform="translate(-225.583 -191.518)" fill="#ffbeaa"/>
            </g>
            <g id="estudiante" transform="translate(1090 14146.106)">
              <g id="Grupo_1181689" data-name="Grupo 1181689" transform="translate(17.576 32.266)">
                <g id="Grupo_1181682" data-name="Grupo 1181682">
                  <path id="Trazado_1002124" data-name="Trazado 1002124" d="M122.77,259.462a3.964,3.964,0,0,1-4,0,3.991,3.991,0,0,0-.539.381,16.6,16.6,0,0,1-1.312,2.1,10.414,10.414,0,0,0-.116,2.65,3.969,3.969,0,1,0,7.938,0v-1.7A3.966,3.966,0,0,0,122.77,259.462Z" transform="translate(-116.797 -250.911)" fill="#57697d"/>
                  <path id="Trazado_1002125" data-name="Trazado 1002125" d="M122.77,202.642a3.964,3.964,0,0,1-4,0,3.989,3.989,0,0,0-.539.381,16.606,16.606,0,0,1-1.312,2.1,10.415,10.415,0,0,0-.116,2.65,3.969,3.969,0,0,0,7.938,0v-1.7a3.966,3.966,0,0,0-1.967-3.427Z" transform="translate(-116.797 -202.642)" fill="#57697d"/>
                  <path id="Trazado_1002126" data-name="Trazado 1002126" d="M124.742,321.435v-1.7a3.966,3.966,0,0,0-1.967-3.427,3.972,3.972,0,0,1-4,0,3.983,3.983,0,0,0-1.967,3.472c0,.2,0,1.64,0,1.682a3.969,3.969,0,0,0,7.937-.027Z" transform="translate(-116.801 -299.203)" fill="#57697d"/>
                  <path id="Trazado_1002127" data-name="Trazado 1002127" d="M122.77,259.462a3.964,3.964,0,0,1-4,0,3.991,3.991,0,0,0-.539.381,16.6,16.6,0,0,1-1.312,2.1,10.414,10.414,0,0,0-.116,2.65,3.969,3.969,0,1,0,7.938,0v-1.7A3.966,3.966,0,0,0,122.77,259.462Z" transform="translate(-116.797 -250.911)" fill="#57697d"/>
                  <path id="Trazado_1002128" data-name="Trazado 1002128" d="M122.77,202.642a3.964,3.964,0,0,1-4,0,3.989,3.989,0,0,0-.539.381,16.606,16.606,0,0,1-1.312,2.1,10.415,10.415,0,0,0-.116,2.65,3.969,3.969,0,0,0,7.938,0v-1.7a3.966,3.966,0,0,0-1.967-3.427Z" transform="translate(-116.797 -202.642)" fill="#57697d"/>
                  <path id="Trazado_1002129" data-name="Trazado 1002129" d="M124.742,321.435v-1.7a3.966,3.966,0,0,0-1.967-3.427,3.972,3.972,0,0,1-4,0,3.983,3.983,0,0,0-1.967,3.472c0,.2,0,1.64,0,1.682a3.969,3.969,0,0,0,7.937-.027Z" transform="translate(-116.801 -299.203)" fill="#57697d"/>
                  <path id="Trazado_1002130" data-name="Trazado 1002130" d="M122.257,264.589v-1.7A3.987,3.987,0,0,0,121,260a3.96,3.96,0,0,1-2.237-.535,3.993,3.993,0,0,0-.539.381,16.614,16.614,0,0,1-1.312,2.1,10.412,10.412,0,0,0-.117,2.65,3.97,3.97,0,0,0,2.677,3.753A3.879,3.879,0,0,0,122.257,264.589Z" transform="translate(-116.796 -250.912)" fill="#57697d"/>
                  <path id="Trazado_1002131" data-name="Trazado 1002131" d="M121.008,203.182l0-.005a3.961,3.961,0,0,1-2.236-.535,3.989,3.989,0,0,0-.539.381,16.617,16.617,0,0,1-1.312,2.1,10.411,10.411,0,0,0-.117,2.65,3.97,3.97,0,0,0,2.72,3.767,3.953,3.953,0,0,0,2.738-3.767v-1.7a3.953,3.953,0,0,0-1.249-2.887Z" transform="translate(-116.796 -202.642)" fill="#57697d"/>
                  <path id="Trazado_1002132" data-name="Trazado 1002132" d="M119.688,325.151a3.973,3.973,0,0,0,2.574-3.716c0-1.695.218-3.207-1.251-4.589l0-.005a3.963,3.963,0,0,1-2.235-.534,3.983,3.983,0,0,0-1.967,3.472c0,.2,0,1.64,0,1.682a3.97,3.97,0,0,0,2.748,3.75Z" transform="translate(-116.801 -299.202)" fill="#57697d"/>
                </g>
                <g id="Grupo_1181684" data-name="Grupo 1181684" transform="translate(2.577 0)">
                  <g id="Grupo_1181683" data-name="Grupo 1181683">
                    <path id="Trazado_1002133" data-name="Trazado 1002133" d="M137.316,202.642a3.959,3.959,0,0,1-2.072.54c1.466,1.381,1.249,2.9,1.249,4.587a3.97,3.97,0,0,1-2.574,3.716,3.972,3.972,0,0,0,5.364-3.716v-1.7A3.966,3.966,0,0,0,137.316,202.642Z" transform="translate(-133.919 -202.642)" fill="#3d5168"/>
                  </g>
                </g>
                <g id="Grupo_1181686" data-name="Grupo 1181686" transform="translate(2.577 8.551)">
                  <g id="Grupo_1181685" data-name="Grupo 1181685">
                    <path id="Trazado_1002134" data-name="Trazado 1002134" d="M137.316,259.462a3.959,3.959,0,0,1-2.072.54c1.466,1.381,1.249,2.9,1.249,4.587a3.97,3.97,0,0,1-2.574,3.716,3.972,3.972,0,0,0,5.364-3.716v-1.7A3.966,3.966,0,0,0,137.316,259.462Z" transform="translate(-133.919 -259.462)" fill="#3d5168"/>
                  </g>
                </g>
                <g id="Grupo_1181688" data-name="Grupo 1181688" transform="translate(2.577 17.105)">
                  <g id="Grupo_1181687" data-name="Grupo 1181687">
                    <path id="Trazado_1002135" data-name="Trazado 1002135" d="M137.317,316.307a3.961,3.961,0,0,1-2.074.539c1.45,1.364,1.251,2.843,1.251,4.589a3.973,3.973,0,0,1-2.574,3.716,3.972,3.972,0,0,0,5.364-3.716v-1.7A3.966,3.966,0,0,0,137.317,316.307Z" transform="translate(-133.92 -316.307)" fill="#3d5168"/>
                  </g>
                </g>
              </g>
              <g id="Grupo_1181697" data-name="Grupo 1181697" transform="translate(51.795 32.266)">
                <g id="Grupo_1181690" data-name="Grupo 1181690">
                  <path id="Trazado_1002136" data-name="Trazado 1002136" d="M350.167,259.462a3.964,3.964,0,0,1-4,0,3.991,3.991,0,0,0-.539.381,16.6,16.6,0,0,1-1.312,2.1,10.411,10.411,0,0,0-.117,2.65,3.969,3.969,0,1,0,7.938,0v-1.7A3.966,3.966,0,0,0,350.167,259.462Z" transform="translate(-344.193 -250.911)" fill="#57697d"/>
                  <path id="Trazado_1002137" data-name="Trazado 1002137" d="M350.167,202.642a3.964,3.964,0,0,1-4,0,3.99,3.99,0,0,0-.539.381,16.6,16.6,0,0,1-1.312,2.1,10.412,10.412,0,0,0-.117,2.65,3.969,3.969,0,1,0,7.938,0v-1.7a3.967,3.967,0,0,0-1.967-3.427Z" transform="translate(-344.193 -202.642)" fill="#57697d"/>
                  <path id="Trazado_1002138" data-name="Trazado 1002138" d="M352.138,321.435v-1.7a3.966,3.966,0,0,0-1.967-3.427,3.972,3.972,0,0,1-4,0,3.983,3.983,0,0,0-1.967,3.472c0,.2,0,1.64,0,1.682a3.969,3.969,0,0,0,7.937-.027Z" transform="translate(-344.197 -299.203)" fill="#57697d"/>
                  <path id="Trazado_1002139" data-name="Trazado 1002139" d="M350.167,259.462a3.964,3.964,0,0,1-4,0,3.991,3.991,0,0,0-.539.381,16.6,16.6,0,0,1-1.312,2.1,10.411,10.411,0,0,0-.117,2.65,3.969,3.969,0,1,0,7.938,0v-1.7A3.966,3.966,0,0,0,350.167,259.462Z" transform="translate(-344.193 -250.911)" fill="#57697d"/>
                  <path id="Trazado_1002140" data-name="Trazado 1002140" d="M350.167,202.642a3.964,3.964,0,0,1-4,0,3.99,3.99,0,0,0-.539.381,16.6,16.6,0,0,1-1.312,2.1,10.412,10.412,0,0,0-.117,2.65,3.969,3.969,0,1,0,7.938,0v-1.7a3.967,3.967,0,0,0-1.967-3.427Z" transform="translate(-344.193 -202.642)" fill="#57697d"/>
                  <path id="Trazado_1002141" data-name="Trazado 1002141" d="M352.138,321.435v-1.7a3.966,3.966,0,0,0-1.967-3.427,3.972,3.972,0,0,1-4,0,3.983,3.983,0,0,0-1.967,3.472c0,.2,0,1.64,0,1.682a3.969,3.969,0,0,0,7.937-.027Z" transform="translate(-344.197 -299.203)" fill="#57697d"/>
                  <path id="Trazado_1002142" data-name="Trazado 1002142" d="M349.653,264.589v-1.7A3.987,3.987,0,0,0,348.4,260a3.96,3.96,0,0,1-2.237-.535,4,4,0,0,0-.539.381,16.613,16.613,0,0,1-1.312,2.1,10.412,10.412,0,0,0-.117,2.65,3.97,3.97,0,0,0,2.677,3.753A3.879,3.879,0,0,0,349.653,264.589Z" transform="translate(-344.192 -250.912)" fill="#57697d"/>
                  <path id="Trazado_1002143" data-name="Trazado 1002143" d="M348.4,203.182l0-.005a3.961,3.961,0,0,1-2.236-.535,3.991,3.991,0,0,0-.539.381,16.616,16.616,0,0,1-1.312,2.1,10.411,10.411,0,0,0-.117,2.65,2.872,2.872,0,1,0,5.458,0v-1.7a3.953,3.953,0,0,0-1.249-2.887Z" transform="translate(-344.192 -202.642)" fill="#57697d"/>
                  <path id="Trazado_1002144" data-name="Trazado 1002144" d="M347.084,325.151a3.973,3.973,0,0,0,2.574-3.716c0-2.24.169-3.022-1.255-4.594a3.963,3.963,0,0,1-2.235-.534,3.983,3.983,0,0,0-1.967,3.472c0,.2,0,1.64,0,1.682a3.97,3.97,0,0,0,2.748,3.75Z" transform="translate(-344.197 -299.202)" fill="#57697d"/>
                </g>
                <g id="Grupo_1181692" data-name="Grupo 1181692" transform="translate(2.577 0)">
                  <g id="Grupo_1181691" data-name="Grupo 1181691">
                    <path id="Trazado_1002145" data-name="Trazado 1002145" d="M364.713,202.642a3.959,3.959,0,0,1-2.072.54,3.954,3.954,0,0,1,1.249,2.887v1.7a3.97,3.97,0,0,1-2.574,3.716,3.972,3.972,0,0,0,5.364-3.716v-1.7A3.967,3.967,0,0,0,364.713,202.642Z" transform="translate(-361.316 -202.642)" fill="#3d5168"/>
                  </g>
                </g>
                <g id="Grupo_1181694" data-name="Grupo 1181694" transform="translate(2.577 8.551)">
                  <g id="Grupo_1181693" data-name="Grupo 1181693">
                    <path id="Trazado_1002146" data-name="Trazado 1002146" d="M364.713,259.462a3.96,3.96,0,0,1-2.072.54c1.466,1.381,1.249,2.9,1.249,4.587a3.97,3.97,0,0,1-2.574,3.716,3.972,3.972,0,0,0,5.364-3.716v-1.7A3.967,3.967,0,0,0,364.713,259.462Z" transform="translate(-361.316 -259.462)" fill="#3d5168"/>
                  </g>
                </g>
                <g id="Grupo_1181696" data-name="Grupo 1181696" transform="translate(2.577 17.105)">
                  <g id="Grupo_1181695" data-name="Grupo 1181695">
                    <path id="Trazado_1002147" data-name="Trazado 1002147" d="M364.714,316.307a3.961,3.961,0,0,1-2.074.539c1.45,1.364,1.251,2.843,1.251,4.589a3.973,3.973,0,0,1-2.574,3.716,3.972,3.972,0,0,0,5.364-3.716v-1.7A3.967,3.967,0,0,0,364.714,316.307Z" transform="translate(-361.317 -316.307)" fill="#3d5168"/>
                  </g>
                </g>
              </g>
              <path id="Trazado_1002148" data-name="Trazado 1002148" d="M143.079,350.8h-3.033l-5.98,7.346v5.141H122.108v-5.141l-5.98-7.346H113.1a7.664,7.664,0,0,0-7.667,7.774v12.2h45.317V358.469A7.666,7.666,0,0,0,143.079,350.8Z" transform="translate(-89.564 -296.241)" fill="#eaf6ff"/>
              <path id="Trazado_1002149" data-name="Trazado 1002149" d="M143.079,350.8h-3.033l-5.98,7.346v5.141H122.108v-5.141l-5.98-7.346H113.1a7.664,7.664,0,0,0-7.667,7.774v12.2h45.317V358.469A7.666,7.666,0,0,0,143.079,350.8Z" transform="translate(-89.564 -296.241)" fill="#eaf6ff"/>
              <g id="Grupo_1181698" data-name="Grupo 1181698" transform="translate(50.475 54.561)">
                <path id="Trazado_1002150" data-name="Trazado 1002150" d="M338.46,350.8h-3.033l-.008.009a7.666,7.666,0,0,1,7.3,7.657v12.305h3.411V358.469A7.666,7.666,0,0,0,338.46,350.8Z" transform="translate(-335.42 -350.802)" fill="#d8ecfe"/>
              </g>
              <path id="Trazado_1002151" data-name="Trazado 1002151" d="M209.761,288.4v5.557l6.319,9.23a.775.775,0,0,0,1.279,0l6.319-9.23V288.4Z" transform="translate(-178.195 -243.23)" fill="#ffa78f"/>
              <path id="Trazado_1002152" data-name="Trazado 1002152" d="M112.933,159.792h-3.244a5.638,5.638,0,0,0-2.5,4.684v.035a5.646,5.646,0,0,0,5.866,5.644h3.518V159.792h-3.645Z" transform="translate(-91.063 -133.975)" fill="#ffb09e"/>
              <path id="Trazado_1002153" data-name="Trazado 1002153" d="M343.8,159.792h-7.76v10.363h4.342a5.654,5.654,0,0,0,5.913-5.644v-.035a5.638,5.638,0,0,0-2.5-4.684Z" transform="translate(-285.473 -133.975)" fill="#f89580"/>
              <path id="Trazado_1002154" data-name="Trazado 1002154" d="M175.561,80.943H144.778V92.809h0c-.119,1.137-.092,1.217-.092,7.645,0,9.479,7.934,16.552,15.789,16.552a16.624,16.624,0,0,0,15.089-16.552C175.561,99.589,175.561,81.78,175.561,80.943Z" transform="translate(-122.907 -66.991)" fill="#ffcebf"/>
              <path id="Trazado_1002155" data-name="Trazado 1002155" d="M187.849,334.559l-6.319-9.23-5,3.833,5.98,7.346v12.626h11.959V336.508l5.98-7.346-5-3.833-6.319,9.23A.775.775,0,0,1,187.849,334.559Z" transform="translate(-149.964 -274.601)" fill="#d8ecfe"/>
              <path id="Trazado_1002156" data-name="Trazado 1002156" d="M250.6,396.927V381.588l-.523.764a.775.775,0,0,1-1.279,0l-.523-.764v15.339H250.6Z" transform="translate(-210.912 -322.394)" fill="#c4e2ff"/>
              <g id="Grupo_1181699" data-name="Grupo 1181699" transform="translate(33.746 40.466)">
                <path id="Trazado_1002157" data-name="Trazado 1002157" d="M228.957,263a4.711,4.711,0,0,1-4.705-4.706,1.163,1.163,0,0,1,2.325,0,2.38,2.38,0,1,0,4.76,0,1.163,1.163,0,0,1,2.325,0A4.71,4.71,0,0,1,228.957,263Z" transform="translate(-224.252 -257.132)" fill="#ffa799"/>
              </g>
              <g id="Grupo_1181701" data-name="Grupo 1181701" transform="translate(45.432 33.625)">
                <g id="Grupo_1181700" data-name="Grupo 1181700" transform="translate(0 0)">
                  <path id="Trazado_1002158" data-name="Trazado 1002158" d="M303.068,217.072a1.163,1.163,0,0,1-1.163-1.163v-3.072a1.163,1.163,0,0,1,1.163-1.163h1.258a1.163,1.163,0,1,1,0,2.325h-.1v1.909A1.163,1.163,0,0,1,303.068,217.072Z" transform="translate(-301.905 -211.675)" fill="#3d5168"/>
                </g>
              </g>
              <g id="Grupo_1181703" data-name="Grupo 1181703" transform="translate(27.889 33.625)">
                <g id="Grupo_1181702" data-name="Grupo 1181702" transform="translate(0 0)">
                  <path id="Trazado_1002159" data-name="Trazado 1002159" d="M187.747,217.073a1.163,1.163,0,0,1-1.163-1.163V214h-.1a1.163,1.163,0,1,1,0-2.325h1.258a1.163,1.163,0,0,1,1.163,1.163v3.072A1.163,1.163,0,0,1,187.747,217.073Z" transform="translate(-185.326 -211.676)" fill="#3d5168"/>
                </g>
              </g>
              <path id="Trazado_1002160" data-name="Trazado 1002160" d="M290.672,411.5v-11.16a1.551,1.551,0,0,0-1.511-1.55c-6.2-.161-29.529-.165-33.161,8.729V411.5h34.672Z" transform="translate(-217.476 -336.979)" fill="#fff3be"/>
              <path id="Trazado_1002161" data-name="Trazado 1002161" d="M290.543,464.965H256V457h34.543a3.981,3.981,0,0,1,3.981,3.981h0A3.981,3.981,0,0,1,290.543,464.965Z" transform="translate(-217.476 -386.459)" fill="#fd8087"/>
              <path id="Trazado_1002162" data-name="Trazado 1002162" d="M260.582,105.3v15.845A16.624,16.624,0,0,1,245.491,137.7a16.626,16.626,0,0,0,18.191-16.552V105.3Z" transform="translate(-208.549 -87.685)" fill="#ffb09e"/>
              <path id="Trazado_1002163" data-name="Trazado 1002163" d="M142.509,2.577c-8.939,0-18.734,8.15-18.734,19.733v3.926h9.771a10.127,10.127,0,0,0,10.127-10.127A10.127,10.127,0,0,0,153.8,26.235h6.888V22.31A19.794,19.794,0,0,0,142.509,2.577Z" transform="translate(-105.149 -0.418)" fill="#57697d"/>
              <g id="Grupo_1181705" data-name="Grupo 1181705" transform="translate(36.74 2.085)">
                <g id="Grupo_1181704" data-name="Grupo 1181704" transform="translate(0 0)">
                  <path id="Trazado_1002164" data-name="Trazado 1002164" d="M244.148,2.159a19.793,19.793,0,0,1,18.178,19.733v3.926h3.411V21.892A19.817,19.817,0,0,0,244.148,2.159Z" transform="translate(-244.148 -2.085)" fill="#3d5168"/>
                </g>
              </g>
              <g id="Grupo_1181707" data-name="Grupo 1181707" transform="translate(41.093 50.728)">
                <g id="Grupo_1181706" data-name="Grupo 1181706">
                  <path id="Trazado_1002165" data-name="Trazado 1002165" d="M277.461,325.329l-1.174,1.715,2.764,2.119-5.979,7.346v12.626h3.411V336.508l5.979-7.346Z" transform="translate(-273.072 -325.329)" fill="#c4e2ff"/>
                </g>
              </g>
              <path id="Trazado_1002166" data-name="Trazado 1002166" d="M98.13,263.691c-4.562-17.027-4.176-15.993-4.648-16.381l-1.291.346a1.338,1.338,0,0,0-.946,1.639l4.06,15.153Z" transform="translate(-77.475 -208.322)" fill="#5de1c4"/>
              <path id="Trazado_1002167" data-name="Trazado 1002167" d="M107.817,262.669l2.644-.708-4.206-15.7a1.338,1.338,0,0,0-1.639-.946l-1.457.39c.319.348-.023-.668,4.511,16.252Z" transform="translate(-87.636 -206.592)" fill="#0ed2b3"/>
              <path id="Trazado_1002168" data-name="Trazado 1002168" d="M96.223,326.676v-6.914a3.1,3.1,0,0,0-3.1-3.1H88.69a3.1,3.1,0,0,0-3.1,3.1v6.914a3.1,3.1,0,0,0,3.1,3.1h4.433A3.1,3.1,0,0,0,96.223,326.676Z" transform="translate(-72.709 -267.238)" fill="#ffcebf"/>
              <path id="Trazado_1002169" data-name="Trazado 1002169" d="M134.632,316.663h-3.1a3.1,3.1,0,0,1,3.1,3.1v6.914a3.1,3.1,0,0,1-3.1,3.1h3.1a3.1,3.1,0,0,0,3.1-3.1v-6.914A3.1,3.1,0,0,0,134.632,316.663Z" transform="translate(-111.738 -267.239)" fill="#ffb09e"/>
              <path id="Trazado_1002170" data-name="Trazado 1002170" d="M286.061,398.794c-1.412-.037-1.882-.033.4-.036-8.511-.013-27.242.873-30.465,8.765v.082l31.571,3.9v-11.16A1.551,1.551,0,0,0,286.061,398.794Z" transform="translate(-217.477 -336.98)" fill="#ffe177"/>
              <path id="Trazado_1002171" data-name="Trazado 1002171" d="M450.441,398.72c-.971-.025-7.126-.1-3.411,0a1.551,1.551,0,0,1,1.511,1.55v11.16h3.411V400.27A1.551,1.551,0,0,0,450.441,398.72Z" transform="translate(-378.757 -336.906)" fill="#ffd15b"/>
              <path id="Trazado_1002172" data-name="Trazado 1002172" d="M287.442,464.965a3.981,3.981,0,0,0,0-7.962H256v7.962h31.442Z" transform="translate(-217.476 -386.46)" fill="#5e5eea"/>
              <path id="Trazado_1002173" data-name="Trazado 1002173" d="M466.292,457h-3.411a3.981,3.981,0,0,1,0,7.962h3.411a3.981,3.981,0,0,0,3.981-3.981h0A3.981,3.981,0,0,0,466.292,457Z" transform="translate(-393.225 -386.459)" fill="#4225db"/>
              <path id="Trazado_1002174" data-name="Trazado 1002174" d="M25.6,411.561V400.4a1.551,1.551,0,0,1,1.511-1.55c6.2-.161,29.529-.165,33.161,8.729Z" transform="translate(-21.747 -337.028)" fill="#fff0ad"/>
              <path id="Trazado_1002175" data-name="Trazado 1002175" d="M38.524,464.965H3.981A3.981,3.981,0,0,1,0,460.984H0A3.981,3.981,0,0,1,3.981,457H38.524Z" transform="translate(0 -386.46)" fill="#7070f2"/>
              <g id="Grupo_1181708" data-name="Grupo 1181708" transform="translate(26.565 39.413)">
                <path id="Trazado_1002176" data-name="Trazado 1002176" d="M309.751,252.533h1.415a1.231,1.231,0,0,0,1.247-1.161,1.2,1.2,0,0,0-1.2-1.235h-1.466a1.2,1.2,0,1,0,0,2.4Z" transform="translate(-288.685 -250.137)" fill="#fe8f83"/>
                <path id="Trazado_1002177" data-name="Trazado 1002177" d="M179.192,252.533h-1.415a1.231,1.231,0,0,1-1.247-1.161,1.2,1.2,0,0,1,1.2-1.235h1.466a1.2,1.2,0,1,1,0,2.4Z" transform="translate(-176.528 -250.137)" fill="#fe8f83"/>
              </g>
            </g>
          </g>
        </g>
      </g>
    </g>
  </g>
</svg>
