<svg xmlns="http://www.w3.org/2000/svg" xmlns:xlink="http://www.w3.org/1999/xlink" width="96" height="96" viewBox="0 0 96 96">
  <defs>
    <clipPath id="clip-path">
      <rect id="Rectángulo_455533" data-name="Rectángulo 455533" width="95.999" height="92.163" fill="#19538d"/>
    </clipPath>
  </defs>
  <g id="Grupo_1182290" data-name="Grupo 1182290" transform="translate(-383.746 -8399)">
    <circle id="Elipse_13674" data-name="Elipse 13674" cx="41.5" cy="41.5" r="41.5" transform="translate(389.746 8406)" fill="#19538d"/>
    <g id="Grupo_1179062" data-name="Grupo 1179062" transform="translate(383.745 8399)">
      <rect id="Rectángulo_455531" data-name="Rectángulo 455531" width="96" height="96" transform="translate(0 0)" fill="none"/>
      <g id="Grupo_1179061" data-name="Grupo 1179061" transform="translate(0 2.203)">
        <path id="Trazado_998445" data-name="Trazado 998445" d="M114.467,95.838H96.727l2.4-4.484h17.739Z" transform="translate(-23.693 -22.7)" fill="#19538d"/>
        <path id="Trazado_998446" data-name="Trazado 998446" d="M1.458,86.893,0,89.861H19.558l1.458-2.968Z" transform="translate(0 -21.618)" fill="#19538d"/>
        <path id="Trazado_998447" data-name="Trazado 998447" d="M117.539,31.293H98.809l1.469-3.326h18.73Z" transform="translate(-24.246 -6.956)" fill="#19538d"/>
        <path id="Trazado_998448" data-name="Trazado 998448" d="M28.088,11.547H3.483L4.952,8.221H29.557Z" transform="translate(-0.925 -2.184)" fill="#19538d"/>
        <g id="Grupo_1179060" data-name="Grupo 1179060" transform="translate(0)">
          <g id="Grupo_1179059" data-name="Grupo 1179059" clip-path="url(#clip-path)">
            <path id="Trazado_998449" data-name="Trazado 998449" d="M48.653,99.141a40.772,40.772,0,0,1-39.711-49.9H3.518A46.036,46.036,0,0,0,84.512,87.248h-7.1A40.6,40.6,0,0,1,48.653,99.141" transform="translate(-0.653 -12.277)" fill="#19538d"/>
            <path id="Trazado_998450" data-name="Trazado 998450" d="M110.835,87.933h6.025c.484-.964.923-1.952,1.34-2.953h-5.792c-.487,1.007-1.008,1.994-1.573,2.953" transform="translate(-27.709 -21.189)" fill="#19538d"/>
            <path id="Trazado_998451" data-name="Trazado 998451" d="M95.384,46.081a46.043,46.043,0,0,0-90.011-13.7h5.589A40.752,40.752,0,1,1,87.147,61.291h5.644a45.915,45.915,0,0,0,2.592-15.209" transform="translate(-1.343)" fill="#19538d"/>
            <path id="Trazado_998452" data-name="Trazado 998452" d="M108.562,81.649v2.5h3.277q.594-1.228,1.106-2.5Z" transform="translate(-27.141 -20.358)" fill="#19538d"/>
            <path id="Trazado_998453" data-name="Trazado 998453" d="M126.164,81.649h-4.551q-.444,1.268-.958,2.5h5.509Z" transform="translate(-30.164 -20.358)" fill="#19538d"/>
          </g>
        </g>
        <path id="Trazado_998444" data-name="Trazado 998444" d="M2.2,37.025,0,41.509H13.317l2.2-4.484Z" transform="translate(0 -9.2)" fill="#19538d"/>
      </g>
    </g>
    <g id="Grupo_1177669" data-name="Grupo 1177669" transform="translate(403.444 8418.662)">
      <g id="Grupo_1099618" data-name="Grupo 1099618" transform="translate(0 0)">
        <rect id="Rectángulo_401104" data-name="Rectángulo 401104" width="56.349" height="57.028" transform="translate(0)" fill="none"/>
      </g>
      <g id="conversacion_3_" data-name="conversacion (3)" transform="translate(1.929 2.642)">
        <g id="Grupo_1182270" data-name="Grupo 1182270" transform="translate(0 17.937)">
          <g id="Grupo_1182269" data-name="Grupo 1182269">
            <path id="Trazado_1002758" data-name="Trazado 1002758" d="M35.668,188.948a1.031,1.031,0,0,0-1.031,1.031v7.113a5.16,5.16,0,0,1-5.154,5.154H18.353a1.031,1.031,0,0,0-1.031,1.03v2.05l-2.46-2.46a1.031,1.031,0,0,0-.945-.619h-6.7a5.16,5.16,0,0,1-5.154-5.154V181.216a5.16,5.16,0,0,1,5.154-5.154H17.628a1.031,1.031,0,0,0,0-2.062H7.216A7.224,7.224,0,0,0,0,181.216v15.875a7.224,7.224,0,0,0,7.216,7.216h6.171l4.234,4.234a1.031,1.031,0,0,0,1.76-.728l0-3.506h10.1a7.224,7.224,0,0,0,7.216-7.216v-7.113A1.031,1.031,0,0,0,35.668,188.948Z" transform="translate(0 -174)" fill="#fff"/>
          </g>
        </g>
        <g id="Grupo_1182272" data-name="Grupo 1182272" transform="translate(20.205)">
          <g id="Grupo_1182271" data-name="Grupo 1182271">
            <path id="Trazado_1002759" data-name="Trazado 1002759" d="M213.592,0h-2.609a14.983,14.983,0,1,0,0,29.966h2.609a15.012,15.012,0,0,0,3.8-.487l3.854,3.852a1.031,1.031,0,0,0,1.76-.729V26.637a15.126,15.126,0,0,0,3.939-4.856,14.822,14.822,0,0,0,1.628-6.8A15,15,0,0,0,213.592,0Zm7.765,25.311a1.031,1.031,0,0,0-.411.823v3.979l-2.523-2.521a1.03,1.03,0,0,0-1.031-.256,12.925,12.925,0,0,1-3.8.568h-2.609a12.921,12.921,0,1,1,0-25.843h2.609a12.922,12.922,0,0,1,7.765,23.25Z" transform="translate(-196)" fill="#fff"/>
          </g>
        </g>
        <g id="Grupo_1182274" data-name="Grupo 1182274" transform="translate(32.417 7.223)">
          <g id="Grupo_1182273" data-name="Grupo 1182273">
            <path id="Trazado_1002760" data-name="Trazado 1002760" d="M323.18,74.12a4.374,4.374,0,0,0-4.047-4.047,4.331,4.331,0,0,0-3.285,1.163,4.38,4.38,0,0,0-1.387,3.191,1.031,1.031,0,0,0,2.062,0,2.3,2.3,0,0,1,2.468-2.3,2.3,2.3,0,0,1,.341,4.544,1.951,1.951,0,0,0-1.537,1.912v2.477a1.031,1.031,0,1,0,2.062,0V78.669A4.342,4.342,0,0,0,323.18,74.12Z" transform="translate(-314.462 -70.063)" fill="#fff"/>
          </g>
        </g>
        <g id="Grupo_1182276" data-name="Grupo 1182276" transform="translate(35.75 21.27)">
          <g id="Grupo_1182275" data-name="Grupo 1182275">
            <path id="Trazado_1002761" data-name="Trazado 1002761" d="M348.56,206.632a1.032,1.032,0,1,0,.3.729A1.039,1.039,0,0,0,348.56,206.632Z" transform="translate(-346.8 -206.33)" fill="#fff"/>
          </g>
        </g>
        <g id="Grupo_1182278" data-name="Grupo 1182278" transform="translate(5.567 31.957)">
          <g id="Grupo_1182277" data-name="Grupo 1182277">
            <path id="Trazado_1002762" data-name="Trazado 1002762" d="M76.782,310H55.031a1.031,1.031,0,1,0,0,2.062H76.782a1.031,1.031,0,1,0,0-2.062Z" transform="translate(-54 -310)" fill="#fff"/>
          </g>
        </g>
        <g id="Grupo_1182280" data-name="Grupo 1182280" transform="translate(27.318 37.73)">
          <g id="Grupo_1182279" data-name="Grupo 1182279">
            <path id="Trazado_1002763" data-name="Trazado 1002763" d="M266.76,366.3a1.03,1.03,0,1,0,.3.729A1.038,1.038,0,0,0,266.76,366.3Z" transform="translate(-265 -366)" fill="#fff"/>
          </g>
        </g>
        <g id="Grupo_1182282" data-name="Grupo 1182282" transform="translate(5.567 37.73)">
          <g id="Grupo_1182281" data-name="Grupo 1182281">
            <path id="Trazado_1002764" data-name="Trazado 1002764" d="M72.727,366h-17.7a1.031,1.031,0,1,0,0,2.062h17.7a1.031,1.031,0,1,0,0-2.062Z" transform="translate(-54 -366)" fill="#fff"/>
          </g>
        </g>
        <g id="Grupo_1182284" data-name="Grupo 1182284" transform="translate(5.567 26.184)">
          <g id="Grupo_1182283" data-name="Grupo 1182283">
            <path id="Trazado_1002765" data-name="Trazado 1002765" d="M70.081,254H55.031a1.031,1.031,0,1,0,0,2.062H70.081a1.031,1.031,0,0,0,0-2.062Z" transform="translate(-54 -254)" fill="#fff"/>
          </g>
        </g>
      </g>
    </g>
  </g>
</svg>
