<svg xmlns="http://www.w3.org/2000/svg" xmlns:xlink="http://www.w3.org/1999/xlink" width="150" height="150" viewBox="0 0 150 150">
  <defs>
    <clipPath id="clip-path">
      <rect id="Rectángulo_455533" data-name="Rectángulo 455533" width="149.812" height="143.185" fill="#7a4f1e"/>
    </clipPath>
  </defs>
  <g id="Grupo_1180237" data-name="Grupo 1180237" transform="translate(-305.059 -10093)">
    <g id="Grupo_1179079" data-name="Grupo 1179079" transform="translate(-78.59 1694.097)">
      <circle id="Elipse_13674" data-name="Elipse 13674" cx="65.5" cy="65.5" r="65.5" transform="translate(393.649 8407.903)" fill="#7a4f1e"/>
      <g id="Grupo_1179062" data-name="Grupo 1179062" transform="translate(383.649 8398.903)">
        <rect id="Rectángulo_455531" data-name="Rectángulo 455531" width="150" height="150" transform="translate(0 0)" fill="none"/>
        <g id="Grupo_1179061" data-name="Grupo 1179061" transform="translate(0.094 3.9)">
          <path id="Trazado_998445" data-name="Trazado 998445" d="M127.367,99.1H96.727l4.153-7.745h30.64Z" transform="translate(13.418 14.697)" fill="#7a4f1e"/>
          <path id="Trazado_998446" data-name="Trazado 998446" d="M2.518,86.893,0,92.019h33.78L36.3,86.893Z" transform="translate(0 14.142)" fill="#7a4f1e"/>
          <path id="Trazado_998447" data-name="Trazado 998447" d="M131.16,33.711H98.809l2.537-5.745H133.7Z" transform="translate(13.977 4.539)" fill="#7a4f1e"/>
          <path id="Trazado_998448" data-name="Trazado 998448" d="M45.981,13.965H3.483L6.02,8.221h42.5Z" transform="translate(0.935 2.207)" fill="#7a4f1e"/>
          <g id="Grupo_1179060" data-name="Grupo 1179060" transform="translate(0)">
            <g id="Grupo_1179059" data-name="Grupo 1179059" clip-path="url(#clip-path)">
              <path id="Trazado_998449" data-name="Trazado 998449" d="M74.461,126.768A63.317,63.317,0,0,1,12.49,49.237H4.026A71.853,71.853,0,0,0,130.42,108.291H119.338a63.5,63.5,0,0,1-44.877,18.477" transform="translate(0.445 8.185)" fill="#7a4f1e"/>
              <path id="Trazado_998450" data-name="Trazado 998450" d="M110.835,89.568h9.4c.755-1.5,1.441-3.033,2.091-4.588h-9.039c-.76,1.565-1.573,3.1-2.454,4.588" transform="translate(18.887 14.126)" fill="#7a4f1e"/>
              <path id="Trazado_998451" data-name="Trazado 998451" d="M145.839,71.593A71.893,71.893,0,0,0,5.373,50.3h8.722A63.623,63.623,0,0,1,137.577,71.593a62.852,62.852,0,0,1-4.591,23.629h8.808a71.048,71.048,0,0,0,4.045-23.629" transform="translate(0.916)" fill="#7a4f1e"/>
              <path id="Trazado_998452" data-name="Trazado 998452" d="M108.562,81.649v3.885h5.115q.927-1.909,1.726-3.885Z" transform="translate(18.499 13.573)" fill="#7a4f1e"/>
              <path id="Trazado_998453" data-name="Trazado 998453" d="M129.252,81.649h-7.1q-.693,1.97-1.495,3.885h8.6Z" transform="translate(20.56 13.573)" fill="#7a4f1e"/>
            </g>
          </g>
          <path id="Trazado_998444" data-name="Trazado 998444" d="M3.8,37.025,0,44.77H23l3.805-7.745Z" transform="translate(0 5.957)" fill="#7a4f1e"/>
        </g>
      </g>
    </g>
    <g id="Grupo_1179080" data-name="Grupo 1179080" transform="translate(336.059 10124)">
      <g id="Grupo_1099618" data-name="Grupo 1099618" transform="translate(0 0)">
        <rect id="Rectángulo_401104" data-name="Rectángulo 401104" width="87.065" height="88.114" transform="translate(0)" fill="none"/>
      </g>
      <path id="presentacion_1_" data-name="presentacion (1)" d="M80.988,39.622h-1.56a13.307,13.307,0,0,0-8.061-9.207,7.707,7.707,0,1,0-9.5,0A13.308,13.308,0,0,0,53.8,39.623h-1.56A1.275,1.275,0,0,0,50.97,40.9v3.986a1.275,1.275,0,0,0,1.275,1.275h.294v6.228a1.275,1.275,0,0,0,1.275,1.275H79.42a1.275,1.275,0,0,0,1.275-1.275V46.158h.294a1.275,1.275,0,0,0,1.275-1.275V40.9a1.275,1.275,0,0,0-1.275-1.275ZM66.616,19.2a5.157,5.157,0,1,1-5.157,5.157A5.163,5.163,0,0,1,66.616,19.2Zm0,12.864a10.713,10.713,0,0,1,10.171,7.562H56.445A10.713,10.713,0,0,1,66.616,32.061Zm-13.1,10.111H79.714v1.437H53.519Zm24.626,8.94H55.088V46.158H78.145ZM2.789,10.441V43.125A2.233,2.233,0,0,0,5.02,45.355h42.3a2.233,2.233,0,0,0,2.231-2.231V10.441a1.913,1.913,0,0,0,1.789-1.906V5.008A1.914,1.914,0,0,0,49.43,3.1H2.912A1.914,1.914,0,0,0,1,5.008V8.536a1.913,1.913,0,0,0,1.789,1.906ZM5.338,42.806V10.448H47V42.806ZM3.549,5.645H48.793V7.9H3.549ZM18.875,70.189a7.678,7.678,0,1,0-9.506,0A13.141,13.141,0,0,0,1,82.416a1.275,1.275,0,0,0,1.275,1.275H25.969a1.275,1.275,0,0,0,1.275-1.275A13.141,13.141,0,0,0,18.875,70.189ZM8.994,64.166a5.128,5.128,0,1,1,5.131,5.128h-.006a5.134,5.134,0,0,1-5.125-5.128ZM3.626,81.142a10.588,10.588,0,0,1,10.493-9.3h.006a10.588,10.588,0,0,1,10.493,9.3ZM46.385,70.189a7.678,7.678,0,1,0-9.506,0A13.141,13.141,0,0,0,28.51,82.416a1.275,1.275,0,0,0,1.275,1.275H53.479a1.275,1.275,0,0,0,1.275-1.275A13.141,13.141,0,0,0,46.385,70.189ZM36.5,64.166a5.128,5.128,0,1,1,5.131,5.128h-.006A5.134,5.134,0,0,1,36.5,64.166ZM31.136,81.142a10.588,10.588,0,0,1,10.493-9.3h.006a10.588,10.588,0,0,1,10.493,9.3ZM73.894,70.189a7.678,7.678,0,1,0-9.506,0,13.141,13.141,0,0,0-8.369,12.227,1.275,1.275,0,0,0,1.275,1.275H80.988a1.275,1.275,0,0,0,1.275-1.275A13.141,13.141,0,0,0,73.894,70.189Zm-9.881-6.023a5.128,5.128,0,1,1,5.131,5.128h-.006A5.134,5.134,0,0,1,64.013,64.166ZM58.645,81.142a10.588,10.588,0,0,1,10.493-9.3h.006a10.588,10.588,0,0,1,10.493,9.3Zm-20.7-66.654H14.393a2.721,2.721,0,0,0-2.718,2.718V37.184A2.721,2.721,0,0,0,14.393,39.9H37.949a2.721,2.721,0,0,0,2.718-2.718V17.205a2.721,2.721,0,0,0-2.718-2.718ZM23.171,17.037h6v3.042l-1.788-1.466a1.918,1.918,0,0,0-2.425,0l-1.788,1.466ZM38.117,37.184a.173.173,0,0,1-.168.168H14.393a.173.173,0,0,1-.168-.168V17.205a.173.173,0,0,1,.168-.168h6.228v4.388a1.9,1.9,0,0,0,1.094,1.729,1.9,1.9,0,0,0,2.031-.25l2.425-1.988L28.6,22.9a1.912,1.912,0,0,0,3.125-1.479V17.037h6.228a.173.173,0,0,1,.168.168V37.184ZM23.629,29.431h-6.35A1.275,1.275,0,0,0,16,30.705V34.3a1.275,1.275,0,0,0,1.275,1.275h6.35A1.275,1.275,0,0,0,24.9,34.3V30.705A1.275,1.275,0,0,0,23.629,29.431Zm-1.275,3.593h-3.8V31.98h3.8Z" transform="translate(0.822 2.555)" fill="#fff"/>
    </g>
  </g>
</svg>
