<svg xmlns="http://www.w3.org/2000/svg" xmlns:xlink="http://www.w3.org/1999/xlink" width="292" height="225" viewBox="0 0 292 225">
  <defs>
    <clipPath id="clip-path">
      <rect id="Rectángulo_458245" data-name="Rectángulo 458245" width="255.938" height="224.88" fill="none"/>
    </clipPath>
    <clipPath id="clip-path-3">
      <rect id="Rectángulo_458231" data-name="Rectángulo 458231" width="4.279" height="13.36" fill="none"/>
    </clipPath>
    <clipPath id="clip-path-4">
      <rect id="Rectángulo_458232" data-name="Rectángulo 458232" width="8.859" height="13.077" fill="none"/>
    </clipPath>
    <clipPath id="clip-path-5">
      <rect id="Rectángulo_458234" data-name="Rectángulo 458234" width="57.437" height="10.242" fill="none"/>
    </clipPath>
  </defs>
  <g id="Grupo_1182219" data-name="Grupo 1182219" transform="translate(-1018 -2689)">
    <path id="Rectángulo_458246" data-name="Rectángulo 458246" d="M59,0H233a59,59,0,0,1,59,59v90a0,0,0,0,1,0,0H0a0,0,0,0,1,0,0V59A59,59,0,0,1,59,0Z" transform="translate(1018 2765)" fill="#cf9eff"/>
    <g id="Grupo_1182218" data-name="Grupo 1182218" transform="translate(1036 2689)">
      <g id="Grupo_1182217" data-name="Grupo 1182217" clip-path="url(#clip-path)">
        <g id="Grupo_1182216" data-name="Grupo 1182216">
          <g id="Grupo_1182215" data-name="Grupo 1182215" clip-path="url(#clip-path)">
            <path id="Trazado_1002565" data-name="Trazado 1002565" d="M166.622,44.337h148.8a1.882,1.882,0,0,0,1.883-1.883v-.139a1.882,1.882,0,0,0-1.883-1.883h-148.8a1.882,1.882,0,0,0-1.883,1.883v.139a1.882,1.882,0,0,0,1.883,1.883" transform="translate(-164.739 -15.061)" fill="#322455"/>
            <path id="Trazado_1002566" data-name="Trazado 1002566" d="M179.41,235.645H313.8a1.882,1.882,0,0,0,1.883-1.883v-.139a1.882,1.882,0,0,0-1.883-1.883H179.41a1.882,1.882,0,0,0-1.883,1.883v.139a1.882,1.882,0,0,0,1.883,1.883" transform="translate(-171.148 -86.32)" fill="#a4a8b0"/>
            <path id="Trazado_1002567" data-name="Trazado 1002567" d="M175.7,54.028H311.156a4.5,4.5,0,0,0,4.5-4.5V46.654H171.2v2.877a4.5,4.5,0,0,0,4.5,4.5" transform="translate(-167.147 -17.378)" fill="#a4a8b0"/>
            <rect id="Rectángulo_458226" data-name="Rectángulo 458226" width="134.363" height="108.77" transform="translate(8.114 36.651)" fill="#dbdee6"/>
            <path id="Trazado_1002568" data-name="Trazado 1002568" d="M180.853,26.332,247.933,2.454l67.08,23.877.2-.568L247.933,1.815l-.1.036L180.65,25.764Z" transform="translate(-172.638 -0.676)" fill="#b9bbc2"/>
            <path id="Trazado_1002569" data-name="Trazado 1002569" d="M285.547,1.458A1.458,1.458,0,1,0,287.005,0a1.459,1.459,0,0,0-1.458,1.458" transform="translate(-211.71)" fill="#322455"/>
            <rect id="Rectángulo_458227" data-name="Rectángulo 458227" width="9.024" height="28.165" transform="translate(120.558 50.819)" fill="#3477bb"/>
            <rect id="Rectángulo_458228" data-name="Rectángulo 458228" width="9.024" height="22.035" transform="translate(108.253 56.949)" fill="#3477bb"/>
            <rect id="Rectángulo_458229" data-name="Rectángulo 458229" width="9.024" height="15.838" transform="translate(95.948 63.146)" fill="#3477bb"/>
            <rect id="Rectángulo_458230" data-name="Rectángulo 458230" width="9.024" height="9.642" transform="translate(83.642 69.343)" fill="#3477bb"/>
            <path id="Trazado_1002570" data-name="Trazado 1002570" d="M195.505,111.644h54.676V78.055a.6.6,0,1,0-1.2,0v32.384H195.505a.6.6,0,1,0,0,1.2" transform="translate(-116.547 -28.85)" fill="#bec4cc"/>
            <path id="Trazado_1002571" data-name="Trazado 1002571" d="M294.364,94.31a12.263,12.263,0,1,1-.048,1.067c0-.362.014-.715.048-1.067m12.228,8.219a7.151,7.151,0,1,0-7.146-7.385c-.005.077-.005.158-.005.233a7.151,7.151,0,0,0,7.151,7.151" transform="translate(-247.617 -30.954)" fill="#bec4cc"/>
            <path id="Trazado_1002572" data-name="Trazado 1002572" d="M315.913,94.9l.291.048a2.4,2.4,0,0,0,2.678-1.61,7.17,7.17,0,0,1,4.932-4.681,2.458,2.458,0,0,0,1.864-2.354V86a2.427,2.427,0,0,0-3.045-2.337,12.3,12.3,0,0,0-8.642,8.133,2.413,2.413,0,0,0,1.921,3.1" transform="translate(-266.703 -31.134)" fill="#3477bb"/>
            <path id="Trazado_1002573" data-name="Trazado 1002573" d="M348.763,104.443a12.221,12.221,0,1,1,.818.686,10.42,10.42,0,0,1-.818-.686m13.954-4.719a7.152,7.152,0,1,0-10.208,1.189c.059.053.121.1.183.147a7.163,7.163,0,0,0,10.025-1.337" transform="translate(-329.714 -30.955)" fill="#bec4cc"/>
            <path id="Trazado_1002574" data-name="Trazado 1002574" d="M367.727,108.674a12.2,12.2,0,0,0,5.57,2.38,2.417,2.417,0,0,0,2.77-2.5l-.014-.3A2.427,2.427,0,0,0,374,105.979a7.111,7.111,0,0,1-3.165-1.372c-.062-.048-.124-.095-.183-.147a7.162,7.162,0,0,1-2.091-8.248,2.457,2.457,0,0,0-.736-2.909l-.24-.183a2.42,2.42,0,0,0-3.691.961,12.279,12.279,0,0,0,3.012,13.909,10.3,10.3,0,0,0,.818.686" transform="translate(-347.859 -34.5)" fill="#162469"/>
            <path id="Trazado_1002575" data-name="Trazado 1002575" d="M241.531,70.942h56.383a2.385,2.385,0,0,0,0-4.77H241.531a2.385,2.385,0,1,0,0,4.77" transform="translate(-194.428 -24.648)" fill="#bec4cc"/>
            <path id="Trazado_1002576" data-name="Trazado 1002576" d="M209.66,160.044h29.9a1.416,1.416,0,0,0,0-2.833h-29.9a1.416,1.416,0,0,0,0,2.833" transform="translate(-115.717 -58.559)" fill="#bec4cc"/>
            <path id="Trazado_1002577" data-name="Trazado 1002577" d="M271.268,160.044h8.112a1.416,1.416,0,0,0,0-2.833h-8.112a1.416,1.416,0,0,0,0,2.833" transform="translate(-194.195 -58.559)" fill="#bec4cc"/>
            <path id="Trazado_1002578" data-name="Trazado 1002578" d="M209.66,171.406h29.9a1.416,1.416,0,0,0,0-2.833h-29.9a1.416,1.416,0,0,0,0,2.833" transform="translate(-115.717 -62.791)" fill="#bec4cc"/>
            <path id="Trazado_1002579" data-name="Trazado 1002579" d="M271.268,171.406h8.112a1.416,1.416,0,0,0,0-2.833h-8.112a1.416,1.416,0,0,0,0,2.833" transform="translate(-194.195 -62.791)" fill="#bec4cc"/>
            <path id="Trazado_1002580" data-name="Trazado 1002580" d="M209.66,182.367h29.9a1.416,1.416,0,0,0,0-2.833h-29.9a1.416,1.416,0,0,0,0,2.833" transform="translate(-115.717 -66.874)" fill="#bec4cc"/>
            <path id="Trazado_1002581" data-name="Trazado 1002581" d="M271.268,182.367h8.112a1.416,1.416,0,0,0,0-2.833h-8.112a1.416,1.416,0,0,0,0,2.833" transform="translate(-194.195 -66.874)" fill="#bec4cc"/>
            <path id="Trazado_1002582" data-name="Trazado 1002582" d="M209.66,193.328h29.9a1.416,1.416,0,0,0,0-2.833h-29.9a1.416,1.416,0,0,0,0,2.833" transform="translate(-115.717 -70.957)" fill="#bec4cc"/>
            <path id="Trazado_1002583" data-name="Trazado 1002583" d="M271.268,193.328h8.112a1.416,1.416,0,0,0,0-2.833h-8.112a1.416,1.416,0,0,0,0,2.833" transform="translate(-194.195 -70.957)" fill="#bec4cc"/>
            <path id="Trazado_1002584" data-name="Trazado 1002584" d="M223.53,207.606h32.835a2.561,2.561,0,1,0,0-5.121H223.53a2.561,2.561,0,1,0,0,5.121" transform="translate(-141.649 -75.423)" fill="#bec4cc"/>
            <path id="Trazado_1002585" data-name="Trazado 1002585" d="M312.632,137.257h32.835a2.561,2.561,0,1,0,0-5.121H312.632a2.561,2.561,0,1,0,0,5.121" transform="translate(-286.664 -49.219)" fill="#bec4cc"/>
            <path id="Trazado_1002586" data-name="Trazado 1002586" d="M312.632,150.746h32.835a2.561,2.561,0,1,0,0-5.121H312.632a2.561,2.561,0,1,0,0,5.121" transform="translate(-286.664 -54.243)" fill="#bec4cc"/>
            <path id="Trazado_1002587" data-name="Trazado 1002587" d="M142.276,239.357s-5.365,9.991-11.1,14.616c0,0,3.145,11.656,0,35.153H120.445s-5-32.562-3.7-43.478,12.813-34.69,12.813-34.69l12.72,2.5Z" transform="translate(40.537 -78.579)" fill="#30699e"/>
            <path id="Trazado_1002588" data-name="Trazado 1002588" d="M85.5,214.5s1.3,23.867,2.5,35.523.644,24.422,3.6,40.146h9.624s4.624-24.422,1.477-37.832c0,0,8.947-23.406,5.584-38.575Z" transform="translate(93.244 -79.624)" fill="#3477bb"/>
            <path id="Trazado_1002589" data-name="Trazado 1002589" d="M111.97,251.5c.033.339,2.681,27.491,2.159,39.092h.566c.516-11.556-2.048-37.865-2.17-39.108.549-16.118-.911-36.377-.922-36.582l-.555.044c.016.2,1.471,20.431.921,36.555" transform="translate(71.49 -80.049)" fill="#5c99d1"/>
            <path id="Trazado_1002590" data-name="Trazado 1002590" d="M112.89,335.523s2.29,3.286,1.387,13.554h-2.012l-1.041-5.759s-.624,4.718-2.5,5.759-9.624,1.04-10.848,0,1.32-2.151,4.072-5,2.8-8.559,2.8-8.559Z" transform="translate(80.228 -124.978)" fill="#322455"/>
            <path id="Trazado_1002591" data-name="Trazado 1002591" d="M148.6,335.523s2.29,3.286,1.387,13.554h-2.012l-1.041-5.759s-.624,4.718-2.5,5.759-9.624,1.04-10.848,0,1.32-2.151,4.073-5,2.8-8.559,2.8-8.559Z" transform="translate(22.106 -124.978)" fill="#322455"/>
            <path id="Trazado_1002592" data-name="Trazado 1002592" d="M173.594,140.762l17.029,5.318,1.832-7.288.371-1.482,1.982-2.081.35-.606L196.7,125.2l-18.556-4.8L177.5,129l-.927,4.729-.117.583Z" transform="translate(-49.696 -44.85)" fill="#bdc5d4"/>
            <path id="Trazado_1002593" data-name="Trazado 1002593" d="M181.572,157.6l17.811,5.273-1.562-4.7v-.006l-17.029-5.318Z" transform="translate(-56.894 -56.933)" fill="#a3adbd"/>
            <path id="Trazado_1002594" data-name="Trazado 1002594" d="M176.055,138.832l15.885,5.062.371-1.482,1.982-2.081.35-.6L176.982,134.1Z" transform="translate(-49.182 -49.952)" fill="#a3adbd"/>
            <path id="Trazado_1002595" data-name="Trazado 1002595" d="M192.14,133.478a.278.278,0,0,0,.074-.545l-14.651-4.059a.278.278,0,0,0-.148.535l14.651,4.059a.274.274,0,0,0,.074.01" transform="translate(-47.682 -48)" fill="#322455"/>
            <path id="Trazado_1002596" data-name="Trazado 1002596" d="M56.4,144.105l-1.665,6.522a8.617,8.617,0,0,0,4.441-.183,58.732,58.732,0,0,0,9.807,10.746c3.6,3.153,7.321,5.678,9.8,5.906a.808.808,0,0,0,.117.006,6.521,6.521,0,0,0,6.822-3.957,4.3,4.3,0,0,0,.383.827,1.266,1.266,0,0,0,.122.194.1.1,0,0,0,.028.039v.006a14.836,14.836,0,0,1,1.965,2.609c1.11,2.081-4.856,17.206-4.856,17.206,15.957,11.239,33.3,2.5,33.3,2.5a72.4,72.4,0,0,1-2.22-11.655c-.694-6.522,1.315-10.335,1.315-10.335,1.038.938,2.559,2.636,4.28,4.452,3.236,3.408,7.182,7.221,9.946,7.132a6.772,6.772,0,0,0,5.833-3.619l-5.073-9.352c-3.813-4.03-7.7-17.279-11.306-20.537a14.447,14.447,0,0,0-4.64-2.664,23.925,23.925,0,0,0-5.168-1.293l-7.748.6a72.914,72.914,0,0,0-9.625,2.06,12.714,12.714,0,0,0-5.151,2.981c-2.681,2.359-9.064,10.318-9.064,10.318-1.654-.444-3.2-.944-4.612-1.471a42.878,42.878,0,0,1-10.885-5.7s-1.665-4.207-3.424-5.084-6.011-1.9-5.917-.694,3.192,2.448,3.192,2.448" transform="translate(86.731 -51.645)" fill="#322455"/>
            <g id="Grupo_1182208" data-name="Grupo 1182208" transform="translate(202.492 103.978)" opacity="0.28" style="mix-blend-mode: multiply;isolation: isolate">
              <g id="Grupo_1182207" data-name="Grupo 1182207" transform="translate(0)">
                <g id="Grupo_1182206" data-name="Grupo 1182206" transform="translate(0)" clip-path="url(#clip-path-3)">
                  <path id="Trazado_1002597" data-name="Trazado 1002597" d="M78.352,174.606c1.038.938,2.558,2.636,4.28,4.452V165.7Z" transform="translate(-78.352 -165.698)" fill="#322455"/>
                </g>
              </g>
            </g>
            <g id="Grupo_1182211" data-name="Grupo 1182211" transform="translate(165.631 102.406)" opacity="0.28" style="mix-blend-mode: multiply;isolation: isolate">
              <g id="Grupo_1182210" data-name="Grupo 1182210" transform="translate(0)">
                <g id="Grupo_1182209" data-name="Grupo 1182209" transform="translate(0)" clip-path="url(#clip-path-4)">
                  <path id="Trazado_1002598" data-name="Trazado 1002598" d="M129.8,176.243a6.521,6.521,0,0,0,6.822-3.958,4.265,4.265,0,0,0,.383.827c-.427-.783-1.421-3.619,1.654-9.918,0,0-6.011,6.094-8.859,13.049" transform="translate(-129.795 -163.194)" fill="#322455"/>
                </g>
              </g>
            </g>
            <path id="Trazado_1002599" data-name="Trazado 1002599" d="M26.637,167.391s1.758,10.823,7.863,9.528c3.3-.7,6.418-16.453,6.8-18.473.027-.139.04-.213.04-.213s5.782-.74,7.54-2.036,2.081-2.636,1.434-2.59c0,0,2.868-1.2,1.711-2.359,0,0,.941-1.462.212-1.665,0,0,.331-1.416-1.241-.908s-4.613,2.666-9.192,2.157a10.337,10.337,0,0,1,1.2-2.267c.879-1.3-.74-1.434-3.006.879a12.827,12.827,0,0,0-2.914,5.921s-4.44,9.9-10.453,12.026" transform="translate(186.704 -54.993)" fill="#eeb68a"/>
            <path id="Trazado_1002600" data-name="Trazado 1002600" d="M30.052,158.64a13.122,13.122,0,0,0,5.175-1.493.278.278,0,0,1,.265.488,13.446,13.446,0,0,1-5.44,1.56.278.278,0,0,1,0-.555" transform="translate(201.617 -58.523)" fill="#d18959"/>
            <path id="Trazado_1002601" data-name="Trazado 1002601" d="M27.25,155.817a.277.277,0,0,1-.021-.554A12.662,12.662,0,0,0,32.958,153a.278.278,0,0,1,.334.444,13.014,13.014,0,0,1-6.02,2.368H27.25" transform="translate(205.609 -56.972)" fill="#d18959"/>
            <path id="Trazado_1002602" data-name="Trazado 1002602" d="M26.913,153.152a.278.278,0,0,1-.029-.553,14.054,14.054,0,0,0,5.828-2.251.277.277,0,0,1,.323.451,14.361,14.361,0,0,1-6.091,2.351l-.03,0" transform="translate(206.074 -55.983)" fill="#d18959"/>
            <path id="Trazado_1002603" data-name="Trazado 1002603" d="M155.817,145.564l-1.665,6.522a8.617,8.617,0,0,0,4.441-.183,58.732,58.732,0,0,0,9.807,10.746,14.746,14.746,0,0,0,4.452-8.054,42.878,42.878,0,0,1-10.885-5.7s-1.665-4.207-3.424-5.084-6.011-1.9-5.917-.694,3.192,2.448,3.192,2.448" transform="translate(-12.687 -53.103)" fill="#eeb68a"/>
            <path id="Trazado_1002604" data-name="Trazado 1002604" d="M88.159,96.723s2.22-3.539,5.55-2.706a42.34,42.34,0,0,1,8.094,3.122c2.937,1.318,5.712,7.563,7.586,13.182a53.422,53.422,0,0,0,2.516,6.377,1.681,1.681,0,0,1-.764,2.236,32.637,32.637,0,0,1-18.751,3.043c-6.377-.853-9.524-1.79-11.073-2.477a1.663,1.663,0,0,1-.831-2.21,27.846,27.846,0,0,0,2.052-8.178c.833-6.838.971-11.209,2.359-12.458s3.261.07,3.261.07" transform="translate(93.452 -34.973)" fill="#281d19"/>
            <path id="Trazado_1002605" data-name="Trazado 1002605" d="M96.7,136.689c6.244,1.76,11.978-4.668,11.978-4.668-1.493-2.4-1.648-6.938-1.61-9.425.016-1.06.067-1.748.067-1.748l-9.047,4.185a10.737,10.737,0,0,1,.877,6.383c-.011.05-.017.1-.033.15a11.158,11.158,0,0,1-2.231,5.123" transform="translate(86.571 -45.014)" fill="#eeb68a"/>
            <path id="Trazado_1002606" data-name="Trazado 1002606" d="M100.021,131.416a1.426,1.426,0,0,1-.033.15,9.815,9.815,0,0,0,8.136-8.97,9.929,9.929,0,0,0,.067-1.748l-9.047,4.185a10.734,10.734,0,0,1,.877,6.383" transform="translate(85.52 -45.014)" fill="#d18959"/>
            <path id="Trazado_1002607" data-name="Trazado 1002607" d="M97.816,103.38a23.948,23.948,0,0,0-1.8,9.436c.139,5.134.7,7.705,2.5,8.811s8.395-1.249,9.991-2.983a9.437,9.437,0,0,0,1.943-4.579,1.672,1.672,0,0,0,1.92-1.418c.277-1.658-2.22-4.433-4.533-.27a9.052,9.052,0,0,1-5.782-4.764c-2.289-4.162-4.232-4.232-4.232-4.232" transform="translate(83.309 -38.508)" fill="#eeb68a"/>
            <rect id="Rectángulo_458233" data-name="Rectángulo 458233" width="57.437" height="81.837" transform="translate(25.717 143.043)" fill="#a2dbe1"/>
            <g id="Grupo_1182214" data-name="Grupo 1182214" transform="translate(25.717 143.043)" opacity="0.48" style="mix-blend-mode: multiply;isolation: isolate">
              <g id="Grupo_1182213" data-name="Grupo 1182213" transform="translate(0)">
                <g id="Grupo_1182212" data-name="Grupo 1182212" transform="translate(0)" clip-path="url(#clip-path-5)">
                  <path id="Trazado_1002608" data-name="Trazado 1002608" d="M275.348,227.952l57.437,10.242V227.952Z" transform="translate(-275.347 -227.952)" fill="#3477bb"/>
                </g>
              </g>
            </g>
            <rect id="Rectángulo_458235" data-name="Rectángulo 458235" width="73.905" height="6.684" transform="translate(14.872 136.359)" fill="#3477bb"/>
            <path id="Trazado_1002609" data-name="Trazado 1002609" d="M298.465,211.087h33.485v3.9H298.465a1.95,1.95,0,0,1,0-3.9" transform="translate(-262.078 -78.627)" fill="#162469"/>
            <path id="Trazado_1002610" data-name="Trazado 1002610" d="M295.558,163.451l-6,32.816H286.9l6.475-35.434a2.219,2.219,0,0,1,2.183,2.618" transform="translate(-219.69 -59.908)" fill="#162469"/>
            <path id="Trazado_1002611" data-name="Trazado 1002611" d="M340.315,186.943l1.6.716-1.6.339.8,6.663-.017.934-.783.346v5.079h24.117v-2.044l-.738.1-.187-1.306.925-4.737v-2.733l-.738-.524.738-1.455v-6.925l-.738-.391.738-.576v-2.038l.613-4.8h-24.73l.83,2.491-.83,5.54.8-.277Z" transform="translate(-322.659 -64.66)" fill="#d7d9de"/>
            <path id="Trazado_1002612" data-name="Trazado 1002612" d="M360.289,192.118l-1.661,3.384a31.531,31.531,0,0,0-10.274-3.384Z" transform="translate(-322.947 -71.561)" fill="#fff"/>
            <path id="Trazado_1002613" data-name="Trazado 1002613" d="M366.477,179.863l-5.106,2.46-.862-2.46Z" transform="translate(-336.764 -66.997)" fill="#fff"/>
            <rect id="Rectángulo_458236" data-name="Rectángulo 458236" width="19.317" height="0.553" transform="translate(22.454 112.59)" fill="#bec4cc"/>
            <rect id="Rectángulo_458237" data-name="Rectángulo 458237" width="8.305" height="0.553" transform="translate(17.656 116.407)" fill="#bec4cc"/>
            <rect id="Rectángulo_458238" data-name="Rectángulo 458238" width="5.106" height="0.553" transform="translate(30.021 116.407)" fill="#bec4cc"/>
            <rect id="Rectángulo_458239" data-name="Rectángulo 458239" width="18.363" height="0.553" transform="translate(21.808 120.28)" fill="#bec4cc"/>
            <rect id="Rectángulo_458240" data-name="Rectángulo 458240" width="8.213" height="0.553" transform="translate(21.808 124.094)" fill="#bec4cc"/>
            <rect id="Rectángulo_458241" data-name="Rectángulo 458241" width="15.442" height="0.553" transform="translate(26.33 128.092)" fill="#bec4cc"/>
            <rect id="Rectángulo_458242" data-name="Rectángulo 458242" width="3.63" height="0.553" transform="translate(19.686 128.092)" fill="#bec4cc"/>
            <rect id="Rectángulo_458243" data-name="Rectángulo 458243" width="16.425" height="0.553" transform="translate(19.255 132.183)" fill="#bec4cc"/>
            <path id="Trazado_1002614" data-name="Trazado 1002614" d="M314.513,284.891s9.282,8.424,21.239-1.866l3.521,14.507s-15.589,8.5-25.408,3.443Z" transform="translate(-280.289 -105.423)" fill="#d2d4dc"/>
            <path id="Trazado_1002615" data-name="Trazado 1002615" d="M306.812,271.244s6.025,10.992,20.685,5.168l-1.406,14.861s-17.509,2.946-25.141-5.037Z" transform="translate(-260.41 -101.035)" fill="#fff"/>
            <path id="Trazado_1002616" data-name="Trazado 1002616" d="M331.421,279.549c-.4.249-.353.834-.5,1.232a1.227,1.227,0,0,1-.209.373c-.12.142-.5.3-.541.463a.226.226,0,0,1-.435-.12.705.705,0,0,1,.326-.414,1.105,1.105,0,0,0,.524-.8,1.53,1.53,0,0,1,.606-1.125c.248-.153.475.237.228.39" transform="translate(-282.499 -103.97)" fill="#9fa4ab"/>
            <path id="Trazado_1002617" data-name="Trazado 1002617" d="M335.96,285.959c-.532.241-.57,1.179-.782,1.652a16.233,16.233,0,0,1-.9,1.489c-.533.911-.515,2.053-1.238,2.841-.2.215-.516-.106-.319-.32.542-.589.524-1.387.816-2.083a9.794,9.794,0,0,1,.827-1.4,8.1,8.1,0,0,0,.73-1.849,1,1,0,0,1,.643-.717c.262-.119.493.27.228.39" transform="translate(-288.884 -106.362)" fill="#9fa4ab"/>
            <path id="Trazado_1002618" data-name="Trazado 1002618" d="M331.467,281.068c-.958.618-.8,1.728-1.13,2.631-.136.369-.375.685-.534,1.04-.281.632-.245,1.341-.464,1.977-.462,1.345-1.35,2.439-1.7,3.871-.068.282-.5.163-.435-.12a10.059,10.059,0,0,1,1.054-2.7,11.806,11.806,0,0,0,.84-2.6,12.954,12.954,0,0,1,.658-1.267,16.532,16.532,0,0,0,.505-1.876,2.228,2.228,0,0,1,.978-1.342c.245-.158.471.233.228.39" transform="translate(-280.953 -104.535)" fill="#9fa4ab"/>
            <path id="Trazado_1002619" data-name="Trazado 1002619" d="M325.866,282.734c-.854.451-.71,1.751-1.3,2.452-.188.222-.506-.1-.319-.32.646-.764.4-2,1.392-2.522.257-.136.485.254.228.39" transform="translate(-273.474 -105.159)" fill="#9fa4ab"/>
            <path id="Trazado_1002620" data-name="Trazado 1002620" d="M323.677,283.593c.169,1.589-.882,2.56-1.33,4.012-.251.814-.489,1.658-.663,2.492a6.57,6.57,0,0,1-.433,1.9c-.134.259-.525.03-.39-.228a9.035,9.035,0,0,0,.436-2c.176-.762.393-1.527.614-2.277.4-1.354,1.47-2.418,1.314-3.892-.031-.289.422-.287.452,0" transform="translate(-269.085 -105.554)" fill="#9fa4ab"/>
            <path id="Trazado_1002621" data-name="Trazado 1002621" d="M320.127,284.773c-.267.389-.178,1.1-.3,1.562-.114.421-.387.747-.517,1.148a9.428,9.428,0,0,0-.1,1.573,6.45,6.45,0,0,1-.558,1.217c-.1.269-.54.152-.437-.12a4.711,4.711,0,0,0,.476-1.791,2.014,2.014,0,0,1,.082-.824,7.86,7.86,0,0,0,.7-1.816,2.29,2.29,0,0,1,.267-1.177c.163-.238.555-.013.39.228" transform="translate(-263.903 -105.951)" fill="#9fa4ab"/>
            <path id="Trazado_1002622" data-name="Trazado 1002622" d="M308.963,294.389a3.6,3.6,0,0,1-.146,1.5,6.039,6.039,0,0,0-.39.828,3.321,3.321,0,0,0,.072,1.409c.053.284-.382.407-.436.12a3.625,3.625,0,0,1-.033-1.771c.087-.272.254-.5.361-.766a3.24,3.24,0,0,0,.12-1.326.226.226,0,0,1,.452,0" transform="translate(-246.267 -109.575)" fill="#9fa4ab"/>
            <path id="Trazado_1002623" data-name="Trazado 1002623" d="M3.464,60.892h41.27A3.465,3.465,0,0,1,48.2,64.356v24.2a3.464,3.464,0,0,1-3.464,3.464H15.552A13.456,13.456,0,0,1,5.6,98.515c2.878-1.694,3.586-3.507,3.887-6.491H3.464A3.464,3.464,0,0,1,0,88.56v-24.2a3.465,3.465,0,0,1,3.464-3.464" transform="translate(207.739 -22.681)" fill="#a2dbe1"/>
          </g>
        </g>
      </g>
    </g>
  </g>
</svg>
