<svg xmlns="http://www.w3.org/2000/svg" xmlns:xlink="http://www.w3.org/1999/xlink" width="393.652" height="324.694" viewBox="0 0 393.652 324.694">
  <defs>
    <clipPath id="clip-path">
      <rect id="Rectángulo_409291" data-name="Rectángulo 409291" width="393.652" height="324.694" fill="#9ecfff" stroke="#707070" stroke-width="1" opacity="0.65"/>
    </clipPath>
    <clipPath id="clip-path-2">
      <rect id="Rectángulo_456832" data-name="Rectángulo 456832" width="291.721" height="264.771" fill="none"/>
    </clipPath>
  </defs>
  <g id="Grupo_1182437" data-name="Grupo 1182437" transform="translate(-914.457 -945)">
    <g id="Grupo_1182346" data-name="Grupo 1182346" transform="translate(913.457 945)">
      <g id="Grupo_1176836" data-name="Grupo 1176836" transform="translate(0 0)">
        <g id="Grupo_1119113" data-name="Grupo 1119113" transform="translate(1 0)" clip-path="url(#clip-path)">
          <rect id="Imagen_95" data-name="Imagen 95" width="549.51" height="331.145" transform="translate(-154 -4.751)" fill="#9ecfff"/>
        </g>
      </g>
    </g>
    <g id="Grupo_1180395" data-name="Grupo 1180395" transform="translate(954.5 957.293)">
      <g id="Grupo_1180378" data-name="Grupo 1180378" transform="translate(0)">
        <rect id="Rectángulo_456683" data-name="Rectángulo 456683" width="312.367" height="299.456" transform="translate(0)" fill="none"/>
        <path id="Trazado_1003005" data-name="Trazado 1003005" d="M124.9,0A124.9,124.9,0,1,0,249.8,124.9,124.9,124.9,0,0,0,124.9,0Z" transform="translate(62.764 25.964)" fill="#f3f9ff"/>
        <g id="Grupo_1180374" data-name="Grupo 1180374" transform="translate(10.285 26.408)">
          <g id="Enmascarar_grupo_1180373" data-name="Enmascarar grupo 1180373" clip-path="url(#clip-path-2)">
            <path id="Trazado_1000597" data-name="Trazado 1000597" d="M78.752,162.554H24.114a5.66,5.66,0,0,1-5.352-7.285L44.856,65.327a5.592,5.592,0,0,1,5.351-4.07h54.638a5.659,5.659,0,0,1,5.351,7.285L84.1,158.484a5.592,5.592,0,0,1-5.351,4.07" transform="translate(154.846 26.17)" fill="#1c2123"/>
            <path id="Trazado_1000598" data-name="Trazado 1000598" d="M76.973,162.554H29.381a5.658,5.658,0,0,1-5.351-7.285L50.122,65.327a5.592,5.592,0,0,1,5.351-4.07h47.592a5.659,5.659,0,0,1,5.351,7.285L82.323,158.484a5.592,5.592,0,0,1-5.351,4.07" transform="translate(149.109 26.17)" fill="#edbc9c"/>
            <path id="Trazado_1000599" data-name="Trazado 1000599" d="M111.7,135.156H53.871a4.884,4.884,0,0,1,0-9.768H111.7a4.884,4.884,0,1,1,0,9.768" transform="translate(105.22 53.568)" fill="#1c2123"/>
            <rect id="Rectángulo_456825" data-name="Rectángulo 456825" width="46.741" height="4.918" transform="translate(177.896 254.084)" fill="#1c2123"/>
            <path id="Trazado_1000600" data-name="Trazado 1000600" d="M85.78,181.955a4.687,4.687,0,1,1-5.391-3.858,4.687,4.687,0,0,1,5.391,3.858" transform="translate(96.742 76.059)" fill="#1c2123"/>
            <rect id="Rectángulo_456826" data-name="Rectángulo 456826" width="4.918" height="68.133" transform="translate(198.192 187.963)" fill="#1c2123"/>
            <path id="Trazado_1000601" data-name="Trazado 1000601" d="M53.03,181.955a4.687,4.687,0,1,1-5.389-3.858,4.685,4.685,0,0,1,5.389,3.858" transform="translate(176.232 76.059)" fill="#1c2123"/>
            <path id="Trazado_1000602" data-name="Trazado 1000602" d="M101.094,135.156H43.263a4.884,4.884,0,1,1,0-9.768h57.831a4.884,4.884,0,0,1,0,9.768" transform="translate(130.968 53.568)" fill="#1c2123"/>
            <path id="Trazado_1000603" data-name="Trazado 1000603" d="M120.692,185.407l8.692-27.605,13.825-.734-8.67,29.623-13.334.084Z" transform="translate(-23.742 67.103)" fill="#edbc9c"/>
            <path id="Trazado_1000604" data-name="Trazado 1000604" d="M163.273,174.624s-11.434,4.7-16.8-2.709l-23.538,14.3,43.886-.283Z" transform="translate(-50.545 73.445)"/>
            <rect id="Rectángulo_456827" data-name="Rectángulo 456827" width="4.042" height="43.886" transform="matrix(-0.006, -1, 1, -0.006, 72.414, 263.701)" fill="#fff"/>
            <path id="Trazado_1000605" data-name="Trazado 1000605" d="M140.51,177.829a.765.765,0,0,1-.321-.244,16.017,16.017,0,0,0-3.617-3.527.716.716,0,0,1-.214-1.023.807.807,0,0,1,1.073-.205,17.209,17.209,0,0,1,4.013,3.888.718.718,0,0,1-.171,1.032.809.809,0,0,1-.764.08" transform="translate(-44.298 73.785)" fill="#fff"/>
            <path id="Trazado_1000606" data-name="Trazado 1000606" d="M143.157,179.154a.765.765,0,0,1-.321-.244,16.016,16.016,0,0,0-3.617-3.527A.716.716,0,0,1,139,174.36a.8.8,0,0,1,1.073-.206,17.209,17.209,0,0,1,4.013,3.888.716.716,0,0,1-.171,1.032.809.809,0,0,1-.764.08" transform="translate(-50.723 74.35)" fill="#fff"/>
            <path id="Trazado_1000607" data-name="Trazado 1000607" d="M145.8,180.477a.77.77,0,0,1-.32-.244,16.048,16.048,0,0,0-3.618-3.527.716.716,0,0,1-.214-1.022.8.8,0,0,1,1.073-.205,17.171,17.171,0,0,1,4.015,3.886.718.718,0,0,1-.171,1.032.812.812,0,0,1-.765.08" transform="translate(-57.144 74.916)" fill="#fff"/>
            <path id="Trazado_1000608" data-name="Trazado 1000608" d="M151.135,101.551l-12.016.764a19.941,19.941,0,0,0-17.944,14.542l-18.832,72.533,23.9,1.145,24.894-67.288Z" transform="translate(-5.481 43.385)" fill="#6f82e8"/>
            <path id="Trazado_1000609" data-name="Trazado 1000609" d="M146.806,168.944H115.291l2.187-11.619h31.513Z" transform="translate(-21.816 67.212)" fill="#a0b0ff"/>
            <path id="Trazado_1000610" data-name="Trazado 1000610" d="M93.512,185.3l.4-27.238,13.827-.734-.381,29.257-13.335.084Z" transform="translate(50.519 67.212)" fill="#edbc9c"/>
            <path id="Trazado_1000611" data-name="Trazado 1000611" d="M130.285,174.624s-11.433,4.7-16.8-2.709l-23.538,14.3,43.886-.283Z" transform="translate(29.524 73.445)"/>
            <rect id="Rectángulo_456828" data-name="Rectángulo 456828" width="4.042" height="43.886" transform="matrix(-0.006, -1, 1, -0.006, 119.495, 263.701)" fill="#fff"/>
            <path id="Trazado_1000612" data-name="Trazado 1000612" d="M107.522,177.829a.765.765,0,0,1-.321-.244,16.017,16.017,0,0,0-3.617-3.527.716.716,0,0,1-.214-1.023.807.807,0,0,1,1.073-.205,17.208,17.208,0,0,1,4.013,3.888.717.717,0,0,1-.171,1.032.809.809,0,0,1-.764.08" transform="translate(35.771 73.785)" fill="#fff"/>
            <path id="Trazado_1000613" data-name="Trazado 1000613" d="M110.169,179.154a.765.765,0,0,1-.321-.244,15.969,15.969,0,0,0-3.618-3.527.716.716,0,0,1-.213-1.023.8.8,0,0,1,1.073-.206,17.209,17.209,0,0,1,4.013,3.888.717.717,0,0,1-.171,1.032.809.809,0,0,1-.764.08" transform="translate(29.346 74.35)" fill="#fff"/>
            <path id="Trazado_1000614" data-name="Trazado 1000614" d="M112.815,180.477a.765.765,0,0,1-.321-.244,16.049,16.049,0,0,0-3.618-3.527.716.716,0,0,1-.214-1.022.8.8,0,0,1,1.073-.205,17.141,17.141,0,0,1,4.015,3.886.717.717,0,0,1-.171,1.032.809.809,0,0,1-.764.08" transform="translate(22.923 74.916)" fill="#fff"/>
            <path id="Trazado_1000615" data-name="Trazado 1000615" d="M133.684,97.23l-44.061,5.325H61.513a14.983,14.983,0,0,0-14.992,14.759c-.375,25.189,1.573,77.539,2.757,77.3,1.6-.32,24.61,0,24.61,0l2.339-57.2,38.345.32c3.956-1.113,29.986-4.972,19.11-40.51" transform="translate(89.071 41.539)" fill="#8292fd"/>
            <rect id="Rectángulo_456829" data-name="Rectángulo 456829" width="31.514" height="11.619" transform="translate(134.139 224.537)" fill="#a0b0ff"/>
            <path id="Trazado_1000616" data-name="Trazado 1000616" d="M92.275,83.619l25.286-3.647L113.04,92.729,90.157,93.8Z" transform="translate(45.485 34.166)" fill="#e3b99a"/>
            <path id="Trazado_1000617" data-name="Trazado 1000617" d="M122.16,82.219c4.366,2.814,5.757,6.971,1.6,10.34s-11.067,3.821-15.433,1-4.514-6.971-.357-10.34a12.064,12.064,0,0,1,14.188-1" transform="translate(15.68 34.336)" fill="#e3b99a"/>
            <path id="Trazado_1000618" data-name="Trazado 1000618" d="M77.956,79.962l24.919-2.292c4.536-.764,9.919,2.807,10.982,7.283a8.737,8.737,0,0,1-7.546,10.7l-25.8-1.269Z" transform="translate(66.365 33.138)" fill="#fff"/>
            <path id="Trazado_1000619" data-name="Trazado 1000619" d="M87.445,55.437s-9.109,15.383-8.412,46.211l21.737,4.47L98.319,60.585Z" transform="translate(78.208 23.684)" fill="#fff"/>
            <path id="Trazado_1000620" data-name="Trazado 1000620" d="M68.541,46.169s19.857-.625,26.418,13.7,11.626,62.287,11.626,62.287-18.423,10.918-52.345,2.222L45.6,59.406s9.114-13.94,22.938-13.237" transform="translate(120.05 19.713)" fill="#fff"/>
            <path id="Trazado_1000621" data-name="Trazado 1000621" d="M82.154,62.13c.3,21.273,5.038,33.554,5.038,33.554" transform="translate(87.277 26.543)" fill="none" stroke="#dddada" stroke-miterlimit="10" stroke-width="0.976"/>
            <path id="Trazado_1000622" data-name="Trazado 1000622" d="M78.509,90.209l-12.8-32.9c-.034-.066-1.581-2.034-1.617-2.1l-.011-.02h0A9.772,9.772,0,0,0,45.75,59.917c0,1.63-1.978,2.174-1.27,3.525.026.049,1.049,2.6,1.076,2.643L58.254,99c2.4,4.21,11.957,5.8,16.289,3.628a9.12,9.12,0,0,0,3.966-12.418" transform="translate(148.886 21.422)" fill="#fff"/>
            <line id="Línea_3393" data-name="Línea 3393" x1="7.808" y1="20.091" transform="translate(196.25 88.179)" fill="none" stroke="#dddada" stroke-miterlimit="10" stroke-width="0.976"/>
            <path id="Trazado_1000623" data-name="Trazado 1000623" d="M69.709,81.881,95,78.236,90.474,90.991,67.591,92.063Z" transform="translate(100.258 33.424)" fill="#e3b99a"/>
            <path id="Trazado_1000624" data-name="Trazado 1000624" d="M99.594,80.481c4.366,2.814,5.757,6.971,1.6,10.34s-11.067,3.821-15.433,1-4.514-6.971-.357-10.34a12.064,12.064,0,0,1,14.188-1" transform="translate(70.452 33.593)" fill="#e3b99a"/>
            <path id="Trazado_1000625" data-name="Trazado 1000625" d="M44.327,78.578,85.035,75.1c4.537-.764,9.921,2.806,10.982,7.282a8.736,8.736,0,0,1-7.546,10.7L46.881,93Z" transform="translate(132.2 32.042)" fill="#fff"/>
            <path id="Trazado_1000626" data-name="Trazado 1000626" d="M58.152,82.054l-.524-3.681,33.233-2.836" transform="translate(118.611 32.271)" fill="none" stroke="#dddada" stroke-miterlimit="10" stroke-width="0.976"/>
            <path id="Trazado_1000627" data-name="Trazado 1000627" d="M89.469,32.748s-11.445-8.521-6.213-16.416,14.729-1.055,14.729-1.055Z" transform="translate(76.865 5.352)" fill="#1f2326"/>
            <path id="Trazado_1000628" data-name="Trazado 1000628" d="M66.242,13.084S98.488,8.52,84.292,33.492l-3.669-10.13Z" transform="translate(109.276 5.45)" fill="#1f2326"/>
            <path id="Trazado_1000629" data-name="Trazado 1000629" d="M88.1,17.762s-5.4,4.513,1.373,14.423L91.276,19.54Z" transform="translate(77.621 7.588)" fill="#1f2326"/>
            <path id="Trazado_1000630" data-name="Trazado 1000630" d="M93.577,31.229a4.9,4.9,0,0,1-4.2,5.492,4.852,4.852,0,0,1-5.332-4.35,4.905,4.905,0,0,1,4.2-5.492,4.853,4.853,0,0,1,5.332,4.35" transform="translate(78.205 11.469)" fill="#d39d7e"/>
            <path id="Trazado_1000631" data-name="Trazado 1000631" d="M69.461,38.786l4.128,15.574c.992,4.267,3.865,3.307,6.034,3.234,3.377-.2,7.17-1.717,6.845-5.369L81.556,32.433Z" transform="translate(106.097 13.856)" fill="#edbc9c"/>
            <path id="Trazado_1000632" data-name="Trazado 1000632" d="M83.5,51.256h0c-6.749.343-12.585-4.881-13.059-10.564L69.514,28.8A13.1,13.1,0,0,1,80.781,14.545c7.036-.843,14.653,4.216,15.491,11.485l.609,9.277A14.868,14.868,0,0,1,83.5,51.256" transform="translate(95.659 6.175)" fill="#edbc9c"/>
            <path id="Trazado_1000633" data-name="Trazado 1000633" d="M82.087,30.969l-.2,3.355h1.774" transform="translate(91.189 13.231)" fill="none" stroke="#000" stroke-linecap="round" stroke-linejoin="round" stroke-width="0.523"/>
            <path id="Trazado_1000634" data-name="Trazado 1000634" d="M78.357,25.257s-2.944-.134-2.926,1.1c0,0,.034.836,2.6.9s3.226-.154,3.43-.948-1.728-1.1-3.106-1.053" transform="translate(102.588 10.789)" fill="#1f2326"/>
            <path id="Trazado_1000635" data-name="Trazado 1000635" d="M86.725,25.854s2.413-.353,2.656.8c0,0,.146.781-1.968,1.04s-2.816.009-3.041-.617c-.254-.709,1.2-1.157,2.353-1.222" transform="translate(81.962 11.024)" fill="#1f2326"/>
            <path id="Trazado_1000636" data-name="Trazado 1000636" d="M87.282,30.272a1.233,1.233,0,1,1-1.32-1.18,1.257,1.257,0,0,1,1.32,1.18" transform="translate(83.379 12.427)" fill="#1f2326"/>
            <path id="Trazado_1000637" data-name="Trazado 1000637" d="M79.729,29.717a1.233,1.233,0,1,1-1.32-1.18,1.258,1.258,0,0,1,1.32,1.18" transform="translate(101.712 12.19)" fill="#1f2326"/>
            <path id="Trazado_1000638" data-name="Trazado 1000638" d="M67.936,26.6s-.445-3.123,5.685-3.883,14.021-.247,18.39,5.216l.1,8.6,5.473-5.4-2.88-12.8L78.328,12.986,68.53,19.8Z" transform="translate(97.19 5.548)" fill="#1f2326"/>
            <path id="Trazado_1000639" data-name="Trazado 1000639" d="M74.6,29.987a4.857,4.857,0,0,1-4.156,5.439,4.807,4.807,0,0,1-5.281-4.307,4.858,4.858,0,0,1,4.156-5.439A4.8,4.8,0,0,1,74.6,29.987" transform="translate(124.133 10.957)" fill="#edbc9c"/>
            <path id="Trazado_1000640" data-name="Trazado 1000640" d="M67.172,31.248s-.407-3.532,2.927-3.37" transform="translate(125.776 11.908)" fill="none" stroke="#000" stroke-linecap="round" stroke-linejoin="round" stroke-width="0.523"/>
            <path id="Trazado_1000641" data-name="Trazado 1000641" d="M69.229,16.71s-1.46-3.731,3.678-5.8c4.419-1.781,8.987-1.022,18.848,5.653Z" transform="translate(101.435 4.307)" fill="#1f2326"/>
            <path id="Trazado_1000642" data-name="Trazado 1000642" d="M69.784,42.991a1.946,1.946,0,0,1,1.177-1.758,19.808,19.808,0,0,1,4.982-1.374c2.966-.464,7.243.477,9.548,1.085a2.176,2.176,0,0,0,2.5-1.119,27.135,27.135,0,0,0,2.205-18.532l3.41,2.469L93.156,29s-2.66,5.672,1.5,8.191c0,0,.2,11.74-10.678,13.858a16.286,16.286,0,0,1-9.628-1.277,7.93,7.93,0,0,1-4.57-6.784" transform="translate(97.463 9.096)" fill="#1f2326"/>
            <path id="Trazado_1000643" data-name="Trazado 1000643" d="M70.667,47.535a21.422,21.422,0,0,0-4.7,2.341s-1.784,5.606,8.513,4.857c9.943-.724,13.668-7.481,13.668-7.481a23.717,23.717,0,0,0-8.662-1.09,61.908,61.908,0,0,0-8.82,1.374" transform="translate(109.591 19.697)" fill="#edbc9c"/>
            <path id="Trazado_1000644" data-name="Trazado 1000644" d="M75.849,28.642s-7.152-1.668-4.394-8.649,6.118,1.9,6.118,1.9Z" transform="translate(113.069 7.398)" fill="#1f2326"/>
            <path id="Trazado_1000645" data-name="Trazado 1000645" d="M143.113,85.805H107.479a1.434,1.434,0,0,0,0,2.869h35.633a1.434,1.434,0,0,0,0-2.869" transform="translate(-4.176 36.658)" fill="#121314"/>
            <path id="Trazado_1000646" data-name="Trazado 1000646" d="M120.29,85.805H94.654a1.434,1.434,0,1,0,0,2.869H120.29a1.434,1.434,0,0,0,0-2.869" transform="translate(36.951 36.658)" fill="#455157"/>
            <path id="Trazado_1000647" data-name="Trazado 1000647" d="M186.585,94.618h-75.2a3.353,3.353,0,0,1-3.353-3.353V43.213a3.353,3.353,0,0,1,3.353-3.353h75.2a3.353,3.353,0,0,1,3.353,3.353V91.266a3.353,3.353,0,0,1-3.353,3.353" transform="translate(-52.407 17.029)" fill="#455157"/>
            <path id="Trazado_1000648" data-name="Trazado 1000648" d="M187.844,94.618h-75.2a3.353,3.353,0,0,1-3.353-3.353V43.213a3.353,3.353,0,0,1,3.353-3.353h75.2a3.353,3.353,0,0,1,3.353,3.353V91.266a3.353,3.353,0,0,1-3.353,3.353" transform="translate(-55.463 17.029)" fill="#2e353a"/>
            <path id="Trazado_1000649" data-name="Trazado 1000649" d="M129.146,57.7,148.771,87h-28.23Z" transform="translate(-29.089 24.65)" fill="#121314"/>
            <path id="Trazado_1000650" data-name="Trazado 1000650" d="M144.621,57.175h12.625A1.79,1.79,0,0,1,159,59.322l-8.152,40.149a1.791,1.791,0,0,1-1.754,1.434H135.841a1.791,1.791,0,0,1-1.748-2.174l8.78-40.149a1.788,1.788,0,0,1,1.748-1.407" transform="translate(-58.635 24.426)" fill="#455157"/>
            <path id="Trazado_1000651" data-name="Trazado 1000651" d="M153.52,85.805H130.229v2.869H153.52a1.434,1.434,0,0,0,0-2.869" transform="translate(-49.099 36.658)" fill="#455157"/>
            <line id="Línea_3394" data-name="Línea 3394" y2="133.632" transform="translate(65.4 129.801)" fill="none" stroke="#e8e2df" stroke-miterlimit="10" stroke-width="1.952"/>
            <line id="Línea_3395" data-name="Línea 3395" y2="133.632" transform="translate(189.752 129.801)" fill="none" stroke="#e8e2df" stroke-miterlimit="10" stroke-width="1.952"/>
            <rect id="Rectángulo_456830" data-name="Rectángulo 456830" width="134.277" height="8.94" transform="translate(33.905 125.331)" fill="#baaea7"/>
            <rect id="Rectángulo_456831" data-name="Rectángulo 456831" width="50.105" height="8.94" transform="translate(168.182 125.331)" fill="#e8e2df"/>
            <circle id="Elipse_13862" data-name="Elipse 13862" cx="24.744" cy="24.744" r="24.744" transform="translate(236.295 0.734)" fill="#ffd470"/>
          </g>
        </g>
        <g id="Grupo_1180377" data-name="Grupo 1180377" transform="translate(7.924 3.905)">
          <g id="Grupo_1180381" data-name="Grupo 1180381" transform="translate(0 0)">
            <path id="Trazado_1000655" data-name="Trazado 1000655" d="M180.426,59.536h88.84a3.945,3.945,0,0,0,3.945-3.945V29.651a3.945,3.945,0,0,0-3.945-3.945h-88.84a3.945,3.945,0,0,0-3.945,3.945v25.94a3.945,3.945,0,0,0,3.945,3.945" transform="translate(-176.481 -25.706)" fill="#62249e"/>
            <path id="Trazado_1000656" data-name="Trazado 1000656" d="M202.755,38.161V55.018L183.194,38.161Z" transform="translate(-121.167 -10.067)" fill="#62249e"/>
            <line id="Línea_3396" data-name="Línea 3396" x1="65.629" transform="translate(15.958 12.508)" fill="none" stroke="#fff" stroke-linecap="round" stroke-linejoin="round" stroke-width="2"/>
            <line id="Línea_3397" data-name="Línea 3397" x1="23.143" transform="translate(58.445 21.319)" fill="none" stroke="#fff" stroke-linecap="round" stroke-linejoin="round" stroke-width="2"/>
          </g>
        </g>
        <g id="monitor" transform="translate(257.427 38.527)">
          <path id="Trazado_1003006" data-name="Trazado 1003006" d="M18.709,41.09H25.8a.709.709,0,0,0,.7-.8l-.709-5.672a.709.709,0,0,0-.7-.621H19.418a.709.709,0,0,0-.7.621l-.709,5.672a.709.709,0,0,0,.7.8ZM25,39.672H19.512l.532-4.254h4.42Z" transform="translate(-8.074 -12.73)"/>
          <path id="Trazado_1003007" data-name="Trazado 1003007" d="M7.545,26.688h21.27a3.549,3.549,0,0,0,3.545-3.545V7.545A3.549,3.549,0,0,0,28.814,4H7.545A3.549,3.549,0,0,0,4,7.545v15.6A3.549,3.549,0,0,0,7.545,26.688Zm21.27-21.27a2.127,2.127,0,0,1,2.127,2.127v15.6a2.127,2.127,0,0,1-2.127,2.127H7.545a2.127,2.127,0,0,1-2.127-2.127V7.545A2.127,2.127,0,0,1,7.545,5.418Z" transform="translate(-4 -4)"/>
          <path id="Trazado_1003008" data-name="Trazado 1003008" d="M10.709,14.672H22.053a.709.709,0,0,0,.709-.709V9.709A.709.709,0,0,0,22.053,9H10.709A.709.709,0,0,0,10,9.709v4.254A.709.709,0,0,0,10.709,14.672Zm10.635-1.418H11.418V10.418h9.926Z" transform="translate(1.344 -5.455)"/>
          <path id="Trazado_1003009" data-name="Trazado 1003009" d="M31.19,14.381A3.19,3.19,0,1,0,28,11.19,3.19,3.19,0,0,0,31.19,14.381Zm0-4.963a1.772,1.772,0,1,1-1.772,1.772A1.772,1.772,0,0,1,31.19,9.418Z" transform="translate(-23.037 -5.164)"/>
          <path id="Trazado_1003010" data-name="Trazado 1003010" d="M34.679,17.536a.709.709,0,0,0,.5-.208l2.148-2.148a.709.709,0,1,0-1-1l-2.148,2.148a.709.709,0,0,0,.5,1.21Z" transform="translate(-30.425 -6.901)"/>
          <path id="Trazado_1003011" data-name="Trazado 1003011" d="M15.709,43.418H27.053a.709.709,0,0,0,0-1.418H15.709a.709.709,0,0,0,0,1.418Z" transform="translate(-7.201 -15.059)"/>
          <path id="Trazado_1003012" data-name="Trazado 1003012" d="M4.709,29.418H31.65a.709.709,0,0,0,0-1.418H4.709a.709.709,0,0,0,0,1.418Z" transform="translate(-4 -10.984)"/>
          <path id="Trazado_1003013" data-name="Trazado 1003013" d="M12.709,20.418h15.6a.709.709,0,0,0,0-1.418h-15.6a.709.709,0,0,0,0,1.418Z" transform="translate(-6.328 -8.365)"/>
          <path id="Trazado_1003014" data-name="Trazado 1003014" d="M12.709,24.418h15.6a.709.709,0,0,0,0-1.418h-15.6a.709.709,0,0,0,0,1.418Z" transform="translate(-6.328 -9.529)"/>
        </g>
      </g>
    </g>
  </g>
</svg>
