<svg xmlns="http://www.w3.org/2000/svg" width="149.854" height="56.325" viewBox="0 0 149.854 56.325">
  <g id="Grupo_1182457" data-name="Grupo 1182457" transform="translate(-1189.406 -500.175)">
    <g id="Grupo_1178807" data-name="Grupo 1178807" transform="translate(14.928 -4)">
      <path id="Trazado_998133" data-name="Trazado 998133" d="M49.7-29.171h105.16L110.165,18.695H5Z" transform="translate(1169.474 541.806)" fill="#19538d"/>
    </g>
    <path id="validacion-de-datos" d="M46.33,28.8a14.6,14.6,0,1,0,.994,28.641v5.445H14.983V23.549h5.463v.543a1.733,1.733,0,0,0,1.733,1.733H40.128a1.733,1.733,0,0,0,1.733-1.733v-.543h5.463v3.457ZM18.322,39.271H27.38a.867.867,0,1,0,0-1.733H18.322a.867.867,0,0,0,0,1.733Zm0,11.03H27.38a.867.867,0,1,0,0-1.733H18.322a.867.867,0,1,0,0,1.733Zm0,11.03H38.808a.867.867,0,0,0,0-1.733H18.322a.867.867,0,1,0,0,1.733Zm0-25.738H30.094a.867.867,0,1,0,0-1.733H18.322a.867.867,0,1,0,0,1.733Zm0,11.03H27.38a.867.867,0,1,0,0-1.733H18.322a.867.867,0,1,0,0,1.733Zm11.23-18.776H18.864a.541.541,0,0,0-.542.542v2.059a.541.541,0,0,0,.542.542H29.552a.542.542,0,0,0,.542-.542V28.39a.542.542,0,0,0-.542-.542Zm-11.23,15.1H27.38a.867.867,0,1,0,0-1.733H18.322a.867.867,0,1,0,0,1.733Zm0,14.707H33.705a.867.867,0,0,0,0-1.733H18.322a.867.867,0,1,0,0,1.733Zm0-3.677H27.38a.867.867,0,1,0,0-1.733H18.322a.867.867,0,1,0,0,1.733ZM49.058,23.955V22.682a.867.867,0,0,0-.867-.867h-6.33V19.44H49.1a2.335,2.335,0,0,1,2.33,2.33v1.206h-.343a2.6,2.6,0,0,0-2.033.979Zm-28.612-2.14h-6.33a.867.867,0,0,0-.867.867V63.751a.867.867,0,0,0,.867.867H48.191a.867.867,0,0,0,.867-.867v-6.83a14.544,14.544,0,0,0,2.376-1.131v8.87a2.336,2.336,0,0,1-2.33,2.333h-35.9a2.336,2.336,0,0,1-2.333-2.333V21.77a2.336,2.336,0,0,1,2.333-2.33h7.238Zm1.733-3.243a.542.542,0,0,1,.542-.542H27.3a3.963,3.963,0,0,1,7.7,0h4.58a.541.541,0,0,1,.542.542V23.55a.542.542,0,0,1-.542.542H22.721a.542.542,0,0,1-.542-.542Zm8.975.815a1.137,1.137,0,1,0-1.136-1.139A1.143,1.143,0,0,0,31.154,19.387Zm19.3,12.692a12.791,12.791,0,1,1-5.028-1.654L42.81,35.144a2.6,2.6,0,1,0,4.547,2.522ZM42.334,44.351l-2.876-2.876a1.909,1.909,0,1,0-2.7,2.7l4.227,4.231a1.909,1.909,0,0,0,2.7,0c2.549-2.549,5.068-5.125,7.606-7.686a1.906,1.906,0,0,0-2.7-2.688Zm3.508-7.526a.867.867,0,0,1-1.516-.841l6.007-10.829a.867.867,0,0,1,.758-.446h11.8a.867.867,0,0,1,0,1.733H51.6Zm17.053-9.264a.867.867,0,0,1,0,1.733H57.916a.867.867,0,0,1,0-1.733Zm0,2.851a.867.867,0,0,1,0,1.733H57.916a.867.867,0,0,1,0-1.733Z" transform="translate(1233.266 485.175)" fill="#fff" fill-rule="evenodd"/>
  </g>
</svg>
