<svg xmlns="http://www.w3.org/2000/svg" width="85" height="85" viewBox="0 0 85 85">
  <g id="Grupo_1182438" data-name="Grupo 1182438" transform="translate(-289.457 -1315)">
    <g id="Grupo_1182347" data-name="Grupo 1182347" transform="translate(-416.172 905)">
      <path id="Sustracción_110" data-name="Sustracción 110" d="M16060.959,19914.512h0l-50,0-2-4.793h-27l-2,4.793h-4v-85h51.371l2,4.793h27l2-4.793h2.627v85Z" transform="translate(-15270.33 -19419.512)" fill="#ffd470"/>
      <path id="Trazado_998455" data-name="Trazado 998455" d="M-3,0H20l3,7H0Z" transform="translate(766.629 410)" fill="#19538d"/>
    </g>
    <g id="desarrollador-de-software" transform="translate(300.718 1325.5)">
      <path id="Trazado_1003015" data-name="Trazado 1003015" d="M10,11V37.788L6.086,46.594A1,1,0,0,0,7,48h3.98v7A6.614,6.614,0,0,0,14,60.554V63h2V60a1,1,0,0,0-.5-.867A4.72,4.72,0,0,1,12.98,55V47a.5.5,0,0,1,1,0v3h2V45a.5.5,0,0,1,1,0v5h2V43a.5.5,0,0,1,1,0v7h2V44.988a.5.5,0,0,1,1,.012v8a1,1,0,0,0,1.646.764l1.517-1.284a1.008,1.008,0,0,0,.166-.179.768.768,0,0,1,.628-.324.76.76,0,0,1,.747.523.827.827,0,0,1,0,.538L24.962,57.76A2.183,2.183,0,0,1,23,59a1,1,0,0,0-1,1v3h2V60.88a4.113,4.113,0,0,0,2.726-2.18l2.724-4.731a2.824,2.824,0,0,0,.138-2.08,2.785,2.785,0,0,0-4.608-1.1V48H37.02v2.787A2.785,2.785,0,0,0,32.41,51.9a2.848,2.848,0,0,0,.177,2.141l2.656,4.6A4.179,4.179,0,0,0,38,60.88V63h2V60a1,1,0,0,0-1-1,2.219,2.219,0,0,1-1.994-1.3l-2.65-4.6a.814.814,0,0,1-.042-.6.784.784,0,0,1,1.377-.206,1.008,1.008,0,0,0,.166.179l1.517,1.284A1,1,0,0,0,39.02,53V45a.5.5,0,1,1,1-.012V50h2V43a.5.5,0,0,1,1,0v7h2V45a.5.5,0,0,1,1,0v5h2V47a.5.5,0,0,1,1,0v8a4.72,4.72,0,0,1-2.52,4.133A1,1,0,0,0,46,60v3h2V60.554A6.614,6.614,0,0,0,51.02,55V48H55a1,1,0,0,0,.914-1.406L52,37.788V28H50v9H12V12H41V10H11a1,1,0,0,0-1,1ZM50.35,39l3.111,7H50.808a2.475,2.475,0,0,0-2.834-1.436A2.5,2.5,0,0,0,45.518,42.5a2.448,2.448,0,0,0-.545.064,2.493,2.493,0,0,0-4.911,0A2.486,2.486,0,0,0,37.02,45v1H24.98V45a2.486,2.486,0,0,0-3.042-2.437,2.493,2.493,0,0,0-4.911,0,2.448,2.448,0,0,0-.545-.064,2.5,2.5,0,0,0-2.456,2.064A2.475,2.475,0,0,0,11.192,46H8.539l3.111-7Z"/>
      <path id="Trazado_1003016" data-name="Trazado 1003016" d="M25.985,20.643l-5,3a1,1,0,0,0,0,1.714l5,3,1.03-1.714L23.444,24.5l3.571-2.143Z"/>
      <path id="Trazado_1003017" data-name="Trazado 1003017" d="M36.015,28.357l5-3a1,1,0,0,0,0-1.714l-5-3-1.03,1.714L38.556,24.5l-3.571,2.143Z"/>
      <path id="Trazado_1003018" data-name="Trazado 1003018" d="M26.728,23.5h8.544v2H26.728Z" transform="translate(-2.825 44.924) rotate(-69.444)"/>
      <path id="Trazado_1003019" data-name="Trazado 1003019" d="M43.4,11.988a7.553,7.553,0,0,0,3.667,6.469v3.076a3.933,3.933,0,0,0,7.866,0V18.457A7.6,7.6,0,1,0,43.4,11.988Zm9.533,9.545a1.933,1.933,0,1,1-3.866,0v-1.2h3.866ZM50.827,6.364H51a5.6,5.6,0,0,1,2.486,10.61,1,1,0,0,0-.555.895v.467H49.067v-.467a1,1,0,0,0-.555-.9A5.572,5.572,0,0,1,45.4,11.98a5.7,5.7,0,0,1,5.427-5.616Z"/>
      <path id="Trazado_1003020" data-name="Trazado 1003020" d="M50,1h2V3.2H50Z"/>
      <path id="Trazado_1003021" data-name="Trazado 1003021" d="M43,3.9h2V6.1H43Z" transform="translate(9.352 32.577) rotate(-45)"/>
      <path id="Trazado_1003022" data-name="Trazado 1003022" d="M56.9,4h2.2V6H56.9Z" transform="translate(13.453 42.477) rotate(-45)"/>
    </g>
  </g>
</svg>
