<svg xmlns="http://www.w3.org/2000/svg" width="69.323" height="69.323" viewBox="0 0 69.323 69.323">
  <g id="Grupo_1180072" data-name="Grupo 1180072" transform="translate(-611.711 -1228)">
    <rect id="Rectángulo_456277" data-name="Rectángulo 456277" width="69.323" height="69.323" transform="translate(611.711 1228)" fill="#19538d"/>
    <g id="precio-bajo" transform="translate(620.711 1190.371)">
      <path id="Trazado_1000050" data-name="Trazado 1000050" d="M312.1,80.45a.814.814,0,0,1-.814-.814V52.806a.412.412,0,0,0-.408-.406h-9.558a.406.406,0,0,0-.4.406V79.637a.814.814,0,0,1-.814.814H295.13L306.1,93.182,311.86,86.5l5.218-6.049Z" transform="translate(-265.261 -0.692)" fill="#fff"/>
      <path id="Trazado_1000051" data-name="Trazado 1000051" d="M66.232,114.9h4.6V99.254a16.544,16.544,0,1,0-2.178,22.068l-3.507-4.068a1.424,1.424,0,0,1,1.08-2.353Zm-2.525-1.72a5.344,5.344,0,0,1-1.841,3.625,6.281,6.281,0,0,1-3.108,1.452v1.961a1.207,1.207,0,0,1-1.205,1.2h-.267a1.2,1.2,0,0,1-1.205-1.2v-1.992a6.29,6.29,0,0,1-3.617-2.268,1.2,1.2,0,0,1,.454-1.838l.252-.113a1.192,1.192,0,0,1,1.436.343,3.615,3.615,0,0,0,2.814,1.345,4.012,4.012,0,0,0,2.679-.9,2.7,2.7,0,0,0,.939-1.808c.141-1.943-1.957-2.552-3.534-2.568a6.838,6.838,0,0,1-4.7-1.64,4.7,4.7,0,0,1-1.479-3.8,5.382,5.382,0,0,1,1.841-3.625,6.325,6.325,0,0,1,3.111-1.449V97.948a1.207,1.207,0,0,1,1.205-1.2h.267a1.209,1.209,0,0,1,1.205,1.2V99.94a6.277,6.277,0,0,1,3.614,2.271,1.2,1.2,0,0,1-.451,1.838l-.252.113a1.19,1.19,0,0,1-1.436-.343,3.616,3.616,0,0,0-2.817-1.345,4.012,4.012,0,0,0-2.679.9,2.715,2.715,0,0,0-.939,1.8c-.138,1.946,1.957,2.552,3.534,2.571a6.86,6.86,0,0,1,4.7,1.636A4.711,4.711,0,0,1,63.707,113.18Z" transform="translate(-36.806 -36.77)" fill="#fff"/>
      <path id="Trazado_1000052" data-name="Trazado 1000052" d="M20.71,90.483A18.169,18.169,0,1,1,34.031,59.946V56.479a20.683,20.683,0,1,0,.526,31.211l-1.642-1.9a18.077,18.077,0,0,1-12.206,4.7Z" fill="#fff"/>
    </g>
  </g>
</svg>
