<svg xmlns="http://www.w3.org/2000/svg" width="90" height="90" viewBox="0 0 90 90">
  <g id="Grupo_1180066" data-name="Grupo 1180066" transform="translate(-751.711 -718)">
    <circle id="Elipse_13689" data-name="Elipse 13689" cx="45" cy="45" r="45" transform="translate(751.711 718)" fill="#fff"/>
    <g id="Flat" transform="translate(767.63 734.368)">
      <rect id="Rectángulo_456908" data-name="Rectángulo 456908" width="41" height="13" rx="2" transform="translate(6.081 1.632)" fill="#d1d3d4"/>
      <path id="Trazado_1000003" data-name="Trazado 1000003" d="M10,6H43.734v5.326H10Z" transform="translate(-0.449 -0.449)" fill="#a7a9ac"/>
      <path id="Trazado_1000004" data-name="Trazado 1000004" d="M41.3,9.775H12.888a.888.888,0,1,1,0-1.775H41.3a.888.888,0,1,1,0,1.775Z" transform="translate(-0.674 -0.674)" fill="#939598"/>
      <path id="Trazado_1000005" data-name="Trazado 1000005" d="M27.755,24V50.632H10V32.877L15.326,24Z" transform="translate(-0.449 -2.47)" fill="#efc7bd"/>
      <path id="Trazado_1000006" data-name="Trazado 1000006" d="M16,9H39.081V43.622H16Z" transform="translate(-1.123 -0.786)" fill="#88d392"/>
      <path id="Trazado_1000007" data-name="Trazado 1000007" d="M0,0H7.99V20.418H0Z" transform="translate(7.775 55.264) rotate(-90)" fill="#a6a1ce"/>
      <path id="Trazado_1000008" data-name="Trazado 1000008" d="M35.979,9V36.52a3.551,3.551,0,0,0-3.551,3.551H23.551A3.551,3.551,0,0,0,20,36.52V9Z" transform="translate(-1.572 -0.786)" fill="#bbe6c1"/>
      <circle id="Elipse_13689-2" data-name="Elipse 13689" cx="5.5" cy="5.5" r="5.5" transform="translate(21.081 16.632)" fill="#e9f0e3"/>
      <path id="Trazado_1000009" data-name="Trazado 1000009" d="M15,37.238l4.516-4.494a2.564,2.564,0,0,1,3.613,0,2.533,2.533,0,0,1,0,3.6L15,44.428Z" transform="translate(-1.01 -3.368)" fill="#efc7bd"/>
      <ellipse id="Elipse_13690" data-name="Elipse 13690" cx="9.5" cy="10" rx="9.5" ry="10" transform="translate(33.081 35.632)" fill="#f0725c"/>
      <path id="Trazado_1000010" data-name="Trazado 1000010" d="M46.439,57.326a.888.888,0,0,1-.627-.26L42.26,53.515a.888.888,0,1,1,1.255-1.255l2.923,2.923,2.923-2.923a.888.888,0,1,1,1.255,1.255l-3.551,3.551A.888.888,0,0,1,46.439,57.326Z" transform="translate(-4.042 -5.613)" fill="#f1f2f2"/>
      <path id="Trazado_1000011" data-name="Trazado 1000011" d="M46.888,56.428A.888.888,0,0,1,46,55.541V44.888a.888.888,0,1,1,1.775,0V55.541A.888.888,0,0,1,46.888,56.428Z" transform="translate(-4.491 -4.715)" fill="#f1f2f2"/>
      <path id="Trazado_1000012" data-name="Trazado 1000012" d="M14.888,45.3a.888.888,0,0,1-.626-1.517l8.129-8.088a1.646,1.646,0,0,0,0-2.337A.888.888,0,1,1,23.643,32.1a3.421,3.421,0,0,1,0,4.854L15.514,45.04A.888.888,0,0,1,14.888,45.3Z" transform="translate(-0.898 -3.35)" fill="#e0b0a6"/>
    </g>
  </g>
</svg>
