<svg xmlns="http://www.w3.org/2000/svg" xmlns:xlink="http://www.w3.org/1999/xlink" width="812.289" height="237" viewBox="0 0 812.289 237">
  <defs>
    <clipPath id="clip-path">
      <rect id="Rectángulo_456334" data-name="Rectángulo 456334" width="562.21" height="220.77" fill="none"/>
    </clipPath>
  </defs>
  <g id="Grupo_1182464" data-name="Grupo 1182464" transform="translate(-393.855 -1082.863)">
    <g id="Grupo_1179947" data-name="Grupo 1179947" transform="translate(0.145 67.863)">
      <rect id="Rectángulo_456316" data-name="Rectángulo 456316" width="812" height="237" transform="translate(393.711 1015)" fill="#cf9eff"/>
      <g id="Grupo_1179870" data-name="Grupo 1179870" transform="translate(526.091 1031.23)">
        <g id="Rectángulo_456335" data-name="Rectángulo 456335" transform="translate(491.62 18.77)" fill="none" stroke="#fff" stroke-width="2">
          <rect width="172" height="91" stroke="none"/>
          <rect x="1" y="1" width="170" height="89" fill="none"/>
        </g>
        <g id="Rectángulo_456336" data-name="Rectángulo 456336" transform="translate(-116.38 18.77)" fill="none" stroke="#fff" stroke-width="2">
          <rect width="172" height="91" stroke="none"/>
          <rect x="1" y="1" width="170" height="89" fill="none"/>
        </g>
        <rect id="Rectángulo_456317" data-name="Rectángulo 456317" width="165.702" height="88.709" transform="translate(87.289 20.294)" fill="none" stroke="#eae6e7" stroke-miterlimit="10" stroke-width="2.022"/>
        <rect id="Rectángulo_456318" data-name="Rectángulo 456318" width="121.191" height="88.709" transform="translate(345.606 20.294)" fill="none" stroke="#eae6e7" stroke-miterlimit="10" stroke-width="2.022"/>
        <rect id="Rectángulo_456319" data-name="Rectángulo 456319" width="74.148" height="89.291" transform="translate(263.053 20.294)" fill="none" stroke="#eae6e7" stroke-miterlimit="10" stroke-width="1.771"/>
        <rect id="Rectángulo_456320" data-name="Rectángulo 456320" width="812" height="36.502" transform="translate(-132.091 184.268)" fill="#62249e"/>
        <rect id="Rectángulo_456321" data-name="Rectángulo 456321" width="65.885" height="13.592" transform="translate(222.432 170.677)" fill="#4964ab"/>
        <rect id="Rectángulo_456322" data-name="Rectángulo 456322" width="57.736" height="10.987" transform="translate(226.506 173.288)" fill="#1c2540"/>
        <g id="Grupo_1179869" data-name="Grupo 1179869" transform="translate(-7.196)">
          <g id="Grupo_1179868" data-name="Grupo 1179868" clip-path="url(#clip-path)">
            <path id="Trazado_998878" data-name="Trazado 998878" d="M256.921,191.155a2.4,2.4,0,1,1,2.4-2.4,2.4,2.4,0,0,1-2.4,2.4m0-3.967a1.567,1.567,0,1,0,1.567,1.567,1.569,1.569,0,0,0-1.567-1.567" transform="translate(-13.622 -9.974)" fill="#f5ad49"/>
            <path id="Trazado_998879" data-name="Trazado 998879" d="M277.281,191.155a2.4,2.4,0,1,1,2.4-2.4,2.4,2.4,0,0,1-2.4,2.4m0-3.967a1.567,1.567,0,1,0,1.566,1.567,1.57,1.57,0,0,0-1.566-1.567" transform="translate(-14.711 -9.974)" fill="#ff4846"/>
            <path id="Trazado_998880" data-name="Trazado 998880" d="M297.64,191.155a2.4,2.4,0,1,1,2.4-2.4,2.4,2.4,0,0,1-2.4,2.4m0-3.967a1.567,1.567,0,1,0,1.567,1.567,1.569,1.569,0,0,0-1.567-1.567" transform="translate(-15.801 -9.974)" fill="#f5ad49"/>
            <path id="Trazado_998881" data-name="Trazado 998881" d="M428.447,149.116c-.465-.584-.91-1.182-1.367-1.771-2.086-2.022-4.144-4.076-6.193-6.138-3.6-3.626-7.189-7.27-10.555-11.11-9.172,10.561-17.757,20.513-27.547,31.133-20.663-6.742-33.046-11.391-53.208-19.445a3.238,3.238,0,0,0-.552-.154c-2.708-1.338-7.858-3.813-9.131-3.93-1.75-.159-12.565.637-12.565,2.386s9.543,2.386,9.543,2.386-19.723,5.725-19.086,8.27c0,0-2.386,2.863-.8,4.135,0,0,2.386,2.545,4.772,1.431,0,0,10.437-3.559,19.767-3.236,15.6,9.9,25.532,19.729,41.891,28.239q7.339,3.815,14.843,7.449.852.412,1.723.757A26.057,26.057,0,0,0,406,185.553q4.055-3.281,8.034-6.7t7.832-6.99c4.929-4.556,9.688-9.3,14.2-14.259a97.668,97.668,0,0,1-7.611-8.489" transform="translate(-15.865 -6.963)" fill="#ebaf7f"/>
            <path id="Trazado_998882" data-name="Trazado 998882" d="M297.84,156.345a21.921,21.921,0,0,1,11.076-4.183c-1.853.766-3.7,1.4-5.531,2.109-1.841.681-3.649,1.423-5.544,2.075" transform="translate(-15.94 -8.144)" fill="#e48855"/>
            <path id="Trazado_998883" data-name="Trazado 998883" d="M297.9,152.757A25.91,25.91,0,0,1,303,150.634a25.645,25.645,0,0,1,5.405-1.1,42.554,42.554,0,0,1-5.161,1.9,43.2,43.2,0,0,1-5.337,1.328" transform="translate(-15.944 -8.003)" fill="#e48855"/>
            <path id="Trazado_998884" data-name="Trazado 998884" d="M473.13,95.7s-18.632,1.8-24.012,2.794-23.59,13.6-35.738,32.022c0,0,13.882,26.407,25.734,30.82l14.4-13.423,12.248-48.272Z" transform="translate(-22.124 -5.122)" fill="#ff4846"/>
            <path id="Trazado_998885" data-name="Trazado 998885" d="M416.621,127.874c.726,1.609,1.476,3.2,2.281,4.769q1.176,2.364,2.464,4.666a90.712,90.712,0,0,0,5.583,8.923,54.67,54.67,0,0,0,6.744,8.033,31.944,31.944,0,0,0,4.007,3.383,26.738,26.738,0,0,0,4.537,2.663,26.363,26.363,0,0,1-8.983-5.579,38.216,38.216,0,0,1-3.7-3.83q-1.736-2.02-3.283-4.189a78.7,78.7,0,0,1-5.467-9.1,74.267,74.267,0,0,1-4.183-9.735" transform="translate(-22.297 -6.844)" fill="#822523"/>
            <path id="Trazado_998886" data-name="Trazado 998886" d="M394.671,178.427a36.961,36.961,0,0,0,12.7-2.361c18.073-6.581,15.63-54.176,15.518-56.2l-2.648.148c.026.475,2.459,47.646-13.777,53.559-13.139,4.783-22.5.676-26.912-2.2L378.1,173.6a30.283,30.283,0,0,0,16.57,4.83" transform="translate(-20.236 -6.415)" fill="#28365d"/>
            <path id="Trazado_998887" data-name="Trazado 998887" d="M420.527,67.208h4.59l-1.179.831c5.518,2.731,9.577,11.918,9.577,22.839,0,10.626-3.842,19.617-9.133,22.61l.265.008.4,1.052h-4.516c-7.173,0-12.988-10.6-12.988-23.67s5.814-23.67,12.988-23.67" transform="translate(-21.811 -3.597)" fill="#28365d"/>
            <path id="Trazado_998888" data-name="Trazado 998888" d="M394.133,148.64h3.937l.891-11.788h-5.719Z" transform="translate(-21.046 -7.324)" fill="#28365d"/>
            <rect id="Rectángulo_456323" data-name="Rectángulo 456323" width="54.879" height="1.49" transform="translate(330.606 182.785)" fill="#28365d"/>
            <path id="Trazado_998889" data-name="Trazado 998889" d="M349.3,192.753h54.879l-6.471-6.506H355.771Z" transform="translate(-18.694 -9.968)" fill="#1c2540"/>
            <rect id="Rectángulo_456324" data-name="Rectángulo 456324" width="14.748" height="4.816" transform="translate(367.681 120.724)" fill="#28365d"/>
            <path id="Trazado_998890" data-name="Trazado 998890" d="M390.589,137.374h10.452a1.254,1.254,0,0,0,1.174-.814l1.5-4a.519.519,0,0,0-.411-.695l-2.316-.335a36.032,36.032,0,0,0-10.348,0l-2.316.335a.518.518,0,0,0-.411.695l1.5,4a1.255,1.255,0,0,0,1.175.814" transform="translate(-20.759 -7.019)" fill="#1c2540"/>
            <path id="Trazado_998891" data-name="Trazado 998891" d="M389.151,127.783l1.351.252a29,29,0,0,0,10.608,0l1.351-.252a1.755,1.755,0,0,0,1.434-1.725V104.574H387.717v21.483a1.755,1.755,0,0,0,1.434,1.725" transform="translate(-20.75 -5.597)" fill="#1c2540"/>
            <path id="Trazado_998892" data-name="Trazado 998892" d="M404.109,99.667l-.67-17.68a3.626,3.626,0,0,0-3.624-3.489h-8.165a3.627,3.627,0,0,0-3.624,3.49l-.671,17.781Z" transform="translate(-20.731 -4.201)" fill="#28365d"/>
            <path id="Trazado_998893" data-name="Trazado 998893" d="M387.48,104.614h16.578a.458.458,0,0,0,.458-.458v-3.3a.459.459,0,0,0-.458-.459H387.48a.458.458,0,0,0-.458.459v3.3a.458.458,0,0,0,.458.458" transform="translate(-20.713 -5.373)" fill="#1c2540"/>
            <path id="Trazado_998894" data-name="Trazado 998894" d="M395.116,78.494a2.949,2.949,0,0,0-2.131,2.909c-.1,2.458,0,18.31,0,18.31h-1.655V81.353a2.956,2.956,0,0,1,3.787-2.859" transform="translate(-20.944 -4.197)" fill="#1c2540"/>
            <path id="Trazado_998895" data-name="Trazado 998895" d="M375.379,118.221c.025-.263,1.069-.475,2.355-.475s2.331.212,2.356.475h0v66.115c0,.268-1.055.485-2.358.485s-2.358-.217-2.358-.485V118.221Z" transform="translate(-20.09 -6.302)" fill="#28365d"/>
            <path id="Trazado_998896" data-name="Trazado 998896" d="M377.617,140.853c2.438,0,4.414.393,4.414.878v17.206c0,.485-1.976.877-4.414.877s-4.414-.393-4.414-.877V141.731c0-.486,1.976-.878,4.414-.878" transform="translate(-19.973 -7.538)" fill="#1c2540"/>
            <rect id="Rectángulo_456325" data-name="Rectángulo 456325" width="28.517" height="2.408" transform="translate(355.286 116.434)" fill="#4964ab"/>
            <path id="Trazado_998897" data-name="Trazado 998897" d="M422.073,120.842h3.762A2.164,2.164,0,0,0,428,118.678V116.1h-8.09v2.576a2.164,2.164,0,0,0,2.164,2.164" transform="translate(-22.473 -6.214)" fill="#28365d"/>
            <path id="Trazado_998898" data-name="Trazado 998898" d="M412.874,90.657c0,12.467,5.609,22.574,12.529,22.574s12.529-10.107,12.529-22.574-5.61-22.574-12.529-22.574S412.874,78.19,412.874,90.657" transform="translate(-22.097 -3.644)" fill="#1c2540"/>
            <path id="Trazado_998899" data-name="Trazado 998899" d="M423.844,112.9a7.18,7.18,0,0,0,2.146.33c6.92,0,12.528-10.106,12.528-22.573s-5.608-22.575-12.528-22.575a7.15,7.15,0,0,0-2.146.33c5.9,1.83,10.386,11.093,10.386,22.244s-4.488,20.412-10.386,22.242" transform="translate(-22.684 -3.644)" fill="#28365d"/>
            <path id="Trazado_998900" data-name="Trazado 998900" d="M411.6,90.879c0,13.074,6.112,23.669,13.657,23.669s13.657-10.595,13.657-23.669S432.8,67.207,425.26,67.207,411.6,77.8,411.6,90.879m1.58-.08c0-12.074,5.405-21.859,12.077-21.859s12.074,9.785,12.074,21.859-5.4,21.859-12.074,21.859S413.183,102.87,413.183,90.8" transform="translate(-22.029 -3.597)" fill="#4964ab"/>
            <path id="Trazado_998901" data-name="Trazado 998901" d="M391.031,146.868a21.086,21.086,0,0,1-15.381,19.151c-5.408,1.363-11.332.472-16.431,2.75s-8.409,7.3-11.483,12.021c-5.183,7.967-10.637,15.945-17.961,21.949-2.882,2.362-6.622,4.485-10.137,3.291a4.484,4.484,0,0,1-1.949-1.5,59.131,59.131,0,0,0-14.236-12.941c-3.1-1.946-5.473-3.941-4.859-5.214" transform="translate(-15.975 -7.86)" fill="none" stroke="#28365d" stroke-miterlimit="10" stroke-width="0.879"/>
            <path id="Trazado_998902" data-name="Trazado 998902" d="M520.291,97.874a127.809,127.809,0,0,0-20.45-3.832V59.125h-25V93.749a111.334,111.334,0,0,0-23.393,4.125c-12.295,21.577-2.1,47.264-2.1,47.264l11.636,40.585h51.374s7.787-25.687,12-40.585-4.063-47.264-4.063-47.264" transform="translate(-23.836 -3.164)" fill="#ebaf7f"/>
            <path id="Trazado_998903" data-name="Trazado 998903" d="M476.509,83v4.677a19.819,19.819,0,0,0,7.323-1.137,25.757,25.757,0,0,0,9.667-6.244c3.3-3.262,5.953-8.449,8.008-14.112V62.836c-1.985,5.154-4.48,9.807-7.521,12.813a25.745,25.745,0,0,1-9.667,6.244,19.4,19.4,0,0,1-7.81,1.1" transform="translate(-25.502 -3.363)" fill="#e48855"/>
            <path id="Trazado_998904" data-name="Trazado 998904" d="M474.752,95.7s-4.385,7.329-3.711,14.7,6.624,16.295,6.624,16.295L499.751,95.7a118.638,118.638,0,0,1,16.936,2.408,14.472,14.472,0,0,1,11.482,12.99c.612,7.446,1.291,16.893,1.212,21.265-.141,7.788-11.9,57.025-11.9,57.025H460.018l-14.727-46.844s-3.611-15.881,0-27.84,5.449-15.536,5.449-15.536,13.733-3.031,24.012-3.467" transform="translate(-23.746 -5.122)" fill="#ff4846"/>
            <path id="Trazado_998905" data-name="Trazado 998905" d="M448.757,154.192A96.894,96.894,0,0,1,444,141.836a40.782,40.782,0,0,1-1.488-6.491,23.313,23.313,0,0,1,.251-6.691c.728-4.376,1.761-8.671,2.911-12.932,1.174-4.254,2.442-8.48,3.883-12.65l-1.653,6.4c-.56,2.131-1.091,4.268-1.61,6.407-1.018,4.281-2.055,8.566-2.71,12.9a22.5,22.5,0,0,0-.322,6.469,48.749,48.749,0,0,0,1.35,6.411c.569,2.12,1.229,4.219,1.934,6.3.681,2.094,1.44,4.162,2.207,6.229" transform="translate(-23.675 -5.516)" fill="#822523"/>
            <path id="Trazado_998906" data-name="Trazado 998906" d="M471.277,98.43a39.03,39.03,0,0,0-1.851,8.648,16.615,16.615,0,0,0,.124,4.365,22.855,22.855,0,0,0,1.359,4.165q1.689,4.085,3.709,8.039c.674,1.315,1.366,2.619,2.1,3.9.367.638.743,1.271,1.139,1.884.2.3.4.61.613.9a3.827,3.827,0,0,0,.638.722c0-.006,0-.009-.006,0s-.082-.023-.119,0c-.061.024-.014,0-.026,0a.761.761,0,0,0,.135-.1,4.7,4.7,0,0,0,.367-.355c.244-.257.484-.533.719-.812.47-.56.928-1.139,1.381-1.721.9-1.167,1.787-2.354,2.663-3.546l5.192-7.207,10.316-14.481c-3.172,5.01-6.452,9.948-9.79,14.848-1.657,2.459-3.377,4.874-5.105,7.286-.868,1.2-1.744,2.4-2.645,3.585-.451.592-.909,1.179-1.386,1.758-.239.29-.484.575-.747.857a5.513,5.513,0,0,1-.43.42,1.428,1.428,0,0,1-.316.22.49.49,0,0,1-.153.057.611.611,0,0,1-.255,0,1.512,1.512,0,0,1-.257-.118,4.167,4.167,0,0,1-.839-.927c-.227-.31-.433-.627-.636-.944-.4-.635-.777-1.281-1.143-1.93-.732-1.3-1.418-2.619-2.084-3.948a88.929,88.929,0,0,1-3.629-8.148,23.411,23.411,0,0,1-1.281-4.308,16.821,16.821,0,0,1-.012-4.495,36.482,36.482,0,0,1,2.255-8.607" transform="translate(-25.094 -5.268)" fill="#822523"/>
            <path id="Trazado_998907" data-name="Trazado 998907" d="M419.723,182.395s-16.095-4.189-29.538-2.347a.4.4,0,0,0-.069.8l9.477,2.264s-15.732,2.6-15.609,3.546,4.094,1.679,4.094,1.679-.982,3.128.838,3.272,13.809-.321,13.809-.321-7.546,2.706-6.727,3.692,21.615-1.011,21.615-1.011Z" transform="translate(-20.55 -9.611)" fill="#ebaf7f"/>
            <path id="Trazado_998908" data-name="Trazado 998908" d="M500.906,163.215a57.383,57.383,0,0,1-12.8-3.757l-2.395,10.307-69.852,10.623-.944,12.415s93.514,5.314,97.487.126c3.055-3.991,6.856-14.794,10.912-28.245a112.958,112.958,0,0,1-22.408-1.47" transform="translate(-22.206 -8.534)" fill="#ebaf7f"/>
            <path id="Trazado_998909" data-name="Trazado 998909" d="M489.729,170.529a10.365,10.365,0,0,1,2.795,1.349,10.253,10.253,0,0,1,2.336,2.042,10.229,10.229,0,0,1-2.795-1.349,10.341,10.341,0,0,1-2.336-2.042" transform="translate(-26.21 -9.127)" fill="#e48855"/>
            <path id="Trazado_998910" data-name="Trazado 998910" d="M388.8,188.859a26.586,26.586,0,0,1,12.248-1.59c-2.05.388-4.079.623-6.11.9-2.035.25-4.057.541-6.138.691" transform="translate(-20.808 -10.014)" fill="#e48855"/>
            <path id="Trazado_998911" data-name="Trazado 998911" d="M502.29,95.7s10.7,1.407,19.565,3.013a17.6,17.6,0,0,1,13.9,12.824,44.432,44.432,0,0,1,1.412,10.584c.212,13.815-6.907,38.893-6.907,38.893s-23.8,2.87-39.106-8.5Z" transform="translate(-26.286 -5.122)" fill="#ff4846"/>
            <path id="Trazado_998912" data-name="Trazado 998912" d="M492.061,156.66c-1.077-.908-2.139-1.831-3.2-2.754a.128.128,0,0,1-.043-.124v-.008c.775-3.911,1.615-7.808,2.455-11.7.877-3.887,1.712-7.785,2.626-11.664s1.793-7.766,2.77-11.63c.949-3.871,1.921-7.737,2.964-11.587-.738,3.919-1.546,7.824-2.377,11.721-.8,3.905-1.717,7.784-2.57,11.677s-1.812,7.762-2.714,11.644c-.941,3.873-1.882,7.746-2.887,11.6l-.041-.132c1.01.981,2.021,1.96,3.016,2.956" transform="translate(-26.161 -5.737)" fill="#822523"/>
            <path id="Trazado_998913" data-name="Trazado 998913" d="M489.888,152.39a79.854,79.854,0,0,0,10.069,3.4,99.057,99.057,0,0,0,20.921,3.295c3.537.221,7.08.1,10.636-.007q-1.322.162-2.65.3c-.886.089-1.771.208-2.661.235-1.779.073-3.562.168-5.345.113a74.738,74.738,0,0,1-21.079-3.322c-1.7-.526-3.385-1.125-5.047-1.766a48.971,48.971,0,0,1-4.844-2.247" transform="translate(-26.218 -8.156)" fill="#822523"/>
            <path id="Trazado_998914" data-name="Trazado 998914" d="M439.637,181.256a112.441,112.441,0,0,1-16.614-1.424c-1.9-.285-3.815-.592-5.733-.9-12.773-2.043-25.98-4.157-38.3-.473l-.239-.8c12.506-3.738,25.81-1.61,38.674.45,1.915.307,3.825.612,5.725.9,13.382,2.008,30.34,3.168,42.793-5.8,5.9-4.246,10.785-10.943,14.132-19.364,3.014-7.589,4.573-15.754,6.081-23.651l12.99-68.04.818.155-12.989,68.041c-1.515,7.935-3.082,16.139-6.126,23.8-3.4,8.568-8.391,15.393-14.419,19.733-7.857,5.656-17.428,7.366-26.79,7.366" transform="translate(-20.27 -3.327)" fill="#28365d"/>
            <path id="Trazado_998915" data-name="Trazado 998915" d="M452.42,180.089c-1.826-3.36-1.354-8,1.262-12.4a48.156,48.156,0,0,1,3.947-5.426,53.212,53.212,0,0,0,3.524-4.748c5.462-8.644,5.1-19.134,3.829-26.412a128,128,0,0,0-5.333-18.866c-.834-2.464-1.7-5.011-2.484-7.535a159.178,159.178,0,0,1-7.2-45.408l.833-.01a158.346,158.346,0,0,0,7.158,45.172c.783,2.514,1.644,5.056,2.477,7.515a128.494,128.494,0,0,1,5.365,18.99c1.294,7.422,1.659,18.131-3.945,27a53.6,53.6,0,0,1-3.578,4.823,47.525,47.525,0,0,0-3.88,5.331c-2.466,4.153-2.931,8.481-1.246,11.58Z" transform="translate(-24.082 -3.173)" fill="#28365d"/>
            <path id="Trazado_998916" data-name="Trazado 998916" d="M452.743,39.37c.006-.04.536-4.052,1.652-9.214L449.513,29.1c-1.162,5.377-1.7,9.452-1.722,9.622Z" transform="translate(-23.965 -1.557)" fill="#bfd5db"/>
            <path id="Trazado_998917" data-name="Trazado 998917" d="M455.26,28.825a81.275,81.275,0,0,1,4.218-14.156c1.474-3.488,5.79-5.477,9.149-6.533.862-.271,1.749-.506,2.634-.7l-1.424-6.5c-1.075.235-2.153.522-3.2.851-6.839,2.148-11.31,5.612-13.289,10.294a87.887,87.887,0,0,0-4.593,15.34Z" transform="translate(-24.017 -0.05)" fill="#28365d"/>
            <path id="Trazado_998918" data-name="Trazado 998918" d="M449.614,58.166l3.19.057a6.666,6.666,0,0,0,6.783-6.546l.181-10.177a8.261,8.261,0,0,0-16.519-.294l-.181,10.177a6.666,6.666,0,0,0,6.546,6.783" transform="translate(-23.713 -1.771)" fill="#28365d"/>
            <rect id="Rectángulo_456326" data-name="Rectángulo 456326" width="4.941" height="3.263" transform="translate(425.25 59.924) rotate(-87.323)" fill="#28365d"/>
            <path id="Trazado_998919" data-name="Trazado 998919" d="M457.772,21.645c2.24-4.422,14.31-8.4,26.182-6.174,11.884,2.147,21.726,10.178,22.248,15.11A52.728,52.728,0,0,1,505.136,42a10.73,10.73,0,0,1,4.885-.736c7.755.337,2.294,27.413-9.076,17.06-2.091,5.915-4.816,11.375-8.23,14.757a25.764,25.764,0,0,1-9.667,6.244,17.7,17.7,0,0,1-9.853.8l-2.263-.418s-5.455-.487-10.619-5.849a27.166,27.166,0,0,1-5.106-7.694,32.529,32.529,0,0,1-2.344-11.211c-.777-13.2,2.995-29.512,4.909-33.308" transform="translate(-24.231 -0.794)" fill="#ebaf7f"/>
            <path id="Trazado_998920" data-name="Trazado 998920" d="M479.586,70.182a17.3,17.3,0,0,0,4.9,11.35,25.756,25.756,0,0,0,9.668-6.244c3.62-3.586,6.475-9.5,8.611-15.83a14.062,14.062,0,0,0-23.177,10.724" transform="translate(-25.667 -3.003)" fill="#e9a770"/>
            <path id="Trazado_998921" data-name="Trazado 998921" d="M452.868,57.221a32.535,32.535,0,0,0,2.344,11.211,27.166,27.166,0,0,0,5.106,7.694,13.857,13.857,0,0,0,1.3-5.883,14.035,14.035,0,0,0-8.75-13.022" transform="translate(-24.237 -3.062)" fill="#e9a770"/>
            <path id="Trazado_998922" data-name="Trazado 998922" d="M512.67,54.889a7.187,7.187,0,0,0,.392-2.3,5.145,5.145,0,0,0-.252-2.163c-.477-1.278-2.112-1.4-3.248-.633a7.565,7.565,0,0,0-1.658,1.424,6.919,6.919,0,0,0-1.229,1.816,15.912,15.912,0,0,0-.927,4.526,9.941,9.941,0,0,1,.081-4.851,6.827,6.827,0,0,1,1.242-2.209,8.151,8.151,0,0,1,1.892-1.7,3.77,3.77,0,0,1,2.666-.534,2.726,2.726,0,0,1,1.3.65,2.58,2.58,0,0,1,.736,1.216,5.094,5.094,0,0,1-.04,2.537,5.494,5.494,0,0,1-.953,2.221" transform="translate(-27.053 -2.58)" fill="#e48855"/>
            <path id="Trazado_998923" data-name="Trazado 998923" d="M508.808,58.178a6.154,6.154,0,0,0,.606-1.977,9.574,9.574,0,0,0,.056-1.973,3.479,3.479,0,0,0-.5-1.712,2.017,2.017,0,0,0-1.624-.9,1.863,1.863,0,0,1,2.284.278,3.308,3.308,0,0,1,1,2.243,5.383,5.383,0,0,1-.342,2.3,3.161,3.161,0,0,1-1.476,1.74" transform="translate(-27.153 -2.748)" fill="#e48855"/>
            <path id="Trazado_998924" data-name="Trazado 998924" d="M481.62,64.663a3.482,3.482,0,0,1-3.369,1.571c.576-.332,1.122-.562,1.667-.824.551-.247,1.078-.518,1.7-.747" transform="translate(-25.595 -3.461)" fill="#e48855"/>
            <path id="Trazado_998925" data-name="Trazado 998925" d="M472.587,62.9a27.049,27.049,0,0,0,8.359-4.33s1.594,4.932-1.984,6.278-6.375-1.948-6.375-1.948" transform="translate(-25.292 -3.134)" fill="#fff"/>
            <path id="Trazado_998926" data-name="Trazado 998926" d="M470.17,43.43a13.119,13.119,0,0,1,.545,4.329,15.853,15.853,0,0,1-.76,4.332,9.374,9.374,0,0,0-.723,3.938,5.167,5.167,0,0,0,2.277,3.235,5.454,5.454,0,0,1-1.93-1.075,3.987,3.987,0,0,1-1.233-1.972,8.219,8.219,0,0,1,.5-4.47,28.246,28.246,0,0,0,1.322-8.318" transform="translate(-25.057 -2.324)" fill="#e48855"/>
            <path id="Trazado_998927" data-name="Trazado 998927" d="M476.07,59.133a1.291,1.291,0,0,1-.517.936,1.273,1.273,0,0,1-1.066.079,1,1,0,0,1,1.583-1.015" transform="translate(-25.393 -3.154)" fill="#e48855"/>
            <path id="Trazado_998928" data-name="Trazado 998928" d="M478.475,49.9c0,1.662,1.007,3.009,2.249,3.009s2.25-1.347,2.25-3.009-1.007-3.009-2.25-3.009-2.249,1.347-2.249,3.009" transform="translate(-25.608 -2.51)" fill="#5e2b13"/>
            <path id="Trazado_998929" data-name="Trazado 998929" d="M477.5,46.484a1.591,1.591,0,0,0,.553.313,3.556,3.556,0,0,0,.793.148,8.459,8.459,0,0,0,1.725-.089.918.918,0,1,1,.251,1.818.937.937,0,0,1-.277,0l-.01,0a9.834,9.834,0,0,1-1.992-.526,4.5,4.5,0,0,1-.953-.522,1.759,1.759,0,0,1-.73-1,.289.289,0,0,1,.47-.292Z" transform="translate(-25.521 -2.476)" fill="#5e2b13"/>
            <path id="Trazado_998930" data-name="Trazado 998930" d="M460.593,49.9c0,1.662,1.007,3.009,2.249,3.009s2.249-1.347,2.249-3.009-1.006-3.009-2.249-3.009-2.249,1.347-2.249,3.009" transform="translate(-24.651 -2.51)" fill="#5e2b13"/>
            <path id="Trazado_998931" data-name="Trazado 998931" d="M459.619,46.484a1.608,1.608,0,0,0,.554.313,3.546,3.546,0,0,0,.793.148,8.446,8.446,0,0,0,1.724-.089.918.918,0,0,1,.252,1.818.937.937,0,0,1-.277,0l-.01,0a9.86,9.86,0,0,1-1.993-.526,4.514,4.514,0,0,1-.952-.522,1.764,1.764,0,0,1-.731-1,.289.289,0,0,1,.47-.292Z" transform="translate(-24.564 -2.476)" fill="#5e2b13"/>
            <path id="Trazado_998932" data-name="Trazado 998932" d="M477.434,40.674a20.434,20.434,0,0,1,2.506-.087,18.859,18.859,0,0,1,2.575.217,15.544,15.544,0,0,1,2.537.619,22.156,22.156,0,0,1,2.484,1.014l.037.017a.584.584,0,0,0,.634-.964,11.566,11.566,0,0,0-2.409-1.751A12.259,12.259,0,0,0,483,38.6a11.808,11.808,0,0,0-3-.462,10.3,10.3,0,0,0-3.092.367,1.113,1.113,0,0,0,.4,2.177Z" transform="translate(-25.481 -2.041)" fill="#5e2b13"/>
            <path id="Trazado_998933" data-name="Trazado 998933" d="M475.412,38.753a1.355,1.355,0,0,0,.376,1.278,2.692,2.692,0,0,0,1.161.649l.03.009a.593.593,0,1,0,.13-1.158,1.822,1.822,0,0,1-.85-.1.818.818,0,0,1-.314-.234.835.835,0,0,1-.167-.381l-.007-.04a.184.184,0,0,0-.36-.019" transform="translate(-25.441 -2.067)" fill="#5e2b13"/>
            <path id="Trazado_998934" data-name="Trazado 998934" d="M464.954,40.674a20.434,20.434,0,0,0-2.506-.087,18.858,18.858,0,0,0-2.575.217,15.543,15.543,0,0,0-2.538.619,22.145,22.145,0,0,0-2.484,1.014l-.037.017a.585.585,0,0,1-.635-.964,11.6,11.6,0,0,1,2.41-1.751,12.241,12.241,0,0,1,2.8-1.137,11.808,11.808,0,0,1,3-.462,10.3,10.3,0,0,1,3.092.367,1.113,1.113,0,0,1-.4,2.177Z" transform="translate(-24.297 -2.041)" fill="#5e2b13"/>
            <path id="Trazado_998935" data-name="Trazado 998935" d="M467.537,38.753a1.355,1.355,0,0,1-.376,1.278A2.692,2.692,0,0,1,466,40.68l-.03.009a.593.593,0,1,1-.13-1.158,1.822,1.822,0,0,0,.85-.1.818.818,0,0,0,.314-.234.848.848,0,0,0,.168-.381l.006-.04a.184.184,0,0,1,.36-.019" transform="translate(-24.897 -2.067)" fill="#5e2b13"/>
            <path id="Trazado_998936" data-name="Trazado 998936" d="M563.632,102.461a.941.941,0,0,0-1.18-1.327,9.391,9.391,0,0,1-8.531-1.034c-3.348-2.257-5.273-6.075-6.709-9.849a67.087,67.087,0,0,1-4.193-18.82c-.472-6.29-.054-12.634-.751-18.9s-2.668-12.675-7.119-17.144-11.821-6.422-17.288-3.275c1.71,3.531,1.978,7.8,1.795,11.717,2.5,4.557,3.233,10.219,3.382,15.413s-.347,10.387-.323,15.584a50.449,50.449,0,0,0,2.78,17.327,29.682,29.682,0,0,0,10.288,14,21.123,21.123,0,0,0,16.723,3.647c4.581-1.071,8.862-3.5,11.126-7.342" transform="translate(-27.715 -1.636)" fill="#5e2b13"/>
            <path id="Trazado_998937" data-name="Trazado 998937" d="M518.152,37.494a17.766,17.766,0,0,0-2.281-7.309,10.983,10.983,0,0,0-5.594-4.8c-4.637-6.693-12.345-10.68-19.936-12.786s-15.625-1.939-23.367-.566c-3.138.566-6.376,1.382-8.849,3.5-2.872,2.465-4.311,6.31-5.344,10.064a54.751,54.751,0,0,0-1.889,21.652,38.581,38.581,0,0,0,1.865,7.741c-.009-.075-.009-.158-.017-.233a84.236,84.236,0,0,1,.717-15.406c17.783,1.4,36.474-8.005,36.474-8.005s-3.106,20.19,8.082,20.97a59.8,59.8,0,0,1,7.457-10.7,11.436,11.436,0,0,1,4.431-.557c7.75.342,2.29,27.412-9.081,17.065-.224.649-.466,1.29-.707,1.922v16.14l.374.25q3.047-4.407,6.093-8.823a90.288,90.288,0,0,0,8.482-14,31.756,31.756,0,0,0,3.088-16.116" transform="translate(-24.111 -0.589)" fill="#5e2b13"/>
            <path id="Trazado_998938" data-name="Trazado 998938" d="M514.5,41.347a32.036,32.036,0,0,0,.976-8.516l-4.994.062a27.586,27.586,0,0,1-.783,7.075Z" transform="translate(-27.278 -1.757)" fill="#bfd5db"/>
            <path id="Trazado_998939" data-name="Trazado 998939" d="M507.576,31.146l6.659-.083c-.095-7.67-2.9-21.555-20.623-28.358A39.412,39.412,0,0,0,471.029.88l1.422,6.507a32.767,32.767,0,0,1,18.775,1.534c13.35,5.124,16.261,14.914,16.351,22.224" transform="translate(-25.209 0)" fill="#28365d"/>
            <path id="Trazado_998940" data-name="Trazado 998940" d="M504.809,62.332l3.135.592a6.665,6.665,0,0,0,7.788-5.311l1.891-10a8.261,8.261,0,0,0-16.234-3.069l-1.891,10a6.666,6.666,0,0,0,5.312,7.788" transform="translate(-26.726 -2.024)" fill="#28365d"/>
            <path id="Trazado_998941" data-name="Trazado 998941" d="M508.246,61.769l-3.135-.592a5.417,5.417,0,0,1-4.317-6.33l1.891-10a7.013,7.013,0,0,1,6.881-5.712,7.1,7.1,0,0,1,1.311.124,7.02,7.02,0,0,1,5.588,8.193l-1.891,10a5.414,5.414,0,0,1-6.328,4.318M503.5,45l-1.892,10a4.586,4.586,0,0,0,3.654,5.357l3.134.593a4.58,4.58,0,0,0,5.356-3.654l1.891-10A6.179,6.179,0,1,0,503.5,45" transform="translate(-26.797 -2.094)" fill="#4b65ad"/>
            <rect id="Rectángulo_456327" data-name="Rectángulo 456327" width="4.941" height="3.263" transform="matrix(0.214, -0.977, 0.977, 0.214, 476.847, 64.096)" fill="#28365d"/>
            <path id="Trazado_998942" data-name="Trazado 998942" d="M107.932,96.663s11.93-1.283,27.756,8.083,46.977,39.062,50.48,51.114-19.128,29.649-19.128,29.649L162.682,171.8,123.9,143.532Z" transform="translate(-5.776 -5.17)" fill="#f5ad49"/>
            <rect id="Rectángulo_456328" data-name="Rectángulo 456328" width="24.998" height="38.694" transform="translate(68.138 54.8)" fill="#ebaf7f"/>
            <path id="Trazado_998943" data-name="Trazado 998943" d="M96.988,81.769v4.677a19.819,19.819,0,0,1-7.323-1.137A25.757,25.757,0,0,1,80,79.065c-3.3-3.261-5.953-8.448-8.008-14.112V61.61c1.985,5.154,4.48,9.807,7.521,12.813a25.745,25.745,0,0,0,9.667,6.244,19.4,19.4,0,0,0,7.81,1.1" transform="translate(-3.853 -3.297)" fill="#e48855"/>
            <path id="Trazado_998944" data-name="Trazado 998944" d="M128.663,128.2l-8.016,60.134H45.164l1.773-89.593s5.178-3.563,22.525-5.269c0,0-3.338-16.449-2.2-17.506s21.843,9.5,29.409,8.757c0,0,.225,5.07,0,8.749l21.834,4.071s9.2,9.814,10.156,30.657" transform="translate(-2.417 -4.061)" fill="#f5ad49"/>
            <path id="Trazado_998945" data-name="Trazado 998945" d="M130.763,149.315c.094-2.206.267-4.4.446-6.6s.393-4.385.606-6.574c.233-2.188.451-4.377.712-6.561l.363-3.28c.139-1.093.233-2.187.352-3.286a60.546,60.546,0,0,1-.078,6.619c-.111,2.2-.307,4.4-.522,6.592-.235,2.19-.48,4.38-.8,6.56s-.645,4.36-1.079,6.526" transform="translate(-6.998 -6.584)" fill="#9c5123"/>
            <path id="Trazado_998946" data-name="Trazado 998946" d="M176.859,191.316H135.977a2.6,2.6,0,0,1-2.581-2.865l5.687-54.46a2.6,2.6,0,0,1,2.582-2.326h40.88a2.6,2.6,0,0,1,2.582,2.865l-5.687,54.459a2.6,2.6,0,0,1-2.582,2.326" transform="translate(-7.138 -7.047)" fill="#233c85"/>
            <path id="Trazado_998947" data-name="Trazado 998947" d="M156.274,165.167c-.818-1.346-14.131,2.48-14.622,1.162s11.047-4.067,9.3-5.654-15.633,2.833-15.633,2.833L135.9,158a29.749,29.749,0,0,0-3.523,1.12c-1.034.467-5.6,3.153-7.432,4.24l-6.983.887c.405,4.862.829,9.723,1.327,14.577q.192,1.863.395,3.722c4.588-1.394,7.512-2.4,8.034-2.583,4.082-.19,10.608-1.525,12.577-1.441,2.47.106,8.975-1.683,9.59-2.533s-8.318-.9-8.231-2.019,12.605-1.931,13.172-3.277-.921-2.606-.921-2.606,3.188-1.574,2.37-2.92" transform="translate(-6.313 -8.456)" fill="#ebaf7f"/>
            <path id="Trazado_998948" data-name="Trazado 998948" d="M155.31,168.656a37.53,37.53,0,0,1-11.051,1.473,32.877,32.877,0,0,1,5.471-1.149,33.405,33.405,0,0,1,5.58-.324" transform="translate(-7.721 -9.025)" fill="#e48855"/>
            <path id="Trazado_998949" data-name="Trazado 998949" d="M68.306,94.458s-19.063-1.975-30.54,9.568-24.016,80.924-2.55,86.3,87.539-11.205,87.539-11.205l-5.275-19.623-54.6,6.093,3.847-55.33Z" transform="translate(-1.26 -5.048)" fill="#f5ad49"/>
            <path id="Trazado_998950" data-name="Trazado 998950" d="M119.215,163.177c-5.253.785-10.517,1.479-15.783,2.16s-10.54,1.29-15.809,1.939c-5.277.581-10.549,1.2-15.831,1.747l-7.923.806c-2.644.238-5.286.505-7.933.719,2.626-.4,5.258-.749,7.886-1.124l7.9-1.037c5.265-.68,10.539-1.291,15.809-1.937,5.277-.579,10.549-1.2,15.831-1.746s10.564-1.083,15.856-1.527" transform="translate(-2.994 -8.733)" fill="#9c5123"/>
            <path id="Trazado_998951" data-name="Trazado 998951" d="M55.936,164.781c1.619.316,3.231.662,4.846,1s3.225.693,4.834,1.049l-.322.242.165-5.353.224-5.351c.14-3.567.3-7.134.5-10.7.188-3.565.372-7.131.621-10.693q.334-5.345.787-10.685-.054,5.358-.233,10.711c-.092,3.57-.247,7.136-.4,10.7-.134,3.568-.316,7.134-.516,10.7l-.285,5.348-.345,5.345v.009a.258.258,0,0,1-.322.233c-1.6-.412-3.194-.817-4.785-1.253s-3.186-.852-4.773-1.3" transform="translate(-2.994 -6.652)" fill="#9c5123"/>
            <path id="Trazado_998952" data-name="Trazado 998952" d="M123.26,184.421c-4.4,1.1-8.823,2.1-13.251,3.081s-8.873,1.871-13.314,2.786c-4.455.844-8.905,1.718-13.378,2.475-4.473.741-8.955,1.494-13.479,1.873,2.239-.365,4.47-.749,6.692-1.2,2.227-.413,4.449-.858,6.671-1.3l13.332-2.662,13.348-2.6c4.453-.844,8.907-1.688,13.378-2.456" transform="translate(-3.738 -9.87)" fill="#9c5123"/>
            <path id="Trazado_998953" data-name="Trazado 998953" d="M187.63,167.813c.227-1.664.415-3.364.509-5.07a5.314,5.314,0,0,0-3.624-5.364h0l-.54,5.173s-12.966-4.135-14.708-2.547,9.8,4.337,9.3,5.654-13.805-2.508-14.623-1.162,2.371,2.92,2.371,2.92-1.488,1.26-.922,2.606,13.086,2.16,13.173,3.277-8.846,1.169-8.232,2.019,7.119,2.639,9.591,2.533a12.437,12.437,0,0,1,1.7.1,4.816,4.816,0,0,0,5.262-4.051c.335-2.095.484-4.224.738-6.089" transform="translate(-8.767 -8.423)" fill="#ebaf7f"/>
            <path id="Trazado_998954" data-name="Trazado 998954" d="M166.46,167.981a32.492,32.492,0,0,1,5.5.276,31.668,31.668,0,0,1,5.369,1.1,36.3,36.3,0,0,1-10.867-1.374" transform="translate(-8.909 -8.989)" fill="#e48855"/>
            <path id="Trazado_998955" data-name="Trazado 998955" d="M120.816,39.37c-.006-.04-.536-4.052-1.652-9.214l4.882-1.055c1.162,5.377,1.7,9.452,1.722,9.622Z" transform="translate(-6.378 -1.557)" fill="#bfd5db"/>
            <path id="Trazado_998956" data-name="Trazado 998956" d="M117.126,28.825a81.354,81.354,0,0,0-4.218-14.156c-1.474-3.488-5.789-5.477-9.149-6.533-.862-.271-6.6-1.176-7.48-1.37l6.27-5.835c1.075.235,2.153.522,3.2.851,6.839,2.148,11.31,5.612,13.289,10.294a87.887,87.887,0,0,1,4.593,15.34Z" transform="translate(-5.153 -0.05)" fill="#28365d"/>
            <path id="Trazado_998957" data-name="Trazado 998957" d="M123.375,58.166l-3.19.057a6.666,6.666,0,0,1-6.783-6.546L113.221,41.5a8.261,8.261,0,0,1,16.519-.294l.181,10.177a6.666,6.666,0,0,1-6.546,6.783" transform="translate(-6.059 -1.771)" fill="#28365d"/>
            <rect id="Rectángulo_456329" data-name="Rectángulo 456329" width="3.263" height="4.941" transform="translate(114.476 55.14) rotate(-2.677)" fill="#28365d"/>
            <path id="Trazado_998958" data-name="Trazado 998958" d="M113.7,20.418c-2.24-4.422-14.31-8.4-26.182-6.174C75.63,16.391,65.789,24.421,65.267,29.354a52.773,52.773,0,0,0,1.064,11.418,10.728,10.728,0,0,0-4.884-.736c-7.755.337-2.294,27.413,9.076,17.06,2.091,5.915,4.816,11.375,8.23,14.757A25.757,25.757,0,0,0,88.42,78.1a17.7,17.7,0,0,0,9.853.8l2.263-.418s5.455-.487,10.619-5.849a27.147,27.147,0,0,0,5.107-7.694,32.529,32.529,0,0,0,2.344-11.211c.777-13.2-2.995-29.512-4.909-33.308" transform="translate(-3.095 -0.728)" fill="#ebaf7f"/>
            <path id="Trazado_998959" data-name="Trazado 998959" d="M94.013,68.956a17.3,17.3,0,0,1-4.9,11.35,25.767,25.767,0,0,1-9.668-6.244c-3.62-3.586-6.475-9.5-8.611-15.83A14.062,14.062,0,0,1,94.013,68.956" transform="translate(-3.791 -2.937)" fill="#e9a770"/>
            <path id="Trazado_998960" data-name="Trazado 998960" d="M121.548,55.995A32.533,32.533,0,0,1,119.2,67.206,27.185,27.185,0,0,1,114.1,74.9a13.843,13.843,0,0,1-1.3-5.883,14.033,14.033,0,0,1,8.75-13.022" transform="translate(-6.037 -2.997)" fill="#e9a770"/>
            <path id="Trazado_998961" data-name="Trazado 998961" d="M61.771,53.663a5.494,5.494,0,0,1-.953-2.221,5.1,5.1,0,0,1-.04-2.537,2.582,2.582,0,0,1,.736-1.216,2.726,2.726,0,0,1,1.3-.65,3.766,3.766,0,0,1,2.666.534,8.152,8.152,0,0,1,1.892,1.7,6.827,6.827,0,0,1,1.242,2.209,9.941,9.941,0,0,1,.081,4.851,15.909,15.909,0,0,0-.927-4.526,6.906,6.906,0,0,0-1.229-1.816,7.541,7.541,0,0,0-1.658-1.424c-1.136-.766-2.771-.645-3.248.633a5.145,5.145,0,0,0-.252,2.163,7.213,7.213,0,0,0,.392,2.3" transform="translate(-3.245 -2.514)" fill="#e48855"/>
            <path id="Trazado_998962" data-name="Trazado 998962" d="M65.916,56.952a3.165,3.165,0,0,1-1.477-1.74,5.384,5.384,0,0,1-.342-2.3,3.308,3.308,0,0,1,1-2.243,1.865,1.865,0,0,1,2.284-.279,2.022,2.022,0,0,0-1.624.9,3.49,3.49,0,0,0-.5,1.712,9.579,9.579,0,0,0,.056,1.973,6.178,6.178,0,0,0,.606,1.977" transform="translate(-3.43 -2.682)" fill="#e48855"/>
            <path id="Trazado_998963" data-name="Trazado 998963" d="M92.279,63.437c.625.229,1.152.5,1.7.747.544.262,1.09.491,1.667.824a3.482,3.482,0,0,1-3.369-1.571" transform="translate(-4.939 -3.395)" fill="#e48855"/>
            <path id="Trazado_998964" data-name="Trazado 998964" d="M100.543,60.759s-5.526-2.125-7.97-3.241c0,0-.637,6.346,3.242,6.388a4.613,4.613,0,0,0,4.729-3.147" transform="translate(-4.952 -3.078)" fill="#fff"/>
            <path id="Trazado_998965" data-name="Trazado 998965" d="M104.553,42.2a28.248,28.248,0,0,0,1.322,8.318,8.218,8.218,0,0,1,.5,4.47,3.988,3.988,0,0,1-1.233,1.972,5.453,5.453,0,0,1-1.93,1.075,5.167,5.167,0,0,0,2.277-3.235,9.373,9.373,0,0,0-.723-3.938,15.854,15.854,0,0,1-.76-4.332,13.123,13.123,0,0,1,.545-4.329" transform="translate(-5.524 -2.259)" fill="#e48855"/>
            <path id="Trazado_998966" data-name="Trazado 998966" d="M98.751,57.907a1,1,0,0,1,1.583,1.015,1.273,1.273,0,0,1-1.066-.079,1.291,1.291,0,0,1-.517-.936" transform="translate(-5.285 -3.089)" fill="#e48855"/>
            <path id="Trazado_998967" data-name="Trazado 998967" d="M96.182,48.673c0,1.662-1.007,3.009-2.249,3.009s-2.25-1.347-2.25-3.009,1.007-3.009,2.25-3.009,2.249,1.347,2.249,3.009" transform="translate(-4.907 -2.444)" fill="#5e2b13"/>
            <path id="Trazado_998968" data-name="Trazado 998968" d="M114.063,48.673c0,1.662-1.007,3.009-2.249,3.009s-2.25-1.347-2.25-3.009,1.007-3.009,2.25-3.009,2.249,1.347,2.249,3.009" transform="translate(-5.864 -2.444)" fill="#5e2b13"/>
            <path id="Trazado_998969" data-name="Trazado 998969" d="M96.782,39.447a20.434,20.434,0,0,0-2.506-.087,18.857,18.857,0,0,0-2.575.217,15.546,15.546,0,0,0-2.538.619,22.15,22.15,0,0,0-2.484,1.014l-.037.017a.585.585,0,0,1-.635-.964,11.6,11.6,0,0,1,2.41-1.751,12.241,12.241,0,0,1,2.8-1.137,11.808,11.808,0,0,1,3-.462,10.271,10.271,0,0,1,3.092.368,1.112,1.112,0,0,1-.4,2.176Z" transform="translate(-4.593 -1.976)" fill="#5e2b13"/>
            <path id="Trazado_998970" data-name="Trazado 998970" d="M99.365,37.527a1.355,1.355,0,0,1-.376,1.278,2.692,2.692,0,0,1-1.161.649l-.031.009a.593.593,0,1,1-.129-1.158,1.822,1.822,0,0,0,.85-.1.818.818,0,0,0,.314-.234A.836.836,0,0,0,99,37.586l.007-.04a.184.184,0,0,1,.36-.019" transform="translate(-5.193 -2.001)" fill="#5e2b13"/>
            <path id="Trazado_998971" data-name="Trazado 998971" d="M109.262,39.447a20.434,20.434,0,0,1,2.506-.087,18.857,18.857,0,0,1,2.575.217,15.546,15.546,0,0,1,2.538.619,22.15,22.15,0,0,1,2.484,1.014l.037.017a.585.585,0,0,0,.635-.964,11.6,11.6,0,0,0-2.41-1.751,12.241,12.241,0,0,0-2.8-1.137,11.808,11.808,0,0,0-3-.462,10.271,10.271,0,0,0-3.092.368,1.112,1.112,0,0,0,.4,2.176Z" transform="translate(-5.776 -1.976)" fill="#5e2b13"/>
            <path id="Trazado_998972" data-name="Trazado 998972" d="M107.239,37.527a1.355,1.355,0,0,0,.376,1.278,2.692,2.692,0,0,0,1.161.649l.03.009a.593.593,0,1,0,.13-1.158,1.822,1.822,0,0,1-.85-.1.818.818,0,0,1-.314-.234.836.836,0,0,1-.167-.381l-.007-.04a.184.184,0,0,0-.36-.019" transform="translate(-5.737 -2.001)" fill="#5e2b13"/>
            <path id="Trazado_998973" data-name="Trazado 998973" d="M119.317,27.366a13.391,13.391,0,0,0-4.678-13.51,8.046,8.046,0,0,0-2.264-4.486,12.361,12.361,0,0,0-4.245-2.781A17.422,17.422,0,0,0,92.163,8.512a10.7,10.7,0,0,0-5.727-2.781,20.661,20.661,0,0,0-6.443.042A22.338,22.338,0,0,0,72.535,8a16.53,16.53,0,0,0-8.374,13.21,4.321,4.321,0,0,0-4.686.507,9.209,9.209,0,0,0-2.755,4.1A25.634,25.634,0,0,0,55.387,38.47a36.091,36.091,0,0,0,2.314,8.55c-.207-3.913.892-7.3,3.605-7.417a13.167,13.167,0,0,1,3.073.185,48.77,48.77,0,0,1,7.206,8.95,6.162,6.162,0,0,0,1.779-6.273,12.65,12.65,0,0,0,4.8-15.85,27.088,27.088,0,0,0,9.1,4.182,13.465,13.465,0,0,0,9.973-1.512,11.924,11.924,0,0,0,7.318,2.206,12.757,12.757,0,0,0,7.437-2.707,14.337,14.337,0,0,0,2.024,2.346,4.84,4.84,0,0,0,2.813,1.206c0-.113-.009-.228-.009-.341a107.119,107.119,0,0,1,1.542,11.986,20.77,20.77,0,0,0,.957-16.615" transform="translate(-2.951 -0.292)" fill="#5e2b13"/>
            <path id="Trazado_998974" data-name="Trazado 998974" d="M63.913,31.146l-6.658-.083c.095-7.67,2.9-21.555,20.623-28.358A39.412,39.412,0,0,1,100.46.88S95.82,6.815,94.19,6.717a33.311,33.311,0,0,0-13.928,2.2C66.913,14.046,64,23.835,63.913,31.146" transform="translate(-3.064 0)" fill="#28365d"/>
            <path id="Trazado_998975" data-name="Trazado 998975" d="M59.11,41.347a32.038,32.038,0,0,1-.976-8.516l4.994.062a27.578,27.578,0,0,0,.783,7.075Z" transform="translate(-3.111 -1.757)" fill="#bfd5db"/>
            <rect id="Rectángulo_456330" data-name="Rectángulo 456330" width="3.263" height="4.941" transform="translate(62.125 59.549) rotate(-12.363)" fill="#28365d"/>
            <path id="Trazado_998976" data-name="Trazado 998976" d="M68.084,62.332l-3.135.592a6.665,6.665,0,0,1-7.788-5.311l-1.891-10A8.261,8.261,0,0,1,71.5,44.543l1.89,10a6.665,6.665,0,0,1-5.311,7.788" transform="translate(-2.95 -2.024)" fill="#28365d"/>
            <path id="Trazado_998977" data-name="Trazado 998977" d="M63.775,61.863a5.416,5.416,0,0,1-5.315-4.412l-1.891-10a7.021,7.021,0,0,1,5.588-8.194,7.1,7.1,0,0,1,1.311-.123,7.012,7.012,0,0,1,6.881,5.711l1.891,10a5.417,5.417,0,0,1-4.316,6.329l-3.136.592a5.436,5.436,0,0,1-1.013.095m-.308-21.9a6.343,6.343,0,0,0-1.158.109A6.188,6.188,0,0,0,57.386,47.3l1.891,10a4.58,4.58,0,0,0,5.356,3.654l3.135-.592A4.586,4.586,0,0,0,71.421,55L69.53,45a6.18,6.18,0,0,0-6.063-5.033" transform="translate(-3.021 -2.094)" fill="#4b65ad"/>
            <path id="Trazado_998978" data-name="Trazado 998978" d="M191.4,178.432c-7.223,2.029-14.877-1.421-20.024-4.673-2.118-1.337-4.2-2.835-6.21-4.282a67.942,67.942,0,0,0-11.924-7.384,68.1,68.1,0,0,0-12.681-3.731,77.883,77.883,0,0,1-10.966-3.031c-14.37-5.539-23.823-18.68-33.027-32.808C84.892,104.6,73.384,85.057,67.686,63.308c-.265.081-.526.183-.79.271,5.733,21.839,17.27,41.434,28.974,59.4,9.282,14.247,18.824,27.5,33.426,33.132a78.819,78.819,0,0,0,11.082,3.066,67.369,67.369,0,0,1,12.527,3.679,67.352,67.352,0,0,1,11.774,7.3c2.022,1.456,4.112,2.96,6.252,4.311,5.665,3.578,11.088,5.4,15.951,5.4a17.5,17.5,0,0,0,4.743-.633Z" transform="translate(-3.58 -3.388)" fill="#28365d"/>
            <path id="Trazado_998979" data-name="Trazado 998979" d="M122.854,60.553a3.855,3.855,0,0,1-.8.259c2.264,11.278,4.342,22.876,3.547,34.5-.692,10.128-3.586,20.108-6.385,29.759l-.451,1.555c-1.257,4.343-2.681,9.265-2.619,14.28a25.58,25.58,0,0,0,.621,5.279l.812-.184a24.688,24.688,0,0,1-.6-5.1c-.061-4.892,1.345-9.752,2.586-14.04l.451-1.553c2.811-9.694,5.718-19.718,6.415-29.934.8-11.762-1.3-23.451-3.581-34.813" transform="translate(-6.216 -3.241)" fill="#28365d"/>
            <path id="Trazado_998980" data-name="Trazado 998980" d="M179.392,178.427a36.967,36.967,0,0,1-12.7-2.361c-18.073-6.581-15.629-54.176-15.518-56.2l2.648.148c-.026.475-2.458,47.646,13.777,53.559,13.14,4.783,22.5.676,26.913-2.2l1.448,2.222a30.283,30.283,0,0,1-16.569,4.83" transform="translate(-8.082 -6.415)" fill="#28365d"/>
            <path id="Trazado_998981" data-name="Trazado 998981" d="M154.609,67.208h-4.589l1.178.831c-5.518,2.731-9.576,11.918-9.576,22.839,0,10.626,3.842,19.617,9.133,22.61l-.265.008-.4,1.052h4.516c7.173,0,12.988-10.6,12.988-23.67s-5.814-23.67-12.988-23.67" transform="translate(-7.579 -3.597)" fill="#28365d"/>
            <path id="Trazado_998982" data-name="Trazado 998982" d="M182.148,148.64H178.21l-.89-11.788h5.719Z" transform="translate(-9.49 -7.324)" fill="#28365d"/>
            <rect id="Rectángulo_456331" data-name="Rectángulo 456331" width="54.879" height="1.49" transform="translate(160.26 182.785)" fill="#28365d"/>
            <path id="Trazado_998983" data-name="Trazado 998983" d="M224.2,192.753H169.322l6.471-6.506H217.73Z" transform="translate(-9.062 -9.968)" fill="#1c2540"/>
            <rect id="Rectángulo_456332" data-name="Rectángulo 456332" width="14.748" height="4.816" transform="translate(163.315 120.724)" fill="#28365d"/>
            <path id="Trazado_998984" data-name="Trazado 998984" d="M185.118,137.374H174.666a1.254,1.254,0,0,1-1.174-.814l-1.5-4a.519.519,0,0,1,.411-.695l2.316-.335a36.032,36.032,0,0,1,10.348,0l2.316.335a.518.518,0,0,1,.411.695l-1.5,4a1.253,1.253,0,0,1-1.174.814" transform="translate(-9.203 -7.019)" fill="#1c2540"/>
            <path id="Trazado_998985" data-name="Trazado 998985" d="M186.538,127.783l-1.351.252a29,29,0,0,1-10.608,0l-1.351-.252a1.755,1.755,0,0,1-1.434-1.725V104.574h16.177v21.483a1.755,1.755,0,0,1-1.434,1.725" transform="translate(-9.194 -5.597)" fill="#1c2540"/>
            <path id="Trazado_998986" data-name="Trazado 998986" d="M171.548,99.667l.67-17.68a3.626,3.626,0,0,1,3.624-3.489h8.165a3.627,3.627,0,0,1,3.624,3.49l.671,17.781Z" transform="translate(-9.181 -4.201)" fill="#28365d"/>
            <path id="Trazado_998987" data-name="Trazado 998987" d="M188.135,104.614H171.557a.458.458,0,0,1-.458-.458v-3.3a.459.459,0,0,1,.458-.459h16.578a.458.458,0,0,1,.458.459v3.3a.458.458,0,0,1-.458.458" transform="translate(-9.157 -5.373)" fill="#1c2540"/>
            <path id="Trazado_998988" data-name="Trazado 998988" d="M181.274,78.494a2.949,2.949,0,0,1,2.131,2.909c.1,2.458,0,18.31,0,18.31h1.655V81.353a2.956,2.956,0,0,0-3.787-2.859" transform="translate(-9.702 -4.197)" fill="#1c2540"/>
            <path id="Trazado_998989" data-name="Trazado 998989" d="M200.958,118.221c-.025-.263-1.069-.475-2.356-.475s-2.33.212-2.355.475h0v66.115c0,.268,1.056.485,2.358.485s2.358-.217,2.358-.485V118.221Z" transform="translate(-10.503 -6.302)" fill="#28365d"/>
            <path id="Trazado_998990" data-name="Trazado 998990" d="M198.487,140.853c-2.438,0-4.414.393-4.414.878v17.206c0,.485,1.976.877,4.414.877s4.414-.393,4.414-.877V141.731c0-.486-1.976-.878-4.414-.878" transform="translate(-10.387 -7.538)" fill="#1c2540"/>
            <rect id="Rectángulo_456333" data-name="Rectángulo 456333" width="28.517" height="2.408" transform="translate(161.942 116.434)" fill="#4964ab"/>
            <path id="Trazado_998991" data-name="Trazado 998991" d="M154.074,120.842h-3.762a2.164,2.164,0,0,1-2.164-2.164V116.1h8.09v2.576a2.164,2.164,0,0,1-2.164,2.164" transform="translate(-7.929 -6.214)" fill="#28365d"/>
            <path id="Trazado_998992" data-name="Trazado 998992" d="M162.313,90.657c0,12.467-5.609,22.574-12.529,22.574s-12.528-10.107-12.528-22.574,5.609-22.574,12.528-22.574,12.529,10.107,12.529,22.574" transform="translate(-7.346 -3.644)" fill="#1c2540"/>
            <path id="Trazado_998993" data-name="Trazado 998993" d="M151.931,112.9a7.18,7.18,0,0,1-2.146.33c-6.92,0-12.528-10.106-12.528-22.573s5.608-22.575,12.528-22.575a7.15,7.15,0,0,1,2.146.33c-5.9,1.83-10.386,11.093-10.386,22.244s4.488,20.412,10.386,22.242" transform="translate(-7.346 -3.644)" fill="#28365d"/>
            <path id="Trazado_998994" data-name="Trazado 998994" d="M149.8,67.208c-7.542,0-13.657,10.6-13.657,23.671s6.115,23.669,13.657,23.669,13.657-10.595,13.657-23.669S157.344,67.208,149.8,67.208m0,45.45c-6.669,0-12.074-9.788-12.074-21.859s5.405-21.858,12.074-21.858,12.077,9.784,12.077,21.858-5.405,21.859-12.077,21.859" transform="translate(-7.286 -3.597)" fill="#4964ab"/>
            <path id="Trazado_998995" data-name="Trazado 998995" d="M180.341,146.868a21.086,21.086,0,0,0,15.381,19.151c5.408,1.363,11.332.472,16.431,2.75s8.409,7.3,11.483,12.021c5.183,7.967,10.637,15.945,17.961,21.949,2.882,2.362,6.622,4.485,10.137,3.291,3.351-1.14,5.156-5.032,5.056-8.608s-1.68-6.916-3.228-10.132" transform="translate(-9.652 -7.86)" fill="none" stroke="#28365d" stroke-miterlimit="10" stroke-width="0.879"/>
          </g>
        </g>
      </g>
    </g>
  </g>
</svg>
