<svg xmlns="http://www.w3.org/2000/svg" width="90" height="90" viewBox="0 0 90 90">
  <g id="Grupo_1182234" data-name="Grupo 1182234" transform="translate(-751.711 -718)">
    <g id="Grupo_1182232" data-name="Grupo 1182232">
      <g id="Grupo_1182241" data-name="Grupo 1182241">
        <circle id="Elipse_13689" data-name="Elipse 13689" cx="45" cy="45" r="45" transform="translate(751.711 718)" fill="#fff"/>
        <g id="Grupo_1182240" data-name="Grupo 1182240" transform="translate(1)">
          <rect id="Rectángulo_458249" data-name="Rectángulo 458249" width="33" height="56" transform="translate(779.711 735)" fill="#adc9e2"/>
          <g id="lista" transform="translate(781.711 737)">
            <path id="Trazado_1002658" data-name="Trazado 1002658" d="M29.061.584V51.176a.585.585,0,0,1-.584.584H.584A.585.585,0,0,1,0,51.176V.584A.585.585,0,0,1,.584,0H28.477a.584.584,0,0,1,.584.584Zm0,0" transform="translate(-0.001 0)" fill="#e3f4ff"/>
            <path id="Trazado_1002659" data-name="Trazado 1002659" d="M260.87.585V51.176a.585.585,0,0,1-.585.585h-2.406a.585.585,0,0,0,.585-.585V.585A.585.585,0,0,0,257.879,0h2.406a.585.585,0,0,1,.585.585Zm0,0" transform="translate(-231.809)" fill="#bddff4"/>
            <path id="Trazado_1002660" data-name="Trazado 1002660" d="M29.061,412.926v9.431a.579.579,0,0,1-.172.413.454.454,0,0,1-.086.072.583.583,0,0,1-.327.1H.584A.585.585,0,0,1,0,422.357v-9.431Zm0,0" transform="translate(0 -371.181)" fill="#bddff4"/>
            <path id="Trazado_1002661" data-name="Trazado 1002661" d="M260.866,412.926v9.431a.579.579,0,0,1-.172.413.579.579,0,0,1-.413.172h-2.406a.586.586,0,0,0,.585-.584v-9.431Zm0,0" transform="translate(-231.805 -371.181)" fill="#adc9e2"/>
            <path id="Trazado_1002662" data-name="Trazado 1002662" d="M29.061.584V21.669H0V.584A.585.585,0,0,1,.584,0H28.477a.584.584,0,0,1,.584.584Zm0,0" transform="translate(0 0)" fill="#32dfb7"/>
            <path id="Trazado_1002663" data-name="Trazado 1002663" d="M260.874.585V21.668h-2.406V.585A.585.585,0,0,0,257.883,0h2.406a.585.585,0,0,1,.585.585Zm0,0" transform="translate(-231.813)" fill="#21c69c"/>
            <path id="Trazado_1002664" data-name="Trazado 1002664" d="M29.061,66.664V81.593H0V76.9l26.655-9.393Zm0,0" transform="translate(0 -59.925)" fill="#9af5fe"/>
            <path id="Trazado_1002665" data-name="Trazado 1002665" d="M266.07,66.664V81.593h-2.406V67.512Zm0,0" transform="translate(-237.009 -59.925)" fill="#27e6fc"/>
            <path id="Trazado_1002666" data-name="Trazado 1002666" d="M129.094,58.465v1.657l-16.771,5.911a.781.781,0,0,1-.519-1.474Zm0,0" transform="translate(-100.033 -52.554)" fill="#12967e"/>
            <path id="Trazado_1002667" data-name="Trazado 1002667" d="M6.273,140.786,0,143V141.34l5.754-2.028a.781.781,0,0,1,.519,1.474Zm0,0" transform="translate(0 -125.188)" fill="#12967e"/>
            <path id="Trazado_1002668" data-name="Trazado 1002668" d="M41.5,28.613H37.16a.781.781,0,0,1,0-1.562H41.5a.781.781,0,1,1,0,1.562Zm0,0" transform="translate(-32.701 -24.316)" fill="#12967e"/>
            <path id="Trazado_1002669" data-name="Trazado 1002669" d="M132.2,28.613h-1.539a.781.781,0,1,1,0-1.562H132.2a.781.781,0,1,1,0,1.562Zm0,0" transform="translate(-116.752 -24.316)" fill="#12967e"/>
            <path id="Trazado_1002670" data-name="Trazado 1002670" d="M177.468,28.613H175.93a.781.781,0,1,1,0-1.562h1.539a.781.781,0,1,1,0,1.562Zm0,0" transform="translate(-157.442 -24.316)" fill="#12967e"/>
            <path id="Trazado_1002671" data-name="Trazado 1002671" d="M222.733,28.613h-1.539a.781.781,0,1,1,0-1.562h1.539a.781.781,0,1,1,0,1.562Zm0,0" transform="translate(-198.131 -24.316)" fill="#12967e"/>
            <path id="Trazado_1002672" data-name="Trazado 1002672" d="M52.52,87.6A5.317,5.317,0,1,1,47.2,82.285,5.317,5.317,0,0,1,52.52,87.6Zm0,0" transform="translate(-37.652 -73.967)" fill="#fdb659"/>
            <path id="Trazado_1002673" data-name="Trazado 1002673" d="M77.747,117.043l.673-.673a.781.781,0,0,0-1.1-1.1l-.673.673-.673-.673a.781.781,0,0,0-1.1,1.1l.673.673-.673.673a.781.781,0,0,0,1.1,1.1l.673-.673.673.673a.781.781,0,0,0,1.1-1.1Zm0,0" transform="translate(-67.091 -103.407)" fill="#fd8724"/>
            <path id="Trazado_1002674" data-name="Trazado 1002674" d="M223.466,134.336h-1.353a.781.781,0,1,1,0-1.562h1.353a.781.781,0,0,1,0,1.562Zm0,0" transform="translate(-198.956 -119.351)" fill="#06c7f4"/>
            <path id="Trazado_1002675" data-name="Trazado 1002675" d="M186.425,153.277h-5.519a.781.781,0,1,1,0-1.562h5.519a.781.781,0,1,1,0,1.562Zm0,0" transform="translate(-161.915 -136.377)" fill="#06c7f4"/>
            <path id="Trazado_1002676" data-name="Trazado 1002676" d="M186.425,172.214h-5.519a.781.781,0,0,1,0-1.562h5.519a.781.781,0,1,1,0,1.562Zm0,0" transform="translate(-161.915 -153.4)" fill="#06c7f4"/>
            <path id="Trazado_1002677" data-name="Trazado 1002677" d="M42.588,258.684h-3a1.041,1.041,0,0,1-1.041-1.041v-3a1.041,1.041,0,0,1,1.041-1.041h3a1.041,1.041,0,0,1,1.041,1.041v3A1.041,1.041,0,0,1,42.588,258.684Zm0,0" transform="translate(-34.647 -227.96)" fill="#fdb659"/>
            <path id="Trazado_1002678" data-name="Trazado 1002678" d="M122.619,258.684h-3a1.041,1.041,0,0,1-1.041-1.041v-3a1.041,1.041,0,0,1,1.041-1.041h3a1.041,1.041,0,0,1,1.041,1.041v3A1.041,1.041,0,0,1,122.619,258.684Zm0,0" transform="translate(-106.587 -227.96)" fill="#9af5fe"/>
            <path id="Trazado_1002679" data-name="Trazado 1002679" d="M202.65,258.684h-3a1.041,1.041,0,0,1-1.041-1.041v-3a1.041,1.041,0,0,1,1.041-1.041h3a1.041,1.041,0,0,1,1.042,1.041v3A1.041,1.041,0,0,1,202.65,258.684Zm0,0" transform="translate(-178.528 -227.96)" fill="#06c7f4"/>
            <g id="Grupo_1182235" data-name="Grupo 1182235" transform="translate(3.115 33.049)">
              <path id="Trazado_1002680" data-name="Trazado 1002680" d="M36.684,328.472H31.6a.781.781,0,1,1,0-1.562h5.086a.781.781,0,1,1,0,1.562Zm0,0" transform="translate(-30.816 -326.91)" fill="#93c0d1"/>
              <path id="Trazado_1002681" data-name="Trazado 1002681" d="M36.684,347.7H31.6a.781.781,0,1,1,0-1.562h5.086a.781.781,0,1,1,0,1.562Zm0,0" transform="translate(-30.816 -344.197)" fill="#93c0d1"/>
              <path id="Trazado_1002682" data-name="Trazado 1002682" d="M36.684,366.933H31.6a.781.781,0,0,1,0-1.562h5.086a.781.781,0,0,1,0,1.562Zm0,0" transform="translate(-30.816 -361.483)" fill="#93c0d1"/>
              <path id="Trazado_1002683" data-name="Trazado 1002683" d="M116.715,328.472h-5.086a.781.781,0,1,1,0-1.562h5.086a.781.781,0,1,1,0,1.562Zm0,0" transform="translate(-102.757 -326.91)" fill="#93c0d1"/>
              <path id="Trazado_1002684" data-name="Trazado 1002684" d="M116.715,347.7h-5.086a.781.781,0,1,1,0-1.562h5.086a.781.781,0,1,1,0,1.562Zm0,0" transform="translate(-102.757 -344.197)" fill="#93c0d1"/>
              <path id="Trazado_1002685" data-name="Trazado 1002685" d="M116.715,366.933h-5.086a.781.781,0,0,1,0-1.562h5.086a.781.781,0,0,1,0,1.562Zm0,0" transform="translate(-102.757 -361.483)" fill="#93c0d1"/>
              <path id="Trazado_1002686" data-name="Trazado 1002686" d="M196.747,328.472H191.66a.781.781,0,1,1,0-1.562h5.087a.781.781,0,0,1,0,1.562Zm0,0" transform="translate(-174.697 -326.91)" fill="#93c0d1"/>
              <path id="Trazado_1002687" data-name="Trazado 1002687" d="M196.747,347.7H191.66a.781.781,0,1,1,0-1.562h5.087a.781.781,0,0,1,0,1.562Zm0,0" transform="translate(-174.697 -344.197)" fill="#93c0d1"/>
              <path id="Trazado_1002688" data-name="Trazado 1002688" d="M196.747,366.933H191.66a.781.781,0,0,1,0-1.562h5.087a.781.781,0,0,1,0,1.562Zm0,0" transform="translate(-174.697 -361.483)" fill="#93c0d1"/>
            </g>
            <path id="Trazado_1002689" data-name="Trazado 1002689" d="M46.464,441.781h-.011a.781.781,0,0,1,0-1.562h.011a.781.781,0,0,1,0,1.562Zm0,0" transform="translate(-41.055 -395.715)" fill="#618baa"/>
            <path id="Trazado_1002690" data-name="Trazado 1002690" d="M74.658,441.781H70.492a.781.781,0,0,1,0-1.562h4.166a.781.781,0,0,1,0,1.562Zm0,0" transform="translate(-62.664 -395.715)" fill="#618baa"/>
            <path id="Trazado_1002691" data-name="Trazado 1002691" d="M46.464,470.82h-.019a.781.781,0,0,1,.015-1.562h.011a.781.781,0,0,1-.007,1.562Zm0,0" transform="translate(-41.055 -421.818)" fill="#618baa"/>
            <path id="Trazado_1002692" data-name="Trazado 1002692" d="M74.658,470.82H70.492a.781.781,0,0,1,0-1.562h4.166a.781.781,0,0,1,0,1.562Zm0,0" transform="translate(-62.664 -421.818)" fill="#618baa"/>
            <path id="Trazado_1002693" data-name="Trazado 1002693" d="M161.886,441.781h-.011a.781.781,0,0,1,0-1.562h.011a.781.781,0,0,1,0,1.562Zm0,0" transform="translate(-144.809 -395.715)" fill="#618baa"/>
            <path id="Trazado_1002694" data-name="Trazado 1002694" d="M190.08,441.781h-4.166a.781.781,0,0,1,0-1.562h4.166a.781.781,0,0,1,0,1.562Zm0,0" transform="translate(-166.418 -395.715)" fill="#618baa"/>
            <path id="Trazado_1002695" data-name="Trazado 1002695" d="M161.886,470.82h-.019a.781.781,0,0,1,.007-1.562h.018a.781.781,0,0,1-.007,1.562Zm0,0" transform="translate(-144.808 -421.818)" fill="#618baa"/>
            <path id="Trazado_1002696" data-name="Trazado 1002696" d="M190.08,470.82h-4.166a.781.781,0,0,1,0-1.562h4.166a.781.781,0,0,1,0,1.562Zm0,0" transform="translate(-166.418 -421.818)" fill="#618baa"/>
          </g>
        </g>
      </g>
    </g>
  </g>
</svg>
