<svg xmlns="http://www.w3.org/2000/svg" xmlns:xlink="http://www.w3.org/1999/xlink" width="96" height="96" viewBox="0 0 96 96">
  <defs>
    <clipPath id="clip-path">
      <rect id="Rectángulo_455533" data-name="Rectángulo 455533" width="95.999" height="92.163" fill="#19538d"/>
    </clipPath>
    <clipPath id="clip-path-2">
      <path id="path5709" d="M0-682.665H54.109v54.109H0Z" transform="translate(0 682.665)" fill="#fff"/>
    </clipPath>
  </defs>
  <g id="Grupo_1180265" data-name="Grupo 1180265" transform="translate(-383.745 -8399)">
    <circle id="Elipse_13674" data-name="Elipse 13674" cx="41.5" cy="41.5" r="41.5" transform="translate(389.746 8406)" fill="#19538d"/>
    <g id="Grupo_1179062" data-name="Grupo 1179062" transform="translate(383.745 8399)">
      <rect id="Rectángulo_455531" data-name="Rectángulo 455531" width="96" height="96" transform="translate(0 0)" fill="none"/>
      <g id="Grupo_1179061" data-name="Grupo 1179061" transform="translate(0 2.203)">
        <path id="Trazado_998445" data-name="Trazado 998445" d="M114.467,95.838H96.727l2.4-4.484h17.739Z" transform="translate(-23.693 -22.7)" fill="#19538d"/>
        <path id="Trazado_998446" data-name="Trazado 998446" d="M1.458,86.893,0,89.861H19.558l1.458-2.968Z" transform="translate(0 -21.618)" fill="#19538d"/>
        <path id="Trazado_998447" data-name="Trazado 998447" d="M117.539,31.293H98.809l1.469-3.326h18.73Z" transform="translate(-24.246 -6.956)" fill="#19538d"/>
        <path id="Trazado_998448" data-name="Trazado 998448" d="M28.088,11.547H3.483L4.952,8.221H29.557Z" transform="translate(-0.925 -2.184)" fill="#19538d"/>
        <g id="Grupo_1179060" data-name="Grupo 1179060" transform="translate(0)">
          <g id="Grupo_1179059" data-name="Grupo 1179059" clip-path="url(#clip-path)">
            <path id="Trazado_998449" data-name="Trazado 998449" d="M48.653,99.141a40.772,40.772,0,0,1-39.711-49.9H3.518A46.036,46.036,0,0,0,84.512,87.248h-7.1A40.6,40.6,0,0,1,48.653,99.141" transform="translate(-0.653 -12.277)" fill="#19538d"/>
            <path id="Trazado_998450" data-name="Trazado 998450" d="M110.835,87.933h6.025c.484-.964.923-1.952,1.34-2.953h-5.792c-.487,1.007-1.008,1.994-1.573,2.953" transform="translate(-27.709 -21.189)" fill="#19538d"/>
            <path id="Trazado_998451" data-name="Trazado 998451" d="M95.384,46.081a46.043,46.043,0,0,0-90.011-13.7h5.589A40.752,40.752,0,1,1,87.147,61.291h5.644a45.915,45.915,0,0,0,2.592-15.209" transform="translate(-1.343)" fill="#19538d"/>
            <path id="Trazado_998452" data-name="Trazado 998452" d="M108.562,81.649v2.5h3.277q.594-1.228,1.106-2.5Z" transform="translate(-27.141 -20.358)" fill="#19538d"/>
            <path id="Trazado_998453" data-name="Trazado 998453" d="M126.164,81.649h-4.551q-.444,1.268-.958,2.5h5.509Z" transform="translate(-30.164 -20.358)" fill="#19538d"/>
          </g>
        </g>
        <path id="Trazado_998444" data-name="Trazado 998444" d="M2.2,37.025,0,41.509H13.317l2.2-4.484Z" transform="translate(0 -9.2)" fill="#19538d"/>
      </g>
    </g>
    <g id="Grupo_1177669" data-name="Grupo 1177669" transform="translate(403.444 8418.662)">
      <g id="Grupo_1099618" data-name="Grupo 1099618" transform="translate(0.013 0.338)">
        <rect id="Rectángulo_401104" data-name="Rectángulo 401104" width="56.349" height="57.028" transform="translate(0)" fill="none"/>
      </g>
      <g id="g5703" transform="translate(1.23 684.22)">
        <g id="g5705" transform="translate(0 -682.665)">
          <g id="g5707" clip-path="url(#clip-path-2)">
            <g id="g5713" transform="translate(0 0.64)">
              <path id="path5715" d="M-182.989-326.575a.792.792,0,0,1-.384-.1.793.793,0,0,1-.408-.693v-3.478h-1.984a2.931,2.931,0,0,1-2.927-2.927V-357.26a2.931,2.931,0,0,1,2.927-2.927h27.757a2.931,2.931,0,0,1,2.927,2.928v4.527a.793.793,0,0,1-.793.793.793.793,0,0,1-.793-.793v-4.527a1.344,1.344,0,0,0-1.342-1.342h-27.757a1.344,1.344,0,0,0-1.342,1.342v23.487a1.344,1.344,0,0,0,1.342,1.342h2.776a.793.793,0,0,1,.793.793v2.84l5.62-3.513a.793.793,0,0,1,.42-.12h2.42a.793.793,0,0,1,.793.793.793.793,0,0,1-.793.793h-2.193l-6.64,4.15A.792.792,0,0,1-182.989-326.575Z" transform="translate(188.693 360.187)" fill="#fff"/>
            </g>
            <g id="g5717" transform="translate(17.862 28.397)">
              <path id="path5719" d="M-39.813-8.415h-2.635a.793.793,0,0,1-.793-.793A.793.793,0,0,1-42.447-10h2.635a.793.793,0,0,1,.793.793A.793.793,0,0,1-39.813-8.415Z" transform="translate(43.24 10)" fill="#fff"/>
            </g>
            <g id="g5721" transform="translate(32.027 11.001)">
              <path id="path5723" d="M-9.207-111.279a.793.793,0,0,1-.793-.793v-8.855a.793.793,0,0,1,.793-.793.793.793,0,0,1,.793.793v8.855A.793.793,0,0,1-9.207-111.279Z" transform="translate(10 121.72)" fill="#fff"/>
            </g>
            <g id="g5725" transform="translate(30.316 23.273)">
              <path id="path5727" d="M-81.168-172.112a2.5,2.5,0,0,1-2.5-2.5v-.219A4.222,4.222,0,0,1-80.6-178.9a1.979,1.979,0,0,0,1.417-2.057,1.992,1.992,0,0,0-1.771-1.824,1.976,1.976,0,0,0-2.176,1.7,2.021,2.021,0,0,0-.019.28,2.5,2.5,0,0,1-2.5,2.5,2.5,2.5,0,0,1-2.5-2.5,7.05,7.05,0,0,1,.067-.972,7.013,7.013,0,0,1,6.917-6.016q.348,0,.7.035a6.969,6.969,0,0,1,4.308,2.083,6.987,6.987,0,0,1,1.962,4.36,7.012,7.012,0,0,1-1.261,4.538,7.032,7.032,0,0,1-3.232,2.505A2.5,2.5,0,0,1-81.168-172.112Zm.006-12.261c.119,0,.239.006.359.018a3.593,3.593,0,0,1,3.2,3.289,3.554,3.554,0,0,1-2.549,3.69,2.648,2.648,0,0,0-1.928,2.544v.219a.917.917,0,0,0,.916.915.917.917,0,0,0,.916-.915v-.212a.793.793,0,0,1,.081-.353.935.935,0,0,1,.535-.442,5.432,5.432,0,0,0,2.884-2.068,5.423,5.423,0,0,0,.974-3.51,5.4,5.4,0,0,0-1.518-3.369,5.382,5.382,0,0,0-3.326-1.611q-.276-.027-.547-.027a5.355,5.355,0,0,0-5.347,4.65,5.461,5.461,0,0,0-.052.752.917.917,0,0,0,.916.916.917.917,0,0,0,.915-.916,3.608,3.608,0,0,1,.035-.5A3.587,3.587,0,0,1-81.163-184.373Z" transform="translate(88.156 187.789)" fill="#fff"/>
            </g>
            <g id="g5729" transform="translate(34.803 40.781)">
              <path id="path5731" d="M-50.6-26.549a2.5,2.5,0,0,1-2.5-2.5,2.5,2.5,0,0,1,2.5-2.5,2.5,2.5,0,0,1,2.5,2.5A2.5,2.5,0,0,1-50.6-26.549Zm0-3.416a.917.917,0,0,0-.915.916.916.916,0,0,0,.915.915.917.917,0,0,0,.916-.915A.917.917,0,0,0-50.6-29.965Z" transform="translate(53.1 31.551)" fill="#fff"/>
            </g>
            <g id="g5733" transform="translate(7.473 12.811)">
              <path id="path5735" d="M-50.6-31.549a2.5,2.5,0,0,1,2.5,2.5,2.5,2.5,0,0,1-2.5,2.5,2.5,2.5,0,0,1-2.5-2.5A2.5,2.5,0,0,1-50.6-31.549Zm0,3.416a.917.917,0,0,0,.916-.916.917.917,0,0,0-.916-.915.916.916,0,0,0-.915.915A.917.917,0,0,0-50.6-28.133Z" transform="translate(53.1 31.549)" fill="#fff"/>
            </g>
            <g id="g5737" transform="translate(14.305 12.811)">
              <path id="path5739" d="M-50.6-31.549a2.5,2.5,0,0,1,2.5,2.5,2.5,2.5,0,0,1-2.5,2.5,2.5,2.5,0,0,1-2.5-2.5A2.5,2.5,0,0,1-50.6-31.549Zm0,3.416a.917.917,0,0,0,.916-.916.917.917,0,0,0-.916-.915.916.916,0,0,0-.915.915A.917.917,0,0,0-50.6-28.133Z" transform="translate(53.1 31.549)" fill="#fff"/>
            </g>
            <g id="g5741" transform="translate(21.138 12.811)">
              <path id="path5743" d="M-50.6-31.549a2.5,2.5,0,0,1,2.5,2.5,2.5,2.5,0,0,1-2.5,2.5,2.5,2.5,0,0,1-2.5-2.5A2.5,2.5,0,0,1-50.6-31.549Zm0,3.416a.917.917,0,0,0,.916-.916.917.917,0,0,0-.916-.915.916.916,0,0,0-.915.915A.917.917,0,0,0-50.6-28.133Z" transform="translate(53.1 31.549)" fill="#fff"/>
            </g>
            <g id="g5745" transform="translate(20.497 19.857)">
              <path id="path5747" d="M-207.464-326.575a.792.792,0,0,1-.42-.12l-6.64-4.15h-2.193a.793.793,0,0,1-.793-.793.793.793,0,0,1,.793-.793h2.42a.793.793,0,0,1,.42.12l5.62,3.513v-2.84a.793.793,0,0,1,.793-.793h2.776a1.344,1.344,0,0,0,1.342-1.342V-357.26a1.344,1.344,0,0,0-1.342-1.342h-27.757a1.344,1.344,0,0,0-1.342,1.342v23.487a1.344,1.344,0,0,0,1.342,1.342h12.03a.793.793,0,0,1,.793.793.793.793,0,0,1-.793.793h-12.03a2.931,2.931,0,0,1-2.927-2.927V-357.26a2.931,2.931,0,0,1,2.927-2.928h27.757a2.931,2.931,0,0,1,2.927,2.927v23.487a2.931,2.931,0,0,1-2.927,2.927h-1.984v3.478a.793.793,0,0,1-.408.693A.792.792,0,0,1-207.464-326.575Z" transform="translate(235.373 360.187)" fill="#fff"/>
            </g>
          </g>
        </g>
      </g>
    </g>
  </g>
</svg>
