<svg xmlns="http://www.w3.org/2000/svg" xmlns:xlink="http://www.w3.org/1999/xlink" width="96" height="96" viewBox="0 0 96 96">
  <defs>
    <clipPath id="clip-path">
      <rect id="Rectángulo_455533" data-name="Rectángulo 455533" width="95.999" height="92.163" fill="#19538d"/>
    </clipPath>
  </defs>
  <g id="Grupo_1179949" data-name="Grupo 1179949" transform="translate(-383.745 -8399)">
    <circle id="Elipse_13674" data-name="Elipse 13674" cx="41.5" cy="41.5" r="41.5" transform="translate(389.746 8406)" fill="#19538d"/>
    <g id="Grupo_1179062" data-name="Grupo 1179062" transform="translate(383.745 8399)">
      <rect id="Rectángulo_455531" data-name="Rectángulo 455531" width="96" height="96" transform="translate(0 0)" fill="none"/>
      <g id="Grupo_1179061" data-name="Grupo 1179061" transform="translate(0 2.203)">
        <path id="Trazado_998445" data-name="Trazado 998445" d="M114.467,95.838H96.727l2.4-4.484h17.739Z" transform="translate(-23.693 -22.7)" fill="#19538d"/>
        <path id="Trazado_998446" data-name="Trazado 998446" d="M1.458,86.893,0,89.861H19.558l1.458-2.968Z" transform="translate(0 -21.618)" fill="#19538d"/>
        <path id="Trazado_998447" data-name="Trazado 998447" d="M117.539,31.293H98.809l1.469-3.326h18.73Z" transform="translate(-24.246 -6.956)" fill="#19538d"/>
        <path id="Trazado_998448" data-name="Trazado 998448" d="M28.088,11.547H3.483L4.952,8.221H29.557Z" transform="translate(-0.925 -2.184)" fill="#19538d"/>
        <g id="Grupo_1179060" data-name="Grupo 1179060" transform="translate(0)">
          <g id="Grupo_1179059" data-name="Grupo 1179059" clip-path="url(#clip-path)">
            <path id="Trazado_998449" data-name="Trazado 998449" d="M48.653,99.141a40.772,40.772,0,0,1-39.711-49.9H3.518A46.036,46.036,0,0,0,84.512,87.248h-7.1A40.6,40.6,0,0,1,48.653,99.141" transform="translate(-0.653 -12.277)" fill="#19538d"/>
            <path id="Trazado_998450" data-name="Trazado 998450" d="M110.835,87.933h6.025c.484-.964.923-1.952,1.34-2.953h-5.792c-.487,1.007-1.008,1.994-1.573,2.953" transform="translate(-27.709 -21.189)" fill="#19538d"/>
            <path id="Trazado_998451" data-name="Trazado 998451" d="M95.384,46.081a46.043,46.043,0,0,0-90.011-13.7h5.589A40.752,40.752,0,1,1,87.147,61.291h5.644a45.915,45.915,0,0,0,2.592-15.209" transform="translate(-1.343)" fill="#19538d"/>
            <path id="Trazado_998452" data-name="Trazado 998452" d="M108.562,81.649v2.5h3.277q.594-1.228,1.106-2.5Z" transform="translate(-27.141 -20.358)" fill="#19538d"/>
            <path id="Trazado_998453" data-name="Trazado 998453" d="M126.164,81.649h-4.551q-.444,1.268-.958,2.5h5.509Z" transform="translate(-30.164 -20.358)" fill="#19538d"/>
          </g>
        </g>
        <path id="Trazado_998444" data-name="Trazado 998444" d="M2.2,37.025,0,41.509H13.317l2.2-4.484Z" transform="translate(0 -9.2)" fill="#19538d"/>
      </g>
    </g>
    <g id="Grupo_1177669" data-name="Grupo 1177669" transform="translate(403.444 8418.662)">
      <g id="Grupo_1180112" data-name="Grupo 1180112">
        <g id="Grupo_1099618" data-name="Grupo 1099618" transform="translate(0.267 0.338)">
          <rect id="Rectángulo_401104" data-name="Rectángulo 401104" width="56.349" height="57.028" transform="translate(0)" fill="none"/>
        </g>
        <g id="ganar" transform="translate(0.267 1.338)">
          <path id="Trazado_1000102" data-name="Trazado 1000102" d="M25.889,78.453a3.418,3.418,0,0,0-3.417,3.418,7.753,7.753,0,0,1-1.961,5.17,5.981,5.981,0,1,0-11.713,0,7.784,7.784,0,0,1-1.961-5.17A3.418,3.418,0,1,0,0,81.87,14.626,14.626,0,0,0,8.365,95.1v10.974c0,.005,0,.011,0,.017v17.589a1.068,1.068,0,0,0,2.136,0V107.163h9.663v12.249a1.068,1.068,0,1,0,2.136,0V94.365a14.726,14.726,0,0,0,2.71-2.138,14.554,14.554,0,0,0,4.3-10.357,3.422,3.422,0,0,0-3.418-3.418ZM14.654,81.981a3.845,3.845,0,1,1-3.845,3.845A3.849,3.849,0,0,1,14.654,81.981ZM23.5,90.717a12.615,12.615,0,0,1-2.787,2.1,1.068,1.068,0,0,0-.549.933v11.274H10.5V94.412a1.068,1.068,0,0,0-.656-.986A12.5,12.5,0,0,1,2.136,81.87a1.282,1.282,0,0,1,2.563,0,9.965,9.965,0,0,0,9.954,9.954h0a9.964,9.964,0,0,0,9.954-9.954,1.282,1.282,0,0,1,2.563,0A12.433,12.433,0,0,1,23.5,90.717Zm0,0" transform="translate(0 -70.069)" fill="#fff"/>
          <path id="Trazado_1000103" data-name="Trazado 1000103" d="M189.76,491.75a1.068,1.068,0,1,0,.755.313A1.073,1.073,0,0,0,189.76,491.75Zm0,0" transform="translate(-168.528 -439.203)" fill="#fff"/>
          <path id="Trazado_1000104" data-name="Trazado 1000104" d="M134.666,387.719a1.068,1.068,0,0,0-1.068,1.068v11.144a1.068,1.068,0,1,0,2.136,0V388.787A1.068,1.068,0,0,0,134.666,387.719Zm0,0" transform="translate(-119.322 -346.288)" fill="#fff"/>
          <path id="Trazado_1000105" data-name="Trazado 1000105" d="M263.369,215.215a3.417,3.417,0,0,0-3.418,3.418,7.753,7.753,0,0,1-1.961,5.17,5.981,5.981,0,1,0-11.713,0,7.784,7.784,0,0,1-1.961-5.17,3.418,3.418,0,1,0-6.836,0,14.634,14.634,0,0,0,.511,3.842,1.068,1.068,0,1,0,2.061-.561,12.515,12.515,0,0,1-.436-3.281,1.282,1.282,0,1,1,2.563,0,9.965,9.965,0,0,0,9.954,9.954h0a9.964,9.964,0,0,0,9.954-9.954,1.282,1.282,0,1,1,2.563,0,12.433,12.433,0,0,1-3.671,8.846,12.577,12.577,0,0,1-2.787,2.1,1.069,1.069,0,0,0-.549.934v11.274h-9.662V231.174a1.068,1.068,0,0,0-.656-.986,12.543,12.543,0,0,1-2.914-1.713,1.068,1.068,0,0,0-1.32,1.679,14.689,14.689,0,0,0,2.755,1.711v10.974c0,.005,0,.011,0,.017v2.975a1.068,1.068,0,0,0,2.136,0v-1.908h9.663v1.908a1.068,1.068,0,0,0,2.136,0V231.128a14.715,14.715,0,0,0,2.711-2.138,14.555,14.555,0,0,0,4.3-10.357,3.421,3.421,0,0,0-3.417-3.417Zm-11.236,3.528a3.845,3.845,0,1,1-3.845,3.845A3.849,3.849,0,0,1,252.134,218.743Zm0,0" transform="translate(-212.103 -192.218)" fill="#fff"/>
          <path id="Trazado_1000106" data-name="Trazado 1000106" d="M261.138,308.645a1.068,1.068,0,0,0-1.77,1.2l.012.018a1.068,1.068,0,1,0,1.777-1.185Zm0,0" transform="translate(-231.489 -275.244)" fill="#fff"/>
          <path id="Trazado_1000107" data-name="Trazado 1000107" d="M438.842,99.56a1.068,1.068,0,0,0,1.068-1.068V97.017a1.068,1.068,0,1,0-2.136,0v1.475A1.068,1.068,0,0,0,438.842,99.56Zm0,0" transform="translate(-390.994 -85.696)" fill="#fff"/>
          <path id="Trazado_1000108" data-name="Trazado 1000108" d="M438.842,165.716a1.068,1.068,0,0,0,1.068-1.068v-1.475a1.068,1.068,0,0,0-2.136,0v1.475A1.068,1.068,0,0,0,438.842,165.716Zm0,0" transform="translate(-390.994 -144.783)" fill="#fff"/>
          <path id="Trazado_1000109" data-name="Trazado 1000109" d="M465.017,138.066h1.475a1.068,1.068,0,0,0,0-2.136h-1.475a1.068,1.068,0,1,0,0,2.136Zm0,0" transform="translate(-414.372 -121.405)" fill="#fff"/>
          <path id="Trazado_1000110" data-name="Trazado 1000110" d="M398.861,138.066h1.475a1.068,1.068,0,1,0,0-2.136h-1.475a1.068,1.068,0,1,0,0,2.136Zm0,0" transform="translate(-355.285 -121.405)" fill="#fff"/>
          <path id="Trazado_1000111" data-name="Trazado 1000111" d="M334.9,3.611a1.068,1.068,0,0,0,1.068-1.068V1.068a1.068,1.068,0,1,0-2.136,0V2.543A1.068,1.068,0,0,0,334.9,3.611Zm0,0" transform="translate(-298.156)" fill="#fff"/>
          <path id="Trazado_1000112" data-name="Trazado 1000112" d="M334.9,69.764a1.068,1.068,0,0,0,1.068-1.068V67.22a1.068,1.068,0,1,0-2.136,0V68.7A1.068,1.068,0,0,0,334.9,69.764Zm0,0" transform="translate(-298.156 -59.083)" fill="#fff"/>
          <path id="Trazado_1000113" data-name="Trazado 1000113" d="M361.072,42.116h1.475a1.068,1.068,0,1,0,0-2.136h-1.475a1.068,1.068,0,0,0,0,2.136Zm0,0" transform="translate(-321.534 -35.708)" fill="#fff"/>
          <path id="Trazado_1000114" data-name="Trazado 1000114" d="M294.916,42.116h1.475a1.068,1.068,0,1,0,0-2.136h-1.475a1.068,1.068,0,1,0,0,2.136Zm0,0" transform="translate(-262.448 -35.708)" fill="#fff"/>
        </g>
      </g>
    </g>
  </g>
</svg>
