<svg xmlns="http://www.w3.org/2000/svg" width="110" height="109" viewBox="0 0 110 109">
  <g id="Grupo_1182465" data-name="Grupo 1182465" transform="translate(-275.029 -1765)">
    <ellipse id="Elipse_13688" data-name="Elipse 13688" cx="55" cy="54.5" rx="55" ry="54.5" transform="translate(275.029 1765)" fill="#fff"/>
    <g id="Grupo_1180108" data-name="Grupo 1180108">
      <g id="Grupo_1179962" data-name="Grupo 1179962" transform="translate(295.711 1785)">
        <g id="Grupo_1099618" data-name="Grupo 1099618" transform="translate(0 0)">
          <rect id="Rectángulo_401104" data-name="Rectángulo 401104" width="68.179" height="69.001" transform="translate(0)" fill="none"/>
        </g>
      </g>
      <g id="matematicas" transform="translate(296.711 1769.423)">
        <g id="Grupo_1180091" data-name="Grupo 1180091" transform="translate(19.856 47.237)">
          <g id="Grupo_1180090" data-name="Grupo 1180090">
            <path id="Trazado_1000093" data-name="Trazado 1000093" d="M172.669,232.5h-9.886a1.3,1.3,0,0,0-1.258.959l-1.724,6.286-.065-.267a1.3,1.3,0,0,0-1.267-1h-4.314a1.3,1.3,0,1,0,0,2.608h3.29l1.016,4.162a1.3,1.3,0,0,0,1.249.995h.019a1.3,1.3,0,0,0,1.258-.959l2.793-10.181h8.892a1.3,1.3,0,1,0,0-2.608Z" transform="translate(-152.85 -232.502)"/>
          </g>
        </g>
        <g id="Grupo_1180093" data-name="Grupo 1180093" transform="translate(31.72 52.292)">
          <g id="Grupo_1180092" data-name="Grupo 1180092">
            <path id="Trazado_1000094" data-name="Trazado 1000094" d="M249.678,275.07l1.43-1.429a1.3,1.3,0,1,0-1.844-1.844l-1.43,1.43-1.43-1.43a1.3,1.3,0,1,0-1.844,1.844l1.43,1.429-1.43,1.429a1.3,1.3,0,0,0,1.844,1.844l1.43-1.43,1.43,1.43a1.3,1.3,0,0,0,1.844-1.844Z" transform="translate(-244.178 -271.415)"/>
          </g>
        </g>
        <g id="Grupo_1180095" data-name="Grupo 1180095" transform="translate(33.625 37.046)">
          <g id="Grupo_1180094" data-name="Grupo 1180094" transform="translate(0 0)">
            <path id="Trazado_1000095" data-name="Trazado 1000095" d="M263.843,157.2l.93-.93a1.3,1.3,0,0,0-1.844-1.844l-.93.93-.93-.93a1.3,1.3,0,0,0-1.844,1.844l.93.93-.93.93a1.3,1.3,0,0,0,1.844,1.844l.93-.93.93.93a1.3,1.3,0,0,0,1.844-1.844Z" transform="translate(-258.843 -154.049)"/>
          </g>
        </g>
        <g id="Grupo_1180097" data-name="Grupo 1180097" transform="translate(24.758 30.705)">
          <g id="Grupo_1180096" data-name="Grupo 1180096">
            <path id="Trazado_1000096" data-name="Trazado 1000096" d="M202.012,107.323a3.4,3.4,0,0,0-5.957-.593,5.819,5.819,0,0,0-.942,2.467h-.677a1.3,1.3,0,0,0,0,2.608H195q.009.174.021.344v0a13.669,13.669,0,0,1,.025,1.59,5.047,5.047,0,0,1-.376,1.982l-.02.037c-.046.087-.091.173-.14.258-.024.042-.051.083-.079.124-.011.01-.058.065-.1.108a.771.771,0,0,1-.422.237c.061-.011-.353,0-.4-.008a.36.36,0,0,1-.214-.1,1.064,1.064,0,0,1-.079-.076l-.071-.1c-.042-.061-.065-.095-.075-.109a1.294,1.294,0,0,0-2.427.882,3.4,3.4,0,0,0,5.957.593c1.075-1.505,1.156-3.635,1.029-5.419v0c-.008-.115-.015-.231-.02-.346h.857a1.3,1.3,0,0,0,0-2.608h-.695a5.792,5.792,0,0,1,.209-.617l.02-.037c.046-.087.091-.173.14-.258.024-.042.051-.084.079-.124.011-.01.058-.065.1-.108a.77.77,0,0,1,.422-.237c-.061.011.353,0,.4.008a.36.36,0,0,1,.214.1,1.035,1.035,0,0,1,.079.076l.071.1c.042.061.065.095.075.109a1.294,1.294,0,0,0,2.427-.882Z" transform="translate(-190.582 -105.239)"/>
          </g>
        </g>
        <g id="Grupo_1180099" data-name="Grupo 1180099" transform="translate(7.865 31.771)">
          <g id="Grupo_1180098" data-name="Grupo 1180098">
            <path id="Trazado_1000097" data-name="Trazado 1000097" d="M73.925,121.015a1.3,1.3,0,0,0-1.3,1.3v.716a.6.6,0,1,1-1.2,0v-6.983h1.871a1.3,1.3,0,0,0,0-2.608H61.845a1.3,1.3,0,1,0,0,2.608H63.9v1.33a9.323,9.323,0,0,1-2.749,6.636,1.3,1.3,0,0,0,1.844,1.844,11.915,11.915,0,0,0,3.513-8.48v-1.33h2.3v6.983a3.21,3.21,0,1,0,6.42,0v-.716A1.3,1.3,0,0,0,73.925,121.015Z" transform="translate(-60.541 -113.444)"/>
          </g>
        </g>
        <g id="Grupo_1180101" data-name="Grupo 1180101" transform="translate(45.847 38.916)">
          <g id="Grupo_1180100" data-name="Grupo 1180100">
            <path id="Trazado_1000098" data-name="Trazado 1000098" d="M364.422,172.8a1.3,1.3,0,0,0,1.3-1.3v-1.744a1.3,1.3,0,0,0-1.3-1.3H354.229a1.3,1.3,0,0,0-.922,2.226l4.174,4.174-4.174,4.174a1.3,1.3,0,0,0,.922,2.226h10.193a1.3,1.3,0,0,0,1.3-1.3V178.2a1.3,1.3,0,0,0-2.608,0v.44h-5.74l2.87-2.87a1.3,1.3,0,0,0,0-1.844l-2.87-2.87h5.74v.44A1.3,1.3,0,0,0,364.422,172.8Z" transform="translate(-352.925 -168.444)"/>
          </g>
        </g>
        <g id="Grupo_1180103" data-name="Grupo 1180103" transform="translate(0 19.577)">
          <g id="Grupo_1180102" data-name="Grupo 1180102" transform="translate(0 0)">
            <path id="Trazado_1000099" data-name="Trazado 1000099" d="M65.208,19.577H1.3a1.3,1.3,0,0,0-1.3,1.3V65.029a1.3,1.3,0,0,0,1.3,1.3H30.783L22.138,78.962a1.3,1.3,0,1,0,2.152,1.473l8.966-13.1,8.966,13.1a1.3,1.3,0,1,0,2.152-1.473L35.73,66.334H65.208a1.3,1.3,0,0,0,1.3-1.3V20.881A1.3,1.3,0,0,0,65.208,19.577ZM63.9,63.725H2.608v-35.8H63.9v35.8Zm0-38.41H2.608v-3.13H63.9v3.13Z" transform="translate(0 -19.577)"/>
          </g>
        </g>
        <g id="Grupo_1180105" data-name="Grupo 1180105" transform="translate(44.053 56.995)">
          <g id="Grupo_1180104" data-name="Grupo 1180104">
            <path id="Trazado_1000100" data-name="Trazado 1000100" d="M348.255,307.619h-7.836a1.3,1.3,0,1,0,0,2.608h7.836a1.3,1.3,0,1,0,0-2.608Z" transform="translate(-339.115 -307.619)"/>
          </g>
        </g>
        <g id="Grupo_1180107" data-name="Grupo 1180107" transform="translate(56.084 56.995)">
          <g id="Grupo_1180106" data-name="Grupo 1180106">
            <path id="Trazado_1000101" data-name="Trazado 1000101" d="M432.989,307.619a1.3,1.3,0,0,0,0,2.608A1.3,1.3,0,0,0,432.989,307.619Z" transform="translate(-431.729 -307.619)"/>
          </g>
        </g>
      </g>
    </g>
  </g>
</svg>
