<svg xmlns="http://www.w3.org/2000/svg" xmlns:xlink="http://www.w3.org/1999/xlink" width="96" height="96" viewBox="0 0 96 96">
  <defs>
    <clipPath id="clip-path">
      <rect id="Rectángulo_455533" data-name="Rectángulo 455533" width="95.999" height="92.163" fill="#19538d"/>
    </clipPath>
  </defs>
  <g id="Grupo_1179950" data-name="Grupo 1179950" transform="translate(-383.745 -8399)">
    <circle id="Elipse_13674" data-name="Elipse 13674" cx="41.5" cy="41.5" r="41.5" transform="translate(389.711 8406)" fill="#19538d"/>
    <g id="Grupo_1179062" data-name="Grupo 1179062" transform="translate(383.745 8399)">
      <rect id="Rectángulo_455531" data-name="Rectángulo 455531" width="96" height="96" transform="translate(0 0)" fill="none"/>
      <g id="Grupo_1179061" data-name="Grupo 1179061" transform="translate(0 2.203)">
        <path id="Trazado_998445" data-name="Trazado 998445" d="M114.467,95.838H96.727l2.4-4.484h17.739Z" transform="translate(-23.693 -22.7)" fill="#19538d"/>
        <path id="Trazado_998446" data-name="Trazado 998446" d="M1.458,86.893,0,89.861H19.558l1.458-2.968Z" transform="translate(0 -21.618)" fill="#19538d"/>
        <path id="Trazado_998447" data-name="Trazado 998447" d="M117.539,31.293H98.809l1.469-3.326h18.73Z" transform="translate(-24.246 -6.956)" fill="#19538d"/>
        <path id="Trazado_998448" data-name="Trazado 998448" d="M28.088,11.547H3.483L4.952,8.221H29.557Z" transform="translate(-0.925 -2.184)" fill="#19538d"/>
        <g id="Grupo_1179060" data-name="Grupo 1179060" transform="translate(0)">
          <g id="Grupo_1179059" data-name="Grupo 1179059" clip-path="url(#clip-path)">
            <path id="Trazado_998449" data-name="Trazado 998449" d="M48.653,99.141a40.772,40.772,0,0,1-39.711-49.9H3.518A46.036,46.036,0,0,0,84.512,87.248h-7.1A40.6,40.6,0,0,1,48.653,99.141" transform="translate(-0.653 -12.277)" fill="#19538d"/>
            <path id="Trazado_998450" data-name="Trazado 998450" d="M110.835,87.933h6.025c.484-.964.923-1.952,1.34-2.953h-5.792c-.487,1.007-1.008,1.994-1.573,2.953" transform="translate(-27.709 -21.189)" fill="#19538d"/>
            <path id="Trazado_998451" data-name="Trazado 998451" d="M95.384,46.081a46.043,46.043,0,0,0-90.011-13.7h5.589A40.752,40.752,0,1,1,87.147,61.291h5.644a45.915,45.915,0,0,0,2.592-15.209" transform="translate(-1.343)" fill="#19538d"/>
            <path id="Trazado_998452" data-name="Trazado 998452" d="M108.562,81.649v2.5h3.277q.594-1.228,1.106-2.5Z" transform="translate(-27.141 -20.358)" fill="#19538d"/>
            <path id="Trazado_998453" data-name="Trazado 998453" d="M126.164,81.649h-4.551q-.444,1.268-.958,2.5h5.509Z" transform="translate(-30.164 -20.358)" fill="#19538d"/>
          </g>
        </g>
        <path id="Trazado_998444" data-name="Trazado 998444" d="M2.2,37.025,0,41.509H13.317l2.2-4.484Z" transform="translate(0 -9.2)" fill="#19538d"/>
      </g>
    </g>
    <g id="Grupo_1177669" data-name="Grupo 1177669" transform="translate(403.444 8418.662)">
      <g id="Grupo_1180113" data-name="Grupo 1180113" transform="translate(-1)">
        <g id="Grupo_1099618" data-name="Grupo 1099618" transform="translate(0.267 0.338)">
          <rect id="Rectángulo_401104" data-name="Rectángulo 401104" width="56.349" height="57.028" transform="translate(0)" fill="none"/>
        </g>
        <g id="recursos-humanos" transform="translate(1.267 1.335)">
          <path id="Trazado_1000115" data-name="Trazado 1000115" d="M17.483,343.014H1.062A1.062,1.062,0,0,1,0,341.952v-4a5.9,5.9,0,0,1,5.892-5.892h6.76a5.9,5.9,0,0,1,5.892,5.892v4A1.062,1.062,0,0,1,17.483,343.014ZM2.124,340.89h14.3v-2.94a3.772,3.772,0,0,0-3.768-3.768H5.892a3.772,3.772,0,0,0-3.768,3.768Z" transform="translate(0 -296.792)" fill="#fff"/>
          <path id="Trazado_1000116" data-name="Trazado 1000116" d="M49.694,255.586a4.475,4.475,0,0,1,4.47,4.47v1.3a4.47,4.47,0,1,1-8.939,0v-1.3A4.475,4.475,0,0,1,49.694,255.586Zm0,8.121a2.348,2.348,0,0,0,2.345-2.346v-1.3a2.346,2.346,0,1,0-4.691,0v1.3A2.349,2.349,0,0,0,49.7,263.707Z" transform="translate(-40.422 -228.441)" fill="#fff"/>
          <path id="Trazado_1000117" data-name="Trazado 1000117" d="M212.5,41.311a4.916,4.916,0,0,1,4.91,4.91v1.473a4.91,4.91,0,1,1-9.819,0V46.221A4.915,4.915,0,0,1,212.5,41.311Zm0,9.17a2.789,2.789,0,0,0,2.785-2.786V46.221a2.786,2.786,0,1,0-5.572,0v1.473A2.789,2.789,0,0,0,212.5,50.481Z" transform="translate(-185.541 -36.921)" fill="#fff"/>
          <path id="Trazado_1000118" data-name="Trazado 1000118" d="M387.066,255.586a4.475,4.475,0,0,1,4.47,4.47v1.3a4.47,4.47,0,1,1-8.939,0v-1.3A4.475,4.475,0,0,1,387.066,255.586Zm0,8.121a2.348,2.348,0,0,0,2.345-2.346v-1.3a2.346,2.346,0,1,0-4.691,0v1.3A2.349,2.349,0,0,0,387.067,263.707Z" transform="translate(-341.967 -228.441)" fill="#fff"/>
          <path id="Línea_3257" data-name="Línea 3257" d="M-8.938-4.135A1.062,1.062,0,0,1-10-5.2V-8.938A1.062,1.062,0,0,1-8.938-10,1.062,1.062,0,0,1-7.876-8.938V-5.2A1.062,1.062,0,0,1-8.938-4.135Z" transform="translate(14.159 50.357)" fill="#fff"/>
          <path id="Línea_3258" data-name="Línea 3258" d="M-8.938-4.135A1.062,1.062,0,0,1-10-5.2V-8.938A1.062,1.062,0,0,1-8.938-10,1.062,1.062,0,0,1-7.876-8.938V-5.2A1.062,1.062,0,0,1-8.938-4.135Z" transform="translate(22.343 50.357)" fill="#fff"/>
          <path id="Trazado_1000119" data-name="Trazado 1000119" d="M163.046,127.657h7.633a6.524,6.524,0,0,1,6.516,6.516v2.88a1.062,1.062,0,0,1-.3.743,13.942,13.942,0,0,1-20.07-.148,1.062,1.062,0,0,1-.292-.731v-2.743A6.524,6.524,0,0,1,163.046,127.657Zm12.026,8.952v-2.436a4.4,4.4,0,0,0-4.392-4.392h-7.633a4.4,4.4,0,0,0-4.392,4.392v2.309a11.819,11.819,0,0,0,16.418.127Z" transform="translate(-139.907 -114.098)" fill="#fff"/>
          <path id="Línea_3259" data-name="Línea 3259" d="M-8.938-2.6A1.062,1.062,0,0,1-10-3.661V-8.938A1.062,1.062,0,0,1-8.938-10,1.062,1.062,0,0,1-7.876-8.938v5.278A1.062,1.062,0,0,1-8.938-2.6Z" transform="translate(31.319 29.626)" fill="#fff"/>
          <path id="Línea_3260" data-name="Línea 3260" d="M-8.938-2.6A1.062,1.062,0,0,1-10-3.661V-8.938A1.062,1.062,0,0,1-8.938-10,1.062,1.062,0,0,1-7.876-8.938v5.278A1.062,1.062,0,0,1-8.938-2.6Z" transform="translate(40.56 29.626)" fill="#fff"/>
          <path id="Trazado_1000120" data-name="Trazado 1000120" d="M354.856,343.014H338.435a1.062,1.062,0,0,1-1.062-1.062v-4a5.9,5.9,0,0,1,5.892-5.892h6.76a5.9,5.9,0,0,1,5.892,5.892v4A1.062,1.062,0,0,1,354.856,343.014ZM339.5,340.89h14.3v-2.94a3.772,3.772,0,0,0-3.768-3.768h-6.76a3.772,3.772,0,0,0-3.768,3.768Z" transform="translate(-301.545 -296.792)" fill="#fff"/>
          <path id="Línea_3261" data-name="Línea 3261" d="M-8.938-4.135A1.062,1.062,0,0,1-10-5.2V-8.938A1.062,1.062,0,0,1-8.938-10,1.062,1.062,0,0,1-7.876-8.938V-5.2A1.062,1.062,0,0,1-8.938-4.135Z" transform="translate(49.987 50.357)" fill="#fff"/>
          <path id="Línea_3262" data-name="Línea 3262" d="M-8.938-4.135A1.062,1.062,0,0,1-10-5.2V-8.938A1.062,1.062,0,0,1-8.938-10,1.062,1.062,0,0,1-7.876-8.938V-5.2A1.062,1.062,0,0,1-8.938-4.135Z" transform="translate(58.271 50.357)" fill="#fff"/>
          <path id="Trazado_1000121" data-name="Trazado 1000121" d="M137.1,27.889a13.943,13.943,0,0,1-9.857-23.8A13.849,13.849,0,0,1,137.1,0a14,14,0,0,1,6.369,1.535,1.062,1.062,0,1,1-.971,1.889,11.821,11.821,0,0,0-17.215,10.519A11.808,11.808,0,0,0,137.1,25.765h0A11.827,11.827,0,0,0,148.125,9.677a1.062,1.062,0,1,1,1.98-.767A13.944,13.944,0,0,1,137.1,27.889Z" transform="translate(-110.079 0)" fill="#fff"/>
          <path id="Trazado_1000122" data-name="Trazado 1000122" d="M229.76,240.947a1.062,1.062,0,0,1,1.062,1.062v5.517a1.062,1.062,0,0,1-1.062,1.062h-4.248a1.062,1.062,0,0,1-1.062-1.062v-5.517a1.062,1.062,0,0,1,1.236-1.048,12.031,12.031,0,0,0,3.9,0A1.062,1.062,0,0,1,229.76,240.947Zm-1.062,5.517v-3.259a14.144,14.144,0,0,1-2.124,0v3.259Z" transform="translate(-200.614 -215.357)" fill="#fff"/>
          <path id="Trazado_1000123" data-name="Trazado 1000123" d="M212.2,316.166a5.021,5.021,0,0,1-5.015-5.015v-17.19a1.062,1.062,0,0,1,1.062-1.062h7.906a1.062,1.062,0,0,1,1.062,1.062v17.19a5.015,5.015,0,0,1-5.015,5.015Zm-2.891-21.143v16.128a2.891,2.891,0,1,0,5.782,0V295.023Z" transform="translate(-185.185 -261.792)" fill="#fff"/>
          <path id="Línea_3263" data-name="Línea 3263" transform="translate(36.571 5.307)" fill="#fff"/>
        </g>
      </g>
    </g>
  </g>
</svg>
