<svg xmlns="http://www.w3.org/2000/svg" width="69.323" height="69.323" viewBox="0 0 69.323 69.323">
  <g id="Grupo_1180071" data-name="Grupo 1180071" transform="translate(-304.711 -1228.293)">
    <path id="Trazado_998857" data-name="Trazado 998857" d="M0,0H69.323V69.323H0Z" transform="translate(304.711 1228.293)" fill="#19538d"/>
    <g id="surface1" transform="translate(318.604 1240.986)">
      <path id="Trazado_1000047" data-name="Trazado 1000047" d="M15.993,30.982H6.709a.855.855,0,1,1,0-1.709h9.85a15.177,15.177,0,0,1,2.169-3.739H6.709a.855.855,0,1,1,0-1.709H20.352a14.709,14.709,0,0,1,9.668-3.675c.352,0,.641.032,1.069.064V11.431h-6.41a4.5,4.5,0,0,1-4.487-4.5V0H3.8A3.823,3.823,0,0,0,0,3.857V36.462a3.787,3.787,0,0,0,3.8,3.814H16.677a14.593,14.593,0,0,1-.683-9.295Zm-9.284-12.5H17.532a.855.855,0,0,1,0,1.71H6.709a.855.855,0,0,1,0-1.71Zm0,0" fill="#fff"/>
      <path id="Trazado_1000048" data-name="Trazado 1000048" d="M198.927,236.336A12.767,12.767,0,1,0,211.693,249.1,12.78,12.78,0,0,0,198.927,236.336Zm4.348,13.685h-3.483V253.5a.855.855,0,0,1-1.709,0v-3.483h-3.536a.855.855,0,1,1,0-1.709h3.536v-3.536a.855.855,0,0,1,1.709,0v3.536h3.483a.855.855,0,0,1,0,1.709Zm0,0" transform="translate(-168.917 -214.446)" fill="#fff"/>
      <path id="Trazado_1000049" data-name="Trazado 1000049" d="M239.227,22.386h5.235l-8.013-8.429V19.6A2.788,2.788,0,0,0,239.227,22.386Zm0,0" transform="translate(-214.548 -12.664)" fill="#fff"/>
    </g>
  </g>
</svg>
