<svg xmlns="http://www.w3.org/2000/svg" xmlns:xlink="http://www.w3.org/1999/xlink" width="160" height="160" viewBox="0 0 160 160">
  <defs>
    <clipPath id="clip-path">
      <rect id="Rectángulo_455533" data-name="Rectángulo 455533" width="159.812" height="153.185" fill="#62249e"/>
    </clipPath>
  </defs>
  <g id="Grupo_1182340" data-name="Grupo 1182340" transform="translate(-383.649 -8398.903)">
    <circle id="Elipse_13674" data-name="Elipse 13674" cx="69" cy="69" r="69" transform="translate(393.649 8410.903)" fill="#62249e"/>
    <g id="Grupo_1179062" data-name="Grupo 1179062" transform="translate(383.649 8398.903)">
      <rect id="Rectángulo_455531" data-name="Rectángulo 455531" width="160" height="160" transform="translate(0 0)" fill="none"/>
      <g id="Grupo_1179061" data-name="Grupo 1179061" transform="translate(0.094 3.9)">
        <path id="Trazado_998445" data-name="Trazado 998445" d="M127.367,99.1H96.727l4.153-7.745h30.64Z" transform="translate(23.418 22.527)" fill="#62249e"/>
        <path id="Trazado_998446" data-name="Trazado 998446" d="M2.518,86.893,0,92.019h33.78L36.3,86.893Z" transform="translate(0 21.46)" fill="#62249e"/>
        <path id="Trazado_998447" data-name="Trazado 998447" d="M131.16,33.711H98.809l2.537-5.745H133.7Z" transform="translate(23.977 6.905)" fill="#62249e"/>
        <path id="Trazado_998448" data-name="Trazado 998448" d="M45.981,13.965H3.483L6.02,8.221h42.5Z" transform="translate(0.935 2.207)" fill="#62249e"/>
        <g id="Grupo_1179060" data-name="Grupo 1179060" transform="translate(0)">
          <g id="Grupo_1179059" data-name="Grupo 1179059" clip-path="url(#clip-path)">
            <path id="Trazado_998449" data-name="Trazado 998449" d="M79.257,132.183A67.757,67.757,0,0,1,13.15,49.237H4.12a76.641,76.641,0,0,0,134.831,63.179H127.129a67.636,67.636,0,0,1-47.872,19.767" transform="translate(0.649 12.195)" fill="#62249e"/>
            <path id="Trazado_998450" data-name="Trazado 998450" d="M110.835,89.888h10.029c.805-1.6,1.537-3.245,2.231-4.908h-9.642c-.81,1.674-1.678,3.314-2.618,4.908" transform="translate(27.546 21.048)" fill="#62249e"/>
            <path id="Trazado_998451" data-name="Trazado 998451" d="M155.215,76.593A76.663,76.663,0,0,0,5.373,53.814h9.3A67.827,67.827,0,1,1,141.5,101.872h9.4a76.209,76.209,0,0,0,4.315-25.279" transform="translate(1.335)" fill="#62249e"/>
            <path id="Trazado_998452" data-name="Trazado 998452" d="M108.562,81.649v4.156h5.456q.989-2.042,1.842-4.156Z" transform="translate(26.981 20.223)" fill="#62249e"/>
            <path id="Trazado_998453" data-name="Trazado 998453" d="M129.825,81.649h-7.576q-.74,2.107-1.594,4.156h9.17Z" transform="translate(29.986 20.223)" fill="#62249e"/>
          </g>
        </g>
        <path id="Trazado_998444" data-name="Trazado 998444" d="M3.8,37.025,0,44.77H23l3.805-7.745Z" transform="translate(0 9.13)" fill="#62249e"/>
      </g>
    </g>
    <g id="Grupo_1177669" data-name="Grupo 1177669" transform="translate(416.649 8431.903)">
      <g id="Grupo_1099618" data-name="Grupo 1099618" transform="translate(0.456 0)">
        <rect id="Rectángulo_401104" data-name="Rectángulo 401104" width="93.646" height="94.775" transform="translate(0)" fill="none"/>
      </g>
      <g id="cheque" transform="translate(2.457 2.999)">
        <path id="Trazado_1003046" data-name="Trazado 1003046" d="M36.608,38.216A16.608,16.608,0,1,0,20,21.608,16.626,16.626,0,0,0,36.608,38.216Zm0-30.448a13.84,13.84,0,1,1-13.84,13.84A13.856,13.856,0,0,1,36.608,7.768Z" transform="translate(7.296 1.536)" fill="#fff"/>
        <path id="Trazado_1003047" data-name="Trazado 1003047" d="M40.3,20.072h2.768A11.085,11.085,0,0,0,32,9v2.768A8.312,8.312,0,0,1,40.3,20.072Z" transform="translate(11.904 3.072)" fill="#fff"/>
        <path id="Trazado_1003048" data-name="Trazado 1003048" d="M86.808,56.36V36.984H77.12V21.76H65.977a22.115,22.115,0,0,0-44.147,0H10.688V36.984H1V56.36h9.688V67.432H1V86.808H23.144V78.5h8.833l.855,1.711v6.593H52.208V80.214l.577-1.156c.09-.18.154-.372.238-.555H64.664v8.3H86.808V67.432H77.12V56.36ZM84.04,53.592H67.432V39.752H84.04ZM43.9,3.768A19.376,19.376,0,1,1,24.528,23.144,19.4,19.4,0,0,1,43.9,3.768Zm6.405,74.053-.34.682h-14.9L33.86,76.083a13.289,13.289,0,0,1-1.327-4.5l-1-9.031a13.354,13.354,0,0,1,3.83-10.917l1.625-1.626V68.587a4.382,4.382,0,0,0,8.7.718L47.844,56.36a3.428,3.428,0,0,1,3.421,3.1l.854,8.536c.06.59.089,1.193.089,1.788A18.058,18.058,0,0,1,50.309,77.821Zm-2.465-24.23a2.759,2.759,0,0,0-2.731,2.314L42.956,68.852a1.613,1.613,0,0,1-3.2-.264v-23.7a21.531,21.531,0,0,0,8.3,0v8.727C47.984,53.61,47.916,53.592,47.844,53.592ZM3.768,39.752H20.376v13.84H3.768ZM20.376,84.04H3.768V70.2H20.376Zm-6.92-16.608V56.36h9.688V36.984H13.456V24.528H21.83A22.166,22.166,0,0,0,36.984,44.165V46.1L33.4,49.682a16,16,0,0,0-4.722,11.4,16.4,16.4,0,0,0,.1,1.78l1,9.032a16.062,16.062,0,0,0,.925,3.843H23.144v-8.3H13.456ZM49.44,84.04H35.6V81.272H49.44Zm34.6,0H67.432V70.2H84.04ZM74.352,67.432H64.664v8.3h-10.6a20.757,20.757,0,0,0,.912-5.955c0-.688-.035-1.383-.1-2.064l-.854-8.536a6.17,6.17,0,0,0-3.2-4.809V44.164A22.162,22.162,0,0,0,65.977,24.528h8.375V36.984H64.664V56.36h9.688Z" fill="#fff"/>
        <path id="Trazado_1003049" data-name="Trazado 1003049" d="M51,53H62.072v2.768H51Z" transform="translate(19.2 19.968)" fill="#fff"/>
        <path id="Trazado_1003050" data-name="Trazado 1003050" d="M51,57H62.072v2.768H51Z" transform="translate(19.2 21.504)" fill="#fff"/>
        <path id="Trazado_1003051" data-name="Trazado 1003051" d="M61.938,32.25l-1.957-1.957-5.941,5.941-1.79-1.79L50.293,36.4l3.746,3.746Z" transform="translate(18.928 11.248)" fill="#fff"/>
        <path id="Trazado_1003052" data-name="Trazado 1003052" d="M5,53H16.072v2.768H5Z" transform="translate(1.536 19.968)" fill="#fff"/>
        <path id="Trazado_1003053" data-name="Trazado 1003053" d="M5,57H16.072v2.768H5Z" transform="translate(1.536 21.504)" fill="#fff"/>
        <path id="Trazado_1003054" data-name="Trazado 1003054" d="M8.039,36.234,6.25,34.445,4.293,36.4l3.746,3.746,7.9-7.9-1.957-1.957Z" transform="translate(1.264 11.248)" fill="#fff"/>
      </g>
    </g>
  </g>
</svg>
