<svg xmlns="http://www.w3.org/2000/svg" xmlns:xlink="http://www.w3.org/1999/xlink" width="110" height="109" viewBox="0 0 110 109">
  <defs>
    <clipPath id="clip-path">
      <path id="path3354" d="M0-682.665H66.787v66.787H0Z" transform="translate(0 682.665)"/>
    </clipPath>
  </defs>
  <g id="Grupo_1182466" data-name="Grupo 1182466" transform="translate(-588.711 -1765)">
    <ellipse id="Elipse_13688" data-name="Elipse 13688" cx="55" cy="54.5" rx="55" ry="54.5" transform="translate(588.711 1765)" fill="#fff"/>
    <g id="Grupo_1180078" data-name="Grupo 1180078" transform="translate(609.711 1784.729)">
      <g id="Grupo_1180109" data-name="Grupo 1180109">
        <g id="Grupo_1099618" data-name="Grupo 1099618" transform="translate(0 0.271)">
          <rect id="Rectángulo_401104" data-name="Rectángulo 401104" width="68.179" height="69.001" transform="translate(0)" fill="none"/>
        </g>
        <g id="g3348" transform="translate(1 683.935)">
          <g id="g3350" transform="translate(0 -682.665)">
            <g id="g3352" clip-path="url(#clip-path)">
              <g id="g3358" transform="translate(39.253 29.637)">
                <path id="path3360" d="M-9.476,13.876a.978.978,0,0,1-.978-.978V11.031h-5.875a2.668,2.668,0,0,1-2.665-2.665V7.574a1.791,1.791,0,0,1,.614-1.348L-16.169,4.3l-3.182-2.19A1.957,1.957,0,0,1-20.189.3l.993-9.421A.978.978,0,0,1-18.121-10a.978.978,0,0,1,.87,1.075L-18.243.5l3.479,2.393A1.669,1.669,0,0,1-14.04,4.18a1.667,1.667,0,0,1-.573,1.359l-2.425,2.112v.715a.709.709,0,0,0,.708.708h6.854a.978.978,0,0,1,.978.978V12.9A.978.978,0,0,1-9.476,13.876Z" transform="translate(20.2 10.001)"/>
              </g>
              <g id="g3362" transform="translate(57.605 44.443)">
                <path id="path3364" d="M-9.022-73.637A.978.978,0,0,1-10-74.615v-7.113a.978.978,0,0,1,.978-.978.978.978,0,0,1,.978.978v7.113A.978.978,0,0,1-9.022-73.637Z" transform="translate(10 82.706)"/>
              </g>
              <g id="g3366" transform="translate(35.346 17.809)">
                <path id="path3368" d="M-116.738-8.064h-3.588a.978.978,0,0,1-.978-.978v-1.517a2.328,2.328,0,0,1,1.488-2.157,2.541,2.541,0,0,0,1.731-2.315,2.725,2.725,0,0,0-2.883-2.526,3.256,3.256,0,0,0-.687.073,1.537,1.537,0,0,1-1.3-.309,1.555,1.555,0,0,1-.581-1.215v-2.465c-4.231.2-14.356-.129-16.383-6.767a1.453,1.453,0,0,1,.246-1.317,1.461,1.461,0,0,1,1.226-.559c.623.033,1.2.051,1.725.055a7.04,7.04,0,0,1-1.049-5.426,1.449,1.449,0,0,1,.753-1,1.449,1.449,0,0,1,1.251-.046,35.362,35.362,0,0,0,5.205,1.612.978.978,0,0,1,.721,1.181.978.978,0,0,1-1.181.721,41.81,41.81,0,0,1-4.921-1.473,5.105,5.105,0,0,0,1.317,3.954A1.446,1.446,0,0,1-134.373-29a1.441,1.441,0,0,1-1.287.879c-.621.021-1.332.017-2.12-.011,2.25,4.805,11.36,4.84,14.2,4.727a1.937,1.937,0,0,1,1.412.536,1.94,1.94,0,0,1,.593,1.392v1.994a5.245,5.245,0,0,1,.607-.035,4.677,4.677,0,0,1,4.84,4.483,4.48,4.48,0,0,1-2.986,4.141.355.355,0,0,0-.233.331v.539h2.256c4.7-3.951,7.075-8.418,6.52-12.3a5.376,5.376,0,0,0-2.793-4.262.978.978,0,0,1-.59-.988,1.9,1.9,0,0,0-.622-1.4c-1.422-1.557-4.638-2.73-7.481-2.73a29.258,29.258,0,0,1-4.375-.4.978.978,0,0,1-.816-1.117.978.978,0,0,1,1.117-.816,27.753,27.753,0,0,0,4.074.379c3.39,0,7.144,1.416,8.926,3.368a4.106,4.106,0,0,1,1.11,2.2,7.483,7.483,0,0,1,3.388,5.5c.39,2.729-.063,8.216-7.483,14.308A.978.978,0,0,1-116.738-8.064Z" transform="translate(139.977 36.655)"/>
              </g>
              <g id="g3370" transform="translate(46.29 51.557)">
                <path id="path3372" d="M-141.979-17.269h10.59a1.691,1.691,0,0,1,1.689,1.69v1.929A1.679,1.679,0,0,1-131.021-12L-142.79-9.38a1.707,1.707,0,0,1-.371.041A1.677,1.677,0,0,1-144.495-10a1.677,1.677,0,0,1-.3-1.457L-143.614-16A1.69,1.69,0,0,1-141.979-17.269Zm10.323,1.957h-10.116l-1.019,3.935,11.136-2.487Z" transform="translate(144.848 17.269)"/>
              </g>
              <g id="g3374" transform="translate(8.162 16.805)">
                <path id="path3376" d="M-126.12-141.845a.976.976,0,0,1-.345-.063.978.978,0,0,1-.57-1.261l5.4-14.306a1.314,1.314,0,0,1,1.221-.837,1.3,1.3,0,0,1,1.208.812l5.457,14.328a.978.978,0,0,1-.566,1.262.978.978,0,0,1-1.262-.566l-4.836-12.7-4.79,12.695A.979.979,0,0,1-126.12-141.845Z" transform="translate(127.098 158.312)"/>
              </g>
              <g id="g3378" transform="translate(9.834 27.752)">
                <path id="path3380" d="M-83.577-8.043h-8.085a.978.978,0,0,1-.978-.978A.978.978,0,0,1-91.661-10h8.085a.978.978,0,0,1,.978.978A.978.978,0,0,1-83.577-8.043Z" transform="translate(92.64 10)"/>
              </g>
              <g id="g3382" transform="translate(9.906 50.45)">
                <path id="path3384" d="M-65.347-39.611a3.88,3.88,0,0,1,3.875,3.875,3.88,3.88,0,0,1-3.875,3.875,3.88,3.88,0,0,1-3.875-3.875A3.88,3.88,0,0,1-65.347-39.611Zm0,5.794a1.921,1.921,0,0,0,1.919-1.919,1.921,1.921,0,0,0-1.919-1.919,1.921,1.921,0,0,0-1.919,1.919A1.921,1.921,0,0,0-65.347-33.817Z" transform="translate(69.222 39.611)"/>
              </g>
              <g id="g3386" transform="translate(15.7 50.065)">
                <path id="path3388" d="M-9.022-1.479A.978.978,0,0,1-10-2.457V-9.022A.978.978,0,0,1-9.022-10a.978.978,0,0,1,.978.978v6.564A.978.978,0,0,1-9.022-1.479Z" transform="translate(10 10)"/>
              </g>
              <g id="g3390" transform="translate(20.136 50.45)">
                <path id="path3392" d="M-65.347-39.611a3.88,3.88,0,0,1,3.875,3.875,3.88,3.88,0,0,1-3.875,3.875,3.88,3.88,0,0,1-3.875-3.875A3.88,3.88,0,0,1-65.347-39.611Zm0,5.794a1.921,1.921,0,0,0,1.919-1.919,1.921,1.921,0,0,0-1.919-1.919,1.921,1.921,0,0,0-1.919,1.919A1.921,1.921,0,0,0-65.347-33.817Z" transform="translate(69.222 39.611)"/>
              </g>
              <g id="g3394" transform="translate(25.93 50.065)">
                <path id="path3396" d="M-9.022-1.479A.978.978,0,0,1-10-2.457V-9.022A.978.978,0,0,1-9.022-10a.978.978,0,0,1,.978.978v6.564A.978.978,0,0,1-9.022-1.479Z" transform="translate(10 10)"/>
              </g>
              <g id="g3398" transform="translate(0 11.934)">
                <path id="path3400" d="M11.439-231.695H-15.036a1.632,1.632,0,0,1-1.631-1.631v-22.949a1.632,1.632,0,0,1,1.631-1.631H11.439a1.632,1.632,0,0,1,1.631,1.631v22.949A1.632,1.632,0,0,1,11.439-231.695Zm-26.149-1.957H11.113v-22.3H-14.71Z" transform="translate(16.667 257.905)"/>
              </g>
              <g id="g3402" transform="translate(4.547 6.641)">
                <path id="path3404" d="M-85.088-2.752a.977.977,0,0,1-.8-.411.978.978,0,0,1,.23-1.364l7.442-5.292a.978.978,0,0,1,1.364.23.978.978,0,0,1-.23,1.364l-7.442,5.292A.974.974,0,0,1-85.088-2.752Z" transform="translate(86.067 10.001)"/>
              </g>
              <g id="g3406" transform="translate(15.79 6.641)">
                <path id="path3408" d="M-77.648-56.845a.974.974,0,0,1-.566-.181l-7.442-5.292a.978.978,0,0,1-.23-1.364.978.978,0,0,1,1.364-.23l7.442,5.292a.978.978,0,0,1,.23,1.364A.977.977,0,0,1-77.648-56.845Z" transform="translate(86.067 64.094)"/>
              </g>
              <g id="g3410" transform="translate(11.673 3.282)">
                <path id="path3412" d="M-29.46-10a3.2,3.2,0,0,1,3.195,3.195A3.2,3.2,0,0,1-29.46-3.611a3.2,3.2,0,0,1-3.195-3.195A3.2,3.2,0,0,1-29.46-10Zm0,4.433a1.239,1.239,0,0,0,1.238-1.238A1.239,1.239,0,0,0-29.46-8.043,1.239,1.239,0,0,0-30.7-6.805,1.239,1.239,0,0,0-29.46-5.567Z" transform="translate(32.655 10)"/>
              </g>
              <g id="g3414" transform="translate(4.162 43.932)">
                <path id="path3416" d="M-35.5-170.494H-52.573a.978.978,0,0,1-.978-.978.978.978,0,0,1,.978-.978h16.751v-10.04a5.257,5.257,0,0,1,1.5-3.693l1.691-1.73-8.131.981a5.262,5.262,0,0,1-.633.038H-61.378v14.445h4.24a.978.978,0,0,1,.978.978.978.978,0,0,1-.978.978H-61.7a1.632,1.632,0,0,1-1.631-1.631v-15.1a1.632,1.632,0,0,1,1.631-1.631H-41.39a3.312,3.312,0,0,0,.4-.024l9.787-1.18a1.354,1.354,0,0,1,1.392.753,1.354,1.354,0,0,1-.248,1.564l-2.856,2.923a3.311,3.311,0,0,0-.948,2.326v10.366A1.632,1.632,0,0,1-35.5-170.494Z" transform="translate(63.335 190.067)"/>
              </g>
            </g>
          </g>
        </g>
      </g>
    </g>
  </g>
</svg>
