<svg xmlns="http://www.w3.org/2000/svg" xmlns:xlink="http://www.w3.org/1999/xlink" width="160" height="160" viewBox="0 0 160 160">
  <defs>
    <clipPath id="clip-path">
      <rect id="Rectángulo_455533" data-name="Rectángulo 455533" width="159.812" height="153.185" fill="#19538d"/>
    </clipPath>
  </defs>
  <g id="Grupo_1182339" data-name="Grupo 1182339" transform="translate(-383.649 -8398.903)">
    <circle id="Elipse_13674" data-name="Elipse 13674" cx="69" cy="69" r="69" transform="translate(393.649 8410.903)" fill="#19538d"/>
    <g id="Grupo_1179062" data-name="Grupo 1179062" transform="translate(383.649 8398.903)">
      <rect id="Rectángulo_455531" data-name="Rectángulo 455531" width="160" height="160" transform="translate(0 0)" fill="none"/>
      <g id="Grupo_1179061" data-name="Grupo 1179061" transform="translate(0.094 3.9)">
        <path id="Trazado_998445" data-name="Trazado 998445" d="M127.367,99.1H96.727l4.153-7.745h30.64Z" transform="translate(23.418 22.527)" fill="#19538d"/>
        <path id="Trazado_998446" data-name="Trazado 998446" d="M2.518,86.893,0,92.019h33.78L36.3,86.893Z" transform="translate(0 21.46)" fill="#19538d"/>
        <path id="Trazado_998447" data-name="Trazado 998447" d="M131.16,33.711H98.809l2.537-5.745H133.7Z" transform="translate(23.977 6.905)" fill="#19538d"/>
        <path id="Trazado_998448" data-name="Trazado 998448" d="M45.981,13.965H3.483L6.02,8.221h42.5Z" transform="translate(0.935 2.207)" fill="#19538d"/>
        <g id="Grupo_1179060" data-name="Grupo 1179060" transform="translate(0)">
          <g id="Grupo_1179059" data-name="Grupo 1179059" clip-path="url(#clip-path)">
            <path id="Trazado_998449" data-name="Trazado 998449" d="M79.257,132.183A67.757,67.757,0,0,1,13.15,49.237H4.12a76.641,76.641,0,0,0,134.831,63.179H127.129a67.636,67.636,0,0,1-47.872,19.767" transform="translate(0.649 12.195)" fill="#19538d"/>
            <path id="Trazado_998450" data-name="Trazado 998450" d="M110.835,89.888h10.029c.805-1.6,1.537-3.245,2.231-4.908h-9.642c-.81,1.674-1.678,3.314-2.618,4.908" transform="translate(27.546 21.048)" fill="#19538d"/>
            <path id="Trazado_998451" data-name="Trazado 998451" d="M155.215,76.593A76.663,76.663,0,0,0,5.373,53.814h9.3A67.827,67.827,0,1,1,141.5,101.872h9.4a76.209,76.209,0,0,0,4.315-25.279" transform="translate(1.335)" fill="#19538d"/>
            <path id="Trazado_998452" data-name="Trazado 998452" d="M108.562,81.649v4.156h5.456q.989-2.042,1.842-4.156Z" transform="translate(26.981 20.223)" fill="#19538d"/>
            <path id="Trazado_998453" data-name="Trazado 998453" d="M129.825,81.649h-7.576q-.74,2.107-1.594,4.156h9.17Z" transform="translate(29.986 20.223)" fill="#19538d"/>
          </g>
        </g>
        <path id="Trazado_998444" data-name="Trazado 998444" d="M3.8,37.025,0,44.77H23l3.805-7.745Z" transform="translate(0 9.13)" fill="#19538d"/>
      </g>
    </g>
    <g id="Grupo_1177669" data-name="Grupo 1177669" transform="translate(416.649 8431.903)">
      <g id="Grupo_1099618" data-name="Grupo 1099618" transform="translate(0.456 -0.001)">
        <rect id="Rectángulo_401104" data-name="Rectángulo 401104" width="93.646" height="94.775" transform="translate(0)" fill="none"/>
      </g>
      <g id="verificacion" transform="translate(2.456 3.999)">
        <path id="Trazado_1003023" data-name="Trazado 1003023" d="M37,28.413A15.413,15.413,0,1,0,52.413,13,15.432,15.432,0,0,0,37,28.413Zm28.024,0A12.611,12.611,0,1,1,52.413,15.8,12.626,12.626,0,0,1,65.024,28.413Z" transform="translate(14.444 4.815)" fill="#fff"/>
        <path id="Trazado_1003024" data-name="Trazado 1003024" d="M77.666,52.479a9.912,9.912,0,0,0-1.31-.527,20.986,20.986,0,0,0,.31-37.3V5.2a4.209,4.209,0,0,0-4.2-4.2H5.2A4.209,4.209,0,0,0,1,5.2V66.857a4.209,4.209,0,0,0,4.2,4.2H54.5a4.156,4.156,0,0,0-.258,1.4,4.209,4.209,0,0,0,4.2,4.2h1.4v4.2a7.006,7.006,0,0,0,14.012,0V76.632a9.851,9.851,0,0,0,3.8-1L81.2,73.863h6.675V54.246H81.2Zm7.407-19.251A18.216,18.216,0,1,1,66.857,15.012,18.237,18.237,0,0,1,85.073,33.228ZM65.4,66.614a1.467,1.467,0,0,1,.052.242,1.4,1.4,0,0,1-1.4,1.4h-5.6a1.4,1.4,0,1,1,0-2.8h2.494a4.075,4.075,0,0,0,4.46,1.159Zm-5.553-3.961h-1.4a1.4,1.4,0,1,1,0-2.8h1.4Zm0-7.006v1.4h-1.4a1.4,1.4,0,1,1,0-2.8h1.659A4.156,4.156,0,0,0,59.851,55.647ZM5.2,3.8H72.462a1.4,1.4,0,0,1,1.4,1.4v8.232a20.9,20.9,0,0,0-7.006-1.226H3.8V5.2A1.4,1.4,0,0,1,5.2,3.8ZM3.8,66.857V15.012H56.416a20.99,20.99,0,0,0,.5,36.73,4.17,4.17,0,0,0-1.582,6.708,4.139,4.139,0,0,0,0,5.6,4.074,4.074,0,0,0-.835,4.2H5.2A1.4,1.4,0,0,1,3.8,66.857Zm53.246,5.6a1.4,1.4,0,0,1,1.4-1.4h5.6a1.4,1.4,0,0,1,0,2.8h-5.6A1.4,1.4,0,0,1,57.048,72.462Zm9.808,12.611a4.209,4.209,0,0,1-4.2-4.2v-4.2h1.4a4.186,4.186,0,0,0,3.111-7.006,4.1,4.1,0,0,0,.506-4.9,4.159,4.159,0,0,0,.587-2.106v-2.8h2.8V80.869A4.209,4.209,0,0,1,66.857,85.073ZM85.073,71.06H80.538l-4.124,2.063a7.038,7.038,0,0,1-2.55.7V61.843a6.44,6.44,0,0,0,3.132.81h2.472v-2.8H77a3.648,3.648,0,0,1-3.28-2.028l-.388-.775H65.456v5.6a1.4,1.4,0,0,1-2.8,0V55.647a1.4,1.4,0,0,1,1.4-1.4h9.224a7.05,7.05,0,0,1,3.133.74l4.127,2.063h4.534Z" transform="translate(0 0)" fill="#fff"/>
        <path id="Trazado_1003025" data-name="Trazado 1003025" d="M44.274,27.7l-1.981,1.981,3.793,3.793,12.2-12.2-1.981-1.981L46.086,29.512Z" transform="translate(16.567 7.339)" fill="#fff"/>
        <path id="Trazado_1003026" data-name="Trazado 1003026" d="M5,5H7.8V7.8H5Z" transform="translate(1.605 1.605)" fill="#fff"/>
        <path id="Trazado_1003027" data-name="Trazado 1003027" d="M13,5h2.8V7.8H13Z" transform="translate(4.815 1.605)" fill="#fff"/>
        <path id="Trazado_1003028" data-name="Trazado 1003028" d="M9,5h2.8V7.8H9Z" transform="translate(3.21 1.605)" fill="#fff"/>
        <path id="Trazado_1003029" data-name="Trazado 1003029" d="M5,27.012H19.012V13H5ZM7.8,15.8H16.21V24.21H7.8Z" transform="translate(1.605 4.815)" fill="#fff"/>
        <path id="Trazado_1003030" data-name="Trazado 1003030" d="M17,13H36.617v2.8H17Z" transform="translate(6.419 4.815)" fill="#fff"/>
        <path id="Trazado_1003031" data-name="Trazado 1003031" d="M17,17H31.012v2.8H17Z" transform="translate(6.419 6.419)" fill="#fff"/>
        <path id="Trazado_1003032" data-name="Trazado 1003032" d="M29,17h2.8v2.8H29Z" transform="translate(11.234 6.419)" fill="#fff"/>
        <path id="Trazado_1003033" data-name="Trazado 1003033" d="M17,21H36.617v2.8H17Z" transform="translate(6.419 8.024)" fill="#fff"/>
        <path id="Trazado_1003034" data-name="Trazado 1003034" d="M5,39.012H19.012V25H5ZM7.8,27.8H16.21V36.21H7.8Z" transform="translate(1.605 9.629)" fill="#fff"/>
        <path id="Trazado_1003035" data-name="Trazado 1003035" d="M17,25H36.617v2.8H17Z" transform="translate(6.419 9.629)" fill="#fff"/>
        <path id="Trazado_1003036" data-name="Trazado 1003036" d="M17,29H31.012v2.8H17Z" transform="translate(6.419 11.234)" fill="#fff"/>
        <path id="Trazado_1003037" data-name="Trazado 1003037" d="M29,29h2.8v2.8H29Z" transform="translate(11.234 11.234)" fill="#fff"/>
        <path id="Trazado_1003038" data-name="Trazado 1003038" d="M17,33H36.617v2.8H17Z" transform="translate(6.419 12.839)" fill="#fff"/>
        <path id="Trazado_1003039" data-name="Trazado 1003039" d="M5,51.012H19.012V37H5ZM7.8,39.8H16.21V48.21H7.8Z" transform="translate(1.605 14.444)" fill="#fff"/>
        <path id="Trazado_1003040" data-name="Trazado 1003040" d="M21,37H35.012v2.8H21Z" transform="translate(8.024 14.444)" fill="#fff"/>
        <path id="Trazado_1003041" data-name="Trazado 1003041" d="M17,37h2.8v2.8H17Z" transform="translate(6.419 14.444)" fill="#fff"/>
        <path id="Trazado_1003042" data-name="Trazado 1003042" d="M21,41H35.012v2.8H21Z" transform="translate(8.024 16.048)" fill="#fff"/>
        <path id="Trazado_1003043" data-name="Trazado 1003043" d="M17,41h2.8v2.8H17Z" transform="translate(6.419 16.048)" fill="#fff"/>
        <path id="Trazado_1003044" data-name="Trazado 1003044" d="M21,45H35.012v2.8H21Z" transform="translate(8.024 17.653)" fill="#fff"/>
        <path id="Trazado_1003045" data-name="Trazado 1003045" d="M17,45h2.8v2.8H17Z" transform="translate(6.419 17.653)" fill="#fff"/>
      </g>
    </g>
  </g>
</svg>
