<svg xmlns="http://www.w3.org/2000/svg" xmlns:xlink="http://www.w3.org/1999/xlink" width="110" height="109" viewBox="0 0 110 109">
  <defs>
    <clipPath id="clip-path">
      <path id="path1335" d="M0-682.665H67.124v67.124H0Z" transform="translate(0 682.665)"/>
    </clipPath>
  </defs>
  <g id="Grupo_1182469" data-name="Grupo 1182469" transform="translate(-900.711 -1765)">
    <ellipse id="Elipse_13688" data-name="Elipse 13688" cx="55" cy="54.5" rx="55" ry="54.5" transform="translate(900.711 1765)" fill="#fff"/>
    <g id="g1329" transform="translate(922.711 2467.666)">
      <g id="g1331" transform="translate(0 -682.665)">
        <g id="g1333" clip-path="url(#clip-path)">
          <g id="g1339" transform="translate(35.177 56.034)">
            <path id="path1341" d="M-9.02-87.669a.984.984,0,0,1-.956-.759.983.983,0,0,1,.733-1.182,15.448,15.448,0,0,0,7.4-4.125l4.3-4.3a.983.983,0,0,1,1.391,0,.983.983,0,0,1,0,1.391l-4.3,4.3A17.412,17.412,0,0,1-8.794-87.7.986.986,0,0,1-9.02-87.669Z" transform="translate(10.002 98.32)"/>
          </g>
          <g id="g1343" transform="translate(14.922 32.732)">
            <path id="path1345" d="M-159.151-305.357h-.006a17.347,17.347,0,0,1-12.236-5.111,17.352,17.352,0,0,1-5.114-12.348,17.346,17.346,0,0,1,5.114-12.346l4.295-4.3a.983.983,0,0,1,1.391,0,.983.983,0,0,1,0,1.391l-4.295,4.3a15.392,15.392,0,0,0-4.538,10.956A15.4,15.4,0,0,0-170-311.858a15.392,15.392,0,0,0,10.857,4.535.983.983,0,0,1,.977.989A.983.983,0,0,1-159.151-305.357Z" transform="translate(176.506 339.746)"/>
          </g>
          <g id="g1347" transform="translate(18.15 40.383)">
            <path id="path1349" d="M-93.957,13.521a6.993,6.993,0,0,1-5.1-1.895,6.992,6.992,0,0,1-1.885-5.085c0-4.331,2.772-9.795,7.235-14.259l2-2a.983.983,0,0,1,1.391,0,.983.983,0,0,1,0,1.391l-2,2c-4.107,4.108-6.659,9.039-6.659,12.868a5.017,5.017,0,0,0,1.309,3.694,5.037,5.037,0,0,0,3.676,1.307c3.657,0,8.684-2.456,12.886-6.658l2-2a.983.983,0,0,1,1.391,0,.983.983,0,0,1,0,1.391l-2,2C-84.375,10.933-89.746,13.521-93.957,13.521Z" transform="translate(100.945 10)"/>
          </g>
          <g id="g1351" transform="translate(4.554 0.001)">
            <path id="path1353" d="M-67.716-9.155a.98.98,0,0,1-.7-.288L-88.325-29.356a4.6,4.6,0,0,1-1.355-3.273A4.6,4.6,0,0,1-88.325-35.9a4.6,4.6,0,0,1,3.273-1.357A4.6,4.6,0,0,1-81.778-35.9l1.611,1.611a.983.983,0,0,1,0,1.391.983.983,0,0,1-1.391,0l-1.611-1.611a2.644,2.644,0,0,0-1.883-.781,2.644,2.644,0,0,0-1.883.781,2.643,2.643,0,0,0-.779,1.881,2.644,2.644,0,0,0,.779,1.882l19.913,19.913a.983.983,0,0,1,0,1.391A.98.98,0,0,1-67.716-9.155Z" transform="translate(89.68 37.257)"/>
          </g>
          <g id="g1355" transform="translate(15.158 5.45)">
            <path id="path1357" d="M-151.445-150.437a.98.98,0,0,1-.7-.288l-15.532-15.529a.983.983,0,0,1,0-1.391.983.983,0,0,1,1.391,0l15.532,15.529a.983.983,0,0,1,0,1.391A.98.98,0,0,1-151.445-150.437Z" transform="translate(167.96 167.933)"/>
          </g>
          <g id="g1359" transform="translate(24.036 19.475)">
            <path id="path1361" d="M-167.13-275.934a13.547,13.547,0,0,1-9.642-3.994L-188.04-291.2a13.652,13.652,0,0,1,0-19.284,13.547,13.547,0,0,1,9.642-3.994,13.547,13.547,0,0,1,9.642,3.994l11.268,11.268a13.651,13.651,0,0,1,0,19.284A13.547,13.547,0,0,1-167.13-275.934ZM-178.4-312.507a11.593,11.593,0,0,0-8.252,3.418,11.683,11.683,0,0,0,0,16.5l11.269,11.269a11.593,11.593,0,0,0,8.252,3.418,11.594,11.594,0,0,0,8.252-3.418,11.683,11.683,0,0,0,0-16.5l-11.268-11.268A11.593,11.593,0,0,0-178.4-312.507Zm11.269,32.426a9.428,9.428,0,0,1-6.712-2.776l-11.268-11.269a9.428,9.428,0,0,1-2.776-6.711,9.428,9.428,0,0,1,2.776-6.712,9.428,9.428,0,0,1,6.712-2.776,9.428,9.428,0,0,1,6.712,2.776l11.269,11.268a9.5,9.5,0,0,1,0,13.424A9.428,9.428,0,0,1-167.13-280.081ZM-178.4-308.359a7.474,7.474,0,0,0-5.321,2.2,7.474,7.474,0,0,0-2.2,5.322,7.474,7.474,0,0,0,2.2,5.321l11.268,11.269a7.475,7.475,0,0,0,5.321,2.2,7.474,7.474,0,0,0,5.321-2.2,7.534,7.534,0,0,0,0-10.643l-11.269-11.268A7.474,7.474,0,0,0-178.4-308.359Z" transform="translate(192.028 314.474)"/>
          </g>
          <g id="g1363" transform="translate(28.607 29.449)">
            <path id="path1365" d="M13,13.989a.983.983,0,0,1-.98-.923,13.9,13.9,0,0,0-4.05-8.975L-.1-3.986A13.894,13.894,0,0,0-9.078-8.036.983.983,0,0,1-10-9.078.983.983,0,0,1-8.956-10,15.859,15.859,0,0,1,1.288-5.377L9.365,2.7a15.86,15.86,0,0,1,4.622,10.245.983.983,0,0,1-.921,1.042Z" transform="translate(10 10)"/>
          </g>
          <g id="g1367" transform="translate(17.887 39.242)">
            <path id="path1369" d="M13.93,14.915a.994.994,0,0,1-.11-.006A17.32,17.32,0,0,1,3.542,9.917L-5,1.371A17.322,17.322,0,0,1-9.995-8.909a.983.983,0,0,1,.869-1.086.983.983,0,0,1,1.086.869A15.348,15.348,0,0,0-3.614-.02L4.932,8.526a15.347,15.347,0,0,0,9.105,4.428.983.983,0,0,1-.107,1.961Z" transform="translate(10.001 10.001)"/>
          </g>
          <g id="g1371" transform="translate(36.3 31.745)">
            <path id="path1373" d="M-9.017-118.382a.98.98,0,0,1-.7-.288.983.983,0,0,1,0-1.391L2.321-132.094a.983.983,0,0,1,1.391,0,.983.983,0,0,1,0,1.391L-8.321-118.67A.98.98,0,0,1-9.017-118.382Z" transform="translate(10 132.382)"/>
          </g>
          <g id="g1375" transform="translate(30.008 25.481)">
            <path id="path1377" d="M-130.935,3.936a.964.964,0,0,1-.686-.279.961.961,0,0,1-.018-1.372l12-12a.983.983,0,0,1,1.391,0,.983.983,0,0,1,0,1.391l-11.96,11.96A1.023,1.023,0,0,1-130.935,3.936Z" transform="translate(131.919 10)"/>
          </g>
          <g id="g1379" transform="translate(42.609 38.082)">
            <path id="path1381" d="M-130.935,3.936a.964.964,0,0,1-.686-.279.961.961,0,0,1-.018-1.372l12-12a.983.983,0,0,1,1.391,0,.983.983,0,0,1,0,1.391l-11.96,11.96A1.023,1.023,0,0,1-130.935,3.936Z" transform="translate(131.919 10)"/>
          </g>
          <g id="g1383" transform="translate(19.747 46.708)">
            <path id="path1385" d="M-9.017-132.95a.98.98,0,0,1-.7-.288.983.983,0,0,1,0-1.391L3.91-148.25a.983.983,0,0,1,1.391,0,.983.983,0,0,1,0,1.391L-8.321-133.238A.98.98,0,0,1-9.017-132.95Z" transform="translate(10 148.538)"/>
          </g>
        </g>
      </g>
    </g>
  </g>
</svg>
