<svg xmlns="http://www.w3.org/2000/svg" width="69.323" height="69.323" viewBox="0 0 69.323 69.323">
  <g id="Grupo_1180074" data-name="Grupo 1180074" transform="translate(-1225.711 -1228)">
    <rect id="Rectángulo_456279" data-name="Rectángulo 456279" width="69.323" height="69.323" transform="translate(1225.711 1228)" fill="#62249e"/>
    <g id="_x31_8" transform="translate(1237.711 1240)">
      <path id="Trazado_1000057" data-name="Trazado 1000057" d="M38.364,21.659H14A10.659,10.659,0,0,1,24.659,11H27.7A10.659,10.659,0,0,1,38.364,21.659Z" transform="translate(6.273 4.705)" fill="#fff"/>
      <path id="Trazado_1000058" data-name="Trazado 1000058" d="M26.318,15.1c.023-.3.046-.605.046-.914A12.2,12.2,0,1,0,18.8,25.451,12.2,12.2,0,0,1,26.318,15.1ZM11.312,5.321a.762.762,0,0,1,.586-.275h4.568a.761.761,0,0,1,.748.9L14.93,18.129a.761.761,0,0,1-1.5,0L11.15,5.947A.757.757,0,0,1,11.312,5.321Zm2.874,18a1.523,1.523,0,0,1-.016-3.046h.016a1.523,1.523,0,0,1,0,3.046Z" transform="translate(0)" fill="#fff"/>
      <path id="Trazado_1000059" data-name="Trazado 1000059" d="M11.836,5H9.1l1.367,7.29Z" transform="translate(3.713 1.568)" fill="#fff"/>
      <path id="Trazado_1000060" data-name="Trazado 1000060" d="M15,19v6.091a10.659,10.659,0,1,0,21.319,0V19Zm4.568,4.568a1.513,1.513,0,0,1,1.51-1.523h.016a1.523,1.523,0,1,1-1.526,1.523Zm10.445,7.376a.762.762,0,0,1-1.077.019,4.757,4.757,0,0,0-6.555,0,.762.762,0,0,1-1.059-1.1,6.3,6.3,0,0,1,8.673,0,.761.761,0,0,1,.018,1.077Zm.218-5.853a1.523,1.523,0,0,1-.016-3.046h.016a1.523,1.523,0,0,1,0,3.046Z" transform="translate(6.796 8.887)" fill="#fff"/>
    </g>
  </g>
</svg>
