<svg xmlns="http://www.w3.org/2000/svg" xmlns:xlink="http://www.w3.org/1999/xlink" width="150" height="150" viewBox="0 0 150 150">
  <defs>
    <clipPath id="clip-path">
      <rect id="Rectángulo_455533" data-name="Rectángulo 455533" width="149.812" height="143.185" fill="#62249e"/>
    </clipPath>
  </defs>
  <g id="Grupo_1180238" data-name="Grupo 1180238" transform="translate(-305.059 -10092.999)">
    <g id="Grupo_1179079" data-name="Grupo 1179079" transform="translate(-78.59 1694.096)">
      <circle id="Elipse_13674" data-name="Elipse 13674" cx="65.5" cy="65.5" r="65.5" transform="translate(393.649 8407.903)" fill="#62249e"/>
      <g id="Grupo_1179062" data-name="Grupo 1179062" transform="translate(383.649 8398.903)">
        <rect id="Rectángulo_455531" data-name="Rectángulo 455531" width="150" height="150" transform="translate(0 0)" fill="none"/>
        <g id="Grupo_1179061" data-name="Grupo 1179061" transform="translate(0.094 3.9)">
          <path id="Trazado_998445" data-name="Trazado 998445" d="M127.367,99.1H96.727l4.153-7.745h30.64Z" transform="translate(13.418 14.697)" fill="#62249e"/>
          <path id="Trazado_998446" data-name="Trazado 998446" d="M2.518,86.893,0,92.019h33.78L36.3,86.893Z" transform="translate(0 14.142)" fill="#62249e"/>
          <path id="Trazado_998447" data-name="Trazado 998447" d="M131.16,33.711H98.809l2.537-5.745H133.7Z" transform="translate(13.977 4.539)" fill="#62249e"/>
          <path id="Trazado_998448" data-name="Trazado 998448" d="M45.981,13.965H3.483L6.02,8.221h42.5Z" transform="translate(0.935 2.207)" fill="#62249e"/>
          <g id="Grupo_1179060" data-name="Grupo 1179060" transform="translate(0)">
            <g id="Grupo_1179059" data-name="Grupo 1179059" clip-path="url(#clip-path)">
              <path id="Trazado_998449" data-name="Trazado 998449" d="M74.461,126.768A63.317,63.317,0,0,1,12.49,49.237H4.026A71.853,71.853,0,0,0,130.42,108.291H119.338a63.5,63.5,0,0,1-44.877,18.477" transform="translate(0.445 8.185)" fill="#62249e"/>
              <path id="Trazado_998450" data-name="Trazado 998450" d="M110.835,89.568h9.4c.755-1.5,1.441-3.033,2.091-4.588h-9.039c-.76,1.565-1.573,3.1-2.454,4.588" transform="translate(18.887 14.126)" fill="#62249e"/>
              <path id="Trazado_998451" data-name="Trazado 998451" d="M145.839,71.593A71.893,71.893,0,0,0,5.373,50.3h8.722A63.623,63.623,0,0,1,137.577,71.593a62.852,62.852,0,0,1-4.591,23.629h8.808a71.048,71.048,0,0,0,4.045-23.629" transform="translate(0.916)" fill="#62249e"/>
              <path id="Trazado_998452" data-name="Trazado 998452" d="M108.562,81.649v3.885h5.115q.927-1.909,1.726-3.885Z" transform="translate(18.499 13.573)" fill="#62249e"/>
              <path id="Trazado_998453" data-name="Trazado 998453" d="M129.252,81.649h-7.1q-.693,1.97-1.495,3.885h8.6Z" transform="translate(20.56 13.573)" fill="#62249e"/>
            </g>
          </g>
          <path id="Trazado_998444" data-name="Trazado 998444" d="M3.8,37.025,0,44.77H23l3.805-7.745Z" transform="translate(0 5.957)" fill="#62249e"/>
        </g>
      </g>
    </g>
    <g id="Grupo_1179080" data-name="Grupo 1179080" transform="translate(336.059 10124)">
      <g id="Grupo_1099618" data-name="Grupo 1099618" transform="translate(0 0)">
        <rect id="Rectángulo_401104" data-name="Rectángulo 401104" width="87.065" height="88.114" transform="translate(0)" fill="none"/>
      </g>
      <g id="capacitacion" transform="translate(1.218 4.65)">
        <g id="Grupo_1182190" data-name="Grupo 1182190" transform="translate(0 0)">
          <path id="Línea_3400" data-name="Línea 3400" d="M-6.277,19.984A1.223,1.223,0,0,1-7.5,18.761V-6.277A1.223,1.223,0,0,1-6.277-7.5,1.223,1.223,0,0,1-5.055-6.277V18.761A1.223,1.223,0,0,1-6.277,19.984Z" transform="translate(12.39 13.315)" fill="#fff"/>
          <path id="Línea_3401" data-name="Línea 3401" d="M-6.277,15.388A1.223,1.223,0,0,1-7.5,14.165V-6.277A1.223,1.223,0,0,1-6.277-7.5,1.223,1.223,0,0,1-5.055-6.277V14.165A1.223,1.223,0,0,1-6.277,15.388Z" transform="translate(12.39 44.059)" fill="#fff"/>
          <path id="Línea_3402" data-name="Línea 3402" d="M-6.277,42.545A1.223,1.223,0,0,1-7.5,41.323v-47.6A1.223,1.223,0,0,1-6.277-7.5,1.223,1.223,0,0,1-5.055-6.277v47.6A1.223,1.223,0,0,1-6.277,42.545Z" transform="translate(83.628 13.309)" fill="#fff"/>
          <path id="Trazado_1002506" data-name="Trazado 1002506" d="M81.426,8.151H29.214a1.223,1.223,0,1,1,0-2.445h51.8V2.445H2.445v3.26H23.509a1.223,1.223,0,1,1,0,2.445H2.038A2.04,2.04,0,0,1,0,6.113V2.038A2.04,2.04,0,0,1,2.038,0H81.426a2.04,2.04,0,0,1,2.038,2.038V6.113A2.04,2.04,0,0,1,81.426,8.151Z" transform="translate(0 0)" fill="#fff"/>
          <path id="Línea_3403" data-name="Línea 3403" d="M7.392-5.055H-6.277A1.223,1.223,0,0,1-7.5-6.277,1.223,1.223,0,0,1-6.277-7.5H7.392A1.223,1.223,0,0,1,8.614-6.277,1.223,1.223,0,0,1,7.392-5.055Z" transform="translate(41.343 64.555)" fill="#fff"/>
          <path id="Trazado_1002507" data-name="Trazado 1002507" d="M42.865,357.336H15.538A2.04,2.04,0,0,1,13.5,355.3v-3.26A2.04,2.04,0,0,1,15.538,350H37.562a1.223,1.223,0,0,1,0,2.445H15.945v2.445h26.92a1.223,1.223,0,0,1,0,2.445Z" transform="translate(-11.299 -292.945)" fill="#fff"/>
          <path id="Elipse_13864" data-name="Elipse 13864" d="M-3.425-7.5A4.08,4.08,0,0,1,.651-3.425,4.08,4.08,0,0,1-3.425.651,4.08,4.08,0,0,1-7.5-3.425,4.08,4.08,0,0,1-3.425-7.5Zm0,5.705a1.632,1.632,0,0,0,1.63-1.63,1.632,1.632,0,0,0-1.63-1.63,1.632,1.632,0,0,0-1.63,1.63A1.632,1.632,0,0,0-3.425-1.795Z" transform="translate(45.156 82.813)" fill="#fff"/>
          <path id="Línea_3404" data-name="Línea 3404" d="M-6.277.162A1.223,1.223,0,0,1-7.5-1.061V-6.277A1.223,1.223,0,0,1-6.277-7.5,1.223,1.223,0,0,1-5.055-6.277v5.216A1.223,1.223,0,0,1-6.277.162Z" transform="translate(48.009 77.555)" fill="#fff"/>
        </g>
        <g id="Grupo_1182192" data-name="Grupo 1182192" transform="translate(17.361 26.568)">
          <path id="Trazado_1002508" data-name="Trazado 1002508" d="M183.242,323.473a1.223,1.223,0,0,1-1.223-1.223v-16.34l-10.725,5.976a4.492,4.492,0,0,1-5.134-.542L153.2,300a3.993,3.993,0,0,1,4.978-6.234l10.621,8.055,9.339-6.683a14.311,14.311,0,0,1,6.519-2.553l4.386-.552a.408.408,0,0,0,.357-.4v-3.652a1.223,1.223,0,1,1,2.445,0v3.652a2.858,2.858,0,0,1-2.5,2.83l-4.386.552a11.857,11.857,0,0,0-5.4,2.115l-10.071,7.208a1.223,1.223,0,0,1-1.45-.02l-11.339-8.6a1.466,1.466,0,0,0-1.979.2,1.6,1.6,0,0,0-.434,1.187,1.531,1.531,0,0,0,.523,1.06L167.771,309.5a2.042,2.042,0,0,0,2.333.246l12.543-6.988a1.223,1.223,0,0,1,1.818,1.068V322.25A1.223,1.223,0,0,1,183.242,323.473Z" transform="translate(-144.445 -266.578)" fill="#fff"/>
          <path id="Trazado_1002509" data-name="Trazado 1002509" d="M429.969,323.126a1.223,1.223,0,0,1-1.223-1.223v-6.521a1.223,1.223,0,0,1,1.223-1.223,4.472,4.472,0,0,0,4.467-4.467V299.4a3.649,3.649,0,0,0-2.854-3.576L424.47,294.2a2.838,2.838,0,0,1-2.22-2.782v-3.857a1.223,1.223,0,1,1,2.445,0v3.857a.406.406,0,0,0,.317.4l7.111,1.618a6.082,6.082,0,0,1,4.757,5.961v10.3a6.923,6.923,0,0,1-5.689,6.8V321.9A1.223,1.223,0,0,1,429.969,323.126Z" transform="translate(-370.778 -266.231)" fill="#fff"/>
          <path id="Línea_3405" data-name="Línea 3405" d="M-6.277,3.911A1.223,1.223,0,0,1-7.5,2.688V-6.277A1.223,1.223,0,0,1-6.277-7.5,1.223,1.223,0,0,1-5.055-6.277V2.688A1.223,1.223,0,0,1-6.277,3.911Z" transform="translate(65.468 46.463)" fill="#fff"/>
          <g id="Grupo_1182191" data-name="Grupo 1182191" transform="translate(37.575)">
            <path id="Trazado_1002510" data-name="Trazado 1002510" d="M431.777,267.1h-3.2a1.223,1.223,0,1,1,0-2.445h3.2a2.04,2.04,0,0,0,2.038-2.039,1.223,1.223,0,1,1,2.445,0A4.488,4.488,0,0,1,431.777,267.1Z" transform="translate(-412.622 -245.355)" fill="#fff"/>
            <path id="Trazado_1002511" data-name="Trazado 1002511" d="M344.693,214.951h-3.21A4.488,4.488,0,0,1,337,210.467v-8.882a8.4,8.4,0,0,1,.134-1.493,1.223,1.223,0,1,1,2.406.435,5.956,5.956,0,0,0-.095,1.057v8.882a2.041,2.041,0,0,0,2.038,2.039h3.21a1.223,1.223,0,1,1,0,2.445Z" transform="translate(-337 -193.201)" fill="#fff"/>
            <path id="Trazado_1002512" data-name="Trazado 1002512" d="M375.8,172.587a1.223,1.223,0,0,1-1.223-1.223,5.933,5.933,0,0,0-8.587-5.309l-.24.12a1.223,1.223,0,0,1-1.094,0l-.24-.12a5.934,5.934,0,0,0-5.94.367,1.223,1.223,0,1,1-1.355-2.035,8.379,8.379,0,0,1,8.082-.665,8.379,8.379,0,0,1,11.819,7.642A1.223,1.223,0,0,1,375.8,172.587Z" transform="translate(-353.387 -162.981)" fill="#fff"/>
            <path id="Trazado_1002513" data-name="Trazado 1002513" d="M369.742,216.5a4.505,4.505,0,0,1-2-.473A10.327,10.327,0,0,1,362,206.736v-2.818a5.848,5.848,0,0,1,5.828-5.788,4.954,4.954,0,0,1,4.023,2.071l.252.353a5.122,5.122,0,0,0,4.16,2.141,1.223,1.223,0,0,1,1.223,1.223v2.818a10.326,10.326,0,0,1-5.738,9.287A4.505,4.505,0,0,1,369.742,216.5Zm-1.915-15.921a3.394,3.394,0,0,0-3.383,3.354v2.807a7.9,7.9,0,0,0,4.387,7.1,2.072,2.072,0,0,0,1.822,0,7.9,7.9,0,0,0,4.387-7.1v-1.7a7.575,7.575,0,0,1-4.928-3.066l-.252-.353A2.5,2.5,0,0,0,367.827,200.575Z" transform="translate(-357.924 -192.4)" fill="#fff"/>
            <path id="Trazado_1002514" data-name="Trazado 1002514" d="M374.481,327.183a7.138,7.138,0,0,1-6.769-5.327,1.223,1.223,0,0,1,2.356-.653,4.748,4.748,0,0,0,4.412,3.534,4.5,4.5,0,0,0,4.351-3.338,1.223,1.223,0,0,1,2.373.589A6.885,6.885,0,0,1,374.481,327.183Z" transform="translate(-362.669 -294.661)" fill="#fff"/>
            <path id="Línea_3406" data-name="Línea 3406" d="M-6.277,1.385A1.223,1.223,0,0,1-7.5.163v-6.44A1.223,1.223,0,0,1-6.277-7.5,1.223,1.223,0,0,1-5.055-6.277V.163A1.223,1.223,0,0,1-6.277,1.385Z" transform="translate(18.096 55.428)" fill="#fff"/>
            <path id="Línea_3407" data-name="Línea 3407" d="M-6.277,7.091A1.223,1.223,0,0,1-7.5,5.868V-6.277A1.223,1.223,0,0,1-6.277-7.5,1.223,1.223,0,0,1-5.055-6.277V5.868A1.223,1.223,0,0,1-6.277,7.091Z" transform="translate(18.096 37.577)" fill="#fff"/>
          </g>
          <path id="Línea_3408" data-name="Línea 3408" d="M-6.278-.522A1.217,1.217,0,0,1-7.054-.8a1.223,1.223,0,0,1-.169-1.721L-3.5-7.054a1.223,1.223,0,0,1,1.721-.169A1.223,1.223,0,0,1-1.61-5.5L-5.333-.969A1.22,1.22,0,0,1-6.278-.522Z" transform="translate(19.671 37.579)" fill="#fff"/>
          <path id="Línea_3409" data-name="Línea 3409" d="M1.792,9.942A1.222,1.222,0,0,1,.714,9.3l-8.069-15a1.223,1.223,0,0,1,.5-1.656,1.223,1.223,0,0,1,1.656.5l8.069,15a1.223,1.223,0,0,1-1.076,1.8Z" transform="translate(7.501 19.73)" fill="#fff"/>
        </g>
        <path id="Rectángulo_458206" data-name="Rectángulo 458206" d="M-6.277-7.5H49.147A1.223,1.223,0,0,1,50.37-6.277v5.053A1.223,1.223,0,0,1,49.147,0H-6.277A1.223,1.223,0,0,1-7.5-1.224V-6.277A1.223,1.223,0,0,1-6.277-7.5Zm54.2,2.445H-5.055v2.608h52.98Z" transform="translate(20.297 18.422)" fill="#fff"/>
        <path id="Línea_3410" data-name="Línea 3410" d="M21.435-5.055H-6.277A1.223,1.223,0,0,1-7.5-6.277,1.223,1.223,0,0,1-6.277-7.5H21.435a1.223,1.223,0,0,1,1.223,1.223A1.223,1.223,0,0,1,21.435-5.055Z" transform="translate(20.378 29.181)" fill="#fff"/>
        <path id="Línea_3411" data-name="Línea 3411" d="M21.435-5.055H-6.277A1.223,1.223,0,0,1-7.5-6.277,1.223,1.223,0,0,1-6.277-7.5H21.435a1.223,1.223,0,0,1,1.223,1.223A1.223,1.223,0,0,1,21.435-5.055Z" transform="translate(20.378 34.886)" fill="#fff"/>
        <path id="Rectángulo_458207" data-name="Rectángulo 458207" d="M-6.277-7.5H-.572A1.223,1.223,0,0,1,.651-6.277V-.572A1.223,1.223,0,0,1-.572.651H-6.277A1.223,1.223,0,0,1-7.5-.572V-6.277A1.223,1.223,0,0,1-6.277-7.5Zm4.483,2.445h-3.26v3.26h3.26Z" transform="translate(42.385 40.592)" fill="#fff"/>
        <path id="Rectángulo_458208" data-name="Rectángulo 458208" d="M-6.277-7.5H-.572A1.223,1.223,0,0,1,.651-6.277V-.572A1.223,1.223,0,0,1-.572.651H-6.277A1.223,1.223,0,0,1-7.5-.572V-6.277A1.223,1.223,0,0,1-6.277-7.5Zm4.483,2.445h-3.26v3.26h3.26Z" transform="translate(42.385 51.188)" fill="#fff"/>
        <path id="Línea_3412" data-name="Línea 3412" d="M-.979-5.055h-5.3A1.223,1.223,0,0,1-7.5-6.277,1.223,1.223,0,0,1-6.277-7.5h5.3A1.223,1.223,0,0,1,.243-6.277,1.223,1.223,0,0,1-.979-5.055Z" transform="translate(31.382 46.297)" fill="#fff"/>
        <path id="Línea_3413" data-name="Línea 3413" d="M10.024-5.055h-16.3A1.223,1.223,0,0,1-7.5-6.277,1.223,1.223,0,0,1-6.277-7.5h16.3a1.223,1.223,0,0,1,1.223,1.223A1.223,1.223,0,0,1,10.024-5.055Z" transform="translate(20.378 40.592)" fill="#fff"/>
      </g>
    </g>
  </g>
</svg>
