<svg xmlns="http://www.w3.org/2000/svg" xmlns:xlink="http://www.w3.org/1999/xlink" width="150" height="150" viewBox="0 0 150 150">
  <defs>
    <clipPath id="clip-path">
      <rect id="Rectángulo_455533" data-name="Rectángulo 455533" width="149.812" height="143.185" fill="#19538d"/>
    </clipPath>
  </defs>
  <g id="Grupo_1180236" data-name="Grupo 1180236" transform="translate(-305.059 -10093)">
    <g id="Grupo_1179079" data-name="Grupo 1179079" transform="translate(-78.59 1694.097)">
      <circle id="Elipse_13674" data-name="Elipse 13674" cx="65.5" cy="65.5" r="65.5" transform="translate(393.649 8407.903)" fill="#19538d"/>
      <g id="Grupo_1179062" data-name="Grupo 1179062" transform="translate(383.649 8398.903)">
        <rect id="Rectángulo_455531" data-name="Rectángulo 455531" width="150" height="150" transform="translate(0 0)" fill="none"/>
        <g id="Grupo_1179061" data-name="Grupo 1179061" transform="translate(0.094 3.9)">
          <path id="Trazado_998445" data-name="Trazado 998445" d="M127.367,99.1H96.727l4.153-7.745h30.64Z" transform="translate(13.418 14.697)" fill="#19538d"/>
          <path id="Trazado_998446" data-name="Trazado 998446" d="M2.518,86.893,0,92.019h33.78L36.3,86.893Z" transform="translate(0 14.142)" fill="#19538d"/>
          <path id="Trazado_998447" data-name="Trazado 998447" d="M131.16,33.711H98.809l2.537-5.745H133.7Z" transform="translate(13.977 4.539)" fill="#19538d"/>
          <path id="Trazado_998448" data-name="Trazado 998448" d="M45.981,13.965H3.483L6.02,8.221h42.5Z" transform="translate(0.935 2.207)" fill="#19538d"/>
          <g id="Grupo_1179060" data-name="Grupo 1179060" transform="translate(0)">
            <g id="Grupo_1179059" data-name="Grupo 1179059" clip-path="url(#clip-path)">
              <path id="Trazado_998449" data-name="Trazado 998449" d="M74.461,126.768A63.317,63.317,0,0,1,12.49,49.237H4.026A71.853,71.853,0,0,0,130.42,108.291H119.338a63.5,63.5,0,0,1-44.877,18.477" transform="translate(0.445 8.185)" fill="#19538d"/>
              <path id="Trazado_998450" data-name="Trazado 998450" d="M110.835,89.568h9.4c.755-1.5,1.441-3.033,2.091-4.588h-9.039c-.76,1.565-1.573,3.1-2.454,4.588" transform="translate(18.887 14.126)" fill="#19538d"/>
              <path id="Trazado_998451" data-name="Trazado 998451" d="M145.839,71.593A71.893,71.893,0,0,0,5.373,50.3h8.722A63.623,63.623,0,0,1,137.577,71.593a62.852,62.852,0,0,1-4.591,23.629h8.808a71.048,71.048,0,0,0,4.045-23.629" transform="translate(0.916)" fill="#19538d"/>
              <path id="Trazado_998452" data-name="Trazado 998452" d="M108.562,81.649v3.885h5.115q.927-1.909,1.726-3.885Z" transform="translate(18.499 13.573)" fill="#19538d"/>
              <path id="Trazado_998453" data-name="Trazado 998453" d="M129.252,81.649h-7.1q-.693,1.97-1.495,3.885h8.6Z" transform="translate(20.56 13.573)" fill="#19538d"/>
            </g>
          </g>
          <path id="Trazado_998444" data-name="Trazado 998444" d="M3.8,37.025,0,44.77H23l3.805-7.745Z" transform="translate(0 5.957)" fill="#19538d"/>
        </g>
      </g>
    </g>
    <g id="Grupo_1179080" data-name="Grupo 1179080" transform="translate(336.059 10124)">
      <g id="Grupo_1099618" data-name="Grupo 1099618" transform="translate(0 0)">
        <rect id="Rectángulo_401104" data-name="Rectángulo 401104" width="87.065" height="88.114" transform="translate(0)" fill="none"/>
      </g>
      <g id="presentacion" transform="translate(0.61 5.922)">
        <g id="Grupo_1182161" data-name="Grupo 1182161" transform="translate(6.789 14.936)">
          <g id="Grupo_1182160" data-name="Grupo 1182160">
            <path id="Trazado_1002491" data-name="Trazado 1002491" d="M54.184,90.462A8.081,8.081,0,0,0,48.354,88h-.418a8.081,8.081,0,0,0-5.824,2.462A7.468,7.468,0,0,0,40,96l.159,3.655a7.8,7.8,0,0,0,7.93,7.355h.1a7.8,7.8,0,0,0,7.93-7.355L56.291,96A7.468,7.468,0,0,0,54.184,90.462Zm-.771,9.08a5.1,5.1,0,0,1-5.217,4.752h-.1a5.1,5.1,0,0,1-5.217-4.752l-.048-1.109a12.254,12.254,0,0,0,7.1-2.664,6.064,6.064,0,0,0,3.541,2.483Zm-1.7-6.418a1.362,1.362,0,0,0-2.528-.505c-.018.029-1.7,2.694-6.458,3.1a4.788,4.788,0,0,1,1.347-3.374,5.368,5.368,0,0,1,3.864-1.629h.418a5.368,5.368,0,0,1,3.864,1.629,4.785,4.785,0,0,1,1.325,3.05A3.212,3.212,0,0,1,51.71,93.123Z" transform="translate(-39.997 -88)" fill="#fff"/>
          </g>
        </g>
        <g id="Grupo_1182163" data-name="Grupo 1182163" transform="translate(59.744 47.524)">
          <g id="Grupo_1182162" data-name="Grupo 1182162">
            <path id="Trazado_1002492" data-name="Trazado 1002492" d="M366.184,282.462A8.081,8.081,0,0,0,360.353,280h-.418a8.081,8.081,0,0,0-5.824,2.462A7.468,7.468,0,0,0,352,288l.159,3.655a7.8,7.8,0,0,0,7.93,7.355h.1a7.8,7.8,0,0,0,7.93-7.355l.166-3.655A7.468,7.468,0,0,0,366.184,282.462Zm-.608,5.427-.163,3.653a5.1,5.1,0,0,1-5.217,4.752h-.1a5.1,5.1,0,0,1-5.217-4.752l-.163-3.659a4.792,4.792,0,0,1,1.358-3.537,5.367,5.367,0,0,1,3.864-1.629h.418a5.367,5.367,0,0,1,3.864,1.629A4.793,4.793,0,0,1,365.576,287.889Z" transform="translate(-351.997 -280)" fill="#fff"/>
          </g>
        </g>
        <g id="Grupo_1182165" data-name="Grupo 1182165" transform="translate(0 18.69)">
          <g id="Grupo_1182164" data-name="Grupo 1182164">
            <path id="Trazado_1002493" data-name="Trazado 1002493" d="M41.946,111.174a3.758,3.758,0,0,0-5.226,0L21.561,126.332a1.358,1.358,0,0,1-.961.4H6.789A6.8,6.8,0,0,0,0,133.519v19.01a4.075,4.075,0,0,0,5.431,3.841v1.59a1.358,1.358,0,0,0,1.358,1.358H23.083a1.358,1.358,0,0,0,1.358-1.358V135.945a1.359,1.359,0,0,1,.364-.926l17.229-18.53A3.758,3.758,0,0,0,41.946,111.174ZM40.1,114.589l-.015.014L22.812,133.171a4.074,4.074,0,0,0-1.086,2.774V156.6H8.147V136.235a1.358,1.358,0,1,0-2.716,0v16.294a1.358,1.358,0,0,1-2.716,0v-19.01a4.073,4.073,0,0,1,4.073-4.073H20.6a4.044,4.044,0,0,0,2.881-1.194L38.64,113.094a1.071,1.071,0,0,1,1.475,0A1.058,1.058,0,0,1,40.1,114.589Z" transform="translate(0 -110.117)" fill="#fff"/>
          </g>
        </g>
        <g id="Grupo_1182167" data-name="Grupo 1182167" transform="translate(13.578 39.377)">
          <g id="Grupo_1182166" data-name="Grupo 1182166">
            <path id="Trazado_1002494" data-name="Trazado 1002494" d="M81.358,232A1.358,1.358,0,0,0,80,233.358v16.294a1.358,1.358,0,1,0,2.716,0V233.358A1.358,1.358,0,0,0,81.358,232Z" transform="translate(-80 -232)" fill="#fff"/>
          </g>
        </g>
        <g id="Grupo_1182169" data-name="Grupo 1182169" transform="translate(29.872 47.524)">
          <g id="Grupo_1182168" data-name="Grupo 1182168">
            <path id="Trazado_1002495" data-name="Trazado 1002495" d="M190.177,282.462A8.081,8.081,0,0,0,184.353,280h-.418a8.081,8.081,0,0,0-5.824,2.462A7.468,7.468,0,0,0,176,288l.159,3.655a7.8,7.8,0,0,0,7.93,7.355h.1a7.8,7.8,0,0,0,7.93-7.355l.159-3.655A7.468,7.468,0,0,0,190.177,282.462Zm-.6,5.427-.163,3.653a5.1,5.1,0,0,1-5.217,4.752h-.1a5.1,5.1,0,0,1-5.217-4.752l-.163-3.659a4.792,4.792,0,0,1,1.358-3.537,5.368,5.368,0,0,1,3.864-1.629h.418a5.368,5.368,0,0,1,3.864,1.629A4.793,4.793,0,0,1,189.576,287.889Z" transform="translate(-175.997 -280)" fill="#fff"/>
          </g>
        </g>
        <g id="Grupo_1182171" data-name="Grupo 1182171" transform="translate(24.441 67.891)">
          <g id="Grupo_1182170" data-name="Grupo 1182170">
            <path id="Trazado_1002496" data-name="Trazado 1002496" d="M164.594,400H150.562A6.569,6.569,0,0,0,144,406.562v5.658a1.358,1.358,0,1,0,2.716,0v-5.658a3.851,3.851,0,0,1,3.847-3.847h14.032a3.851,3.851,0,0,1,3.847,3.847v5.658a1.358,1.358,0,1,0,2.716,0v-5.658A6.569,6.569,0,0,0,164.594,400Z" transform="translate(-144 -400)" fill="#fff"/>
          </g>
        </g>
        <g id="Grupo_1182173" data-name="Grupo 1182173" transform="translate(54.313 67.891)">
          <g id="Grupo_1182172" data-name="Grupo 1182172">
            <path id="Trazado_1002497" data-name="Trazado 1002497" d="M340.594,400H326.562A6.569,6.569,0,0,0,320,406.562v5.658a1.358,1.358,0,1,0,2.716,0v-5.658a3.851,3.851,0,0,1,3.847-3.847h14.032a3.851,3.851,0,0,1,3.847,3.847v5.658a1.358,1.358,0,0,0,2.716,0v-5.658A6.569,6.569,0,0,0,340.594,400Z" transform="translate(-320 -400)" fill="#fff"/>
          </g>
        </g>
        <g id="Grupo_1182175" data-name="Grupo 1182175" transform="translate(25.799)">
          <g id="Grupo_1182174" data-name="Grupo 1182174">
            <path id="Trazado_1002498" data-name="Trazado 1002498" d="M203.665,0h-47.66A4.045,4.045,0,0,0,152,4.073V24.441a1.358,1.358,0,0,0,2.716,0V8.147h50.24V40.735a1.327,1.327,0,0,1-1.29,1.358H157.329a1.358,1.358,0,0,0,0,2.716h46.336a4.045,4.045,0,0,0,4.006-4.073V4.073A4.045,4.045,0,0,0,203.665,0Zm1.29,5.431h-50.24V4.073a1.327,1.327,0,0,1,1.29-1.358h47.66a1.327,1.327,0,0,1,1.29,1.358Z" transform="translate(-151.999)" fill="#fff"/>
          </g>
        </g>
        <g id="Grupo_1182177" data-name="Grupo 1182177" transform="translate(73.323 17.312)">
          <g id="Grupo_1182176" data-name="Grupo 1182176">
            <path id="Trazado_1002499" data-name="Trazado 1002499" d="M433.358,102A1.358,1.358,0,0,0,432,103.358v19.349a1.358,1.358,0,1,0,2.716,0V103.358A1.358,1.358,0,0,0,433.358,102Z" transform="translate(-432 -102)" fill="#fff"/>
          </g>
        </g>
        <g id="Grupo_1182179" data-name="Grupo 1182179" transform="translate(67.891 25.799)">
          <g id="Grupo_1182178" data-name="Grupo 1182178">
            <path id="Trazado_1002500" data-name="Trazado 1002500" d="M401.358,152A1.358,1.358,0,0,0,400,153.358V164.22a1.358,1.358,0,1,0,2.716,0V153.358A1.358,1.358,0,0,0,401.358,152Z" transform="translate(-400 -152)" fill="#fff"/>
          </g>
        </g>
        <g id="Grupo_1182181" data-name="Grupo 1182181" transform="translate(62.46 23.083)">
          <g id="Grupo_1182180" data-name="Grupo 1182180">
            <path id="Trazado_1002501" data-name="Trazado 1002501" d="M369.358,136A1.358,1.358,0,0,0,368,137.358v13.578a1.358,1.358,0,1,0,2.716,0V137.358A1.358,1.358,0,0,0,369.358,136Z" transform="translate(-368 -136)" fill="#fff"/>
          </g>
        </g>
        <g id="Grupo_1182183" data-name="Grupo 1182183" transform="translate(57.029 31.23)">
          <g id="Grupo_1182182" data-name="Grupo 1182182">
            <path id="Trazado_1002502" data-name="Trazado 1002502" d="M337.358,184A1.358,1.358,0,0,0,336,185.358v5.431a1.358,1.358,0,1,0,2.716,0v-5.431A1.358,1.358,0,0,0,337.358,184Z" transform="translate(-336 -184)" fill="#fff"/>
          </g>
        </g>
        <g id="Grupo_1182185" data-name="Grupo 1182185" transform="translate(51.597 10.862)">
          <g id="Grupo_1182184" data-name="Grupo 1182184">
            <path id="Trazado_1002503" data-name="Trazado 1002503" d="M327.836,64.227a1.358,1.358,0,0,0-1.883.376l-4.636,6.952-4.283-3.211a1.358,1.358,0,0,0-2.037.479L309.711,79.4l-5.168,3.881a1.358,1.358,0,1,0,1.629,2.173l5.431-4.073a1.368,1.368,0,0,0,.407-.479l4.7-9.407,4.124,3.1a1.358,1.358,0,0,0,1.9-.271c.015-.02.03-.041.043-.061l5.431-8.147A1.358,1.358,0,0,0,327.836,64.227Z" transform="translate(-303.999 -63.998)" fill="#fff"/>
          </g>
        </g>
        <g id="Grupo_1182187" data-name="Grupo 1182187" transform="translate(31.23 10.863)">
          <g id="Grupo_1182186" data-name="Grupo 1182186">
            <path id="Trazado_1002504" data-name="Trazado 1002504" d="M201.652,64H185.358a1.358,1.358,0,0,0,0,2.716h16.294a1.358,1.358,0,1,0,0-2.716Z" transform="translate(-184 -64)" fill="#fff"/>
          </g>
        </g>
        <g id="Grupo_1182189" data-name="Grupo 1182189" transform="translate(52.955 10.863)">
          <g id="Grupo_1182188" data-name="Grupo 1182188">
            <path id="Trazado_1002505" data-name="Trazado 1002505" d="M316.073,64h-2.716a1.358,1.358,0,1,0,0,2.716h2.716a1.358,1.358,0,0,0,0-2.716Z" transform="translate(-312 -64)" fill="#fff"/>
          </g>
        </g>
      </g>
    </g>
  </g>
</svg>
