<svg xmlns="http://www.w3.org/2000/svg" xmlns:xlink="http://www.w3.org/1999/xlink" width="129" height="127" viewBox="0 0 129 127">
  <defs>
    <clipPath id="clip-path">
      <rect id="Rectángulo_454807" data-name="Rectángulo 454807" width="129" height="127" transform="translate(399.059 5904)" fill="#9ecfff"/>
    </clipPath>
  </defs>
  <g id="Grupo_1182469" data-name="Grupo 1182469" transform="translate(-404.711 -2138)">
    <g id="Grupo_1179112" data-name="Grupo 1179112" transform="translate(5.652 -2562)">
      <g id="Grupo_1177492" data-name="Grupo 1177492" transform="translate(0 -1204)">
        <rect id="Rectángulo_454806" data-name="Rectángulo 454806" width="129" height="127" transform="translate(399.059 5904)" fill="#9ecfff"/>
        <path id="Rectángulo_454808" data-name="Rectángulo 454808" d="M0,0H79A12,12,0,0,1,91,12V91a0,0,0,0,1,0,0H12A12,12,0,0,1,0,79V0A0,0,0,0,1,0,0Z" transform="translate(418.059 5922)" fill="#fff"/>
        <g id="Grupo_1177491" data-name="Grupo 1177491" transform="translate(13.443 -2497.801)">
          <g id="Grupo_1099776" data-name="Grupo 1099776" transform="translate(412.387 8428.781)">
            <g id="Grupo_1099618" data-name="Grupo 1099618" transform="translate(-0.025 0.02)">
              <rect id="Rectángulo_401104" data-name="Rectángulo 401104" width="72.17" height="73.039" transform="translate(0)" fill="none"/>
            </g>
            <g id="experiencia-del-cliente" transform="translate(1.974 2.019)">
              <path id="Trazado_1002723" data-name="Trazado 1002723" d="M23,54.272v9.636a1.074,1.074,0,0,0,1.071,1.071H41.2a1.074,1.074,0,0,0,1.071-1.071V54.272A7.5,7.5,0,0,0,36,46.884a6.424,6.424,0,1,0-6.724,0A7.5,7.5,0,0,0,23,54.272Zm5.353-12.848a4.283,4.283,0,1,1,4.283,4.283A4.281,4.281,0,0,1,28.353,41.424Zm2.141,7.494h4.283a5.355,5.355,0,0,1,5.353,5.353v8.565H25.141V54.272A5.355,5.355,0,0,1,30.494,48.918Z" transform="translate(1.554 2.402)" fill="#19538d"/>
              <path id="Trazado_1002724" data-name="Trazado 1002724" d="M44,54.095V62.66a1.074,1.074,0,0,0,1.071,1.071H60.06A1.074,1.074,0,0,0,61.13,62.66V54.095a6.435,6.435,0,0,0-5.4-6.338,5.621,5.621,0,1,0-6.338,0A6.427,6.427,0,0,0,44,54.095Zm5.086-10.974a3.48,3.48,0,1,1,3.48,3.48A3.486,3.486,0,0,1,49.086,43.121ZM46.141,54.095a4.281,4.281,0,0,1,4.283-4.283h4.283a4.281,4.281,0,0,1,4.283,4.283v7.494H46.141Z" transform="translate(3.037 2.578)" fill="#19538d"/>
              <path id="Trazado_1002725" data-name="Trazado 1002725" d="M46.837,24.554V3.141A2.148,2.148,0,0,0,44.7,1H21.141A2.148,2.148,0,0,0,19,3.141V24.554A2.148,2.148,0,0,0,21.141,26.7h8.865l1.9,5.7a1.071,1.071,0,0,0,1.017.728,1.085,1.085,0,0,0,1.017-.728l1.9-5.7H44.7A2.148,2.148,0,0,0,46.837,24.554Zm-11.777,0a1.085,1.085,0,0,0-1.017.728l-1.124,3.373-1.124-3.373a1.071,1.071,0,0,0-1.017-.728H21.141V3.141H44.7V24.554Z" transform="translate(1.272)" fill="#19538d"/>
              <path id="Trazado_1002726" data-name="Trazado 1002726" d="M62.271,8H48.353v2.141H62.271V29.413h-7.8a1.075,1.075,0,0,0-.985.653l-.846,1.981-.846-1.981a1.075,1.075,0,0,0-.985-.653H43v2.141h7.1l1.552,3.629a1.069,1.069,0,0,0,1.97,0l1.552-3.629h7.1a2.148,2.148,0,0,0,2.141-2.141V10.141A2.148,2.148,0,0,0,62.271,8Z" transform="translate(2.967 0.494)" fill="#19538d"/>
              <path id="Trazado_1002727" data-name="Trazado 1002727" d="M4,54.095V62.66a1.074,1.074,0,0,0,1.071,1.071H20.06A1.074,1.074,0,0,0,21.13,62.66V54.095a6.435,6.435,0,0,0-5.4-6.338,5.621,5.621,0,1,0-6.338,0A6.427,6.427,0,0,0,4,54.095ZM9.086,43.121a3.48,3.48,0,1,1,3.48,3.48A3.486,3.486,0,0,1,9.086,43.121ZM6.141,54.095a4.281,4.281,0,0,1,4.283-4.283h4.283a4.281,4.281,0,0,1,4.283,4.283v7.494H6.141Z" transform="translate(0.212 2.578)" fill="#19538d"/>
              <path id="Trazado_1002728" data-name="Trazado 1002728" d="M3.141,31.554h7.1l1.552,3.629a1.069,1.069,0,0,0,1.97,0l1.552-3.629h7.1V29.413h-7.8a1.075,1.075,0,0,0-.985.653l-.846,1.981-.846-1.981a1.075,1.075,0,0,0-.985-.653h-7.8V10.141H17.06V8H3.141A2.148,2.148,0,0,0,1,10.141V29.413A2.148,2.148,0,0,0,3.141,31.554Z" transform="translate(0 0.494)" fill="#19538d"/>
              <path id="Trazado_1002729" data-name="Trazado 1002729" d="M38.389,11.352h-1.1l.567-2.259a2.425,2.425,0,0,0-4.6-1.51l-1.06,2.837a1.436,1.436,0,0,1-1.338.931h-.428a1.065,1.065,0,0,0-1.071-1.06H25.071A1.074,1.074,0,0,0,24,11.363v8.565A1.074,1.074,0,0,0,25.071,21h4.283a1.047,1.047,0,0,0,1.028-.878l1.049.7a1.061,1.061,0,0,0,.589.182h5.9a2.736,2.736,0,0,0,2.719-2.441l.46-4.175a2.729,2.729,0,0,0-.685-2.131,2.758,2.758,0,0,0-2.045-.91ZM28.283,18.857H26.141V12.433h2.141Zm10.235-.535a.6.6,0,0,1-.589.535H32.351l-1.338-.889a1.061,1.061,0,0,0-.589-.182V13.493h.418a3.6,3.6,0,0,0,3.351-2.323l1.06-2.837a.286.286,0,0,1,.364-.171.337.337,0,0,1,.161.4l-.9,3.6a1.086,1.086,0,0,0,.193.921,1.061,1.061,0,0,0,.846.407h2.473a.612.612,0,0,1,.45.2.576.576,0,0,1,.15.46l-.46,4.175Z" transform="translate(1.625 0.354)" fill="#19538d"/>
              <path id="Trazado_1002730" data-name="Trazado 1002730" d="M51.35,23.1l1.831,1.392a1.031,1.031,0,0,0,.642.214,1.077,1.077,0,0,0,.642-.214L56.3,23.1a11.452,11.452,0,0,0,2.9-3.255,3.98,3.98,0,0,0-.428-4.7,3.35,3.35,0,0,0-4.957-.1,3.35,3.35,0,0,0-4.957.1,4,4,0,0,0-.428,4.7,11.452,11.452,0,0,0,2.9,3.255Zm-.889-6.52a1.241,1.241,0,0,1,.931-.439,1.3,1.3,0,0,1,.942.439l.707.782a1.1,1.1,0,0,0,1.585,0l.707-.782a1.244,1.244,0,0,1,1.874,0,1.886,1.886,0,0,1,.182,2.163A9.4,9.4,0,0,1,55.023,21.4l-1.188.9-1.188-.9a9.256,9.256,0,0,1-2.366-2.655,1.888,1.888,0,0,1,.182-2.163Z" transform="translate(3.31 0.918)" fill="#19538d"/>
              <path id="Trazado_1002731" data-name="Trazado 1002731" d="M6.5,14.5H8.641v2.141H6.5Z" transform="translate(0.389 0.954)" fill="#19538d"/>
              <path id="Trazado_1002732" data-name="Trazado 1002732" d="M11.5,14.5h2.141v2.141H11.5Z" transform="translate(0.742 0.954)" fill="#19538d"/>
              <path id="Trazado_1002733" data-name="Trazado 1002733" d="M10.353,23.853A5.355,5.355,0,0,0,15.706,18.5H13.565a3.212,3.212,0,1,1-6.424,0H5A5.355,5.355,0,0,0,10.353,23.853Z" transform="translate(0.283 1.236)" fill="#19538d"/>
            </g>
          </g>
        </g>
      </g>
      <path id="Trazado_998457" data-name="Trazado 998457" d="M21.193,13.724H3.483l2.43-5.5h17.71Z" transform="translate(406.088 4714.021)" fill="#fff"/>
      <path id="Trazado_998459" data-name="Trazado 998459" d="M21.193,13.724H3.483l2.43-5.5h17.71Z" transform="translate(497.088 4790.021)" fill="#fff"/>
      <path id="Trazado_998458" data-name="Trazado 998458" d="M21.193,13.724H3.483l2.43-5.5h17.71Z" transform="translate(401.088 4719.524)" fill="#9ecfff"/>
      <path id="Trazado_998461" data-name="Trazado 998461" d="M18.607,11.366H3.483L4.872,8.221H20Z" transform="translate(494.518 4795.524)" fill="#9ecfff"/>
      <path id="Trazado_998462" data-name="Trazado 998462" d="M18.607,11.366H3.483L4.872,8.221H20Z" transform="translate(497.088 4734.779)" fill="#9ecfff"/>
      <path id="Trazado_998463" data-name="Trazado 998463" d="M18.607,11.366H3.483L4.872,8.221H20Z" transform="translate(402.902 4780.779)" fill="#9ecfff"/>
    </g>
  </g>
</svg>
