<svg xmlns="http://www.w3.org/2000/svg" xmlns:xlink="http://www.w3.org/1999/xlink" width="348" height="251" viewBox="0 0 348 251">
  <defs>
    <clipPath id="clip-path">
      <rect id="Rectángulo_456880" data-name="Rectángulo 456880" width="311.31" height="242.514" fill="none"/>
    </clipPath>
    <clipPath id="clip-path-3">
      <rect id="Rectángulo_456869" data-name="Rectángulo 456869" width="291.753" height="242.514" fill="#fff"/>
    </clipPath>
    <clipPath id="clip-path-4">
      <rect id="Rectángulo_456864" data-name="Rectángulo 456864" width="277.844" height="241.302" fill="#fff"/>
    </clipPath>
    <clipPath id="clip-path-5">
      <rect id="Rectángulo_456865" data-name="Rectángulo 456865" width="25.747" height="25.747" fill="#fff"/>
    </clipPath>
    <clipPath id="clip-path-6">
      <rect id="Rectángulo_456866" data-name="Rectángulo 456866" width="8.952" height="8.952" fill="#fff"/>
    </clipPath>
    <clipPath id="clip-path-7">
      <rect id="Rectángulo_456867" data-name="Rectángulo 456867" width="11.995" height="11.996" fill="#fff"/>
    </clipPath>
    <clipPath id="clip-path-8">
      <rect id="Rectángulo_456868" data-name="Rectángulo 456868" width="27.313" height="27.313" fill="#fff"/>
    </clipPath>
    <clipPath id="clip-path-9">
      <rect id="Rectángulo_456874" data-name="Rectángulo 456874" width="311.31" height="184.679" fill="#fff"/>
    </clipPath>
    <clipPath id="clip-path-10">
      <rect id="Rectángulo_456870" data-name="Rectángulo 456870" width="14.386" height="18.442" fill="#fff"/>
    </clipPath>
    <clipPath id="clip-path-11">
      <rect id="Rectángulo_456871" data-name="Rectángulo 456871" width="27.512" height="22.487" fill="#fff"/>
    </clipPath>
    <clipPath id="clip-path-12">
      <rect id="Rectángulo_456872" data-name="Rectángulo 456872" width="293.893" height="162.155" fill="#fff"/>
    </clipPath>
    <clipPath id="clip-path-13">
      <rect id="Rectángulo_456873" data-name="Rectángulo 456873" width="263.533" height="184.679" fill="#fff"/>
    </clipPath>
    <clipPath id="clip-path-15">
      <rect id="Rectángulo_456876" data-name="Rectángulo 456876" width="250.391" height="77.241" fill="none"/>
    </clipPath>
    <clipPath id="clip-path-16">
      <rect id="Rectángulo_456877" data-name="Rectángulo 456877" width="28.886" height="16.711" fill="none"/>
    </clipPath>
    <clipPath id="clip-path-17">
      <rect id="Rectángulo_456878" data-name="Rectángulo 456878" width="28.734" height="24.928" fill="none"/>
    </clipPath>
  </defs>
  <g id="Grupo_1180051" data-name="Grupo 1180051" transform="translate(-1017.711 -8067)">
    <rect id="Rectángulo_456812" data-name="Rectángulo 456812" width="348" height="251" transform="translate(1017.711 8067)" fill="none"/>
    <g id="Grupo_1180050" data-name="Grupo 1180050" transform="translate(474 122)">
      <g id="Grupo_1180049" data-name="Grupo 1180049" transform="translate(561.711 7949)">
        <g id="Grupo_1180048" data-name="Grupo 1180048" clip-path="url(#clip-path)">
          <g id="Grupo_1180036" data-name="Grupo 1180036">
            <g id="Grupo_1180035" data-name="Grupo 1180035" clip-path="url(#clip-path)">
              <g id="Grupo_1180019" data-name="Grupo 1180019" transform="translate(16.494)">
                <g id="Grupo_1180018" data-name="Grupo 1180018">
                  <g id="Grupo_1180017" data-name="Grupo 1180017" clip-path="url(#clip-path-3)">
                    <g id="Grupo_1180004" data-name="Grupo 1180004" transform="translate(13.909)" opacity="0.41">
                      <g id="Grupo_1180003" data-name="Grupo 1180003">
                        <g id="Grupo_1180002" data-name="Grupo 1180002" clip-path="url(#clip-path-4)">
                          <path id="Trazado_999724" data-name="Trazado 999724" d="M324.291,154.006a82.914,82.914,0,0,0-.38-14.145c-2.5-22.042-13.805-42.827-30.449-57.492-5.938-5.232-12.694-9.919-16.559-16.826-6.508-11.63-6.015-25-14.092-36.481A68.314,68.314,0,0,0,229.653,4c-39.622-13.729-95.094,8.624-90.1,56.362.018.172.037.42.058.735a17.377,17.377,0,0,1-17.024,18.489c-36.557.867-68.024,29.052-74.757,64.754-4.331,22.96,2.76,48.127,19.556,64.369,12.537,12.125,29.359,18.785,46.188,23.362,33.743,9.177,69.253,11.1,104.045,7.591,32.568-3.284,66.922-12.648,87.984-37.7a82.276,82.276,0,0,0,18.686-47.949" transform="translate(-46.588 0)" fill="#fff"/>
                        </g>
                      </g>
                    </g>
                    <g id="Grupo_1180007" data-name="Grupo 1180007" transform="translate(251.36 21.305)" opacity="0.31">
                      <g id="Grupo_1180006" data-name="Grupo 1180006">
                        <g id="Grupo_1180005" data-name="Grupo 1180005" clip-path="url(#clip-path-5)">
                          <path id="Trazado_999725" data-name="Trazado 999725" d="M436.2,45.52a12.873,12.873,0,1,1-12.873-12.873A12.873,12.873,0,0,1,436.2,45.52" transform="translate(-410.456 -32.647)" fill="#fff"/>
                        </g>
                      </g>
                    </g>
                    <g id="Grupo_1180010" data-name="Grupo 1180010" transform="translate(237.12 12.353)" opacity="0.31">
                      <g id="Grupo_1180009" data-name="Grupo 1180009">
                        <g id="Grupo_1180008" data-name="Grupo 1180008" clip-path="url(#clip-path-6)">
                          <path id="Trazado_999726" data-name="Trazado 999726" d="M397.586,23.405a4.476,4.476,0,1,1-4.476-4.476,4.476,4.476,0,0,1,4.476,4.476" transform="translate(-388.634 -18.929)" fill="#fff"/>
                        </g>
                      </g>
                    </g>
                    <g id="Grupo_1180013" data-name="Grupo 1180013" transform="translate(76.82 5.336)" opacity="0.31">
                      <g id="Grupo_1180012" data-name="Grupo 1180012">
                        <g id="Grupo_1180011" data-name="Grupo 1180011" clip-path="url(#clip-path-7)">
                          <path id="Trazado_999727" data-name="Trazado 999727" d="M154.988,14.175a6,6,0,1,1-6-6,6,6,0,0,1,6,6" transform="translate(-142.993 -8.177)" fill="#fff"/>
                        </g>
                      </g>
                    </g>
                    <g id="Grupo_1180016" data-name="Grupo 1180016" transform="translate(0 215.201)" opacity="0.31">
                      <g id="Grupo_1180015" data-name="Grupo 1180015">
                        <g id="Grupo_1180014" data-name="Grupo 1180014" clip-path="url(#clip-path-8)">
                          <path id="Trazado_999728" data-name="Trazado 999728" d="M52.588,343.427a13.656,13.656,0,1,1-13.657-13.656,13.657,13.657,0,0,1,13.657,13.656" transform="translate(-25.275 -329.771)" fill="#fff"/>
                        </g>
                      </g>
                    </g>
                  </g>
                </g>
              </g>
              <g id="Grupo_1180034" data-name="Grupo 1180034" transform="translate(0 21.535)" opacity="0.25">
                <g id="Grupo_1180033" data-name="Grupo 1180033" style="isolation: isolate">
                  <g id="Grupo_1180032" data-name="Grupo 1180032" clip-path="url(#clip-path-9)">
                    <g id="Grupo_1180022" data-name="Grupo 1180022" transform="translate(0 139.461)" opacity="0.47">
                      <g id="Grupo_1180021" data-name="Grupo 1180021">
                        <g id="Grupo_1180020" data-name="Grupo 1180020" clip-path="url(#clip-path-10)">
                          <path id="Trazado_999729" data-name="Trazado 999729" d="M5.5,247.174A7.808,7.808,0,0,0,.35,256.938c1.273,4.119,6.529,9.289,10.648,8.016s2.347-7.795,3.222-12.017c1.221-5.888-4.6-7.035-8.716-5.762" transform="translate(0 -246.708)" fill="#fff"/>
                        </g>
                      </g>
                    </g>
                    <g id="Grupo_1180025" data-name="Grupo 1180025" transform="translate(26.508 4.577)" opacity="0.47" style="isolation: isolate">
                      <g id="Grupo_1180024" data-name="Grupo 1180024">
                        <g id="Grupo_1180023" data-name="Grupo 1180023" clip-path="url(#clip-path-11)">
                          <path id="Trazado_999730" data-name="Trazado 999730" d="M66.283,46.251a11.824,11.824,0,0,0-16.01-4.829c-5.754,3.087-11.915,12.4-8.827,18.155s12.27,1.228,18.8,1.3c9.107.107,9.125-8.876,6.038-14.63" transform="translate(-40.621 -40.014)" fill="#fff"/>
                        </g>
                      </g>
                    </g>
                    <g id="Grupo_1180028" data-name="Grupo 1180028" transform="translate(17.417 22.524)" opacity="0.47">
                      <g id="Grupo_1180027" data-name="Grupo 1180027" style="isolation: isolate">
                        <g id="Grupo_1180026" data-name="Grupo 1180026" clip-path="url(#clip-path-12)">
                          <path id="Trazado_999731" data-name="Trazado 999731" d="M316.048,217.487c4.085-6.5,5.108-14.555,4.258-22.181a73.165,73.165,0,0,0-6.41-22.42c-3.074-6.532-7.523-12.359-8.791-19.635-1.675-9.612,2.713-18.852,3.731-28.281,2.028-18.771-10.658-35.311-26.395-44.242-12.782-7.254-27.767-9.976-42.463-9.782-13.226.174-26.429,2.521-39.246,5.676-12.351,3.04-24.427,7.047-37.374,5.783-10.767-1.051-20.465-5.524-30.492-8.859-23.94-7.961-52.94-9.084-74.831,3.036a60.385,60.385,0,0,0-28.244,33.992c-3.2,9.948-4.143,21.386-1.8,31.454,2.631,11.313,7.49,21.277,6.207,33.193-1.053,9.779-4.645,19.312-4.327,29.23A44.183,44.183,0,0,0,38.3,228.4a10.731,10.731,0,0,0,1.047,1.274h262.74c5.5-2.965,10.634-6.9,13.959-12.185" transform="translate(-26.69 -67.516)" fill="#fff"/>
                        </g>
                      </g>
                    </g>
                    <g id="Grupo_1180031" data-name="Grupo 1180031" transform="translate(29.733)" opacity="0.81">
                      <g id="Grupo_1180030" data-name="Grupo 1180030">
                        <g id="Grupo_1180029" data-name="Grupo 1180029" clip-path="url(#clip-path-13)">
                          <path id="Trazado_999732" data-name="Trazado 999732" d="M288.875,198.986c.931-7.245-1.248-13.974-.963-21.016.549-13.54,12.989-22.888,17.323-35.06a64.714,64.714,0,0,0-1.44-47.7c-3.213-7.238-7.905-13.965-14.314-18.617-9.879-7.171-22.824-8.745-35-7.835-18.118,1.354-37.237,8.89-55.453,6.834C188.978,74.455,185.908,64,180.717,57.107a59.69,59.69,0,0,0-22.708-18,66.794,66.794,0,0,0-52.468-1.412c-17.767,7.27-33.253,25.024-32.235,45.1.47,9.289,4.341,18.514,2.549,27.641-2.249,11.454-11.232,21.891-17.741,31.224a69.562,69.562,0,0,0-2.421,76.019H282.628a50.563,50.563,0,0,0,6.246-18.694" transform="translate(-45.562 -33)" fill="#fff"/>
                        </g>
                      </g>
                    </g>
                  </g>
                </g>
              </g>
              <path id="Trazado_999733" data-name="Trazado 999733" d="M450.795,89.591a1.987,1.987,0,1,1-1.528-2.358,1.987,1.987,0,0,1,1.528,2.358" transform="translate(-155.251 -30.292)" fill="#3887fe"/>
              <path id="Trazado_999734" data-name="Trazado 999734" d="M307.314,319.191H49.245a1.031,1.031,0,0,1,0-2.063H307.314a1.031,1.031,0,1,1,0,2.063" transform="translate(-16.751 -110.178)" fill="#233863"/>
            </g>
          </g>
          <g id="Grupo_1180047" data-name="Grupo 1180047">
            <g id="Grupo_1180046" data-name="Grupo 1180046" clip-path="url(#clip-path)">
              <g id="Grupo_1180039" data-name="Grupo 1180039" transform="translate(42.544 51.723)" opacity="0.61">
                <g id="Grupo_1180038" data-name="Grupo 1180038">
                  <g id="Grupo_1180037" data-name="Grupo 1180037" clip-path="url(#clip-path-15)">
                    <path id="Trazado_999735" data-name="Trazado 999735" d="M382.44,178.273H365.359a.653.653,0,0,1,0-1.305H382.44a.653.653,0,0,1,0,1.305" transform="translate(-169.251 -113.205)" fill="#fff"/>
                    <path id="Trazado_999736" data-name="Trazado 999736" d="M433.62,178.273H407.472a.653.653,0,0,1,0-1.305H433.62a.653.653,0,0,1,0,1.305" transform="translate(-183.882 -113.205)" fill="#fff"/>
                    <path id="Trazado_999737" data-name="Trazado 999737" d="M408.381,187.6H365.359a.653.653,0,1,1,0-1.305h43.022a.653.653,0,1,1,0,1.305" transform="translate(-169.251 -116.446)" fill="#fff"/>
                    <path id="Trazado_999738" data-name="Trazado 999738" d="M393.864,196.927H365.359a.653.653,0,1,1,0-1.305h28.506a.653.653,0,1,1,0,1.305" transform="translate(-169.251 -119.686)" fill="#fff"/>
                    <path id="Trazado_999739" data-name="Trazado 999739" d="M109.99,122.526H65.846a.653.653,0,0,1,0-1.305H109.99a.653.653,0,1,1,0,1.305" transform="translate(-65.193 -93.838)" fill="#fff"/>
                    <path id="Trazado_999740" data-name="Trazado 999740" d="M109.99,101.624H65.846a.653.653,0,1,1,0-1.305H109.99a.653.653,0,1,1,0,1.305" transform="translate(-65.193 -86.576)" fill="#fff"/>
                    <path id="Trazado_999741" data-name="Trazado 999741" d="M120.822,112.075h-23.8a.653.653,0,0,1,0-1.305h23.8a.653.653,0,0,1,0,1.305" transform="translate(-76.024 -90.207)" fill="#fff"/>
                    <path id="Trazado_999742" data-name="Trazado 999742" d="M120.822,90.54h-23.8a.653.653,0,0,1,0-1.305h23.8a.653.653,0,0,1,0,1.305" transform="translate(-76.024 -82.725)" fill="#fff"/>
                    <path id="Trazado_999743" data-name="Trazado 999743" d="M124.947,80.564H108.9a.653.653,0,1,1,0-1.305h16.051a.653.653,0,1,1,0,1.305" transform="translate(-80.15 -79.259)" fill="#fff"/>
                  </g>
                </g>
              </g>
              <path id="Trazado_999744" data-name="Trazado 999744" d="M273.253,30.876V25.421c0-1.592,1.695-2.882,3.786-2.882h81.93c2.09,0,3.786,1.291,3.786,2.882V79.36c0,1.591-1.7,2.882-3.786,2.882h-81.93c-2.091,0-3.786-1.291-3.786-2.882V70.7" transform="translate(-94.934 -7.831)" fill="#fff"/>
              <path id="Trazado_999745" data-name="Trazado 999745" d="M362.542,33.7V25.484c0-1.613-1.7-2.92-3.8-2.92h-82.3c-2.1,0-3.8,1.307-3.8,2.92v8.591Z" transform="translate(-94.722 -7.839)" fill="#3887fe"/>
              <path id="Trazado_999746" data-name="Trazado 999746" d="M281.659,32.671a1.739,1.739,0,1,1,1.74-1.74,1.741,1.741,0,0,1-1.74,1.74m0-2.826a1.087,1.087,0,1,0,1.087,1.087,1.088,1.088,0,0,0-1.087-1.087" transform="translate(-97.251 -10.142)" fill="#fff"/>
              <path id="Trazado_999747" data-name="Trazado 999747" d="M289.785,32.671a1.739,1.739,0,1,1,1.739-1.74,1.742,1.742,0,0,1-1.739,1.74m0-2.826a1.087,1.087,0,1,0,1.087,1.087,1.088,1.088,0,0,0-1.087-1.087" transform="translate(-100.074 -10.142)" fill="#fff"/>
              <path id="Trazado_999748" data-name="Trazado 999748" d="M297.756,32.671a1.739,1.739,0,1,1,1.74-1.74,1.741,1.741,0,0,1-1.74,1.74m0-2.826a1.087,1.087,0,1,0,1.087,1.087,1.088,1.088,0,0,0-1.087-1.087" transform="translate(-102.843 -10.142)" fill="#fff"/>
              <line id="Línea_3253" data-name="Línea 3253" x2="15.51" transform="translate(223.521 41.063)" fill="#f7a9b4"/>
              <path id="Trazado_999749" data-name="Trazado 999749" d="M357.858,63.077h-15.51a.326.326,0,0,1,0-.653h15.51a.326.326,0,1,1,0,.653" transform="translate(-118.826 -21.688)" fill="#243762"/>
              <line id="Línea_3254" data-name="Línea 3254" x2="15.315" transform="translate(223.521 55.152)" fill="#f7a9b4"/>
              <path id="Trazado_999750" data-name="Trazado 999750" d="M357.663,84.667H342.347a.326.326,0,1,1,0-.653h15.315a.326.326,0,1,1,0,.653" transform="translate(-118.826 -29.188)" fill="#243762"/>
              <line id="Línea_3255" data-name="Línea 3255" x2="11.436" transform="translate(223.521 48.219)" fill="#f7a9b4"/>
              <path id="Trazado_999751" data-name="Trazado 999751" d="M353.783,74.042H342.348a.326.326,0,0,1,0-.653h11.435a.326.326,0,1,1,0,.653" transform="translate(-118.826 -25.497)" fill="#243762"/>
              <line id="Línea_3256" data-name="Línea 3256" x2="11.436" transform="translate(242.717 48.219)" fill="#f7a9b4"/>
              <path id="Trazado_999752" data-name="Trazado 999752" d="M383.2,74.042H371.762a.326.326,0,1,1,0-.653H383.2a.326.326,0,1,1,0,.653" transform="translate(-129.045 -25.497)" fill="#243762"/>
              <path id="Trazado_999753" data-name="Trazado 999753" d="M304.521,50.486a17.3,17.3,0,1,1-20,20.307l20.3-1.6-.325-18.38s-.05-.341.024-.328" transform="translate(-98.848 -17.54)" fill="#53d0f7"/>
              <path id="Trazado_999754" data-name="Trazado 999754" d="M289.931,56.027a15.011,15.011,0,0,1,12.879-4.233l.344.344.287,15.721L285.8,69.495a15.018,15.018,0,0,1,4.133-13.468" transform="translate(-99.199 -17.936)" fill="#ffa000"/>
              <path id="Trazado_999755" data-name="Trazado 999755" d="M405.1,112.107H367.85a2.175,2.175,0,0,1-2.175-2.175V97.284a2.176,2.176,0,0,1,2.175-2.175H405.1a2.175,2.175,0,0,1,2.175,2.175v12.648a2.175,2.175,0,0,1-2.175,2.175" transform="translate(-127.044 -33.043)" fill="#ffa000"/>
              <path id="Trazado_999756" data-name="Trazado 999756" d="M380.017,115.65h42.277a2.329,2.329,0,0,1,2.322,2.323v12.951a2.329,2.329,0,0,1-2.322,2.322H380.017a2.329,2.329,0,0,1-2.323-2.322V117.973a2.329,2.329,0,0,1,2.323-2.323" transform="translate(-131.22 -40.179)" fill="#fff"/>
              <path id="Trazado_999757" data-name="Trazado 999757" d="M380.017,115.65h42.277a2.329,2.329,0,0,1,2.322,2.323v12.951a2.329,2.329,0,0,1-2.322,2.322H380.017a2.329,2.329,0,0,1-2.323-2.322V117.973a2.329,2.329,0,0,1,2.323-2.323" transform="translate(-131.22 -40.179)" fill="#3887fe"/>
              <path id="Trazado_999758" data-name="Trazado 999758" d="M425.651,130.152a2.108,2.108,0,1,1,2.108-2.108,2.11,2.11,0,0,1-2.108,2.108m0-3.563a1.455,1.455,0,1,0,1.455,1.455,1.457,1.457,0,0,0-1.455-1.455" transform="translate(-147.149 -43.753)" fill="#fff"/>
              <path id="Trazado_999759" data-name="Trazado 999759" d="M412.764,130.152a2.108,2.108,0,1,1,2.107-2.108,2.11,2.11,0,0,1-2.107,2.108m0-3.563a1.455,1.455,0,1,0,1.455,1.455,1.458,1.458,0,0,0-1.455-1.455" transform="translate(-142.671 -43.753)" fill="#fff"/>
              <path id="Trazado_999760" data-name="Trazado 999760" d="M400.751,130.152a2.108,2.108,0,1,1,2.108-2.108,2.11,2.11,0,0,1-2.108,2.108m0-3.563a1.455,1.455,0,1,0,1.455,1.455,1.457,1.457,0,0,0-1.455-1.455" transform="translate(-138.498 -43.753)" fill="#fff"/>
              <path id="Trazado_999761" data-name="Trazado 999761" d="M60.442,91.614H85.191a2.175,2.175,0,0,0,2.175-2.175V81.9a2.175,2.175,0,0,0-2.175-2.175H60.442A2.175,2.175,0,0,0,58.267,81.9v7.54a2.175,2.175,0,0,0,2.175,2.175" transform="translate(-20.243 -27.698)" fill="#ffa000"/>
              <path id="Trazado_999762" data-name="Trazado 999762" d="M75.351,94.092H45.778a1.629,1.629,0,0,0-1.625,1.624v9.06a1.629,1.629,0,0,0,1.625,1.624H75.351a1.629,1.629,0,0,0,1.624-1.624v-9.06a1.629,1.629,0,0,0-1.624-1.624" transform="translate(-15.34 -32.69)" fill="#fff"/>
              <path id="Trazado_999763" data-name="Trazado 999763" d="M75.351,94.092H45.778a1.629,1.629,0,0,0-1.625,1.624v9.06a1.629,1.629,0,0,0,1.625,1.624H75.351a1.629,1.629,0,0,0,1.624-1.624v-9.06a1.629,1.629,0,0,0-1.624-1.624" transform="translate(-15.34 -32.69)" fill="#3887fe"/>
              <path id="Trazado_999764" data-name="Trazado 999764" d="M59.283,104.281a1.573,1.573,0,1,1,1.572-1.573,1.574,1.574,0,0,1-1.572,1.573m0-2.493a.92.92,0,1,0,.919.92.922.922,0,0,0-.919-.92" transform="translate(-20.05 -35.137)" fill="#fff"/>
              <path id="Trazado_999765" data-name="Trazado 999765" d="M68.3,104.281a1.573,1.573,0,1,1,1.572-1.573,1.574,1.574,0,0,1-1.572,1.573m0-2.493a.92.92,0,1,0,.919.92.922.922,0,0,0-.919-.92" transform="translate(-23.182 -35.137)" fill="#fff"/>
              <path id="Trazado_999766" data-name="Trazado 999766" d="M76.7,104.281a1.573,1.573,0,1,1,1.572-1.573,1.574,1.574,0,0,1-1.572,1.573m0-2.493a.92.92,0,1,0,.919.92.922.922,0,0,0-.919-.92" transform="translate(-26.101 -35.137)" fill="#fff"/>
              <path id="Trazado_999767" data-name="Trazado 999767" d="M233.019,44.65H201.39c-1.681,0-3.044,1.875-3.044,4.189v22.95c0,.7.617,1.04.968.537l3.019-4.312a1.275,1.275,0,0,1,1.027-.6l29.659-.048c1.452,0,2.63-1.62,2.63-3.619V48.269c0-2-1.178-3.619-2.63-3.619" transform="translate(-68.91 -15.512)" fill="#ffa000"/>
              <path id="Trazado_999768" data-name="Trazado 999768" d="M217.8,57.474h-7.6a.653.653,0,0,1,0-1.305h7.6a.653.653,0,1,1,0,1.305" transform="translate(-72.803 -19.514)" fill="#fff"/>
              <path id="Trazado_999769" data-name="Trazado 999769" d="M240.572,57.474H228.94a.653.653,0,1,1,0-1.305h11.633a.653.653,0,0,1,0,1.305" transform="translate(-79.312 -19.514)" fill="#fff"/>
              <path id="Trazado_999770" data-name="Trazado 999770" d="M229.344,63.184H210.206a.653.653,0,1,1,0-1.305h19.139a.653.653,0,0,1,0,1.305" transform="translate(-72.804 -21.498)" fill="#fff"/>
              <path id="Trazado_999771" data-name="Trazado 999771" d="M222.886,68.894H210.2a.653.653,0,0,1,0-1.305h12.682a.653.653,0,1,1,0,1.305" transform="translate(-72.803 -23.482)" fill="#fff"/>
              <path id="Trazado_999772" data-name="Trazado 999772" d="M320.521,202.567l.141-.1-.141.1" transform="translate(-111.356 -70.341)" fill="#a55356"/>
              <path id="Trazado_999773" data-name="Trazado 999773" d="M319.7,203.2l.087-.066-.087.066" transform="translate(-111.07 -70.575)" fill="#a55356"/>
              <path id="Trazado_999774" data-name="Trazado 999774" d="M314.659,207.731l.13-.132-.13.132" transform="translate(-109.32 -72.125)" fill="#a55356"/>
              <path id="Trazado_999775" data-name="Trazado 999775" d="M316.689,205.725l.175-.162-.175.162" transform="translate(-110.025 -71.417)" fill="#a55356"/>
              <path id="Trazado_999776" data-name="Trazado 999776" d="M315.683,206.679l.179-.174-.179.174" transform="translate(-109.676 -71.745)" fill="#a55356"/>
              <path id="Trazado_999777" data-name="Trazado 999777" d="M322.077,201.511l.124-.08-.124.08" transform="translate(-111.897 -69.982)" fill="#a55356"/>
              <path id="Trazado_999778" data-name="Trazado 999778" d="M317.7,204.837l.132-.117-.132.117" transform="translate(-110.375 -71.124)" fill="#a55356"/>
              <path id="Trazado_999779" data-name="Trazado 999779" d="M321.309,202.01l.147-.1-.147.1" transform="translate(-111.63 -70.148)" fill="#a55356"/>
              <path id="Trazado_999780" data-name="Trazado 999780" d="M325.188,199.822l.153-.067-.153.067" transform="translate(-112.978 -69.4)" fill="#a55356"/>
              <path id="Trazado_999781" data-name="Trazado 999781" d="M322.894,201.034l.036-.022-.036.022" transform="translate(-112.181 -69.836)" fill="#a55356"/>
              <path id="Trazado_999782" data-name="Trazado 999782" d="M326.171,199.364c-.161.052-.353.121-.576.21.221-.089.416-.159.576-.21" transform="translate(-113.119 -69.264)" fill="#a55356"/>
              <path id="Trazado_999783" data-name="Trazado 999783" d="M324.707,200.038l.152-.07-.152.07" transform="translate(-112.811 -69.473)" fill="#a55356"/>
              <path id="Trazado_999784" data-name="Trazado 999784" d="M323.588,200.616l.116-.062-.116.062" transform="translate(-112.422 -69.677)" fill="#a55356"/>
              <path id="Trazado_999785" data-name="Trazado 999785" d="M324.173,200.3l.145-.072-.145.072" transform="translate(-112.625 -69.564)" fill="#a55356"/>
              <path id="Trazado_999786" data-name="Trazado 999786" d="M303.183,222.6l.309-.487-.309.487" transform="translate(-105.333 -77.166)" fill="#a55356"/>
              <path id="Trazado_999787" data-name="Trazado 999787" d="M305.828,218.622c.082-.121.165-.244.247-.362-.082.118-.165.241-.247.362" transform="translate(-106.252 -75.829)" fill="#a55356"/>
              <path id="Trazado_999788" data-name="Trazado 999788" d="M308.654,214.733c.069-.091.136-.176.2-.266-.068.089-.135.175-.2.266" transform="translate(-107.234 -74.511)" fill="#a55356"/>
              <path id="Trazado_999789" data-name="Trazado 999789" d="M301.868,224.754c.092-.153.183-.3.274-.448-.091.149-.182.3-.274.448" transform="translate(-104.876 -77.929)" fill="#a55356"/>
              <path id="Trazado_999790" data-name="Trazado 999790" d="M309.843,213.174l.242-.3-.242.3" transform="translate(-107.647 -73.956)" fill="#a55356"/>
              <path id="Trazado_999791" data-name="Trazado 999791" d="M304.492,220.569l.3-.456-.3.456" transform="translate(-105.788 -76.472)" fill="#a55356"/>
              <path id="Trazado_999792" data-name="Trazado 999792" d="M312.217,210.358c.06-.069.121-.14.18-.208-.059.067-.12.139-.18.208" transform="translate(-108.471 -73.011)" fill="#a55356"/>
              <path id="Trazado_999793" data-name="Trazado 999793" d="M311.019,211.732l.234-.282-.234.282" transform="translate(-108.055 -73.463)" fill="#a55356"/>
              <path id="Trazado_999794" data-name="Trazado 999794" d="M364.428,203.419a14.381,14.381,0,0,0-1.012-1.7l-.013-.02a12.506,12.506,0,0,0-10.143-5.575l-3.076-.025-7.1-.057c-4.715-.038-9.431-.129-14.147-.135h-.285a28.891,28.891,0,0,0-5.831.462,24.7,24.7,0,0,0-5.456,1.769,26.59,26.59,0,0,0-7.4,5.329,56.729,56.729,0,0,0-7.846,10.285c-.541.859-1.072,1.723-1.581,2.6a71.09,71.09,0,0,0,6.952,6.322l-2.694,7.367a13.96,13.96,0,0,0,1.242,12.142l.717,1.134L309.086,247l1.811,27.87h54.63l.315-38.481,14.6-5.14.446-.157Z" transform="translate(-104.415 -68.062)" fill="#ffa000"/>
              <path id="Trazado_999795" data-name="Trazado 999795" d="M349.366,211.813c-7.706,0-13.975-5.992-13.975-13.357v-1.507a.342.342,0,0,1,.683,0v1.507c0,7,5.963,12.7,13.292,12.7s13.292-5.7,13.292-12.7v-1.507a.342.342,0,0,1,.683,0v1.507c0,7.365-6.269,13.357-13.974,13.357" transform="translate(-116.523 -68.311)" fill="#833742"/>
              <path id="Trazado_999796" data-name="Trazado 999796" d="M341.3,204.544a.345.345,0,0,1-.283-.144,10.683,10.683,0,0,1-1.988-6.207v-1.244a.342.342,0,0,1,.683,0v1.244a10.06,10.06,0,0,0,1.87,5.842.317.317,0,0,1-.091.453.347.347,0,0,1-.191.056" transform="translate(-117.788 -68.311)" fill="#833742"/>
              <path id="Trazado_999797" data-name="Trazado 999797" d="M352.89,214.422a11.808,11.808,0,0,1-7.227-2.415.316.316,0,0,1-.054-.458.353.353,0,0,1,.48-.052,11.317,11.317,0,0,0,13.6.005.351.351,0,0,1,.479.052.316.316,0,0,1-.053.458,11.808,11.808,0,0,1-7.221,2.41" transform="translate(-120.046 -73.455)" fill="#833742"/>
              <path id="Trazado_999798" data-name="Trazado 999798" d="M371.635,203.825a.357.357,0,0,1-.169-.042.319.319,0,0,1-.128-.445,10.078,10.078,0,0,0,1.417-5.145v-1.244a.342.342,0,0,1,.683,0v1.244a10.711,10.711,0,0,1-1.506,5.467.344.344,0,0,1-.3.165" transform="translate(-128.996 -68.311)" fill="#833742"/>
              <path id="Trazado_999799" data-name="Trazado 999799" d="M368.235,133.815a10.25,10.25,0,0,0-5.9-9.42l0-.35a19.874,19.874,0,0,0-18.6-20.1,12.9,12.9,0,0,0-22.309,4.049c-.3-.029-.6-.046-.912-.046a9.476,9.476,0,0,0-5.221,17.385,9.641,9.641,0,0,0,3.523,18.013,8.442,8.442,0,0,0,11.033,12.766,19.753,19.753,0,0,0,8.452,2.035l17.53.24a8.443,8.443,0,0,0,6.229-14.269l.014-1.044a10.25,10.25,0,0,0,6.16-9.255" transform="translate(-107.811 -34.436)" fill="#142647"/>
              <path id="Trazado_999800" data-name="Trazado 999800" d="M354.193,148.964a8.167,8.167,0,0,1-5.565-5.2,9.592,9.592,0,0,1-4.524-7.249,12.825,12.825,0,0,1-11.718-.035,9.462,9.462,0,0,1-6.285,3.346l-2.228,10.715A15.03,15.03,0,0,0,325.55,161.1a15.215,15.215,0,0,0,10.866,8.838c.143.03.286.052.429.078v6.819a8.408,8.408,0,0,0,16.816,0V162.442a8.32,8.32,0,0,0-.132-1.428,15.3,15.3,0,0,0,.77-2.306l.378.079a5.889,5.889,0,0,0,5.019-10.249,8.143,8.143,0,0,1-5.5.427" transform="translate(-112.41 -47.415)" fill="#a55356"/>
              <g id="Grupo_1180042" data-name="Grupo 1180042" transform="translate(213.14 110.673)" opacity="0.32">
                <g id="Grupo_1180041" data-name="Grupo 1180041">
                  <g id="Grupo_1180040" data-name="Grupo 1180040" clip-path="url(#clip-path-16)">
                    <path id="Trazado_999801" data-name="Trazado 999801" d="M354,170.01a15.094,15.094,0,0,1-27.385,2.6,15.215,15.215,0,0,0,10.866,8.837c.143.03.286.053.429.078v4.781l12.706-8.023-.485.121a15.167,15.167,0,0,0,5.139-7.817q.13-.472.231-.957s-1.3-.208-1.5.38" transform="translate(-326.613 -169.594)" fill="#833742"/>
                  </g>
                </g>
              </g>
              <path id="Trazado_999802" data-name="Trazado 999802" d="M374.376,162.414a.327.327,0,0,1-.206-.072l-2.049-1.658a.326.326,0,0,1-.014-.5l2.616-2.371a.326.326,0,0,1,.439.484l-2.333,2.116,1.753,1.417a.326.326,0,0,1-.2.58" transform="translate(-129.241 -54.8)" fill="#833742"/>
              <path id="Trazado_999803" data-name="Trazado 999803" d="M339.685,175.71a.327.327,0,0,1-.23-.094,1.951,1.951,0,0,0-2.161-.378.326.326,0,0,1-.29-.585,2.6,2.6,0,0,1,2.911.5.326.326,0,0,1-.23.557" transform="translate(-117.02 -60.59)" fill="#833742"/>
              <path id="Trazado_999804" data-name="Trazado 999804" d="M336.542,167.507l1.3.173a4.867,4.867,0,0,0,5.465-4.184l-7.733-1.027-.427,3.217a1.622,1.622,0,0,0,1.395,1.821" transform="translate(-116.433 -56.446)" fill="#fff"/>
              <path id="Trazado_999805" data-name="Trazado 999805" d="M345.355,152.5h0a.686.686,0,0,1-.532-.811l.14-.672a.686.686,0,1,1,1.342.279l-.14.671a.686.686,0,0,1-.811.532" transform="translate(-119.795 -52.276)" fill="#142647"/>
              <path id="Trazado_999806" data-name="Trazado 999806" d="M330.363,150.958h0a.686.686,0,0,1-.521-.818l.148-.669a.686.686,0,1,1,1.339.3l-.148.669a.686.686,0,0,1-.818.521" transform="translate(-114.589 -51.743)" fill="#142647"/>
              <path id="Trazado_999807" data-name="Trazado 999807" d="M334.88,156.534a.664.664,0,0,1-.222-.039l-1.652-.6a1.327,1.327,0,0,1-.8-1.694l2.524-7.02a.653.653,0,1,1,1.228.442l-2.523,7.02,1.665.623a.653.653,0,0,1-.222,1.267" transform="translate(-115.39 -50.985)" fill="#833742"/>
              <path id="Trazado_999808" data-name="Trazado 999808" d="M350.725,144.2a2.518,2.518,0,0,1-1.013-.277c-.345-.145-.694-.283-1-.391s-.667-.222-1.027-.325a2.528,2.528,0,0,1-.961-.42c-.225-.206-.22-.564.233-.848a2.9,2.9,0,0,1,2.371-.068A2.815,2.815,0,0,1,351.1,143.4c.161.5-.07.78-.377.8" transform="translate(-120.408 -49.216)" fill="#142647"/>
              <path id="Trazado_999809" data-name="Trazado 999809" d="M329.164,140.734a2.528,2.528,0,0,0,1.049-.067c.367-.072.737-.136,1.06-.181s.7-.082,1.072-.111a2.516,2.516,0,0,0,1.026-.218c.262-.155.33-.508-.057-.878a2.9,2.9,0,0,0-2.308-.545,2.814,2.814,0,0,0-2.05,1.141c-.26.458-.09.779.208.857" transform="translate(-114.243 -48.188)" fill="#142647"/>
              <path id="Trazado_999810" data-name="Trazado 999810" d="M294.154,218.8l2.694-7.366a71.155,71.155,0,0,1-6.952-6.322l-1.584,3.4-.326-3.264-1.229-16.021s1.423.116,2.694-5.766c1.291-5.972,1.3-9.748-.839-9.884-1.045-.067-1.73,1.3-2.109,2.387a1.994,1.994,0,0,1-.879,1.064l-.152-11.2a1.576,1.576,0,1,0-3.151.043l.133,9.764-.143-10.537a1.576,1.576,0,1,0-3.152.043l.057,4.178-.038-2.861a1.576,1.576,0,0,0-3.152.042l.016,1.175a1.4,1.4,0,1,0-2.8.038l.133,9.82c-2.21,7.539,1,12.1,1,12.1l-1.5,11.726-.048-.005-.184,1.806q-.386,3.8-.773,7.591-.751,7.374-1.5,14.747c-.608,5.979-1.175,11.417,2.169,16.733,2.743,4.36,7.686,7.539,12.76,4.934,2.814-1.444,10.728-14.759,10.728-14.759l.091-.328-.716-1.134a13.96,13.96,0,0,1-1.243-12.142" transform="translate(-93.77 -56.818)" fill="#a55356"/>
              <path id="Trazado_999811" data-name="Trazado 999811" d="M288.848,173.746a.326.326,0,0,1-.326-.322l-.089-6.593a.326.326,0,0,1,.322-.331h0a.326.326,0,0,1,.326.322l.089,6.593a.326.326,0,0,1-.322.331Z" transform="translate(-100.208 -57.846)" fill="#833742"/>
              <path id="Trazado_999812" data-name="Trazado 999812" d="M284.026,174.408a.326.326,0,0,1-.326-.322l-.09-6.593a.326.326,0,0,1,.322-.331h0a.326.326,0,0,1,.326.322l.09,6.593a.326.326,0,0,1-.322.331Z" transform="translate(-98.533 -58.076)" fill="#833742"/>
              <path id="Trazado_999813" data-name="Trazado 999813" d="M279.218,176.033a.326.326,0,0,1-.326-.322l-.089-6.593a.327.327,0,0,1,.322-.331.31.31,0,0,1,.33.322l.089,6.593a.326.326,0,0,1-.322.331Z" transform="translate(-96.862 -58.641)" fill="#833742"/>
              <path id="Trazado_999814" data-name="Trazado 999814" d="M288.714,189.847a.326.326,0,0,1-.324-.29,5.271,5.271,0,0,1,3.806-5.936.326.326,0,0,1,.152.635,4.561,4.561,0,0,0-3.31,5.229.326.326,0,0,1-.288.36l-.037,0" transform="translate(-100.178 -63.791)" fill="#833742"/>
              <path id="Trazado_999815" data-name="Trazado 999815" d="M310.656,231.812a.326.326,0,0,1-.308-.434l4.117-11.76a.326.326,0,1,1,.615.216l-4.116,11.759a.327.327,0,0,1-.308.219" transform="translate(-107.816 -76.224)" fill="#833742"/>
              <path id="Trazado_999816" data-name="Trazado 999816" d="M299.568,244.6a.326.326,0,0,1-.323-.287l-1.5-12.415a.326.326,0,0,1,.647-.078l1.5,12.415a.326.326,0,0,1-.284.362.263.263,0,0,1-.04,0" transform="translate(-103.443 -80.441)" fill="#833742"/>
              <path id="Trazado_999817" data-name="Trazado 999817" d="M342.1,250.63l10.6-.871a.587.587,0,0,0,.486-.59l1.37-20.416a.644.644,0,0,0-.6-.749l-16.863,1.384a.646.646,0,0,0-.463.844l4.891,19.9a.585.585,0,0,0,.573.495" transform="translate(-116.945 -79.214)" fill="#fff"/>
              <path id="Trazado_999818" data-name="Trazado 999818" d="M342.1,250.63l10.6-.871a.587.587,0,0,0,.486-.59l1.37-20.416a.644.644,0,0,0-.6-.749l-16.863,1.384a.646.646,0,0,0-.463.844l4.891,19.9a.585.585,0,0,0,.573.495" transform="translate(-116.945 -79.214)" fill="#fff"/>
              <path id="Trazado_999819" data-name="Trazado 999819" d="M340.653,247.625l12.8-1.051a1.185,1.185,0,0,0,1.054-1.1l.787-8.277a1.22,1.22,0,0,0-1.258-1.377l-15.8,1.3a1.222,1.222,0,0,0-1.013,1.577l2.212,8.031a1.184,1.184,0,0,0,1.216.9" transform="translate(-117.143 -81.928)" fill="#2f7ded"/>
              <path id="Trazado_999820" data-name="Trazado 999820" d="M335.457,228.627l18.885-1.551a.7.7,0,0,0,.525-1.008l-.407-.856a.655.655,0,0,0-.64-.386l-18.137,1.489a.65.65,0,0,0-.551.433l-.341.918a.7.7,0,0,0,.666.96" transform="translate(-116.298 -78.109)" fill="#1a71d8"/>
              <path id="Trazado_999821" data-name="Trazado 999821" d="M338.177,222.749l14.381-1.18a1.144,1.144,0,0,1,1.2,1.086l.091,1.107-16.58,1.361-.091-1.107a1.143,1.143,0,0,1,1-1.267" transform="translate(-117.14 -76.977)" fill="#2f7ded"/>
              <path id="Trazado_999822" data-name="Trazado 999822" d="M401.606,263.213,392.74,244.5l-11.992,4.222L359.907,235.4v-.008l-1.449-.882c-1.746-1.062-4.324.04-7.063.3l-11.064,2.32-2.168-.035a1.4,1.4,0,0,0-1.423,1.378l0,.112a1.4,1.4,0,0,0,1,1.359c-.046.018-.091.037-.138.056l-.227,0a1.4,1.4,0,0,0-1.423,1.379l0,.112a1.4,1.4,0,0,0,1.378,1.422h.029a1.391,1.391,0,0,0-.369.878l0,.111a1.405,1.405,0,0,0,1.341,1.458l.708.029c.031.02.055.039.087.057l.042.065a1.243,1.243,0,0,0-.71,1l-.009.1a1.247,1.247,0,0,0,1.118,1.357s13.556,2.9,18.832,2.925l24.064,25.531a11.336,11.336,0,0,0,13.924,1.776,7.942,7.942,0,0,0,.933-.367c5.059-2.4,6.98-8.942,4.29-14.619" transform="translate(-116.717 -81.316)" fill="#a55356"/>
              <path id="Trazado_999823" data-name="Trazado 999823" d="M344.717,243.217h-.005l-6.311-.1a.327.327,0,0,1-.321-.332.31.31,0,0,1,.332-.321l6.311.1a.326.326,0,0,1-.005.653" transform="translate(-117.457 -84.238)" fill="#833742"/>
              <path id="Trazado_999824" data-name="Trazado 999824" d="M345.219,247.69h-.005l-6.312-.1a.327.327,0,0,1-.321-.332.34.34,0,0,1,.331-.321l6.312.1a.326.326,0,0,1-.005.653" transform="translate(-117.631 -85.792)" fill="#833742"/>
              <path id="Trazado_999825" data-name="Trazado 999825" d="M347.123,251.952h-.015l-6.305-.29a.326.326,0,0,1-.311-.341.307.307,0,0,1,.341-.31l6.305.29a.326.326,0,0,1-.015.652" transform="translate(-118.295 -87.206)" fill="#833742"/>
              <path id="Trazado_999826" data-name="Trazado 999826" d="M416.468,264.9a.322.322,0,0,1-.183-.057l-12.043-8.209a.326.326,0,0,1,.367-.539l12.043,8.209a.326.326,0,0,1-.183.6" transform="translate(-140.393 -88.953)" fill="#833742"/>
              <path id="Trazado_999827" data-name="Trazado 999827" d="M289.606,310.595h28.872a.658.658,0,0,1,.547,1.023l-2.279,3.419H290.832Z" transform="translate(-100.616 -107.908)" fill="#2f4770"/>
              <path id="Trazado_999828" data-name="Trazado 999828" d="M251.311,254.247c-.254-1.486-1.09-2.514-2.043-2.514H196.6c-1.432,0-2.458,2.232-2.045,4.447l7.187,38.495h56.473Z" transform="translate(-67.56 -87.458)" fill="#233863"/>
              <path id="Trazado_999829" data-name="Trazado 999829" d="M240.4,281.428a3.507,3.507,0,1,1-3.508,3.508,3.511,3.511,0,0,1,3.508-3.508m0-1.305a4.812,4.812,0,1,0,4.813,4.813,4.827,4.827,0,0,0-4.813-4.813" transform="translate(-81.847 -97.321)" fill="#fff"/>
              <path id="Trazado_999830" data-name="Trazado 999830" d="M226.985,89.29l-.078.116a2.225,2.225,0,0,0-.106-.975,1.641,1.641,0,0,0-.962-1.01,1.963,1.963,0,0,0-2.385,1.363L218.972,101a9.718,9.718,0,0,0-.151-2.049,8.588,8.588,0,0,0-.473-2.3,2.753,2.753,0,0,0-3.052-1.922.929.929,0,0,0-.632.348,1.1,1.1,0,0,0-.11.644c.072,2.124.389,4.234.414,6.359a8.226,8.226,0,0,0-1.6,4.508,7.452,7.452,0,0,0-.228,2.58l.559,6.36-6.748,24.456s-.5.054-.5.056L188.38,148.2l-.311,15.624a34.488,34.488,0,0,0,4.949,2.328c11.8,3.8,19.37,2.884,21.106,2.413,7.37-2,11.975-16.157,12.2-22.471q.186-5.292.371-10.583l.648-18.484.047-1.341.166-6.162.323-.788s7.52-18.687-.89-19.449" transform="translate(-65.34 -30.34)" fill="#fec29e"/>
              <path id="Trazado_999831" data-name="Trazado 999831" d="M211.065,181.091a.311.311,0,0,1-.08-.01.324.324,0,0,1-.236-.4l3.261-12.845a.321.321,0,0,1,.4-.236.326.326,0,0,1,.236.4l-3.262,12.845a.325.325,0,0,1-.316.246" transform="translate(-73.216 -58.225)" fill="#fb8e77"/>
              <path id="Trazado_999832" data-name="Trazado 999832" d="M246.219,90.249a33.4,33.4,0,0,1-.807,4.784,17.208,17.208,0,0,1-.734,2.332,7.866,7.866,0,0,1-1.228,2.181.326.326,0,1,1-.5-.422l.005-.007,0-.005a7.31,7.31,0,0,0,1.175-1.972,16.755,16.755,0,0,0,.773-2.241,33.019,33.019,0,0,0,.923-4.689v-.006a.194.194,0,0,1,.386.044" transform="translate(-84.38 -31.28)" fill="#fb8e77"/>
              <path id="Trazado_999833" data-name="Trazado 999833" d="M249.254,91a6.784,6.784,0,0,1,.19,2.518,12.593,12.593,0,0,1-.464,2.445,19.686,19.686,0,0,1-.832,2.336l-.52,1.123-.573,1.1a.326.326,0,0,1-.579-.3l0-.006.008-.014.587-1.056.534-1.082a19.025,19.025,0,0,0,.865-2.245,12.187,12.187,0,0,0,.506-2.339,6.5,6.5,0,0,0-.105-2.333l-.008-.029a.2.2,0,0,1,.388-.112" transform="translate(-85.619 -31.566)" fill="#fb8e77"/>
              <path id="Trazado_999834" data-name="Trazado 999834" d="M251.922,94.313a19.226,19.226,0,0,1,.045,2.06,16.044,16.044,0,0,1-.182,2.056,9.944,9.944,0,0,1-.506,2.026,5.449,5.449,0,0,1-1.1,1.847.326.326,0,1,1-.473-.449l.007-.007.007-.007a4.861,4.861,0,0,0,1.016-1.6,9.414,9.414,0,0,0,.542-1.9,18.1,18.1,0,0,0,.267-4v-.007a.19.19,0,0,1,.38-.022" transform="translate(-86.722 -32.706)" fill="#fb8e77"/>
              <path id="Trazado_999835" data-name="Trazado 999835" d="M235.527,114.674a.326.326,0,0,1-.251-.535c1.932-2.318,0-5.222-.02-5.251a.327.327,0,0,1,.54-.367c.022.033,2.223,3.344-.02,6.035a.325.325,0,0,1-.251.117" transform="translate(-81.714 -37.653)" fill="#fb8e77"/>
              <path id="Trazado_999836" data-name="Trazado 999836" d="M148.636,300.767H118.668a.844.844,0,0,1-.834-.972l.755-4.924a.844.844,0,0,0-1.613-.452l-2.421,5.827a.844.844,0,0,1-.779.52H79.692a.844.844,0,0,1-.844-.844V271.29a.844.844,0,0,1,.844-.844h68.944a.844.844,0,0,1,.844.844v28.634a.844.844,0,0,1-.844.844" transform="translate(-27.394 -93.959)" fill="#243762"/>
              <path id="Trazado_999837" data-name="Trazado 999837" d="M162.124,152.822V152a27.849,27.849,0,0,0-27.849-27.849H120.29c-.294-.01-.586-.022-.882-.022H88.437A15.726,15.726,0,0,0,73.73,134.291h0l-.047.127-.023.065-13.172,35.9.572.07,11.549,1.413-.138,47.744,70.553,1.233.722-44.232.311-15.625Z" transform="translate(-21.014 -43.127)" fill="#2f7ded"/>
              <path id="Trazado_999838" data-name="Trazado 999838" d="M187.9,191.189a.326.326,0,0,1-.326-.326v-25.39a.326.326,0,0,1,.653,0v25.39a.326.326,0,0,1-.326.326" transform="translate(-65.166 -57.376)" fill="#374081"/>
              <path id="Trazado_999839" data-name="Trazado 999839" d="M133.67,138.823c-7.706,0-13.975-5.992-13.975-13.357v-1.507a.342.342,0,0,1,.683,0v1.507c0,7,5.963,12.7,13.292,12.7s13.292-5.7,13.292-12.7v-1.507a.342.342,0,0,1,.683,0v1.507c0,7.365-6.269,13.357-13.974,13.357" transform="translate(-41.585 -42.953)" fill="#374081"/>
              <path id="Trazado_999840" data-name="Trazado 999840" d="M125.606,131.554a.344.344,0,0,1-.283-.143,10.683,10.683,0,0,1-1.988-6.207v-1.244a.342.342,0,0,1,.683,0V125.2a10.059,10.059,0,0,0,1.87,5.842.317.317,0,0,1-.091.453.346.346,0,0,1-.191.055" transform="translate(-42.85 -42.953)" fill="#374081"/>
              <path id="Trazado_999841" data-name="Trazado 999841" d="M137.194,141.433a11.8,11.8,0,0,1-7.227-2.415.315.315,0,0,1-.054-.457.353.353,0,0,1,.48-.052,11.32,11.32,0,0,0,13.6,0,.352.352,0,0,1,.479.052.317.317,0,0,1-.053.459,11.811,11.811,0,0,1-7.221,2.409" transform="translate(-45.109 -48.097)" fill="#374081"/>
              <path id="Trazado_999842" data-name="Trazado 999842" d="M155.939,130.836a.345.345,0,0,1-.168-.042.318.318,0,0,1-.129-.445,10.079,10.079,0,0,0,1.417-5.145v-1.244a.342.342,0,0,1,.683,0V125.2a10.711,10.711,0,0,1-1.506,5.467.344.344,0,0,1-.3.165" transform="translate(-54.058 -42.953)" fill="#374081"/>
              <path id="Trazado_999843" data-name="Trazado 999843" d="M104.074,190.453l-7.813-.3a.327.327,0,0,1-.313-.339.321.321,0,0,1,.339-.314l7.3.285,5.125-17.727a.326.326,0,1,1,.627.181Z" transform="translate(-33.334 -59.693)" fill="#374081"/>
              <path id="Trazado_999844" data-name="Trazado 999844" d="M148.694,192.4l-12.006.143a.664.664,0,0,1-.608-.613l-3.7-22.8a.727.727,0,0,1,.59-.9l19.1-.227a.729.729,0,0,1,.61.9l-3.392,22.885a.661.661,0,0,1-.592.617" transform="translate(-45.988 -58.366)" fill="#fff"/>
              <path id="Trazado_999845" data-name="Trazado 999845" d="M149.92,188.849l-14.5.172a1.337,1.337,0,0,1-1.3-1.124l-1.759-9.22a1.378,1.378,0,0,1,1.267-1.68l17.9-.213a1.379,1.379,0,0,1,1.305,1.665l-1.637,9.26a1.336,1.336,0,0,1-1.271,1.139" transform="translate(-45.976 -61.419)" fill="#ffb44f"/>
              <path id="Trazado_999846" data-name="Trazado 999846" d="M152.532,167.054l-21.388.255a.785.785,0,0,1-.7-1.077l.367-1a.739.739,0,0,1,.677-.5l20.542-.244a.735.735,0,0,1,.665.429l.479,1a.788.788,0,0,1-.646,1.149" transform="translate(-45.303 -57.144)" fill="#ffb44f"/>
              <path id="Trazado_999847" data-name="Trazado 999847" d="M150.988,160.557l-16.287.194a1.291,1.291,0,0,0-1.229,1.347l.015,1.254,18.778-.223-.015-1.254a1.291,1.291,0,0,0-1.261-1.318" transform="translate(-46.371 -55.781)" fill="#ffa539"/>
              <path id="Trazado_999848" data-name="Trazado 999848" d="M127.787,181.77l-.016-.148a1.574,1.574,0,0,0-1.732-1.388l-.266.029-.157-.048a1.571,1.571,0,0,0,.981-1.622l-.016-.148a1.575,1.575,0,0,0-1.732-1.389l-15.125-1.168c-3.106-.007-6.12-.972-7.97.406l-1.239.923h0l-.295.22v.01L82.587,191.21l-19.5-2.471-6.291,26.153c-.051.221-.078.442-.117.663-.02.112-.042.223-.059.335-.04.268-.069.534-.091.8-.017.181-.032.362-.04.543-.01.213-.012.425-.011.636,0,.235.005.469.018.7.01.161.023.321.039.481.027.283.061.565.107.846.018.111.039.221.059.33q.09.481.217.955c.02.073.041.146.062.218.1.335.2.666.33.993.023.062.049.123.073.185.126.317.263.63.415.939.044.089.091.176.137.264.138.262.28.522.437.777.1.165.211.324.318.485s.22.329.34.489c.23.311.474.609.732.9.007.007.011.014.018.021l0,0a12.926,12.926,0,0,0,6.776,4.013,11.191,11.191,0,0,0,5.431-.1,12.71,12.71,0,0,0,7.227-4.432L103.556,194.7c5.927-.582,20.865-5.281,20.865-5.281a1.4,1.4,0,0,0,1.105-1.633l-.025-.13a1.393,1.393,0,0,0-.9-1.042l.038-.074c.035-.025.059-.048.093-.074l.8-.11a1.574,1.574,0,0,0,1.343-1.768l-.02-.147a1.552,1.552,0,0,0-.5-.937l.037,0a1.574,1.574,0,0,0,1.389-1.732" transform="translate(-19.62 -60.991)" fill="#fec29e"/>
              <path id="Trazado_999849" data-name="Trazado 999849" d="M151.507,183.487a.326.326,0,0,1-.035-.651l7.083-.779a.326.326,0,0,1,.071.649l-7.082.779-.037,0" transform="translate(-52.524 -63.25)" fill="#fb8e77"/>
              <path id="Trazado_999850" data-name="Trazado 999850" d="M151.418,188.565a.326.326,0,0,1-.035-.651l7.083-.779a.33.33,0,0,1,.36.288.327.327,0,0,1-.289.36l-7.082.779-.037,0" transform="translate(-52.493 -65.014)" fill="#fb8e77"/>
              <path id="Trazado_999851" data-name="Trazado 999851" d="M149.743,193.559a.326.326,0,0,1-.044-.649l7.056-.993a.331.331,0,0,1,.369.278.327.327,0,0,1-.278.369l-7.056.993a.359.359,0,0,1-.046,0" transform="translate(-51.911 -66.675)" fill="#fb8e77"/>
              <path id="Trazado_999852" data-name="Trazado 999852" d="M76.262,207.69a.326.326,0,0,1-.194-.588l16.872-12.52a.326.326,0,1,1,.388.524L76.457,207.625a.324.324,0,0,1-.194.065" transform="translate(-26.382 -67.58)" fill="#fb8e77"/>
              <path id="Trazado_999853" data-name="Trazado 999853" d="M162.089,37.648a9.735,9.735,0,0,0-7.265-.321c-.525.173-.977.5-1.491.353-.479-.142-1.078-.861-1.517-1.144a8.785,8.785,0,0,0-3.508-1.363c-.293-.042-.588-.067-.884-.081a9.2,9.2,0,0,0-5.436,1.342,2.011,2.011,0,0,1-.5-.149,8.468,8.468,0,0,0-14.2,4.96c-.014.1-.017.2-.028.3A6.675,6.675,0,0,0,124.7,54.46l2.917,7.477,2.033,11.932L133.3,65.1h0a1,1,0,0,0,.178-.429l5.7-13.7a7.381,7.381,0,0,1,.94-.32,9.212,9.212,0,0,0,10.658,2.016,21.12,21.12,0,0,0,7.661-.132,10.63,10.63,0,0,0,5.863-3.568,8.272,8.272,0,0,0,1.917-3.949c.013-.083.024-.166.034-.249a7.331,7.331,0,0,0-4.16-7.124" transform="translate(-41.825 -11.803)" fill="#441b14"/>
              <path id="Trazado_999854" data-name="Trazado 999854" d="M151.807,61.55a9.211,9.211,0,0,1-10.659-2.016,7.263,7.263,0,0,0-4.756,3.879c-.9,1.951-.948,4.225-1.3,6.316-.163.964-.291,1.933-.459,2.9-.059.339-.061,1.081-.3,1.358-2.755,3.145,2.9-3.5-6.344-6.22a5.107,5.107,0,0,0,.072,10.175l1.212.1-.261,3.2a10.488,10.488,0,0,0-.427,1.384L124.775,99.45a10.423,10.423,0,1,0,20.332,4.6l2.1-9.268.536.044a8.98,8.98,0,0,0,9.678-8.221l.049-.6h0l.435-5.341,1.567-19.243a21.12,21.12,0,0,1-7.661.132" transform="translate(-42.859 -20.683)" fill="#fec29e"/>
              <g id="Grupo_1180045" data-name="Grupo 1180045" transform="translate(85.874 57.694)" opacity="0.46">
                <g id="Grupo_1180044" data-name="Grupo 1180044">
                  <g id="Grupo_1180043" data-name="Grupo 1180043" clip-path="url(#clip-path-17)">
                    <path id="Trazado_999855" data-name="Trazado 999855" d="M151.359,103.653l-10.311-.839a8.32,8.32,0,0,1-7.618-8.968l.436-5.358-1.763-.076-.48,5.895a8.98,8.98,0,0,0,6.486,9.362l-.305-.013,10.1,9.684,1.933-8.542.767.063a8.979,8.979,0,0,0,9.678-8.221l.05-.6a8.321,8.321,0,0,1-8.968,7.618" transform="translate(-131.592 -88.41)" fill="#fb8e77"/>
                  </g>
                </g>
              </g>
              <path id="Trazado_999856" data-name="Trazado 999856" d="M158.009,81.713a.835.835,0,1,1-.765-.9.836.836,0,0,1,.765.9" transform="translate(-54.317 -28.076)" fill="#441b14"/>
              <path id="Trazado_999857" data-name="Trazado 999857" d="M170.721,82.429a.835.835,0,1,1-.765-.9.836.836,0,0,1,.765.9" transform="translate(-58.733 -28.324)" fill="#441b14"/>
              <path id="Trazado_999858" data-name="Trazado 999858" d="M157.42,94.11a.332.332,0,0,1-.1-.016c-2.251-.744-3.69-1.755-4.278-3.006a2.533,2.533,0,0,1-.167-1.9.326.326,0,0,1,.609.236,1.9,1.9,0,0,0,.159,1.4c.355.737,1.317,1.795,3.882,2.642a.326.326,0,0,1-.1.636" transform="translate(-53.074 -30.915)" fill="#fb8e77"/>
              <path id="Trazado_999859" data-name="Trazado 999859" d="M163,86.454a6.6,6.6,0,0,1-1.447-.175.327.327,0,0,1,.144-.637,5.773,5.773,0,0,0,1.421.158,2.086,2.086,0,0,0,1.613-.835,2.163,2.163,0,0,0,.377-1.846l-1.7-6.759a.327.327,0,0,1,.634-.159l1.7,6.759a2.815,2.815,0,0,1-.49,2.4,2.739,2.739,0,0,1-2.116,1.093H163" transform="translate(-56.037 -26.388)" fill="#fb8e77"/>
              <path id="Trazado_999860" data-name="Trazado 999860" d="M158.881,105.031a.325.325,0,0,1-.279-.157,1.931,1.931,0,0,0-2.008-.826.326.326,0,0,1-.142-.637,2.571,2.571,0,0,1,2.707,1.124.326.326,0,0,1-.109.448.321.321,0,0,1-.17.048" transform="translate(-54.267 -35.909)" fill="#fb8e77"/>
              <path id="Trazado_999861" data-name="Trazado 999861" d="M150.474,75.37a3.217,3.217,0,0,0,1.328-.1c.463-.1.932-.185,1.341-.247s.884-.116,1.356-.159a3.182,3.182,0,0,0,1.3-.292c.33-.2.409-.649-.087-1.111a3.673,3.673,0,0,0-2.933-.653,3.564,3.564,0,0,0-2.579,1.48c-.321.585-.1.987.277,1.083" transform="translate(-52.128 -25.277)" fill="#441b14"/>
              <path id="Trazado_999862" data-name="Trazado 999862" d="M173.453,76.269a2.4,2.4,0,0,1-.964-.249c-.328-.134-.661-.259-.955-.358s-.635-.2-.977-.3a2.377,2.377,0,0,1-.916-.386c-.215-.192-.215-.532.211-.807a2.749,2.749,0,0,1,2.244-.093,2.663,2.663,0,0,1,1.7,1.429c.159.472-.055.74-.347.76" transform="translate(-58.888 -25.673)" fill="#441b14"/>
              <path id="Trazado_999863" data-name="Trazado 999863" d="M128.317,80.374a.326.326,0,0,1-.111-.633l1.455-.526-.94-2.5a.326.326,0,0,1,.611-.229L130.5,79.6l-2.076.75a.313.313,0,0,1-.111.02" transform="translate(-44.467 -26.499)" fill="#fb8e77"/>
            </g>
          </g>
        </g>
      </g>
    </g>
  </g>
</svg>
