<svg xmlns="http://www.w3.org/2000/svg" xmlns:xlink="http://www.w3.org/1999/xlink" width="150.007" height="150.007" viewBox="0 0 150.007 150.007">
  <defs>
    <clipPath id="clip-path">
      <rect id="Rectángulo_455533" data-name="Rectángulo 455533" width="150.007" height="143.885" fill="#19538d"/>
    </clipPath>
  </defs>
  <g id="Grupo_1180134" data-name="Grupo 1180134" transform="translate(0.256 -0.228)">
    <ellipse id="Elipse_13674" data-name="Elipse 13674" cx="64.003" cy="64.003" rx="64.003" ry="64.003" transform="translate(10.705 11.228)" fill="#fff"/>
    <g id="Grupo_1179062" data-name="Grupo 1179062" transform="translate(-0.256 0.228)">
      <rect id="Rectángulo_455531" data-name="Rectángulo 455531" width="150.007" height="150.007" transform="translate(0 0)" fill="none"/>
      <g id="Grupo_1179061" data-name="Grupo 1179061" transform="translate(0 3.517)">
        <path id="Trazado_998445" data-name="Trazado 998445" d="M125.037,98.51H96.727l3.837-7.156h28.309Z" transform="translate(16.631 15.706)" fill="#62249e"/>
        <path id="Trazado_998446" data-name="Trazado 998446" d="M2.327,86.893,0,91.629H31.211l2.327-4.736Z" transform="translate(0 14.939)" fill="#19538d"/>
        <path id="Trazado_998447" data-name="Trazado 998447" d="M128.7,33.274H98.809l2.344-5.308h29.89Z" transform="translate(16.989 4.808)" fill="#19538d"/>
        <path id="Trazado_998448" data-name="Trazado 998448" d="M42.749,13.528H3.483L5.827,8.221H45.092Z" transform="translate(0.599 1.413)" fill="#19538d"/>
        <g id="Grupo_1179060" data-name="Grupo 1179060" transform="translate(0)">
          <g id="Grupo_1179059" data-name="Grupo 1179059" clip-path="url(#clip-path)">
            <path id="Trazado_998449" data-name="Trazado 998449" d="M74.554,127.147A63.648,63.648,0,0,1,12.5,49.237H4.028A71.937,71.937,0,0,0,130.587,108.58h-11.1a63.465,63.465,0,0,1-44.935,18.567" transform="translate(0.449 8.465)" fill="#19538d"/>
            <path id="Trazado_998450" data-name="Trazado 998450" d="M110.835,89.59h9.414c.756-1.5,1.443-3.048,2.094-4.61h-9.051c-.761,1.573-1.575,3.113-2.458,4.61" transform="translate(19.056 14.611)" fill="#19538d"/>
            <path id="Trazado_998451" data-name="Trazado 998451" d="M146.022,71.942A71.954,71.954,0,0,0,5.373,50.547h8.733a63.671,63.671,0,1,1,119.046,45.14h8.82a71.625,71.625,0,0,0,4.05-23.744" transform="translate(0.924)" fill="#19538d"/>
            <path id="Trazado_998452" data-name="Trazado 998452" d="M108.562,81.649v3.9h5.121q.928-1.918,1.729-3.9Z" transform="translate(18.665 14.038)" fill="#19538d"/>
            <path id="Trazado_998453" data-name="Trazado 998453" d="M129.263,81.649h-7.111q-.694,1.979-1.5,3.9h8.608Z" transform="translate(20.744 14.038)" fill="#19538d"/>
          </g>
        </g>
        <path id="Trazado_998444" data-name="Trazado 998444" d="M3.515,37.025,0,44.181H21.251l3.516-7.156Z" transform="translate(0 6.366)" fill="#62249e"/>
      </g>
    </g>
    <g id="Grupo_1180135" data-name="Grupo 1180135" transform="translate(34.744 34.227)">
      <g id="Grupo_1099618" data-name="Grupo 1099618" transform="translate(0 0)">
        <rect id="Rectángulo_401104" data-name="Rectángulo 401104" width="79.902" height="80.865" transform="translate(0)" fill="none"/>
      </g>
      <g id="conversacion" transform="translate(1.777 2.396)">
        <g id="Grupo_1180118" data-name="Grupo 1180118" transform="translate(0 26.018)">
          <g id="Grupo_1180117" data-name="Grupo 1180117">
            <path id="Trazado_1000154" data-name="Trazado 1000154" d="M51.738,195.682a1.5,1.5,0,0,0-1.5,1.5v10.318a7.485,7.485,0,0,1-7.477,7.477H26.621a1.5,1.5,0,0,0-1.5,1.494l0,2.973-3.569-3.569a1.5,1.5,0,0,0-1.371-.9H10.467a7.485,7.485,0,0,1-7.477-7.477V184.467a7.485,7.485,0,0,1,7.477-7.477h15.1a1.5,1.5,0,0,0,0-2.991h-15.1A10.479,10.479,0,0,0,0,184.467v23.028a10.479,10.479,0,0,0,10.467,10.467h8.951l6.141,6.141a1.5,1.5,0,0,0,2.553-1.056l0-5.085h14.65a10.479,10.479,0,0,0,10.467-10.467V197.177A1.5,1.5,0,0,0,51.738,195.682Z" transform="translate(0 -174)" fill="#19538d"/>
          </g>
        </g>
        <g id="Grupo_1180120" data-name="Grupo 1180120" transform="translate(29.308)">
          <g id="Grupo_1180119" data-name="Grupo 1180119">
            <path id="Trazado_1000155" data-name="Trazado 1000155" d="M221.518,0h-3.784a21.734,21.734,0,1,0,0,43.467h3.784a21.775,21.775,0,0,0,5.516-.707l5.59,5.587a1.5,1.5,0,0,0,2.552-1.058V38.639A21.942,21.942,0,0,0,240.89,31.6a21.5,21.5,0,0,0,2.362-9.862A21.758,21.758,0,0,0,221.518,0Zm11.264,36.715a1.5,1.5,0,0,0-.6,1.194v5.772l-3.659-3.657a1.494,1.494,0,0,0-1.5-.372,18.748,18.748,0,0,1-5.513.824h-3.784a18.743,18.743,0,1,1,0-37.486h3.784a18.743,18.743,0,0,1,11.264,33.724Z" transform="translate(-196)" fill="#19538d"/>
          </g>
        </g>
        <g id="Grupo_1180122" data-name="Grupo 1180122" transform="translate(47.022 10.477)">
          <g id="Grupo_1180121" data-name="Grupo 1180121">
            <path id="Trazado_1000156" data-name="Trazado 1000156" d="M327.108,75.948a6.345,6.345,0,0,0-5.87-5.87,6.282,6.282,0,0,0-4.764,1.687,6.353,6.353,0,0,0-2.012,4.629,1.5,1.5,0,1,0,2.991,0,3.34,3.34,0,0,1,3.58-3.332,3.341,3.341,0,0,1,.494,6.591,2.83,2.83,0,0,0-2.229,2.774V86.02a1.5,1.5,0,1,0,2.99,0V82.547A6.3,6.3,0,0,0,327.108,75.948Z" transform="translate(-314.462 -70.063)" fill="#19538d"/>
          </g>
        </g>
        <g id="Grupo_1180124" data-name="Grupo 1180124" transform="translate(51.857 30.853)">
          <g id="Grupo_1180123" data-name="Grupo 1180123">
            <path id="Trazado_1000157" data-name="Trazado 1000157" d="M349.352,206.768a1.5,1.5,0,1,0,.438,1.057A1.507,1.507,0,0,0,349.352,206.768Z" transform="translate(-346.8 -206.33)" fill="#19538d"/>
          </g>
        </g>
        <g id="Grupo_1180126" data-name="Grupo 1180126" transform="translate(8.075 46.354)">
          <g id="Grupo_1180125" data-name="Grupo 1180125">
            <path id="Trazado_1000158" data-name="Trazado 1000158" d="M87.046,310H55.5a1.5,1.5,0,1,0,0,2.991H87.046a1.5,1.5,0,1,0,0-2.991Z" transform="translate(-54 -310)" fill="#19538d"/>
          </g>
        </g>
        <g id="Grupo_1180128" data-name="Grupo 1180128" transform="translate(39.626 54.728)">
          <g id="Grupo_1180127" data-name="Grupo 1180127">
            <path id="Trazado_1000159" data-name="Trazado 1000159" d="M267.552,366.438a1.494,1.494,0,1,0,.438,1.057A1.506,1.506,0,0,0,267.552,366.438Z" transform="translate(-265 -366)" fill="#19538d"/>
          </g>
        </g>
        <g id="Grupo_1180130" data-name="Grupo 1180130" transform="translate(8.075 54.728)">
          <g id="Grupo_1180129" data-name="Grupo 1180129">
            <path id="Trazado_1000160" data-name="Trazado 1000160" d="M81.165,366H55.5a1.5,1.5,0,1,0,0,2.991H81.165a1.5,1.5,0,1,0,0-2.991Z" transform="translate(-54 -366)" fill="#19538d"/>
          </g>
        </g>
        <g id="Grupo_1180132" data-name="Grupo 1180132" transform="translate(8.075 37.981)">
          <g id="Grupo_1180131" data-name="Grupo 1180131">
            <path id="Trazado_1000161" data-name="Trazado 1000161" d="M77.327,254H55.5a1.5,1.5,0,1,0,0,2.991H77.327a1.5,1.5,0,1,0,0-2.991Z" transform="translate(-54 -254)" fill="#19538d"/>
          </g>
        </g>
      </g>
    </g>
  </g>
</svg>
