<svg xmlns="http://www.w3.org/2000/svg" xmlns:xlink="http://www.w3.org/1999/xlink" width="96" height="96" viewBox="0 0 96 96">
  <defs>
    <clipPath id="clip-path">
      <rect id="Rectángulo_455533" data-name="Rectángulo 455533" width="95.999" height="92.163" fill="#19538d"/>
    </clipPath>
  </defs>
  <g id="Grupo_1179954" data-name="Grupo 1179954" transform="translate(-383.746 -8399)">
    <circle id="Elipse_13674" data-name="Elipse 13674" cx="41.5" cy="41.5" r="41.5" transform="translate(389.746 8406)" fill="#19538d"/>
    <g id="Grupo_1179062" data-name="Grupo 1179062" transform="translate(383.745 8399)">
      <rect id="Rectángulo_455531" data-name="Rectángulo 455531" width="96" height="96" transform="translate(0 0)" fill="none"/>
      <g id="Grupo_1179061" data-name="Grupo 1179061" transform="translate(0 2.203)">
        <path id="Trazado_998445" data-name="Trazado 998445" d="M114.467,95.838H96.727l2.4-4.484h17.739Z" transform="translate(-23.693 -22.7)" fill="#19538d"/>
        <path id="Trazado_998446" data-name="Trazado 998446" d="M1.458,86.893,0,89.861H19.558l1.458-2.968Z" transform="translate(0 -21.618)" fill="#19538d"/>
        <path id="Trazado_998447" data-name="Trazado 998447" d="M117.539,31.293H98.809l1.469-3.326h18.73Z" transform="translate(-24.246 -6.956)" fill="#19538d"/>
        <path id="Trazado_998448" data-name="Trazado 998448" d="M28.088,11.547H3.483L4.952,8.221H29.557Z" transform="translate(-0.925 -2.184)" fill="#19538d"/>
        <g id="Grupo_1179060" data-name="Grupo 1179060" transform="translate(0)">
          <g id="Grupo_1179059" data-name="Grupo 1179059" clip-path="url(#clip-path)">
            <path id="Trazado_998449" data-name="Trazado 998449" d="M48.653,99.141a40.772,40.772,0,0,1-39.711-49.9H3.518A46.036,46.036,0,0,0,84.512,87.248h-7.1A40.6,40.6,0,0,1,48.653,99.141" transform="translate(-0.653 -12.277)" fill="#19538d"/>
            <path id="Trazado_998450" data-name="Trazado 998450" d="M110.835,87.933h6.025c.484-.964.923-1.952,1.34-2.953h-5.792c-.487,1.007-1.008,1.994-1.573,2.953" transform="translate(-27.709 -21.189)" fill="#19538d"/>
            <path id="Trazado_998451" data-name="Trazado 998451" d="M95.384,46.081a46.043,46.043,0,0,0-90.011-13.7h5.589A40.752,40.752,0,1,1,87.147,61.291h5.644a45.915,45.915,0,0,0,2.592-15.209" transform="translate(-1.343)" fill="#19538d"/>
            <path id="Trazado_998452" data-name="Trazado 998452" d="M108.562,81.649v2.5h3.277q.594-1.228,1.106-2.5Z" transform="translate(-27.141 -20.358)" fill="#19538d"/>
            <path id="Trazado_998453" data-name="Trazado 998453" d="M126.164,81.649h-4.551q-.444,1.268-.958,2.5h5.509Z" transform="translate(-30.164 -20.358)" fill="#19538d"/>
          </g>
        </g>
        <path id="Trazado_998444" data-name="Trazado 998444" d="M2.2,37.025,0,41.509H13.317l2.2-4.484Z" transform="translate(0 -9.2)" fill="#19538d"/>
      </g>
    </g>
    <g id="Grupo_1177669" data-name="Grupo 1177669" transform="translate(403.444 8418.662)">
      <g id="Grupo_1099618" data-name="Grupo 1099618" transform="translate(0.267 0.338)">
        <rect id="Rectángulo_401104" data-name="Rectángulo 401104" width="56.349" height="57.028" transform="translate(0)" fill="none"/>
      </g>
      <g id="reunion" transform="translate(1.629 2.727)">
        <path id="Trazado_1000129" data-name="Trazado 1000129" d="M410.93,64.528a5.6,5.6,0,1,1,5.6-5.6A5.6,5.6,0,0,1,410.93,64.528Zm0-8.956a3.359,3.359,0,1,0,3.359,3.359A3.363,3.363,0,0,0,410.93,55.572Zm0,0" transform="translate(-362.788 -47.734)" fill="#fff"/>
        <path id="Trazado_1000130" data-name="Trazado 1000130" d="M319.94,201.485a1.118,1.118,0,0,1-1.119-1.119V185.811a2.241,2.241,0,0,0-2.239-2.239h-1.119c-.786,0-1.5.519-2.465,1.8-1.082,1.428-4.364,5.459-4.5,5.629a1.122,1.122,0,0,1-.869.412h-5.6a1.12,1.12,0,0,0-1.12,1.12v1.12h9.517l3.023-4.031a1.119,1.119,0,0,1,1.79,1.342l-3.359,4.478a1.115,1.115,0,0,1-.895.449h-11.2a1.118,1.118,0,0,1-1.119-1.12v-2.239a3.363,3.363,0,0,1,3.359-3.359h5.065c.882-1.086,3.26-4.019,4.118-5.153.946-1.25,2.283-2.684,4.252-2.684h1.119a4.483,4.483,0,0,1,4.478,4.478v14.555A1.118,1.118,0,0,1,319.94,201.485Zm0,0" transform="translate(-267.32 -162.3)" fill="#fff"/>
        <path id="Trazado_1000131" data-name="Trazado 1000131" d="M5.6,64.528a5.6,5.6,0,1,1,5.6-5.6A5.6,5.6,0,0,1,5.6,64.528Zm0-8.956A3.359,3.359,0,1,0,8.956,58.93,3.363,3.363,0,0,0,5.6,55.572Zm0,0" transform="translate(0 -47.734)" fill="#fff"/>
        <path id="Trazado_1000132" data-name="Trazado 1000132" d="M1.12,201.484A1.119,1.119,0,0,1,0,200.365V185.81a4.483,4.483,0,0,1,4.478-4.478H5.6c1.97,0,3.307,1.434,4.251,2.684.859,1.134,3.235,4.067,4.118,5.153h5.066a3.363,3.363,0,0,1,3.359,3.359v2.239a1.119,1.119,0,0,1-1.119,1.12h-11.2a1.12,1.12,0,0,1-.9-.448L5.822,190.96a1.119,1.119,0,0,1,1.792-1.342l3.023,4.029h9.517v-1.12a1.121,1.121,0,0,0-1.12-1.12h-5.6a1.117,1.117,0,0,1-.868-.412c-.139-.17-3.423-4.2-4.5-5.63-.965-1.275-1.679-1.795-2.467-1.795H4.478a2.241,2.241,0,0,0-2.239,2.239v14.555a1.119,1.119,0,0,1-1.119,1.119Zm0,0" transform="translate(0 -162.299)" fill="#fff"/>
        <path id="Trazado_1000133" data-name="Trazado 1000133" d="M217.81,8.956a4.478,4.478,0,1,1,4.478-4.478A4.483,4.483,0,0,1,217.81,8.956Zm0-6.717a2.239,2.239,0,1,0,2.239,2.239A2.241,2.241,0,0,0,217.81,2.239Zm0,0" transform="translate(-190.941 0)" fill="#fff"/>
        <path id="Trazado_1000134" data-name="Trazado 1000134" d="M195.887,115.624a1.119,1.119,0,0,1-1.12-1.12v-2.239a3.36,3.36,0,0,0-3.359-3.359H186.93a3.36,3.36,0,0,0-3.359,3.359V114.5a1.12,1.12,0,0,1-2.239,0v-2.239a5.6,5.6,0,0,1,5.6-5.6h4.478a5.6,5.6,0,0,1,5.6,5.6V114.5a1.119,1.119,0,0,1-1.12,1.12Zm0,0" transform="translate(-162.299 -95.472)" fill="#fff"/>
        <path id="Trazado_1000135" data-name="Trazado 1000135" d="M245.332,352h2.239v2.239h-2.239Zm0,0" transform="translate(-219.582 -315.054)" fill="#fff"/>
        <path id="Trazado_1000136" data-name="Trazado 1000136" d="M202.668,352h2.239v2.239h-2.239Zm0,0" transform="translate(-181.396 -315.054)" fill="#fff"/>
        <path id="Trazado_1000137" data-name="Trazado 1000137" d="M288,352h2.239v2.239H288Zm0,0" transform="translate(-257.771 -315.054)" fill="#fff"/>
        <path id="Trazado_1000138" data-name="Trazado 1000138" d="M69.474,310.335H22.452a1.12,1.12,0,0,1-1.12-1.12v-2.239a1.109,1.109,0,0,1,.148-.555l4.478-7.837a1.119,1.119,0,0,1,1.944,1.111l-4.33,7.579v.822H68.354v-.834l-6.223-11.415a1.119,1.119,0,0,1,1.965-1.071l6.359,11.666a1.1,1.1,0,0,1,.138.535v2.239a1.119,1.119,0,0,1-1.12,1.12Zm0,0" transform="translate(-19.093 -263.313)" fill="#fff"/>
        <path id="Trazado_1000139" data-name="Trazado 1000139" d="M318.087,180.738a1.119,1.119,0,0,1-1.03-.675l-3.911-7.156h-2.695a1.12,1.12,0,1,1,0-2.239h3.359a1.123,1.123,0,0,1,.983.583l4.277,7.826a1.124,1.124,0,0,1-.983,1.661Zm0,0" transform="translate(-276.864 -152.754)" fill="#fff"/>
        <path id="Trazado_1000140" data-name="Trazado 1000140" d="M109.7,180.744a1.12,1.12,0,0,1-.982-1.656l4.277-7.837a1.121,1.121,0,0,1,.983-.583h12.315a1.12,1.12,0,1,1,0,2.239h-11.65l-3.959,7.254a1.12,1.12,0,0,1-.984.583Zm0,0" transform="translate(-97.183 -152.755)" fill="#fff"/>
        <path id="Trazado_1000141" data-name="Trazado 1000141" d="M417.12,433.385a1.119,1.119,0,0,1-1.12-1.12v-4.478a1.12,1.12,0,0,1,2.239,0v4.478A1.118,1.118,0,0,1,417.12,433.385Zm0,0" transform="translate(-372.336 -381.885)" fill="#fff"/>
        <path id="Trazado_1000142" data-name="Trazado 1000142" d="M75.787,433.385a1.119,1.119,0,0,1-1.119-1.12v-4.478a1.12,1.12,0,0,1,2.239,0v4.478A1.119,1.119,0,0,1,75.787,433.385Zm0,0" transform="translate(-66.831 -381.885)" fill="#fff"/>
      </g>
    </g>
  </g>
</svg>
