<svg xmlns="http://www.w3.org/2000/svg" xmlns:xlink="http://www.w3.org/1999/xlink" width="129" height="127" viewBox="0 0 129 127">
  <defs>
    <clipPath id="clip-path">
      <rect id="Rectángulo_454807" data-name="Rectángulo 454807" width="129" height="127" transform="translate(399.059 5904)" fill="#9ecfff"/>
    </clipPath>
  </defs>
  <g id="Grupo_1182471" data-name="Grupo 1182471" transform="translate(-404.711 -2531.854)">
    <g id="Grupo_1180255" data-name="Grupo 1180255" transform="translate(5.652 -2168.146)">
      <g id="Grupo_1177492" data-name="Grupo 1177492" transform="translate(0 -1204)">
        <rect id="Rectángulo_454806" data-name="Rectángulo 454806" width="129" height="127" transform="translate(399.059 5904)" fill="#9ecfff"/>
        <path id="Rectángulo_454808" data-name="Rectángulo 454808" d="M0,0H79A12,12,0,0,1,91,12V91a0,0,0,0,1,0,0H12A12,12,0,0,1,0,79V0A0,0,0,0,1,0,0Z" transform="translate(418.059 5922)" fill="#fff"/>
        <g id="Grupo_1177491" data-name="Grupo 1177491" transform="translate(13.443 -2497.801)">
          <g id="Grupo_1099776" data-name="Grupo 1099776" transform="translate(412.387 8428.781)">
            <g id="Grupo_1099618" data-name="Grupo 1099618" transform="translate(0 0)">
              <rect id="Rectángulo_401104" data-name="Rectángulo 401104" width="72.17" height="73.039" transform="translate(0)" fill="none"/>
            </g>
            <g id="conversacion_2_" data-name="conversacion (2)" transform="translate(2.766 4.828)">
              <g id="Grupo_1182244" data-name="Grupo 1182244" transform="translate(0 28.578)">
                <g id="Grupo_1182243" data-name="Grupo 1182243">
                  <path id="Trazado_1002749" data-name="Trazado 1002749" d="M23.383,240.718a1.287,1.287,0,0,0-.284-.047,8.223,8.223,0,0,0,2.278-5.684v-6.77a1.3,1.3,0,0,0-.014-.182c.008-.122.014-.245.014-.37v-4.283a1.287,1.287,0,0,0-1.287-1.287H15.459a6.6,6.6,0,0,0-6.591,6.591v6.3a8.223,8.223,0,0,0,2.278,5.684,1.285,1.285,0,0,0-.284.047A11.963,11.963,0,0,0,0,252.616v5.5A1.287,1.287,0,0,0,1.287,259.4h31.67a1.287,1.287,0,0,0,1.287-1.287v-5.5A11.963,11.963,0,0,0,23.383,240.718Zm-11.942-10.4v-1.632a4.022,4.022,0,0,1,4.018-4.018H22.8v3a2.739,2.739,0,0,1-2.736,2.736H11.441Zm0,2.656h8.626a5.275,5.275,0,0,0,2.736-.761v2.773a5.681,5.681,0,1,1-11.361,0Zm8.481,10.266-2.8,2.8-2.8-2.8ZM31.67,256.827H2.573v-2.573h5.34a1.287,1.287,0,0,0,0-2.574H2.62a9.39,9.39,0,0,1,8.139-8.36l5.452,5.452a1.287,1.287,0,0,0,1.82,0l5.452-5.452a9.386,9.386,0,0,1,8.186,9.3Z" transform="translate(0 -222.097)" fill="#19538d"/>
                </g>
              </g>
              <g id="Grupo_1182246" data-name="Grupo 1182246" transform="translate(31.637)">
                <g id="Grupo_1182245" data-name="Grupo 1182245">
                  <path id="Trazado_1002750" data-name="Trazado 1002750" d="M269.255,18.622a1.288,1.288,0,0,0-.284-.047,8.223,8.223,0,0,0,2.277-5.684V6.121a1.3,1.3,0,0,0-.014-.182c.008-.122.014-.245.014-.37V1.287A1.287,1.287,0,0,0,269.961,0h-8.631a6.6,6.6,0,0,0-6.591,6.591v6.3a8.223,8.223,0,0,0,2.277,5.684,1.289,1.289,0,0,0-.284.047,11.963,11.963,0,0,0-10.861,11.9v5.5a1.287,1.287,0,0,0,1.287,1.287h10.353a1.287,1.287,0,0,0,0-2.573h-9.066v-4.21a9.386,9.386,0,0,1,8.186-9.3l5.452,5.452a1.287,1.287,0,0,0,1.82,0l5.452-5.452a9.386,9.386,0,0,1,8.186,9.3V34.73h-9.479a1.287,1.287,0,0,0,0,2.573h10.766a1.287,1.287,0,0,0,1.287-1.287v-5.5A11.963,11.963,0,0,0,269.255,18.622Zm-6.261,5.324-2.8-2.8h5.6Zm5.681-11.055a5.681,5.681,0,0,1-11.361,0V10.879h8.626a5.277,5.277,0,0,0,2.736-.761Zm0-7.321a2.739,2.739,0,0,1-2.736,2.736h-8.626V6.591a4.022,4.022,0,0,1,4.018-4.018h7.344Z" transform="translate(-245.872)" fill="#19538d"/>
                </g>
              </g>
              <g id="Grupo_1182248" data-name="Grupo 1182248" transform="translate(47.473 34.729)">
                <g id="Grupo_1182247" data-name="Grupo 1182247">
                  <path id="Trazado_1002751" data-name="Trazado 1002751" d="M371.136,270.277a1.286,1.286,0,1,0,.377.91A1.3,1.3,0,0,0,371.136,270.277Z" transform="translate(-368.94 -269.9)" fill="#19538d"/>
                </g>
              </g>
              <g id="Grupo_1182250" data-name="Grupo 1182250">
                <g id="Grupo_1182249" data-name="Grupo 1182249">
                  <path id="Trazado_1002752" data-name="Trazado 1002752" d="M34.408,18.005l-5.381-5.381V6.434A6.441,6.441,0,0,0,22.593,0H6.434A6.441,6.441,0,0,0,0,6.434V17.757a6.441,6.441,0,0,0,6.434,6.434H22.593A6.4,6.4,0,0,0,28.546,20.2H33.5a1.287,1.287,0,0,0,.91-2.2Zm-6.8-.377a1.287,1.287,0,0,0-1.254,1,3.839,3.839,0,0,1-3.761,2.991H6.434a3.865,3.865,0,0,1-3.86-3.86V6.434a3.865,3.865,0,0,1,3.86-3.86H22.593a3.865,3.865,0,0,1,3.86,3.86v6.723a1.287,1.287,0,0,0,.377.91l3.562,3.562Z" fill="#19538d"/>
                </g>
              </g>
              <g id="Grupo_1182252" data-name="Grupo 1182252" transform="translate(31.096 41.691)">
                <g id="Grupo_1182251" data-name="Grupo 1182251">
                  <path id="Trazado_1002753" data-name="Trazado 1002753" d="M270.018,324H253.858a6.4,6.4,0,0,0-5.953,3.989h-4.952a1.287,1.287,0,0,0-.91,2.2l5.381,5.381v6.19a6.441,6.441,0,0,0,6.434,6.434h16.159a6.441,6.441,0,0,0,6.434-6.434V330.434A6.441,6.441,0,0,0,270.018,324Zm3.86,17.757a3.865,3.865,0,0,1-3.86,3.86H253.858a3.865,3.865,0,0,1-3.86-3.86v-6.723a1.287,1.287,0,0,0-.377-.91l-3.562-3.562h2.784a1.287,1.287,0,0,0,1.254-1,3.839,3.839,0,0,1,3.761-2.991h16.159a3.865,3.865,0,0,1,3.86,3.86Z" transform="translate(-241.666 -324)" fill="#19538d"/>
                </g>
              </g>
              <g id="Grupo_1182254" data-name="Grupo 1182254" transform="translate(48.124 49.985)">
                <g id="Grupo_1182253" data-name="Grupo 1182253">
                  <path id="Trazado_1002754" data-name="Trazado 1002754" d="M383.027,388.84a1.287,1.287,0,0,0-1.82,0l-3.421,3.421L376.2,390.67a1.287,1.287,0,0,0-1.82,1.82l2.5,2.5a1.287,1.287,0,0,0,1.82,0l4.33-4.33A1.287,1.287,0,0,0,383.027,388.84Z" transform="translate(-373.999 -388.463)" fill="#19538d"/>
                </g>
              </g>
              <g id="Grupo_1182260" data-name="Grupo 1182260" transform="translate(11.774 58.161)">
                <g id="Grupo_1182259" data-name="Grupo 1182259">
                  <path id="Trazado_1002757" data-name="Trazado 1002757" d="M93.7,452.377a1.286,1.286,0,1,0,.377.91A1.3,1.3,0,0,0,93.7,452.377Z" transform="translate(-91.5 -452)" fill="#19538d"/>
                </g>
              </g>
              <rect id="Rectángulo_458251" data-name="Rectángulo 458251" width="17" height="4" transform="translate(6.208 6.338)" fill="#19538d"/>
              <rect id="Rectángulo_458252" data-name="Rectángulo 458252" width="17" height="4" transform="translate(6.208 13.338)" fill="#19538d"/>
            </g>
          </g>
        </g>
      </g>
      <path id="Trazado_998457" data-name="Trazado 998457" d="M21.193,13.724H3.483l2.43-5.5h17.71Z" transform="translate(406.088 4714.021)" fill="#fff"/>
      <path id="Trazado_998459" data-name="Trazado 998459" d="M21.193,13.724H3.483l2.43-5.5h17.71Z" transform="translate(497.088 4790.021)" fill="#fff"/>
      <path id="Trazado_998458" data-name="Trazado 998458" d="M21.193,13.724H3.483l2.43-5.5h17.71Z" transform="translate(401.088 4719.524)" fill="#9ecfff"/>
      <path id="Trazado_998461" data-name="Trazado 998461" d="M18.607,11.366H3.483L4.872,8.221H20Z" transform="translate(494.518 4795.524)" fill="#9ecfff"/>
      <path id="Trazado_998462" data-name="Trazado 998462" d="M18.607,11.366H3.483L4.872,8.221H20Z" transform="translate(497.088 4734.779)" fill="#9ecfff"/>
      <path id="Trazado_998463" data-name="Trazado 998463" d="M18.607,11.366H3.483L4.872,8.221H20Z" transform="translate(402.902 4780.779)" fill="#9ecfff"/>
    </g>
  </g>
</svg>
