<svg xmlns="http://www.w3.org/2000/svg" xmlns:xlink="http://www.w3.org/1999/xlink" width="150" height="150" viewBox="0 0 150 150">
  <defs>
    <clipPath id="clip-path">
      <rect id="Rectángulo_455533" data-name="Rectángulo 455533" width="150" height="143.878" fill="#19538d"/>
    </clipPath>
  </defs>
  <g id="Grupo_1180076" data-name="Grupo 1180076" transform="translate(-383.746 -8398.999)">
    <circle id="Elipse_13674" data-name="Elipse 13674" cx="64" cy="64" r="64" transform="translate(394.746 8410.999)" fill="#fff"/>
    <g id="Grupo_1179062" data-name="Grupo 1179062" transform="translate(383.746 8399)">
      <rect id="Rectángulo_455531" data-name="Rectángulo 455531" width="150" height="150" transform="translate(0 -0.001)" fill="none"/>
      <g id="Grupo_1179061" data-name="Grupo 1179061" transform="translate(0 3.516)">
        <path id="Trazado_998445" data-name="Trazado 998445" d="M125.035,98.509H96.727l3.837-7.155h28.308Z" transform="translate(16.625 15.701)" fill="#62249e"/>
        <path id="Trazado_998446" data-name="Trazado 998446" d="M2.327,86.893,0,91.629H31.21l2.327-4.736Z" transform="translate(0 14.935)" fill="#19538d"/>
        <path id="Trazado_998447" data-name="Trazado 998447" d="M128.7,33.274H98.809l2.344-5.307h29.889Z" transform="translate(16.983 4.807)" fill="#19538d"/>
        <path id="Trazado_998448" data-name="Trazado 998448" d="M42.747,13.528H3.483L5.827,8.221H45.09Z" transform="translate(0.599 1.413)" fill="#19538d"/>
        <g id="Grupo_1179060" data-name="Grupo 1179060" transform="translate(0)">
          <g id="Grupo_1179059" data-name="Grupo 1179059" clip-path="url(#clip-path)">
            <path id="Trazado_998449" data-name="Trazado 998449" d="M74.551,127.143A63.645,63.645,0,0,1,12.5,49.237H4.028a71.934,71.934,0,0,0,126.553,59.34h-11.1a63.462,63.462,0,0,1-44.933,18.566" transform="translate(0.449 8.463)" fill="#19538d"/>
            <path id="Trazado_998450" data-name="Trazado 998450" d="M110.835,89.59h9.414c.756-1.5,1.443-3.048,2.094-4.61h-9.05c-.761,1.573-1.575,3.112-2.457,4.61" transform="translate(19.05 14.606)" fill="#19538d"/>
            <path id="Trazado_998451" data-name="Trazado 998451" d="M146.016,71.939A71.95,71.95,0,0,0,5.373,50.544h8.733a63.668,63.668,0,1,1,119.04,45.138h8.82a71.622,71.622,0,0,0,4.05-23.743" transform="translate(0.923)" fill="#19538d"/>
            <path id="Trazado_998452" data-name="Trazado 998452" d="M108.562,81.649v3.9h5.121q.928-1.918,1.729-3.9Z" transform="translate(18.659 14.033)" fill="#19538d"/>
            <path id="Trazado_998453" data-name="Trazado 998453" d="M129.262,81.649h-7.111q-.694,1.979-1.5,3.9h8.607Z" transform="translate(20.738 14.033)" fill="#19538d"/>
          </g>
        </g>
        <path id="Trazado_998444" data-name="Trazado 998444" d="M3.515,37.025,0,44.18H21.25l3.516-7.155Z" transform="translate(0 6.364)" fill="#62249e"/>
      </g>
    </g>
    <g id="telefono-inteligente_1_" data-name="telefono-inteligente (1)" transform="matrix(1, -0.017, 0.017, 1, 420.391, 8435.344)">
      <path id="Trazado_1000085" data-name="Trazado 1000085" d="M247.176,419.022A3.225,3.225,0,1,0,250.4,415.8,3.229,3.229,0,0,0,247.176,419.022Zm4.063,0a.838.838,0,1,1-.838-.839A.839.839,0,0,1,251.239,419.022Zm0,0" transform="translate(-208.444 -350.641)" fill="#19538d"/>
      <path id="Trazado_1000086" data-name="Trazado 1000086" d="M238.19,33.308a1.193,1.193,0,1,0,0-2.387H227.627a1.193,1.193,0,1,0,0,2.387Zm0,0" transform="translate(-190.952 -26.076)" fill="#19538d"/>
      <path id="Trazado_1000087" data-name="Trazado 1000087" d="M202.544,33.3a1.192,1.192,0,1,0-.717-1.322,1.2,1.2,0,0,0,.717,1.322Zm0,0" transform="translate(-170.184 -26.163)" fill="#19538d"/>
      <path id="Trazado_1000088" data-name="Trazado 1000088" d="M181.082,117.388V73.2a4.687,4.687,0,0,0-4.682-4.682H146.2a4.687,4.687,0,0,0-4.682,4.682v44.191a4.687,4.687,0,0,0,4.682,4.682h30.2A4.687,4.687,0,0,0,181.082,117.388Zm-37.176,0V73.2a2.3,2.3,0,0,1,2.3-2.3h30.2a2.3,2.3,0,0,1,2.3,2.3v44.191a2.3,2.3,0,0,1-2.3,2.3H146.2A2.3,2.3,0,0,1,143.906,117.388Zm0,0" transform="translate(-119.343 -57.778)" fill="#19538d"/>
      <path id="Trazado_1000089" data-name="Trazado 1000089" d="M71.642,34.314A7.146,7.146,0,0,0,65.7,27.28V22.357a7.134,7.134,0,0,0,0-14.067V5.869A5.875,5.875,0,0,0,59.831,0H24.084a5.876,5.876,0,0,0-5.869,5.869V25.278A7.624,7.624,0,0,0,4.573,31.807a13.6,13.6,0,0,1-.761,10.411C3.458,42.839-.6,50.16.074,58.064a1.193,1.193,0,0,0,1.187,1.093c.034,0,.068,0,.1,0a1.193,1.193,0,0,0,1.088-1.29C1.831,50.537,5.856,43.45,5.9,43.38c.012-.02.023-.04.033-.06a15.967,15.967,0,0,0,.91-12.261,5.236,5.236,0,1,1,9.944-3.282,26.363,26.363,0,0,1-1.5,20.254A1.193,1.193,0,0,0,17.415,49.1c.287-.569.552-1.145.8-1.727V68.546a5.876,5.876,0,0,0,5.87,5.87H38.9A20.945,20.945,0,0,1,26.009,77.8c-9.631-.66-18.592-6.66-22.3-14.931a1.193,1.193,0,1,0-2.178.976C5.59,72.893,15.361,79.458,25.847,80.177q.8.054,1.59.054A23.467,23.467,0,0,0,42.5,74.721l.367-.306H59.831A5.875,5.875,0,0,0,65.7,68.546V62.009a1.193,1.193,0,0,0-2.387,0v6.536a3.486,3.486,0,0,1-3.482,3.483H24.084A3.486,3.486,0,0,1,20.6,68.546V5.869a3.486,3.486,0,0,1,3.483-3.482H59.831a3.486,3.486,0,0,1,3.482,3.482V57.236a1.193,1.193,0,1,0,2.387,0V53.231a7.131,7.131,0,0,0,2.751-12.975,7.135,7.135,0,0,0,3.19-5.942ZM69.255,15.323a4.756,4.756,0,0,1-3.555,4.6V10.727a4.757,4.757,0,0,1,3.555,4.6ZM65.7,50.795V41.6a4.749,4.749,0,0,1,0,9.193Zm0-11.883V29.717a4.75,4.75,0,0,1,0,9.194Zm0,0" transform="translate(0 0)" fill="#19538d"/>
      <path id="Trazado_1000090" data-name="Trazado 1000090" d="M194.4,160.428a23.069,23.069,0,0,0-32.624,0,1.193,1.193,0,0,0,0,1.688l3.375,3.375a1.193,1.193,0,0,0,1.688,0,15.909,15.909,0,0,1,22.5,0,1.194,1.194,0,0,0,1.688,0l3.375-3.375a1.192,1.192,0,0,0,0-1.687Zm-4.246,2.558a18.3,18.3,0,0,0-24.132,0l-1.691-1.691a20.687,20.687,0,0,1,27.514,0Zm0,0" transform="translate(-136.134 -129.591)" fill="#19538d"/>
      <path id="Trazado_1000091" data-name="Trazado 1000091" d="M208.365,214.59a15.014,15.014,0,0,0-10.687,4.426,1.193,1.193,0,0,0,0,1.688l3.375,3.375a1.193,1.193,0,0,0,1.688,0,7.954,7.954,0,0,1,11.249,0,1.193,1.193,0,0,0,1.688,0l3.375-3.375a1.193,1.193,0,0,0,0-1.688A15.014,15.014,0,0,0,208.365,214.59Zm6.42,7.006a10.348,10.348,0,0,0-12.841,0l-1.7-1.7a12.732,12.732,0,0,1,16.234,0Zm0,0" transform="translate(-166.407 -180.963)" fill="#19538d"/>
      <path id="Trazado_1000092" data-name="Trazado 1000092" d="M247.741,275.52a7.357,7.357,0,0,0-.944,0,3.561,3.561,0,0,0-2.286,6.073l.034.034a3.626,3.626,0,0,0,2.722,1.037c.054,0,.108,0,.162,0a3.624,3.624,0,0,0,2.564-1.041l.034-.034a3.562,3.562,0,0,0-2.286-6.073Zm.6,4.386-.034.034a1.225,1.225,0,0,1-.935.34l-.1,0-.1,0a1.226,1.226,0,0,1-.936-.34l-.034-.034a1.175,1.175,0,0,1,.754-2,4.974,4.974,0,0,1,.634,0,1.175,1.175,0,0,1,.754,2Zm0,0" transform="translate(-205.312 -232.333)" fill="#19538d"/>
    </g>
  </g>
</svg>
