<svg xmlns="http://www.w3.org/2000/svg" xmlns:xlink="http://www.w3.org/1999/xlink" width="96" height="96" viewBox="0 0 96 96">
  <defs>
    <clipPath id="clip-path">
      <rect id="Rectángulo_455533" data-name="Rectángulo 455533" width="95.999" height="92.163" fill="#19538d"/>
    </clipPath>
  </defs>
  <g id="Grupo_1179953" data-name="Grupo 1179953" transform="translate(-383.746 -8399)">
    <circle id="Elipse_13674" data-name="Elipse 13674" cx="41.5" cy="41.5" r="41.5" transform="translate(389.746 8406)" fill="#19538d"/>
    <g id="Grupo_1179062" data-name="Grupo 1179062" transform="translate(383.745 8399)">
      <rect id="Rectángulo_455531" data-name="Rectángulo 455531" width="96" height="96" transform="translate(0 0)" fill="none"/>
      <g id="Grupo_1179061" data-name="Grupo 1179061" transform="translate(0 2.203)">
        <path id="Trazado_998445" data-name="Trazado 998445" d="M114.467,95.838H96.727l2.4-4.484h17.739Z" transform="translate(-23.693 -22.7)" fill="#19538d"/>
        <path id="Trazado_998446" data-name="Trazado 998446" d="M1.458,86.893,0,89.861H19.558l1.458-2.968Z" transform="translate(0 -21.618)" fill="#19538d"/>
        <path id="Trazado_998447" data-name="Trazado 998447" d="M117.539,31.293H98.809l1.469-3.326h18.73Z" transform="translate(-24.246 -6.956)" fill="#19538d"/>
        <path id="Trazado_998448" data-name="Trazado 998448" d="M28.088,11.547H3.483L4.952,8.221H29.557Z" transform="translate(-0.925 -2.184)" fill="#19538d"/>
        <g id="Grupo_1179060" data-name="Grupo 1179060" transform="translate(0)">
          <g id="Grupo_1179059" data-name="Grupo 1179059" clip-path="url(#clip-path)">
            <path id="Trazado_998449" data-name="Trazado 998449" d="M48.653,99.141a40.772,40.772,0,0,1-39.711-49.9H3.518A46.036,46.036,0,0,0,84.512,87.248h-7.1A40.6,40.6,0,0,1,48.653,99.141" transform="translate(-0.653 -12.277)" fill="#19538d"/>
            <path id="Trazado_998450" data-name="Trazado 998450" d="M110.835,87.933h6.025c.484-.964.923-1.952,1.34-2.953h-5.792c-.487,1.007-1.008,1.994-1.573,2.953" transform="translate(-27.709 -21.189)" fill="#19538d"/>
            <path id="Trazado_998451" data-name="Trazado 998451" d="M95.384,46.081a46.043,46.043,0,0,0-90.011-13.7h5.589A40.752,40.752,0,1,1,87.147,61.291h5.644a45.915,45.915,0,0,0,2.592-15.209" transform="translate(-1.343)" fill="#19538d"/>
            <path id="Trazado_998452" data-name="Trazado 998452" d="M108.562,81.649v2.5h3.277q.594-1.228,1.106-2.5Z" transform="translate(-27.141 -20.358)" fill="#19538d"/>
            <path id="Trazado_998453" data-name="Trazado 998453" d="M126.164,81.649h-4.551q-.444,1.268-.958,2.5h5.509Z" transform="translate(-30.164 -20.358)" fill="#19538d"/>
          </g>
        </g>
        <path id="Trazado_998444" data-name="Trazado 998444" d="M2.2,37.025,0,41.509H13.317l2.2-4.484Z" transform="translate(0 -9.2)" fill="#19538d"/>
      </g>
    </g>
    <g id="Grupo_1177669" data-name="Grupo 1177669" transform="translate(403.444 8418.662)">
      <g id="Grupo_1180114" data-name="Grupo 1180114">
        <g id="Grupo_1099618" data-name="Grupo 1099618" transform="translate(0.267 0.338)">
          <rect id="Rectángulo_401104" data-name="Rectángulo 401104" width="56.349" height="57.028" transform="translate(0)" fill="none"/>
        </g>
        <g id="comunicacion" transform="translate(3.267 1.338)">
          <path id="Trazado_1000120" data-name="Trazado 1000120" d="M207.726,25.246a1.15,1.15,0,0,1-.812-.336l-4.254-4.254h-6.41a1.147,1.147,0,1,1,0-2.295h6.885a1.142,1.142,0,0,1,.811.336l2.631,2.631v-1.82a1.147,1.147,0,0,1,1.148-1.147h1.147a1.149,1.149,0,0,0,1.148-1.148V3.443a1.149,1.149,0,0,0-1.148-1.148h-24.1a1.149,1.149,0,0,0-1.147,1.148v13.77a1.149,1.149,0,0,0,1.147,1.148h2.3a1.147,1.147,0,0,1,0,2.295h-2.3a3.447,3.447,0,0,1-3.443-3.443V3.443A3.447,3.447,0,0,1,184.775,0h24.1a3.447,3.447,0,0,1,3.443,3.443v13.77a3.447,3.447,0,0,1-3.443,3.443V24.1a1.147,1.147,0,0,1-1.147,1.148Zm0,0" transform="translate(-161.824 0)" fill="#fff"/>
          <path id="Trazado_1000121" data-name="Trazado 1000121" d="M4.59,67.914a1.131,1.131,0,0,1-.44-.087,1.148,1.148,0,0,1-.708-1.06V63.324A3.447,3.447,0,0,1,0,59.881V46.111a3.447,3.447,0,0,1,3.443-3.443H16.065a1.147,1.147,0,1,1,0,2.295H3.443a1.149,1.149,0,0,0-1.148,1.148v13.77a1.149,1.149,0,0,0,1.148,1.147H4.59a1.148,1.148,0,0,1,1.147,1.148V64l2.632-2.632a1.144,1.144,0,0,1,.811-.336H27.541a1.149,1.149,0,0,0,1.148-1.147V46.111a1.149,1.149,0,0,0-1.148-1.148H25.246a1.147,1.147,0,1,1,0-2.295h2.295a3.447,3.447,0,0,1,3.443,3.443v13.77a3.447,3.447,0,0,1-3.443,3.443H9.656L5.4,67.577a1.146,1.146,0,0,1-.811.336Zm0,0" transform="translate(0 -38.078)" fill="#fff"/>
          <path id="Trazado_1000122" data-name="Trazado 1000122" d="M48.406,291.1a5.744,5.744,0,0,1-5.738-5.738V283.07a5.738,5.738,0,1,1,11.475,0v2.295A5.744,5.744,0,0,1,48.406,291.1Zm0-11.475a3.447,3.447,0,0,0-3.443,3.443v2.295a3.443,3.443,0,0,0,6.885,0V283.07A3.447,3.447,0,0,0,48.406,279.627Zm0,0" transform="translate(-38.078 -247.496)" fill="#fff"/>
          <path id="Trazado_1000123" data-name="Trazado 1000123" d="M13.773,397.771H6.884a9.918,9.918,0,0,1-6.547-2.631A1.144,1.144,0,0,1,0,394.328v-3.976a2.285,2.285,0,0,1,1.024-1.91l5.862-3.907V384H9.181v1.148a1.149,1.149,0,0,1-.511.955L2.3,390.352V393.8a7.646,7.646,0,0,0,4.589,1.672h6.889a7.57,7.57,0,0,0,4.588-1.668v-3.457L11.987,386.1a1.149,1.149,0,0,1-.511-.955V384h2.295v.534l5.864,3.908a2.291,2.291,0,0,1,1.021,1.91v3.976a1.144,1.144,0,0,1-.336.811,9.921,9.921,0,0,1-6.547,2.631Zm0,0" transform="translate(0 -342.689)" fill="#fff"/>
          <path id="Trazado_1000124" data-name="Trazado 1000124" d="M325.738,291.1A5.744,5.744,0,0,1,320,285.365V283.07a5.738,5.738,0,1,1,11.476,0v2.295A5.744,5.744,0,0,1,325.738,291.1Zm0-11.475a3.447,3.447,0,0,0-3.443,3.443v2.295a3.443,3.443,0,0,0,6.885,0V283.07A3.447,3.447,0,0,0,325.738,279.627Zm0,0" transform="translate(-285.574 -247.496)" fill="#fff"/>
          <path id="Trazado_1000125" data-name="Trazado 1000125" d="M291.1,397.771h-6.89a9.922,9.922,0,0,1-6.547-2.631,1.144,1.144,0,0,1-.336-.811v-3.976a2.285,2.285,0,0,1,1.025-1.91l5.86-3.907V384h2.3v1.148a1.149,1.149,0,0,1-.511.955l-6.375,4.249V393.8a7.634,7.634,0,0,0,4.588,1.672h6.89a7.57,7.57,0,0,0,4.588-1.668v-3.457l-6.375-4.249a1.149,1.149,0,0,1-.511-.955V384H291.1v.534l5.863,3.908a2.291,2.291,0,0,1,1.022,1.91v3.976a1.142,1.142,0,0,1-.336.811A9.92,9.92,0,0,1,291.1,397.771Zm0,0" transform="translate(-247.496 -342.689)" fill="#fff"/>
          <path id="Trazado_1000126" data-name="Trazado 1000126" d="M224,277.332h2.295v2.3H224Zm0,0" transform="translate(-199.902 -247.496)" fill="#fff"/>
          <path id="Trazado_1000127" data-name="Trazado 1000127" d="M181.332,277.332h2.3v2.3h-2.3Zm0,0" transform="translate(-161.824 -247.496)" fill="#fff"/>
          <path id="Trazado_1000128" data-name="Trazado 1000128" d="M266.668,277.332h2.295v2.3h-2.295Zm0,0" transform="translate(-237.979 -247.496)" fill="#fff"/>
        </g>
      </g>
    </g>
  </g>
</svg>
