<svg xmlns="http://www.w3.org/2000/svg" xmlns:xlink="http://www.w3.org/1999/xlink" width="150.007" height="150.007" viewBox="0 0 150.007 150.007">
  <defs>
    <clipPath id="clip-path">
      <rect id="Rectángulo_455533" data-name="Rectángulo 455533" width="150.007" height="143.885" fill="#19538d"/>
    </clipPath>
    <clipPath id="clip-path-2">
      <rect id="Rectángulo_456914" data-name="Rectángulo 456914" width="74" height="74" transform="translate(0 -0.053)" fill="#19538d"/>
    </clipPath>
  </defs>
  <g id="Grupo_1179955" data-name="Grupo 1179955" transform="translate(0.295 -0.228)">
    <ellipse id="Elipse_13674" data-name="Elipse 13674" cx="64.003" cy="64.003" rx="64.003" ry="64.003" transform="translate(10.705 11.228)" fill="#fff"/>
    <g id="Grupo_1179062" data-name="Grupo 1179062" transform="translate(-0.295 0.228)">
      <rect id="Rectángulo_455531" data-name="Rectángulo 455531" width="150.007" height="150.007" transform="translate(0 0)" fill="none"/>
      <g id="Grupo_1179061" data-name="Grupo 1179061" transform="translate(0 3.517)">
        <path id="Trazado_998445" data-name="Trazado 998445" d="M125.037,98.51H96.727l3.837-7.156h28.309Z" transform="translate(16.631 15.706)" fill="#62249e"/>
        <path id="Trazado_998446" data-name="Trazado 998446" d="M2.327,86.893,0,91.629H31.211l2.327-4.736Z" transform="translate(0 14.939)" fill="#19538d"/>
        <path id="Trazado_998447" data-name="Trazado 998447" d="M128.7,33.274H98.809l2.344-5.308h29.89Z" transform="translate(16.989 4.808)" fill="#19538d"/>
        <path id="Trazado_998448" data-name="Trazado 998448" d="M42.749,13.528H3.483L5.827,8.221H45.092Z" transform="translate(0.599 1.413)" fill="#19538d"/>
        <g id="Grupo_1179060" data-name="Grupo 1179060" transform="translate(0)">
          <g id="Grupo_1179059" data-name="Grupo 1179059" clip-path="url(#clip-path)">
            <path id="Trazado_998449" data-name="Trazado 998449" d="M74.554,127.147A63.648,63.648,0,0,1,12.5,49.237H4.028A71.937,71.937,0,0,0,130.587,108.58h-11.1a63.465,63.465,0,0,1-44.935,18.567" transform="translate(0.449 8.465)" fill="#19538d"/>
            <path id="Trazado_998450" data-name="Trazado 998450" d="M110.835,89.59h9.414c.756-1.5,1.443-3.048,2.094-4.61h-9.051c-.761,1.573-1.575,3.113-2.458,4.61" transform="translate(19.056 14.611)" fill="#19538d"/>
            <path id="Trazado_998451" data-name="Trazado 998451" d="M146.022,71.942A71.954,71.954,0,0,0,5.373,50.547h8.733a63.671,63.671,0,1,1,119.046,45.14h8.82a71.625,71.625,0,0,0,4.05-23.744" transform="translate(0.924)" fill="#19538d"/>
            <path id="Trazado_998452" data-name="Trazado 998452" d="M108.562,81.649v3.9h5.121q.928-1.918,1.729-3.9Z" transform="translate(18.665 14.038)" fill="#19538d"/>
            <path id="Trazado_998453" data-name="Trazado 998453" d="M129.263,81.649h-7.111q-.694,1.979-1.5,3.9h8.608Z" transform="translate(20.744 14.038)" fill="#19538d"/>
          </g>
        </g>
        <path id="Trazado_998444" data-name="Trazado 998444" d="M3.515,37.025,0,44.181H21.251l3.516-7.156Z" transform="translate(0 6.366)" fill="#62249e"/>
      </g>
    </g>
    <g id="Grupo_1177669" data-name="Grupo 1177669" transform="translate(34.705 34.228)">
      <g id="Grupo_1099618" data-name="Grupo 1099618" transform="translate(0 0)">
        <rect id="Rectángulo_401104" data-name="Rectángulo 401104" width="79.902" height="80.865" transform="translate(0)" fill="none"/>
      </g>
      <g id="Grupo_1180133" data-name="Grupo 1180133" transform="translate(2.003 3.298)">
        <g id="Grupo_1180133-2" data-name="Grupo 1180133" transform="translate(-0.156 0.142)" clip-path="url(#clip-path-2)">
          <path id="Trazado_1000162" data-name="Trazado 1000162" d="M161.455,128.9a1.45,1.45,0,0,1,0-2.9h0a1.45,1.45,0,1,1,0,2.9" transform="translate(-136.638 -107.852)" fill="#19538d"/>
          <path id="Trazado_1000163" data-name="Trazado 1000163" d="M269.482,34.376a1.449,1.449,0,0,1-.933-.34L261.7,28.284h-1.937a1.45,1.45,0,1,1,0-2.9h2.466a1.451,1.451,0,0,1,.933.34l4.869,4.09V26.833a1.451,1.451,0,0,1,1.45-1.45H280.36a2.19,2.19,0,0,0,2.176-2.18V5.077a2.191,2.191,0,0,0-2.18-2.176h-28.28a2.191,2.191,0,0,0-2.176,2.18V19a1.45,1.45,0,0,1-2.9,0V5.077A5.1,5.1,0,0,1,252.072,0H280.36a5.1,5.1,0,0,1,5.077,5.072V23.207a5.1,5.1,0,0,1-5.072,5.077h-9.432v4.641a1.45,1.45,0,0,1-1.45,1.45" transform="translate(-211.016 -0.127)" fill="#19538d"/>
          <path id="Trazado_1000164" data-name="Trazado 1000164" d="M317.707,76.2h-8.3a1.45,1.45,0,1,1,0-2.9h8.3a1.45,1.45,0,0,1,0,2.9m0-5.8H295.95a1.45,1.45,0,0,1,0-2.9h21.757a1.45,1.45,0,0,1,0,2.9" transform="translate(-251.626 -57.837)" fill="#19538d"/>
          <path id="Trazado_1000165" data-name="Trazado 1000165" d="M21.031,172.414a1.45,1.45,0,0,1-1.45-1.45v-5.8H5.077A5.1,5.1,0,0,1,0,160.09V131.077A5.1,5.1,0,0,1,5.072,126H18.131a1.45,1.45,0,0,1,0,2.9H5.077a2.191,2.191,0,0,0-2.176,2.18v29a2.191,2.191,0,0,0,2.18,2.176H21.031a1.451,1.451,0,0,1,1.45,1.45v3.75l4.776-4.776a1.451,1.451,0,0,1,1.026-.425H39.1a1.45,1.45,0,1,1,0,2.9H28.884l-6.827,6.827a1.45,1.45,0,0,1-1.026.425m26.834-25.238a1.451,1.451,0,0,1-1.45-1.45v-14.65a2.191,2.191,0,0,0-2.18-2.176H31.185a1.45,1.45,0,0,1,0-2.9H44.239a5.1,5.1,0,0,1,5.077,5.073v14.654a1.451,1.451,0,0,1-1.45,1.45" transform="translate(0.158 -107.851)" fill="#19538d"/>
          <path id="Trazado_1000166" data-name="Trazado 1000166" d="M285.757,293.986a1.45,1.45,0,0,1-1.026-.425l-6.828-6.827h-8.28a5.1,5.1,0,0,1-5.077-5.072V262.077A5.1,5.1,0,0,1,269.619,257h25.743a5.1,5.1,0,0,1,5.077,5.072v19.585a5.1,5.1,0,0,1-5.072,5.077h-8.159v5.8a1.45,1.45,0,0,1-1.45,1.451M278.5,283.833a1.451,1.451,0,0,1,1.026.425l4.776,4.776v-3.75a1.451,1.451,0,0,1,1.45-1.45h9.606a2.19,2.19,0,0,0,2.176-2.18V262.077a2.191,2.191,0,0,0-2.18-2.176H269.626a2.191,2.191,0,0,0-2.178,2.18v19.577a2.191,2.191,0,0,0,2.18,2.176Z" transform="translate(-226.018 -219.851)" fill="#19538d"/>
          <path id="Trazado_1000167" data-name="Trazado 1000167" d="M334.023,354.079a1.451,1.451,0,0,1-1.18-2.292l1.189-1.67a1.451,1.451,0,0,1,2.023-.34l1.67,1.189a1.45,1.45,0,1,1-1.682,2.363l-.489-.348-.348.489a1.449,1.449,0,0,1-1.183.609" transform="translate(-284.178 -298.94)" fill="#19538d"/>
          <path id="Trazado_1000168" data-name="Trazado 1000168" d="M374.509,313.691a1.45,1.45,0,0,1-1.448-1.4,5.077,5.077,0,0,0-7.611-4.2,1.45,1.45,0,0,1-1.45-2.512,7.978,7.978,0,0,1,11.96,6.6,1.451,1.451,0,0,1-1.394,1.5h-.056" transform="translate(-310.424 -260.473)" fill="#19538d"/>
          <path id="Trazado_1000169" data-name="Trazado 1000169" d="M422.376,342.558a1.444,1.444,0,0,1-.84-.269l-1.671-1.19a1.45,1.45,0,0,1,1.683-2.363l.489.349.349-.49a1.45,1.45,0,1,1,2.363,1.683l-1.19,1.671a1.449,1.449,0,0,1-1.183.609" transform="translate(-358.287 -289.09)" fill="#19538d"/>
          <path id="Trazado_1000170" data-name="Trazado 1000170" d="M348.772,359.588a7.975,7.975,0,0,1-7.99-7.839,1.451,1.451,0,0,1,1.426-1.475h.025a1.45,1.45,0,0,1,1.45,1.426,5.077,5.077,0,0,0,7.614,4.309,1.45,1.45,0,0,1,1.45,2.512,7.93,7.93,0,0,1-3.975,1.067" transform="translate(-291.195 -299.595)" fill="#19538d"/>
          <path id="Trazado_1000171" data-name="Trazado 1000171" d="M136.709,202.024a1.45,1.45,0,0,1-1.449-1.415c-.046-1.867.076-3.988,2.12-5.53l1.954-1.505a2.662,2.662,0,1,0-3.309-4.17l-.022.017a1.8,1.8,0,0,0-.815,1.666,1.45,1.45,0,0,1-2.841.588,4.672,4.672,0,0,1,1.886-4.552,5.563,5.563,0,0,1,6.905,8.723l-.1.075-1.9,1.461-.013.01c-.8.6-1.016,1.306-.971,3.146a1.451,1.451,0,0,1-1.414,1.486h-.036" transform="translate(-112.923 -159.087)" fill="#19538d"/>
          <path id="Trazado_1000172" data-name="Trazado 1000172" d="M154.361,318.71a1.45,1.45,0,0,1,0-2.9h0a1.45,1.45,0,0,1,0,2.9" transform="translate(-130.573 -270.13)" fill="#19538d"/>
        </g>
      </g>
    </g>
  </g>
</svg>
