<svg xmlns="http://www.w3.org/2000/svg" xmlns:xlink="http://www.w3.org/1999/xlink" width="150" height="150" viewBox="0 0 150 150">
  <defs>
    <clipPath id="clip-path">
      <rect id="Rectángulo_455533" data-name="Rectángulo 455533" width="150" height="143.878" fill="#19538d"/>
    </clipPath>
  </defs>
  <g id="Grupo_1179938" data-name="Grupo 1179938" transform="translate(-383.746 -8398.999)">
    <circle id="Elipse_13674" data-name="Elipse 13674" cx="64" cy="64" r="64" transform="translate(394.746 8410.999)" fill="#fff"/>
    <g id="Grupo_1179062" data-name="Grupo 1179062" transform="translate(383.746 8399)">
      <rect id="Rectángulo_455531" data-name="Rectángulo 455531" width="150" height="150" transform="translate(0 -0.001)" fill="none"/>
      <g id="Grupo_1179061" data-name="Grupo 1179061" transform="translate(0 3.516)">
        <path id="Trazado_998445" data-name="Trazado 998445" d="M125.035,98.509H96.727l3.837-7.155h28.308Z" transform="translate(16.625 15.701)" fill="#62249e"/>
        <path id="Trazado_998446" data-name="Trazado 998446" d="M2.327,86.893,0,91.629H31.21l2.327-4.736Z" transform="translate(0 14.935)" fill="#19538d"/>
        <path id="Trazado_998447" data-name="Trazado 998447" d="M128.7,33.274H98.809l2.344-5.307h29.889Z" transform="translate(16.983 4.807)" fill="#19538d"/>
        <path id="Trazado_998448" data-name="Trazado 998448" d="M42.747,13.528H3.483L5.827,8.221H45.09Z" transform="translate(0.599 1.413)" fill="#19538d"/>
        <g id="Grupo_1179060" data-name="Grupo 1179060" transform="translate(0)">
          <g id="Grupo_1179059" data-name="Grupo 1179059" clip-path="url(#clip-path)">
            <path id="Trazado_998449" data-name="Trazado 998449" d="M74.551,127.143A63.645,63.645,0,0,1,12.5,49.237H4.028a71.934,71.934,0,0,0,126.553,59.34h-11.1a63.462,63.462,0,0,1-44.933,18.566" transform="translate(0.449 8.463)" fill="#19538d"/>
            <path id="Trazado_998450" data-name="Trazado 998450" d="M110.835,89.59h9.414c.756-1.5,1.443-3.048,2.094-4.61h-9.05c-.761,1.573-1.575,3.112-2.457,4.61" transform="translate(19.05 14.606)" fill="#19538d"/>
            <path id="Trazado_998451" data-name="Trazado 998451" d="M146.016,71.939A71.95,71.95,0,0,0,5.373,50.544h8.733a63.668,63.668,0,1,1,119.04,45.138h8.82a71.622,71.622,0,0,0,4.05-23.743" transform="translate(0.923)" fill="#19538d"/>
            <path id="Trazado_998452" data-name="Trazado 998452" d="M108.562,81.649v3.9h5.121q.928-1.918,1.729-3.9Z" transform="translate(18.659 14.033)" fill="#19538d"/>
            <path id="Trazado_998453" data-name="Trazado 998453" d="M129.262,81.649h-7.111q-.694,1.979-1.5,3.9h8.607Z" transform="translate(20.738 14.033)" fill="#19538d"/>
          </g>
        </g>
        <path id="Trazado_998444" data-name="Trazado 998444" d="M3.515,37.025,0,44.18H21.25l3.516-7.155Z" transform="translate(0 6.364)" fill="#62249e"/>
      </g>
    </g>
    <g id="Grupo_1177669" data-name="Grupo 1177669" transform="translate(418.603 8433.838)">
      <g id="Grupo_1099618" data-name="Grupo 1099618" transform="translate(0 0)">
        <rect id="Rectángulo_401104" data-name="Rectángulo 401104" width="79.898" height="80.861" transform="translate(0)" fill="none"/>
      </g>
      <g id="Online_Shopping-Shopping-Smartphone-Shopping_Bag-Commerce" data-name="Online Shopping-Shopping-Smartphone-Shopping Bag-Commerce" transform="translate(-1.208 -0.713)">
        <path id="Trazado_1000061" data-name="Trazado 1000061" d="M18,6h2.623V8.623H18Z" transform="translate(4.985 1.246)" fill="#19538d"/>
        <path id="Trazado_1000062" data-name="Trazado 1000062" d="M22,6H32.493V8.623H22Z" transform="translate(6.232 1.246)" fill="#19538d"/>
        <path id="Trazado_1000063" data-name="Trazado 1000063" d="M53.152,58.4a6.566,6.566,0,0,1-6.558,6.558H22.634l4.509-7.809A3.878,3.878,0,0,0,26.92,58.4a3.935,3.935,0,0,0,3.935,3.935H36.1a3.935,3.935,0,1,0,0-7.869H30.855a3.924,3.924,0,0,0-3.19,1.649,5.233,5.233,0,0,0-9.352-4.657l-4.459,7.728a6.523,6.523,0,0,1-.05-.784V11.181a6.566,6.566,0,0,1,6.558-6.558H46.594A6.584,6.584,0,0,1,52.273,7.9l2.27-1.312A9.218,9.218,0,0,0,46.594,2H20.362a9.192,9.192,0,0,0-9.181,9.181V36.495a3.935,3.935,0,0,0-1.9,1.89L3.329,51.3A14.24,14.24,0,0,0,2,57.349V80.695H4.623V57.349A11.625,11.625,0,0,1,5.709,52.4L11.181,40.53V58.4a9.146,9.146,0,0,0,1.166,4.474,1.312,1.312,0,0,0,2.336.117l5.9-10.222a2.623,2.623,0,1,1,4.543,2.623l-5.9,10.222a1.312,1.312,0,0,0,.012,1.333l2.809,4.669a6.582,6.582,0,0,1,.938,3.381v5.687h2.623V74.995A9.2,9.2,0,0,0,24.3,70.263l-1.615-2.684H46.594A9.192,9.192,0,0,0,55.775,58.4V51.84H53.152Zm-22.3-1.312H36.1a1.312,1.312,0,1,1,0,2.623H30.855a1.312,1.312,0,0,1,0-2.623Z" transform="translate(0)" fill="#19538d"/>
        <path id="Trazado_1000064" data-name="Trazado 1000064" d="M68.921,15.951A20.985,20.985,0,0,0,32.236,35.769L27.8,43.284a1.312,1.312,0,0,0,.052,1.417,1.337,1.337,0,0,0,1.325.538l8.565-1.6A20.905,20.905,0,0,0,48.08,48.661a21.773,21.773,0,0,0,3.659.315A20.985,20.985,0,0,0,68.921,15.951Zm.892,15.227a18.362,18.362,0,0,1-30.757,10.1,1.326,1.326,0,0,0-.9-.354,1.425,1.425,0,0,0-.236.013L31.528,42.13l3.305-5.587a1.367,1.367,0,0,0,.079-1.194,18.361,18.361,0,1,1,34.9-4.171Z" transform="translate(7.983 1.552)" fill="#19538d"/>
        <path id="Trazado_1000065" data-name="Trazado 1000065" d="M57.674,18.558H53.739V17.246a5.246,5.246,0,1,0-10.493,0v1.312H39.312A1.312,1.312,0,0,0,38,19.869V35.608a3.947,3.947,0,0,0,3.935,3.935H55.051a3.947,3.947,0,0,0,3.935-3.935V19.869A1.312,1.312,0,0,0,57.674,18.558Zm-11.8-1.312a2.623,2.623,0,1,1,5.246,0v1.312H45.869ZM56.362,35.608a1.312,1.312,0,0,1-1.312,1.312H41.935a1.312,1.312,0,0,1-1.312-1.312V34.3H56.362Zm0-3.935H40.623V21.181h2.623V23.8h2.623V21.181h5.246V23.8h2.623V21.181h2.623Z" transform="translate(11.217 3.116)" fill="#19538d"/>
        <path id="Trazado_1000066" data-name="Trazado 1000066" d="M25.2,15.293l-2.02,2.02a6.578,6.578,0,1,0,1.855,1.855l2.02-2.02Zm-1.7,7.485a3.935,3.935,0,1,1-3.935-3.935,3.87,3.87,0,0,1,1.685.393l-3.924,3.924,1.855,1.855,3.926-3.923a3.87,3.87,0,0,1,.393,1.685Z" transform="translate(3.418 4.142)" fill="#19538d"/>
        <path id="Trazado_1000067" data-name="Trazado 1000067" d="M25,18h5.246v2.623H25Z" transform="translate(7.166 4.985)" fill="#19538d"/>
        <path id="Trazado_1000068" data-name="Trazado 1000068" d="M25,22h5.246v2.623H25Z" transform="translate(7.166 6.232)" fill="#19538d"/>
      </g>
    </g>
  </g>
</svg>
