<svg xmlns="http://www.w3.org/2000/svg" xmlns:xlink="http://www.w3.org/1999/xlink" width="150.007" height="150.007" viewBox="0 0 150.007 150.007">
  <defs>
    <clipPath id="clip-path">
      <rect id="Rectángulo_455533" data-name="Rectángulo 455533" width="150.007" height="143.885" fill="#19538d"/>
    </clipPath>
    <clipPath id="clip-path-2">
      <path id="path3390" d="M0-682.665H76.464V-606.2H0Z" transform="translate(0 682.665)" fill="#19538d"/>
    </clipPath>
  </defs>
  <g id="Grupo_1180136" data-name="Grupo 1180136" transform="translate(0 -0.228)">
    <ellipse id="Elipse_13674" data-name="Elipse 13674" cx="64.003" cy="64.003" rx="64.003" ry="64.003" transform="translate(10.705 11.228)" fill="#fff"/>
    <g id="Grupo_1179062" data-name="Grupo 1179062" transform="translate(0 0.228)">
      <rect id="Rectángulo_455531" data-name="Rectángulo 455531" width="150.007" height="150.007" transform="translate(0 0)" fill="none"/>
      <g id="Grupo_1179061" data-name="Grupo 1179061" transform="translate(0 3.517)">
        <path id="Trazado_998445" data-name="Trazado 998445" d="M125.037,98.51H96.727l3.837-7.156h28.309Z" transform="translate(16.631 15.706)" fill="#62249e"/>
        <path id="Trazado_998446" data-name="Trazado 998446" d="M2.327,86.893,0,91.629H31.211l2.327-4.736Z" transform="translate(0 14.939)" fill="#19538d"/>
        <path id="Trazado_998447" data-name="Trazado 998447" d="M128.7,33.274H98.809l2.344-5.308h29.89Z" transform="translate(16.989 4.808)" fill="#19538d"/>
        <path id="Trazado_998448" data-name="Trazado 998448" d="M42.749,13.528H3.483L5.827,8.221H45.092Z" transform="translate(0.599 1.413)" fill="#19538d"/>
        <g id="Grupo_1179060" data-name="Grupo 1179060" transform="translate(0)">
          <g id="Grupo_1179059" data-name="Grupo 1179059" clip-path="url(#clip-path)">
            <path id="Trazado_998449" data-name="Trazado 998449" d="M74.554,127.147A63.648,63.648,0,0,1,12.5,49.237H4.028A71.937,71.937,0,0,0,130.587,108.58h-11.1a63.465,63.465,0,0,1-44.935,18.567" transform="translate(0.449 8.465)" fill="#19538d"/>
            <path id="Trazado_998450" data-name="Trazado 998450" d="M110.835,89.59h9.414c.756-1.5,1.443-3.048,2.094-4.61h-9.051c-.761,1.573-1.575,3.113-2.458,4.61" transform="translate(19.056 14.611)" fill="#19538d"/>
            <path id="Trazado_998451" data-name="Trazado 998451" d="M146.022,71.942A71.954,71.954,0,0,0,5.373,50.547h8.733a63.671,63.671,0,1,1,119.046,45.14h8.82a71.625,71.625,0,0,0,4.05-23.744" transform="translate(0.924)" fill="#19538d"/>
            <path id="Trazado_998452" data-name="Trazado 998452" d="M108.562,81.649v3.9h5.121q.928-1.918,1.729-3.9Z" transform="translate(18.665 14.038)" fill="#19538d"/>
            <path id="Trazado_998453" data-name="Trazado 998453" d="M129.263,81.649h-7.111q-.694,1.979-1.5,3.9h8.608Z" transform="translate(20.744 14.038)" fill="#19538d"/>
          </g>
        </g>
        <path id="Trazado_998444" data-name="Trazado 998444" d="M3.515,37.025,0,44.181H21.251l3.516-7.156Z" transform="translate(0 6.366)" fill="#62249e"/>
      </g>
    </g>
    <g id="Grupo_1180135" data-name="Grupo 1180135" transform="translate(34.858 33.841)">
      <g id="Grupo_1099618" data-name="Grupo 1099618" transform="translate(0.142 0.387)">
        <rect id="Rectángulo_401104" data-name="Rectángulo 401104" width="79.902" height="80.865" transform="translate(0)" fill="none"/>
      </g>
      <g id="g3384" transform="translate(2.142 685.052)">
        <g id="g3386" transform="translate(0 -682.665)">
          <g id="g3388" clip-path="url(#clip-path-2)">
            <g id="g3394" transform="translate(0 4.585)">
              <path id="path3396" d="M4.73-193.114a2.36,2.36,0,0,1-.9-.181,2.35,2.35,0,0,1-1.455-2.178v-5.673a.117.117,0,0,0-.117-.117H-3.932A6.075,6.075,0,0,1-10-207.331v-8.53a1.12,1.12,0,0,1,1.12-1.12,1.12,1.12,0,0,1,1.12,1.12v8.53A3.832,3.832,0,0,0-3.932-203.5H2.254a2.36,2.36,0,0,1,2.357,2.357v5.673a.1.1,0,0,0,.072.108.1.1,0,0,0,.128-.025l7.422-7.422a2.341,2.341,0,0,1,1.667-.69H38.129a3.832,3.832,0,0,0,3.828-3.828v-29.69a3.832,3.832,0,0,0-3.828-3.828H-3.932a3.832,3.832,0,0,0-3.828,3.828v16.68a1.12,1.12,0,0,1-1.12,1.12,1.12,1.12,0,0,1-1.12-1.12v-16.68a6.075,6.075,0,0,1,6.068-6.068h42.06a6.075,6.075,0,0,1,6.068,6.068v29.69a6.075,6.075,0,0,1-6.068,6.068H13.9l-7.5,7.457A2.351,2.351,0,0,1,4.73-193.114Z" transform="translate(10 243.089)" fill="#19538d"/>
            </g>
            <g id="g3398" transform="translate(22.267 44.789)">
              <path id="path3400" d="M-155.654-140.159h-13.565a6.075,6.075,0,0,1-6.068-6.068v-11.752a1.12,1.12,0,0,1,1.12-1.12,1.12,1.12,0,0,1,1.12,1.12v11.752a3.832,3.832,0,0,0,3.828,3.828h13.565a1.12,1.12,0,0,1,1.12,1.12A1.12,1.12,0,0,1-155.654-140.159Z" transform="translate(175.288 159.1)" fill="#19538d"/>
            </g>
            <g id="g3402" transform="translate(45.261 21.903)">
              <path id="path3404" d="M-53.3,39.975a2.35,2.35,0,0,1-1.664-.692l-7.422-7.422-6.266-.034a1.12,1.12,0,0,1-1.12-1.12,1.12,1.12,0,0,1,1.12-1.12h6.183a2.341,2.341,0,0,1,1.667.691l7.422,7.422a.1.1,0,0,0,.128.025.1.1,0,0,0,.072-.108V31.943a2.36,2.36,0,0,1,2.357-2.357h6.185a3.832,3.832,0,0,0,3.828-3.828V-3.932A3.832,3.832,0,0,0-44.641-7.76H-61.96a1.12,1.12,0,0,1-1.12-1.12A1.12,1.12,0,0,1-61.96-10h17.319a6.075,6.075,0,0,1,6.068,6.068v29.69a6.075,6.075,0,0,1-6.068,6.068h-6.185a.117.117,0,0,0-.117.117v5.673A2.35,2.35,0,0,1-52.4,39.794,2.362,2.362,0,0,1-53.3,39.975Z" transform="translate(69.776 10)" fill="#19538d"/>
            </g>
            <g id="g3406" transform="translate(34.638 49.119)">
              <path id="path3408" d="M-50.583-32.088a3.6,3.6,0,0,1,3.594,3.594A3.6,3.6,0,0,1-50.583-24.9a3.6,3.6,0,0,1-3.594-3.594A3.6,3.6,0,0,1-50.583-32.088Zm0,4.948a1.355,1.355,0,0,0,1.354-1.354,1.355,1.355,0,0,0-1.354-1.354,1.356,1.356,0,0,0-1.354,1.354A1.356,1.356,0,0,0-50.583-27.14Z" transform="translate(54.177 32.088)" fill="#19538d"/>
            </g>
            <g id="g3410" transform="translate(23.504 34.274)">
              <path id="path3412" d="M-50.584-32.088a3.6,3.6,0,0,1,3.594,3.594A3.6,3.6,0,0,1-50.584-24.9a3.6,3.6,0,0,1-3.594-3.594A3.6,3.6,0,0,1-50.584-32.088Zm0,4.948a1.355,1.355,0,0,0,1.354-1.354,1.355,1.355,0,0,0-1.354-1.354,1.356,1.356,0,0,0-1.354,1.354A1.356,1.356,0,0,0-50.584-27.14Z" transform="translate(54.179 32.088)" fill="#19538d"/>
            </g>
            <g id="g3414" transform="translate(18.556 9.533)">
              <path id="path3416" d="M-67.724-164.676a3.6,3.6,0,0,1-3.594-3.594v-2.474a6.632,6.632,0,0,1,4.108-6.168,1.36,1.36,0,0,0,.837-1.357,1.382,1.382,0,0,0-1.246-1.247,1.4,1.4,0,0,0-1.027.36,1.324,1.324,0,0,0-.431.99,3.6,3.6,0,0,1-3.594,3.594,3.6,3.6,0,0,1-3.594-3.594,8.573,8.573,0,0,1,2.715-6.246,8.527,8.527,0,0,1,5.839-2.3q.293,0,.588.02a8.565,8.565,0,0,1,7.923,7.924,8.539,8.539,0,0,1-4.927,8.349v2.146A3.6,3.6,0,0,1-67.724-164.676Zm0-17.085q.125,0,.252.009a3.642,3.642,0,0,1,3.329,3.328,3.6,3.6,0,0,1-2.221,3.584,4.4,4.4,0,0,0-2.718,4.1v2.474a1.356,1.356,0,0,0,1.354,1.354,1.356,1.356,0,0,0,1.354-1.354v-2.474a1.7,1.7,0,0,1,1.039-1.591,6.3,6.3,0,0,0,3.894-6.276,6.316,6.316,0,0,0-5.842-5.843,6.294,6.294,0,0,0-4.744,1.679,6.325,6.325,0,0,0-2,4.608,1.356,1.356,0,0,0,1.354,1.354,1.356,1.356,0,0,0,1.354-1.354,3.559,3.559,0,0,1,1.143-2.628A3.588,3.588,0,0,1-67.719-181.761Z" transform="translate(76.266 186.709)" fill="#19538d"/>
            </g>
            <g id="g3418" transform="translate(56.905 49.119)">
              <path id="path3420" d="M-50.583-32.088a3.6,3.6,0,0,1,3.594,3.594A3.6,3.6,0,0,1-50.583-24.9a3.6,3.6,0,0,1-3.594-3.594A3.6,3.6,0,0,1-50.583-32.088Zm0,4.948a1.355,1.355,0,0,0,1.354-1.354,1.355,1.355,0,0,0-1.354-1.354,1.356,1.356,0,0,0-1.354,1.354A1.356,1.356,0,0,0-50.583-27.14Z" transform="translate(54.177 32.088)" fill="#19538d"/>
            </g>
            <g id="g3422" transform="translate(45.771 49.119)">
              <path id="path3424" d="M-50.584-32.088a3.6,3.6,0,0,1,3.594,3.594A3.6,3.6,0,0,1-50.584-24.9a3.6,3.6,0,0,1-3.594-3.594A3.6,3.6,0,0,1-50.584-32.088Zm0,4.948a1.355,1.355,0,0,0,1.354-1.354,1.355,1.355,0,0,0-1.354-1.354,1.356,1.356,0,0,0-1.354,1.354A1.356,1.356,0,0,0-50.584-27.14Z" transform="translate(54.179 32.088)" fill="#19538d"/>
            </g>
          </g>
        </g>
      </g>
    </g>
  </g>
</svg>
