<svg xmlns="http://www.w3.org/2000/svg" xmlns:xlink="http://www.w3.org/1999/xlink" width="150" height="150" viewBox="0 0 150 150">
  <defs>
    <clipPath id="clip-path">
      <rect id="Rectángulo_455533" data-name="Rectángulo 455533" width="150" height="143.878" fill="#19538d"/>
    </clipPath>
  </defs>
  <g id="Grupo_1180075" data-name="Grupo 1180075" transform="translate(-383.746 -8398.999)">
    <circle id="Elipse_13674" data-name="Elipse 13674" cx="64" cy="64" r="64" transform="translate(394.746 8410.999)" fill="#fff"/>
    <g id="Grupo_1179062" data-name="Grupo 1179062" transform="translate(383.746 8399)">
      <rect id="Rectángulo_455531" data-name="Rectángulo 455531" width="150" height="150" transform="translate(0 -0.001)" fill="none"/>
      <g id="Grupo_1179061" data-name="Grupo 1179061" transform="translate(0 3.516)">
        <path id="Trazado_998445" data-name="Trazado 998445" d="M125.035,98.509H96.727l3.837-7.155h28.308Z" transform="translate(16.625 15.701)" fill="#62249e"/>
        <path id="Trazado_998446" data-name="Trazado 998446" d="M2.327,86.893,0,91.629H31.21l2.327-4.736Z" transform="translate(0 14.935)" fill="#19538d"/>
        <path id="Trazado_998447" data-name="Trazado 998447" d="M128.7,33.274H98.809l2.344-5.307h29.889Z" transform="translate(16.983 4.807)" fill="#19538d"/>
        <path id="Trazado_998448" data-name="Trazado 998448" d="M42.747,13.528H3.483L5.827,8.221H45.09Z" transform="translate(0.599 1.413)" fill="#19538d"/>
        <g id="Grupo_1179060" data-name="Grupo 1179060" transform="translate(0)">
          <g id="Grupo_1179059" data-name="Grupo 1179059" clip-path="url(#clip-path)">
            <path id="Trazado_998449" data-name="Trazado 998449" d="M74.551,127.143A63.645,63.645,0,0,1,12.5,49.237H4.028a71.934,71.934,0,0,0,126.553,59.34h-11.1a63.462,63.462,0,0,1-44.933,18.566" transform="translate(0.449 8.463)" fill="#19538d"/>
            <path id="Trazado_998450" data-name="Trazado 998450" d="M110.835,89.59h9.414c.756-1.5,1.443-3.048,2.094-4.61h-9.05c-.761,1.573-1.575,3.112-2.457,4.61" transform="translate(19.05 14.606)" fill="#19538d"/>
            <path id="Trazado_998451" data-name="Trazado 998451" d="M146.016,71.939A71.95,71.95,0,0,0,5.373,50.544h8.733a63.668,63.668,0,1,1,119.04,45.138h8.82a71.622,71.622,0,0,0,4.05-23.743" transform="translate(0.923)" fill="#19538d"/>
            <path id="Trazado_998452" data-name="Trazado 998452" d="M108.562,81.649v3.9h5.121q.928-1.918,1.729-3.9Z" transform="translate(18.659 14.033)" fill="#19538d"/>
            <path id="Trazado_998453" data-name="Trazado 998453" d="M129.262,81.649h-7.111q-.694,1.979-1.5,3.9h8.607Z" transform="translate(20.738 14.033)" fill="#19538d"/>
          </g>
        </g>
        <path id="Trazado_998444" data-name="Trazado 998444" d="M3.515,37.025,0,44.18H21.25l3.516-7.155Z" transform="translate(0 6.364)" fill="#62249e"/>
      </g>
    </g>
    <g id="disponibilidad" transform="translate(419.506 8422.719)">
      <path id="Trazado_1000069" data-name="Trazado 1000069" d="M376.892,325.142a1.177,1.177,0,0,0-1.177,1.177v4.605a3.65,3.65,0,1,0,2.787,6.73l3.915,3.915a1.177,1.177,0,0,0,1.665-1.664l-3.915-3.915a3.647,3.647,0,0,0-2.1-5.065v-4.605A1.177,1.177,0,0,0,376.892,325.142Zm1.3,9.237a1.3,1.3,0,1,1-1.3-1.3A1.3,1.3,0,0,1,378.188,334.379Z" transform="translate(-314.669 -263.579)" fill="#19538d"/>
      <path id="Trazado_1000070" data-name="Trazado 1000070" d="M161.742,166.348a1.177,1.177,0,0,0-1.529.659l-4.032,10.138a1.177,1.177,0,1,0,2.187.87l4.032-10.138a1.177,1.177,0,0,0-.659-1.528Z" transform="translate(-131.602 -129.633)" fill="#19538d"/>
      <path id="Trazado_1000071" data-name="Trazado 1000071" d="M211.513,178.66a1.176,1.176,0,0,0,1.551-.6l4.457-10.138a1.177,1.177,0,0,0-1.077-1.651h-5.577a1.177,1.177,0,1,0,0,2.354h3.774l-3.731,8.487A1.177,1.177,0,0,0,211.513,178.66Z" transform="translate(-176.783 -129.637)" fill="#19538d"/>
      <path id="Trazado_1000072" data-name="Trazado 1000072" d="M93.629,176.007a1.177,1.177,0,0,0,1.177-1.177v-2.16h.636a1.177,1.177,0,0,0,0-2.354h-.636v-5.331a1.648,1.648,0,0,0-3.041-.883c-1.455,2.3-4.141,6.738-4.168,6.783A1.177,1.177,0,0,0,88.6,172.67h3.847v2.16A1.177,1.177,0,0,0,93.629,176.007ZM90.7,170.316c.514-.844,1.148-1.881,1.756-2.867v2.867Z" transform="translate(-73.708 -127.163)" fill="#19538d"/>
      <path id="Trazado_1000073" data-name="Trazado 1000073" d="M42.1,169.918c-1.605,2.294-2.563,3.548-3.078,4.222-.641.84-.934,1.223-.733,1.873a1.223,1.223,0,0,0,.8.806,8.486,8.486,0,0,0,2.285.1c.773,0,1.826-.008,3.268-.026a1.177,1.177,0,0,0-.015-2.354H44.6c-1,.013-2.066.021-2.955.023.561-.751,1.335-1.81,2.376-3.3a7.732,7.732,0,0,0,1.26-2.61,1.129,1.129,0,0,0,.021-.117l.05-.392a1.155,1.155,0,0,0,.01-.149,3.771,3.771,0,0,0-7.471-.73,1.177,1.177,0,1,0,2.31.454,1.417,1.417,0,0,1,2.806.212l-.031.242A5.6,5.6,0,0,1,42.1,169.918Z" transform="translate(-31.93 -127.918)" fill="#19538d"/>
      <path id="Trazado_1000074" data-name="Trazado 1000074" d="M57.708,269.877a2.215,2.215,0,0,0-2.212-2.212H50.329a2.215,2.215,0,0,0-2.212,2.212v5.166a2.215,2.215,0,0,0,2.212,2.212H55.5a2.215,2.215,0,0,0,2.212-2.212ZM55.354,274.9H50.471v-4.883h4.883V274.9Z" transform="translate(-40.566 -215.122)" fill="#19538d"/>
      <path id="Trazado_1000075" data-name="Trazado 1000075" d="M136.184,269.877a2.215,2.215,0,0,0-2.212-2.212h-5.166a2.215,2.215,0,0,0-2.212,2.212v5.166a2.215,2.215,0,0,0,2.212,2.212h5.166a2.215,2.215,0,0,0,2.212-2.212ZM133.83,274.9h-4.883v-4.883h4.883Z" transform="translate(-106.727 -215.122)" fill="#19538d"/>
      <path id="Trazado_1000076" data-name="Trazado 1000076" d="M214.661,269.877a2.215,2.215,0,0,0-2.212-2.212h-5.166a2.215,2.215,0,0,0-2.212,2.212v5.166a2.215,2.215,0,0,0,2.212,2.212h5.166a2.215,2.215,0,0,0,2.212-2.212Zm-2.354,5.025h-4.883v-4.883h4.883Z" transform="translate(-172.889 -215.122)" fill="#19538d"/>
      <path id="Trazado_1000077" data-name="Trazado 1000077" d="M276.452,188.614v-5.167a2.215,2.215,0,0,0-2.212-2.212h-5.166a2.215,2.215,0,0,0-2.212,2.212v5.167a2.215,2.215,0,0,0,2.212,2.212h5.166A2.215,2.215,0,0,0,276.452,188.614Zm-2.354-.142h-4.883v-4.883H274.1Z" transform="translate(-224.983 -142.255)" fill="#19538d"/>
      <path id="Trazado_1000078" data-name="Trazado 1000078" d="M347.1,181.236a2.215,2.215,0,0,0-2.212,2.212v5.167a2.215,2.215,0,0,0,2.212,2.212h5.166a2.215,2.215,0,0,0,2.212-2.212v-5.167a2.215,2.215,0,0,0-2.212-2.212Zm5.025,7.237h-4.883V183.59h4.883Z" transform="translate(-290.765 -142.256)" fill="#19538d"/>
      <path id="Trazado_1000079" data-name="Trazado 1000079" d="M50.329,351.123H55.5a2.215,2.215,0,0,0,2.212-2.212v-5.166a2.215,2.215,0,0,0-2.212-2.212H50.329a2.215,2.215,0,0,0-2.212,2.212v5.166A2.215,2.215,0,0,0,50.329,351.123Zm.142-7.237h4.883v4.883H50.471Z" transform="translate(-40.566 -277.397)" fill="#19538d"/>
      <path id="Trazado_1000080" data-name="Trazado 1000080" d="M128.805,351.123h5.166a2.215,2.215,0,0,0,2.212-2.212v-5.166a2.215,2.215,0,0,0-2.212-2.212h-5.166a2.215,2.215,0,0,0-2.212,2.212v5.166A2.215,2.215,0,0,0,128.805,351.123Zm.142-7.237h4.883v4.883h-4.883Z" transform="translate(-106.727 -277.397)" fill="#19538d"/>
      <path id="Trazado_1000081" data-name="Trazado 1000081" d="M212.449,341.532h-5.166a2.215,2.215,0,0,0-2.212,2.212v5.166a2.215,2.215,0,0,0,2.212,2.212h5.166a2.215,2.215,0,0,0,2.212-2.212v-5.166A2.215,2.215,0,0,0,212.449,341.532Zm-.142,7.237h-4.883v-4.883h4.883Z" transform="translate(-172.889 -277.397)" fill="#19538d"/>
      <path id="Trazado_1000082" data-name="Trazado 1000082" d="M41.9,333.15H8.134a5.787,5.787,0,0,1-5.78-5.78v-9.733a1.177,1.177,0,1,0-2.354,0v9.733A8.143,8.143,0,0,0,8.134,335.5H41.9a1.177,1.177,0,1,0,0-2.354Z" transform="translate(0 -256.259)" fill="#19538d"/>
      <path id="Trazado_1000083" data-name="Trazado 1000083" d="M1.177,57.539a1.177,1.177,0,0,0,1.177-1.177V32.751H55.3a1.177,1.177,0,0,0,0-2.354H2.354v-3.9a5.786,5.786,0,0,1,5.78-5.78h8.2v2.51a3.293,3.293,0,0,0,6.586,0v-2.51H46.552v2.51a3.293,3.293,0,1,0,6.586,0v-2.51h8.2a5.786,5.786,0,0,1,5.78,5.78v3.9h-6.8a1.177,1.177,0,0,0,0,2.354h6.8V50.09a1.177,1.177,0,1,0,2.354,0v-23.6a8.143,8.143,0,0,0-8.134-8.134h-8.2V15.794a3.293,3.293,0,1,0-6.586,0v2.565H22.915V15.794a3.293,3.293,0,1,0-6.586,0v2.565h-8.2A8.143,8.143,0,0,0,0,26.493V56.362A1.177,1.177,0,0,0,1.177,57.539ZM48.906,15.794a.939.939,0,1,1,1.878,0v7.429a.939.939,0,1,1-1.878,0Zm-30.223,0a.939.939,0,0,1,1.878,0v7.429a.939.939,0,0,1-1.878,0Z" transform="translate(0 0)" fill="#19538d"/>
      <path id="Trazado_1000084" data-name="Trazado 1000084" d="M316.947,282.267a1.177,1.177,0,1,0-2.271.621,15.689,15.689,0,0,1,.51,2.974h-1.864a1.177,1.177,0,0,0,0,2.354h1.865a15.63,15.63,0,0,1-3.757,9.053l-1.313-1.313a1.177,1.177,0,0,0-1.665,1.664l1.313,1.314a15.629,15.629,0,0,1-9.053,3.757v-1.865a1.177,1.177,0,1,0-2.354,0v1.865a15.628,15.628,0,0,1-9.052-3.757l1.314-1.314a1.177,1.177,0,0,0-1.665-1.665l-1.314,1.314a15.63,15.63,0,0,1-3.757-9.052h1.865a1.177,1.177,0,1,0,0-2.354h-1.865a15.629,15.629,0,0,1,3.757-9.052l1.314,1.314a1.177,1.177,0,1,0,1.664-1.665l-1.313-1.313a15.629,15.629,0,0,1,9.053-3.757v1.865a1.177,1.177,0,0,0,2.354,0v-1.864a15.6,15.6,0,0,1,9.061,3.748l-1.322,1.322a1.177,1.177,0,0,0,1.665,1.665l1.319-1.319a15.946,15.946,0,0,1,1.35,1.818,1.177,1.177,0,1,0,1.985-1.264,17.991,17.991,0,1,0,2.175,4.909Z" transform="translate(-237.315 -216.239)" fill="#19538d"/>
    </g>
  </g>
</svg>
