<svg xmlns="http://www.w3.org/2000/svg" xmlns:xlink="http://www.w3.org/1999/xlink" width="96" height="96" viewBox="0 0 96 96">
  <defs>
    <clipPath id="clip-path">
      <rect id="Rectángulo_455533" data-name="Rectángulo 455533" width="95.999" height="92.163" fill="#19538d"/>
    </clipPath>
  </defs>
  <g id="Grupo_1179952" data-name="Grupo 1179952" transform="translate(-383.746 -8399)">
    <circle id="Elipse_13674" data-name="Elipse 13674" cx="41.5" cy="41.5" r="41.5" transform="translate(389.711 8406)" fill="#19538d"/>
    <g id="Grupo_1179062" data-name="Grupo 1179062" transform="translate(383.745 8399)">
      <rect id="Rectángulo_455531" data-name="Rectángulo 455531" width="96" height="96" transform="translate(0 0)" fill="none"/>
      <g id="Grupo_1179061" data-name="Grupo 1179061" transform="translate(0 2.203)">
        <path id="Trazado_998445" data-name="Trazado 998445" d="M114.467,95.838H96.727l2.4-4.484h17.739Z" transform="translate(-23.693 -22.7)" fill="#19538d"/>
        <path id="Trazado_998446" data-name="Trazado 998446" d="M1.458,86.893,0,89.861H19.558l1.458-2.968Z" transform="translate(0 -21.618)" fill="#19538d"/>
        <path id="Trazado_998447" data-name="Trazado 998447" d="M117.539,31.293H98.809l1.469-3.326h18.73Z" transform="translate(-24.246 -6.956)" fill="#19538d"/>
        <path id="Trazado_998448" data-name="Trazado 998448" d="M28.088,11.547H3.483L4.952,8.221H29.557Z" transform="translate(-0.925 -2.184)" fill="#19538d"/>
        <g id="Grupo_1179060" data-name="Grupo 1179060" transform="translate(0)">
          <g id="Grupo_1179059" data-name="Grupo 1179059" clip-path="url(#clip-path)">
            <path id="Trazado_998449" data-name="Trazado 998449" d="M48.653,99.141a40.772,40.772,0,0,1-39.711-49.9H3.518A46.036,46.036,0,0,0,84.512,87.248h-7.1A40.6,40.6,0,0,1,48.653,99.141" transform="translate(-0.653 -12.277)" fill="#19538d"/>
            <path id="Trazado_998450" data-name="Trazado 998450" d="M110.835,87.933h6.025c.484-.964.923-1.952,1.34-2.953h-5.792c-.487,1.007-1.008,1.994-1.573,2.953" transform="translate(-27.709 -21.189)" fill="#19538d"/>
            <path id="Trazado_998451" data-name="Trazado 998451" d="M95.384,46.081a46.043,46.043,0,0,0-90.011-13.7h5.589A40.752,40.752,0,1,1,87.147,61.291h5.644a45.915,45.915,0,0,0,2.592-15.209" transform="translate(-1.343)" fill="#19538d"/>
            <path id="Trazado_998452" data-name="Trazado 998452" d="M108.562,81.649v2.5h3.277q.594-1.228,1.106-2.5Z" transform="translate(-27.141 -20.358)" fill="#19538d"/>
            <path id="Trazado_998453" data-name="Trazado 998453" d="M126.164,81.649h-4.551q-.444,1.268-.958,2.5h5.509Z" transform="translate(-30.164 -20.358)" fill="#19538d"/>
          </g>
        </g>
        <path id="Trazado_998444" data-name="Trazado 998444" d="M2.2,37.025,0,41.509H13.317l2.2-4.484Z" transform="translate(0 -9.2)" fill="#19538d"/>
      </g>
    </g>
    <g id="Grupo_1177669" data-name="Grupo 1177669" transform="translate(402.444 8417.662)">
      <g id="Grupo_1099618" data-name="Grupo 1099618" transform="translate(0.267 0.338)">
        <rect id="Rectángulo_401104" data-name="Rectángulo 401104" width="56.349" height="57.028" transform="translate(0)" fill="none"/>
      </g>
      <g id="adaptar" transform="translate(-2.406 1.338)">
        <path id="Trazado_1000115" data-name="Trazado 1000115" d="M19.408,102.915a.928.928,0,0,0-.038-.949l-7-10.744a.928.928,0,0,0-1.556,0l-.079.121a20.138,20.138,0,0,1,4.551-17.133l.928,1.315A.919.919,0,0,0,17.8,75.38L21.256,67.9a.919.919,0,0,0-.918-1.3l-8.2.747a.919.919,0,0,0-.668,1.445l1.175,1.665A24.745,24.745,0,0,0,6.177,83.438,24.488,24.488,0,0,0,7.523,96.284l-3.7,5.682A.928.928,0,0,0,4.6,103.4h13.99a.928.928,0,0,0,.816-.486ZM7.738,83.695A23.132,23.132,0,0,1,14.156,71.18a.916.916,0,0,0,.1-1.179l-.831-1.177,5.911-.538-2.488,5.388-.741-1.051a.92.92,0,0,0-1.418-.1A21.716,21.716,0,0,0,9.547,93.173L8.606,94.62A22.888,22.888,0,0,1,7.738,83.695ZM5.808,101.818,11.6,92.927l5.789,8.891Z" transform="translate(0 -59.573)" fill="#fff"/>
        <path id="Trazado_1000116" data-name="Trazado 1000116" d="M164.093,314.929a6.757,6.757,0,0,0-2.034.312.791.791,0,0,0,.476,1.51,5.175,5.175,0,1,1-2.585,1.837.791.791,0,0,0-1.267-.949,6.754,6.754,0,0,0-.634,7.062,20.053,20.053,0,0,1-16.94,4.476l.675-1.462a.919.919,0,0,0-.918-1.3l-2.3.21a.791.791,0,1,0,.144,1.576l1.156-.106-.539,1.167a.92.92,0,0,0,.62,1.28,21.729,21.729,0,0,0,18.98-4.51,6.822,6.822,0,0,0,.955.931,22.744,22.744,0,0,1-6.78,4.011,23.017,23.017,0,0,1-14.047.7.917.917,0,0,0-1.072.5l-.6,1.308-3.422-4.849,1.051-.1a.791.791,0,1,0-.144-1.576l-2.2.2a.919.919,0,0,0-.667,1.445l4.747,6.728a.919.919,0,0,0,1.585-.145l.854-1.85a24.607,24.607,0,0,0,14.473-.886,24.333,24.333,0,0,0,7.632-4.623,6.755,6.755,0,1,0,2.8-12.9Z" transform="translate(-114.635 -281.698)" fill="#fff"/>
        <path id="Trazado_1000117" data-name="Trazado 1000117" d="M229.109,21.156a.922.922,0,0,0-.834-.385l-2.029.185A24.507,24.507,0,0,0,209.075,4.163V.929A.93.93,0,0,0,208.146,0H197.288a.93.93,0,0,0-.929.929V3.393a.791.791,0,0,0,1.583,0V1.583h9.55v9.55h-9.55V7.086a.791.791,0,0,0-1.583,0v4.7a.93.93,0,0,0,.929.929h10.859a.93.93,0,0,0,.928-.929V8.852a20.258,20.258,0,0,1,12.6,12.521l-1.6.146a.919.919,0,0,0-.668,1.445l4.749,6.728a.919.919,0,0,0,1.585-.145l3.454-7.476a.922.922,0,0,0-.084-.915Zm-4.324,6.684-3.422-4.849,1.28-.117a.92.92,0,0,0,.8-1.176,21.574,21.574,0,0,0-5.62-9.292,21.855,21.855,0,0,0-8.746-5.218V5.806a22.923,22.923,0,0,1,15.794,16.1.916.916,0,0,0,.97.678l1.435-.131Z" transform="translate(-172.355)" fill="#fff"/>
        <path id="Trazado_1000118" data-name="Trazado 1000118" d="M213.052,229.852a5.162,5.162,0,1,0-5.162-5.162A5.167,5.167,0,0,0,213.052,229.852Zm0-8.741a3.579,3.579,0,1,1-3.579,3.579A3.583,3.583,0,0,1,213.052,221.112Z" transform="translate(-182.669 -196.365)" fill="#fff"/>
        <path id="Trazado_1000119" data-name="Trazado 1000119" d="M140.922,158.022l1.081,1.8a10.313,10.313,0,0,0-.444,1.071l-2.039.51a.868.868,0,0,0-.657.842v4.117a.867.867,0,0,0,.658.843l2.038.51a10.328,10.328,0,0,0,.444,1.071l-1.08,1.8a.867.867,0,0,0,.13,1.062l2.911,2.911a.867.867,0,0,0,1.061.131l1.8-1.081a10.319,10.319,0,0,0,1.071.444l.51,2.038a.867.867,0,0,0,.843.657h4.117a.868.868,0,0,0,.843-.658l.509-2.038a10.313,10.313,0,0,0,1.071-.444l1.8,1.081a.868.868,0,0,0,1.061-.131l2.911-2.911a.868.868,0,0,0,.131-1.061l-1.081-1.8a10.326,10.326,0,0,0,.444-1.071l2.037-.509a.867.867,0,0,0,.658-.843v-4.117a.868.868,0,0,0-.656-.842h0l-2.038-.509a10.312,10.312,0,0,0-.444-1.071l1.082-1.8a.868.868,0,0,0-.132-1.059l-2.911-2.911a.868.868,0,0,0-1.061-.131L155.79,155a10.313,10.313,0,0,0-1.071-.444l-.51-2.039a.868.868,0,0,0-.842-.656H149.25a.868.868,0,0,0-.843.658l-.509,2.038a10.31,10.31,0,0,0-1.071.444l-1.8-1.082a.867.867,0,0,0-1.059.132l-2.911,2.911A.868.868,0,0,0,140.922,158.022Zm2.641,1.326-1-1.662,2.123-2.123,1.663,1a.873.873,0,0,0,.854.021,8.708,8.708,0,0,1,1.543-.64.873.873,0,0,0,.589-.62l.47-1.88h3l.47,1.879a.872.872,0,0,0,.588.62,8.708,8.708,0,0,1,1.546.641.873.873,0,0,0,.852-.023l1.662-1,2.123,2.123-1,1.663a.875.875,0,0,0-.021.854,8.71,8.71,0,0,1,.64,1.543.871.871,0,0,0,.62.589l1.88.47v3l-1.878.47a.872.872,0,0,0-.621.589,8.708,8.708,0,0,1-.641,1.545.873.873,0,0,0,.022.853l1,1.662-2.123,2.123-1.663-1a.873.873,0,0,0-.854-.021,8.712,8.712,0,0,1-1.543.64.872.872,0,0,0-.589.619l-.47,1.88h-3l-.47-1.881a.872.872,0,0,0-.588-.619,8.714,8.714,0,0,1-1.544-.64.874.874,0,0,0-.854.022l-1.662,1-2.123-2.123,1-1.662a.872.872,0,0,0,.022-.855,8.708,8.708,0,0,1-.64-1.542.872.872,0,0,0-.62-.59l-1.88-.47v-3l1.879-.47a.872.872,0,0,0,.62-.588,8.716,8.716,0,0,1,.64-1.544.871.871,0,0,0-.022-.855Z" transform="translate(-120.926 -135.836)" fill="#fff"/>
      </g>
    </g>
  </g>
</svg>
