<svg xmlns="http://www.w3.org/2000/svg" xmlns:xlink="http://www.w3.org/1999/xlink" width="96" height="96" viewBox="0 0 96 96">
  <defs>
    <clipPath id="clip-path">
      <rect id="Rectángulo_455533" data-name="Rectángulo 455533" width="95.999" height="92.163" fill="#19538d"/>
    </clipPath>
  </defs>
  <g id="Grupo_1179981" data-name="Grupo 1179981" transform="translate(-383.746 -8399)">
    <circle id="Elipse_13674" data-name="Elipse 13674" cx="41.5" cy="41.5" r="41.5" transform="translate(389.746 8406)" fill="#19538d"/>
    <g id="Grupo_1179062" data-name="Grupo 1179062" transform="translate(383.745 8399)">
      <rect id="Rectángulo_455531" data-name="Rectángulo 455531" width="96" height="96" transform="translate(0 0)" fill="none"/>
      <g id="Grupo_1179061" data-name="Grupo 1179061" transform="translate(0 2.203)">
        <path id="Trazado_998445" data-name="Trazado 998445" d="M114.467,95.838H96.727l2.4-4.484h17.739Z" transform="translate(-23.693 -22.7)" fill="#19538d"/>
        <path id="Trazado_998446" data-name="Trazado 998446" d="M1.458,86.893,0,89.861H19.558l1.458-2.968Z" transform="translate(0 -21.618)" fill="#19538d"/>
        <path id="Trazado_998447" data-name="Trazado 998447" d="M117.539,31.293H98.809l1.469-3.326h18.73Z" transform="translate(-24.246 -6.956)" fill="#19538d"/>
        <path id="Trazado_998448" data-name="Trazado 998448" d="M28.088,11.547H3.483L4.952,8.221H29.557Z" transform="translate(-0.925 -2.184)" fill="#19538d"/>
        <g id="Grupo_1179060" data-name="Grupo 1179060" transform="translate(0)">
          <g id="Grupo_1179059" data-name="Grupo 1179059" clip-path="url(#clip-path)">
            <path id="Trazado_998449" data-name="Trazado 998449" d="M48.653,99.141a40.772,40.772,0,0,1-39.711-49.9H3.518A46.036,46.036,0,0,0,84.512,87.248h-7.1A40.6,40.6,0,0,1,48.653,99.141" transform="translate(-0.653 -12.277)" fill="#19538d"/>
            <path id="Trazado_998450" data-name="Trazado 998450" d="M110.835,87.933h6.025c.484-.964.923-1.952,1.34-2.953h-5.792c-.487,1.007-1.008,1.994-1.573,2.953" transform="translate(-27.709 -21.189)" fill="#19538d"/>
            <path id="Trazado_998451" data-name="Trazado 998451" d="M95.384,46.081a46.043,46.043,0,0,0-90.011-13.7h5.589A40.752,40.752,0,1,1,87.147,61.291h5.644a45.915,45.915,0,0,0,2.592-15.209" transform="translate(-1.343)" fill="#19538d"/>
            <path id="Trazado_998452" data-name="Trazado 998452" d="M108.562,81.649v2.5h3.277q.594-1.228,1.106-2.5Z" transform="translate(-27.141 -20.358)" fill="#19538d"/>
            <path id="Trazado_998453" data-name="Trazado 998453" d="M126.164,81.649h-4.551q-.444,1.268-.958,2.5h5.509Z" transform="translate(-30.164 -20.358)" fill="#19538d"/>
          </g>
        </g>
        <path id="Trazado_998444" data-name="Trazado 998444" d="M2.2,37.025,0,41.509H13.317l2.2-4.484Z" transform="translate(0 -9.2)" fill="#19538d"/>
      </g>
    </g>
    <g id="Grupo_1177669" data-name="Grupo 1177669" transform="translate(403.444 8418.662)">
      <g id="Grupo_1099618" data-name="Grupo 1099618" transform="translate(0 0)">
        <rect id="Rectángulo_401104" data-name="Rectángulo 401104" width="56.349" height="57.028" transform="translate(0)" fill="none"/>
      </g>
      <path id="explicar" d="M8.31,83.912a4.829,4.829,0,1,0-4.829-4.828A4.835,4.835,0,0,0,8.31,83.912Zm0-8a3.169,3.169,0,1,1-3.169,3.169A3.173,3.173,0,0,1,8.31,75.915ZM49.7,66.089H27.669v-6.08a2.442,2.442,0,0,0-2.439-2.439H10.87A2.442,2.442,0,0,0,8.43,60.009v8.172a2.442,2.442,0,0,0,2.439,2.439h2.244l-.331,2.4a1.141,1.141,0,0,0,1.979.911l1.3-1.44V83.27l-2.124,1.039a3.635,3.635,0,0,1-1.7.392h-5.2A7.043,7.043,0,0,0,0,91.734V96.56a2.211,2.211,0,0,0,2.21,2.207h9.854a2.211,2.211,0,0,0,2.21-2.207v-2.7a3.77,3.77,0,0,1,1.787-3.253v12.71a3.452,3.452,0,0,0,3.448,3.448H49.7a3.452,3.452,0,0,0,3.448-3.448V69.541A3.453,3.453,0,0,0,49.7,66.089ZM21.219,88.057l5.24-2.563a3.283,3.283,0,0,0-2.885-5.9L21.22,80.746v-9.5H47.992V93.611H21.22V88.057Zm-6.56-16.49.181-1.306a1.138,1.138,0,0,0-1.126-1.3H10.872a.79.79,0,0,1-.78-.78V60.009a.781.781,0,0,1,.78-.78h14.36a.781.781,0,0,1,.78.78v8.172a.79.79,0,0,1-.78.78h-7.71a1.129,1.129,0,0,0-.845.374Zm3.061-.914.029-.032h1.809V81.559l-1.839.9v-11.8ZM12.615,93.861v2.7a.549.549,0,0,1-.55.547H2.21a.55.55,0,0,1-.55-.547V91.733A5.381,5.381,0,0,1,7.036,86.36h5.2a5.33,5.33,0,0,0,2.427-.562L24.3,81.084A1.624,1.624,0,0,1,25.73,84l-10.023,4.9a5.412,5.412,0,0,0-3.092,4.956Zm38.875,9.456a1.791,1.791,0,0,1-1.789,1.789H19.51a1.791,1.791,0,0,1-1.789-1.789V89.768l1.839-.9V94.44a.829.829,0,0,0,.829.829H48.821a.83.83,0,0,0,.829-.829V70.418a.829.829,0,0,0-.829-.829h-21.6a2.422,2.422,0,0,0,.448-1.407v-.433H49.7a1.792,1.792,0,0,1,1.789,1.792ZM12.012,62.088a.829.829,0,0,1,.829-.829H23.258a.829.829,0,0,1,0,1.659H12.842A.83.83,0,0,1,12.012,62.088ZM18.9,66.931H12.842a.829.829,0,0,1,0-1.659H18.9a.829.829,0,0,1,0,1.659Zm25.263,8.8a.829.829,0,0,1-.829.829H25.874a.829.829,0,1,1,0-1.659H43.336A.829.829,0,0,1,44.166,75.735Zm0,6.695a.829.829,0,0,1-.829.829H30.953a.829.829,0,1,1,0-1.659H43.336A.829.829,0,0,1,44.166,82.43Zm0,6.694a.829.829,0,0,1-.829.829H25.874a.829.829,0,1,1,0-1.659H43.336A.83.83,0,0,1,44.166,89.123Z" transform="translate(0.528 -54.481)" fill="#fff"/>
    </g>
  </g>
</svg>
