<svg xmlns="http://www.w3.org/2000/svg" xmlns:xlink="http://www.w3.org/1999/xlink" width="96" height="96" viewBox="0 0 96 96">
  <defs>
    <clipPath id="clip-path">
      <rect id="Rectángulo_455533" data-name="Rectángulo 455533" width="95.999" height="92.163" fill="#19538d"/>
    </clipPath>
  </defs>
  <g id="Grupo_1179980" data-name="Grupo 1179980" transform="translate(-383.746 -8399)">
    <circle id="Elipse_13674" data-name="Elipse 13674" cx="41.5" cy="41.5" r="41.5" transform="translate(389.746 8406)" fill="#19538d"/>
    <g id="Grupo_1179062" data-name="Grupo 1179062" transform="translate(383.745 8399)">
      <rect id="Rectángulo_455531" data-name="Rectángulo 455531" width="96" height="96" transform="translate(0 0)" fill="none"/>
      <g id="Grupo_1179061" data-name="Grupo 1179061" transform="translate(0 2.203)">
        <path id="Trazado_998445" data-name="Trazado 998445" d="M114.467,95.838H96.727l2.4-4.484h17.739Z" transform="translate(-23.693 -22.7)" fill="#19538d"/>
        <path id="Trazado_998446" data-name="Trazado 998446" d="M1.458,86.893,0,89.861H19.558l1.458-2.968Z" transform="translate(0 -21.618)" fill="#19538d"/>
        <path id="Trazado_998447" data-name="Trazado 998447" d="M117.539,31.293H98.809l1.469-3.326h18.73Z" transform="translate(-24.246 -6.956)" fill="#19538d"/>
        <path id="Trazado_998448" data-name="Trazado 998448" d="M28.088,11.547H3.483L4.952,8.221H29.557Z" transform="translate(-0.925 -2.184)" fill="#19538d"/>
        <g id="Grupo_1179060" data-name="Grupo 1179060" transform="translate(0)">
          <g id="Grupo_1179059" data-name="Grupo 1179059" clip-path="url(#clip-path)">
            <path id="Trazado_998449" data-name="Trazado 998449" d="M48.653,99.141a40.772,40.772,0,0,1-39.711-49.9H3.518A46.036,46.036,0,0,0,84.512,87.248h-7.1A40.6,40.6,0,0,1,48.653,99.141" transform="translate(-0.653 -12.277)" fill="#19538d"/>
            <path id="Trazado_998450" data-name="Trazado 998450" d="M110.835,87.933h6.025c.484-.964.923-1.952,1.34-2.953h-5.792c-.487,1.007-1.008,1.994-1.573,2.953" transform="translate(-27.709 -21.189)" fill="#19538d"/>
            <path id="Trazado_998451" data-name="Trazado 998451" d="M95.384,46.081a46.043,46.043,0,0,0-90.011-13.7h5.589A40.752,40.752,0,1,1,87.147,61.291h5.644a45.915,45.915,0,0,0,2.592-15.209" transform="translate(-1.343)" fill="#19538d"/>
            <path id="Trazado_998452" data-name="Trazado 998452" d="M108.562,81.649v2.5h3.277q.594-1.228,1.106-2.5Z" transform="translate(-27.141 -20.358)" fill="#19538d"/>
            <path id="Trazado_998453" data-name="Trazado 998453" d="M126.164,81.649h-4.551q-.444,1.268-.958,2.5h5.509Z" transform="translate(-30.164 -20.358)" fill="#19538d"/>
          </g>
        </g>
        <path id="Trazado_998444" data-name="Trazado 998444" d="M2.2,37.025,0,41.509H13.317l2.2-4.484Z" transform="translate(0 -9.2)" fill="#19538d"/>
      </g>
    </g>
    <g id="Grupo_1177669" data-name="Grupo 1177669" transform="translate(403.444 8418.662)">
      <g id="Grupo_1099618" data-name="Grupo 1099618" transform="translate(0 0)">
        <rect id="Rectángulo_401104" data-name="Rectángulo 401104" width="56.349" height="57.028" transform="translate(0)" fill="none"/>
      </g>
      <g id="diagrama-de-flujo_1_" data-name="diagrama-de-flujo (1)" transform="translate(-19.711 -0.241)">
        <path id="Trazado_1000356" data-name="Trazado 1000356" d="M156.217,366.638H139.238a1.078,1.078,0,0,1-1.078-1.078v-6.8a1.078,1.078,0,0,1,1.078-1.078h16.979a1.078,1.078,0,0,1,1.078,1.078v6.8A1.078,1.078,0,0,1,156.217,366.638Zm-15.9-2.156h14.823v-4.646H140.316Z" transform="translate(-100.507 -309.481)" fill="#fff"/>
        <path id="Trazado_1000357" data-name="Trazado 1000357" d="M156.217,111.2H139.238a1.078,1.078,0,0,1-1.078-1.078V99.958a1.078,1.078,0,0,1,1.078-1.078h16.979a1.078,1.078,0,0,1,1.078,1.078v10.166A1.078,1.078,0,0,1,156.217,111.2Zm-15.9-2.156h14.823v-8.01H140.316Z" transform="translate(-100.507 -85.556)" fill="#fff"/>
        <path id="Trazado_1000358" data-name="Trazado 1000358" d="M128.7,10.392c-6.231,0-12.537-1.79-12.537-5.2S122.466,0,128.7,0s12.537,1.79,12.537,5.2S134.929,10.392,128.7,10.392Zm0-8.236c-6.716,0-10.381,2.005-10.381,3.04s3.665,3.04,10.381,3.04S139.079,6.22,139.079,5.2s-3.665-3.04-10.381-3.04Z" transform="translate(-81.472)" fill="#fff"/>
        <path id="Trazado_1000359" data-name="Trazado 1000359" d="M162.615,266.68h-14.7a1.066,1.066,0,0,1-.83-1.714l7.352-8.711a1.078,1.078,0,0,1,1.649,0l7.352,8.711a1.078,1.078,0,0,1-.819,1.768Zm-12.43-2.156h10.058l-5.024-5.951Z" transform="translate(-108.037 -221.392)" fill="#fff"/>
        <path id="Trazado_1000360" data-name="Trazado 1000360" d="M202.278,210.877A1.078,1.078,0,0,1,201.2,209.8v-6.641a1.078,1.078,0,0,1,2.156,0V209.8A1.078,1.078,0,0,1,202.278,210.877Z" transform="translate(-155.052 -174.849)" fill="#fff"/>
        <path id="Trazado_1000361" data-name="Trazado 1000361" d="M300.783,47.377H288.924a1.078,1.078,0,1,1,0-2.156H299.7V32.716H287.318a1.078,1.078,0,0,1,0-2.156h13.465a1.078,1.078,0,0,1,1.078,1.078V46.3A1.078,1.078,0,0,1,300.783,47.377Z" transform="translate(-228.633 -26.442)" fill="#fff"/>
        <path id="Trazado_1000362" data-name="Trazado 1000362" d="M34.4,174.342H23.078A1.078,1.078,0,0,1,22,173.264V140.438a1.078,1.078,0,0,1,1.078-1.078h15a1.078,1.078,0,1,1,0,2.156H24.156v30.67H34.4a1.078,1.078,0,0,1,0,2.156Z" transform="translate(0 -120.581)" fill="#fff"/>
        <path id="Trazado_1000363" data-name="Trazado 1000363" d="M290.447,124.2a1.078,1.078,0,0,1-.765-.323l-3.169-3.169a1.078,1.078,0,0,1-.006-1.525l.006-.006,3.169-3.169a1.082,1.082,0,1,1,1.542,1.52l-2.426,2.426,2.426,2.4a1.078,1.078,0,0,1-.765,1.843Z" transform="translate(-228.592 -100.098)" fill="#fff"/>
        <path id="Trazado_1000364" data-name="Trazado 1000364" d="M286.444,289.367H273.238a1.078,1.078,0,0,1,0-2.156h12.128V274.716h-10.78a1.078,1.078,0,0,1,0-2.156h11.858a1.078,1.078,0,0,1,1.078,1.078v14.65A1.078,1.078,0,0,1,286.444,289.367Z" transform="translate(-216.45 -235.831)" fill="#fff"/>
        <path id="Trazado_1000365" data-name="Trazado 1000365" d="M274.447,257.47a1.078,1.078,0,0,1-.765-.323l-3.169-3.169a1.078,1.078,0,0,1-.006-1.525l.006-.006,3.169-3.169a1.078,1.078,0,0,1,1.524-.017l.017.017a1.078,1.078,0,0,1,0,1.52l-2.415,2.415,2.415,2.415a1.078,1.078,0,0,1-.765,1.843Z" transform="translate(-214.749 -215.406)" fill="#fff"/>
        <path id="Trazado_1000366" data-name="Trazado 1000366" d="M185,195.656a1.078,1.078,0,0,1-.7-.345l-2.415-2.415-2.469,2.415a1.082,1.082,0,0,1-1.531-1.531l3.18-3.148a1.08,1.08,0,0,1,1.52,0l3.234,3.18a1.078,1.078,0,0,1,.006,1.525l-.006.006A1.078,1.078,0,0,1,185,195.656Z" transform="translate(-134.604 -164.674)" fill="#fff"/>
        <path id="Trazado_1000367" data-name="Trazado 1000367" d="M95.312,367.929a1.073,1.073,0,0,1-.765-1.833l2.415-2.415-2.415-2.415a1.075,1.075,0,0,1,1.52-1.52l3.191,3.169a1.078,1.078,0,0,1,.006,1.525l-.006.006-3.234,3.169A1.078,1.078,0,0,1,95.312,367.929Z" transform="translate(-62.5 -310.998)" fill="#fff"/>
      </g>
    </g>
  </g>
</svg>
