<svg xmlns="http://www.w3.org/2000/svg" xmlns:xlink="http://www.w3.org/1999/xlink" width="96" height="96" viewBox="0 0 96 96">
  <defs>
    <clipPath id="clip-path">
      <rect id="Rectángulo_455533" data-name="Rectángulo 455533" width="95.999" height="92.163" fill="#19538d"/>
    </clipPath>
  </defs>
  <g id="Grupo_1179970" data-name="Grupo 1179970" transform="translate(-383.745 -8399)">
    <circle id="Elipse_13674" data-name="Elipse 13674" cx="41.5" cy="41.5" r="41.5" transform="translate(389.746 8406)" fill="#19538d"/>
    <g id="Grupo_1179062" data-name="Grupo 1179062" transform="translate(383.745 8399)">
      <rect id="Rectángulo_455531" data-name="Rectángulo 455531" width="96" height="96" transform="translate(0 0)" fill="none"/>
      <g id="Grupo_1179061" data-name="Grupo 1179061" transform="translate(0 2.203)">
        <path id="Trazado_998445" data-name="Trazado 998445" d="M114.467,95.838H96.727l2.4-4.484h17.739Z" transform="translate(-23.693 -22.7)" fill="#19538d"/>
        <path id="Trazado_998446" data-name="Trazado 998446" d="M1.458,86.893,0,89.861H19.558l1.458-2.968Z" transform="translate(0 -21.618)" fill="#19538d"/>
        <path id="Trazado_998447" data-name="Trazado 998447" d="M117.539,31.293H98.809l1.469-3.326h18.73Z" transform="translate(-24.246 -6.956)" fill="#19538d"/>
        <path id="Trazado_998448" data-name="Trazado 998448" d="M28.088,11.547H3.483L4.952,8.221H29.557Z" transform="translate(-0.925 -2.184)" fill="#19538d"/>
        <g id="Grupo_1179060" data-name="Grupo 1179060" transform="translate(0)">
          <g id="Grupo_1179059" data-name="Grupo 1179059" clip-path="url(#clip-path)">
            <path id="Trazado_998449" data-name="Trazado 998449" d="M48.653,99.141a40.772,40.772,0,0,1-39.711-49.9H3.518A46.036,46.036,0,0,0,84.512,87.248h-7.1A40.6,40.6,0,0,1,48.653,99.141" transform="translate(-0.653 -12.277)" fill="#19538d"/>
            <path id="Trazado_998450" data-name="Trazado 998450" d="M110.835,87.933h6.025c.484-.964.923-1.952,1.34-2.953h-5.792c-.487,1.007-1.008,1.994-1.573,2.953" transform="translate(-27.709 -21.189)" fill="#19538d"/>
            <path id="Trazado_998451" data-name="Trazado 998451" d="M95.384,46.081a46.043,46.043,0,0,0-90.011-13.7h5.589A40.752,40.752,0,1,1,87.147,61.291h5.644a45.915,45.915,0,0,0,2.592-15.209" transform="translate(-1.343)" fill="#19538d"/>
            <path id="Trazado_998452" data-name="Trazado 998452" d="M108.562,81.649v2.5h3.277q.594-1.228,1.106-2.5Z" transform="translate(-27.141 -20.358)" fill="#19538d"/>
            <path id="Trazado_998453" data-name="Trazado 998453" d="M126.164,81.649h-4.551q-.444,1.268-.958,2.5h5.509Z" transform="translate(-30.164 -20.358)" fill="#19538d"/>
          </g>
        </g>
        <path id="Trazado_998444" data-name="Trazado 998444" d="M2.2,37.025,0,41.509H13.317l2.2-4.484Z" transform="translate(0 -9.2)" fill="#19538d"/>
      </g>
    </g>
    <g id="Grupo_1177669" data-name="Grupo 1177669" transform="translate(403.444 8418.662)">
      <g id="Grupo_1099618" data-name="Grupo 1099618" transform="translate(0 0)">
        <rect id="Rectángulo_401104" data-name="Rectángulo 401104" width="56.349" height="57.028" transform="translate(0)" fill="none"/>
      </g>
      <g id="investigacion_1_" data-name="investigacion (1)" transform="translate(2.242 2.943)">
        <path id="Trazado_1000347" data-name="Trazado 1000347" d="M415.82,114.881a20.869,20.869,0,0,0-.985-6.349l-1.657.529a19.182,19.182,0,0,1-2.445,16.639l1.434.981a20.754,20.754,0,0,0,3.653-11.8Zm0,0" transform="translate(-368.854 -97.465)" fill="#fff"/>
        <path id="Trazado_1000348" data-name="Trazado 1000348" d="M61.263,3.123,60.28,1.687a20.9,20.9,0,0,0-8.123,23.593l1.657-.529A19.165,19.165,0,0,1,61.263,3.123Zm0,0" transform="translate(-45.955 -1.516)" fill="#fff"/>
        <path id="Trazado_1000349" data-name="Trazado 1000349" d="M69.852,245.9c-.3-.543-.567-1.1-.806-1.663l-1.6.68c.261.609.557,1.224.879,1.816Zm0,0" transform="translate(-60.568 -219.331)" fill="#fff"/>
        <path id="Trazado_1000350" data-name="Trazado 1000350" d="M161.755,55.12a2.261,2.261,0,0,1-1.259-2.036V48.07a3.479,3.479,0,0,1,6.958,0v5.013A2.262,2.262,0,0,1,166.2,55.12a.871.871,0,0,0-.481.778v1.74a.87.87,0,0,0,.658.844l4.324,1.081a2.61,2.61,0,0,1,1.976,2.531v4.242h1.739V62.094a4.343,4.343,0,0,0-3.294-4.219l-3.664-.916v-.565a3.99,3.99,0,0,0,1.739-3.305V48.07a5.219,5.219,0,0,0-10.437,0v5.013a3.99,3.99,0,0,0,1.74,3.309v.565l-3.664.916a4.343,4.343,0,0,0-3.295,4.219v4.242h1.74V62.094a2.609,2.609,0,0,1,1.976-2.531l4.324-1.081a.87.87,0,0,0,.658-.844V55.9a.87.87,0,0,0-.481-.778Zm0,0" transform="translate(-137.883 -38.482)" fill="#fff"/>
        <path id="Trazado_1000351" data-name="Trazado 1000351" d="M187.66,247.57H189.4v4.349H187.66Zm0,0" transform="translate(-168.525 -222.327)" fill="#fff"/>
        <path id="Trazado_1000352" data-name="Trazado 1000352" d="M307.078,247.57h1.74v4.349h-1.74Zm0,0" transform="translate(-275.767 -222.327)" fill="#fff"/>
        <path id="Trazado_1000353" data-name="Trazado 1000353" d="M1.739,325.476a2.61,2.61,0,0,1,1.976-2.531l4.324-1.081a.87.87,0,0,0,.658-.844V319.28a.871.871,0,0,0-.481-.783,2.262,2.262,0,0,1-1.259-2.032v-5.013a3.479,3.479,0,0,1,6.958,0v5.013a2.261,2.261,0,0,1-1.259,2.036.87.87,0,0,0-.481.783v1.74a.87.87,0,0,0,.658.844l4.324,1.081a2.61,2.61,0,0,1,1.976,2.527v1.739h1.739v-1.739a4.343,4.343,0,0,0-3.294-4.219l-3.664-.913v-.565a3.99,3.99,0,0,0,1.739-3.305v-5.021a5.219,5.219,0,1,0-10.437,0v5.013a3.99,3.99,0,0,0,1.74,3.31v.566l-3.664.916A4.344,4.344,0,0,0,0,325.476v1.739H1.74v-1.739Zm0,0" transform="translate(0 -275.009)" fill="#fff"/>
        <path id="Trazado_1000354" data-name="Trazado 1000354" d="M324.659,321.254l-3.664-.913v-.565a3.991,3.991,0,0,0,1.739-3.305v-5.021a5.219,5.219,0,1,0-10.437,0v5.013a3.99,3.99,0,0,0,1.74,3.309v.565l-3.664.916a4.343,4.343,0,0,0-3.295,4.219v1.739h1.74v-1.739a2.609,2.609,0,0,1,1.976-2.531l4.324-1.081a.87.87,0,0,0,.658-.844v-1.739a.87.87,0,0,0-.481-.783,2.261,2.261,0,0,1-1.258-2.032V311.45a3.479,3.479,0,1,1,6.958,0v5.013a2.261,2.261,0,0,1-1.259,2.036.87.87,0,0,0-.481.783v1.74a.87.87,0,0,0,.659.844l4.324,1.081a2.61,2.61,0,0,1,1.976,2.527v1.739h1.739v-1.739A4.343,4.343,0,0,0,324.659,321.254Zm0,0" transform="translate(-275.767 -275.006)" fill="#fff"/>
        <path id="Trazado_1000355" data-name="Trazado 1000355" d="M120.091,17.416a17.4,17.4,0,1,0-20,17.178V36.55a.87.87,0,0,0-.87.87V48.727a3.479,3.479,0,1,0,6.958,0V37.42a.87.87,0,0,0-.87-.87V34.594a17.408,17.408,0,0,0,14.786-17.178Zm-33.051,0A15.656,15.656,0,1,1,102.7,33.071,15.656,15.656,0,0,1,87.04,17.416Zm17.4,31.311a1.739,1.739,0,1,1-3.479,0V38.29h3.479Zm-.869-12.176h-1.74V34.766c.29.015.576.045.87.045s.58-.03.87-.045Zm0,0" transform="translate(-76.603)" fill="#fff"/>
      </g>
    </g>
  </g>
</svg>
