<svg xmlns="http://www.w3.org/2000/svg" width="65" height="65" viewBox="0 0 65 65">
  <g id="Grupo_1180157" data-name="Grupo 1180157" transform="translate(-521.711 -8118)">
    <path id="Trazado_999703" data-name="Trazado 999703" d="M0,0H65V65H0Z" transform="translate(521.711 8118)" fill="#19538d"/>
    <path id="comentario" d="M34.328-1.332H5.472A5.478,5.478,0,0,0,0,4.14V21.8A5.477,5.477,0,0,0,5.453,27.27v8.014l11.516-8.013H34.328A5.478,5.478,0,0,0,39.8,21.8V4.14a5.478,5.478,0,0,0-5.472-5.472ZM29.147,19.19H10.653V16.858H29.147Zm0-4.975H10.653V11.883H29.147Zm0-4.975H10.653V6.908H29.147Zm0,0" transform="translate(534.71 8133.332)" fill="#fff"/>
  </g>
</svg>
