<svg xmlns="http://www.w3.org/2000/svg" xmlns:xlink="http://www.w3.org/1999/xlink" width="292" height="191" viewBox="0 0 292 191">
  <defs>
    <clipPath id="clip-path">
      <rect id="Rectángulo_456903" data-name="Rectángulo 456903" width="204.144" height="170.284" fill="none"/>
    </clipPath>
    <clipPath id="clip-path-3">
      <rect id="Rectángulo_456899" data-name="Rectángulo 456899" width="32.501" height="32.508" fill="none"/>
    </clipPath>
  </defs>
  <g id="Grupo_1180059" data-name="Grupo 1180059" transform="translate(-1017.711 -10723)">
    <rect id="Rectángulo_456837" data-name="Rectángulo 456837" width="292" height="191" transform="translate(1017.711 10723)" fill="#7dbfff"/>
    <g id="Grupo_1180058" data-name="Grupo 1180058" transform="translate(1061.711 10733)">
      <g id="Grupo_1180057" data-name="Grupo 1180057" clip-path="url(#clip-path)">
        <g id="Grupo_1180056" data-name="Grupo 1180056">
          <g id="Grupo_1180055" data-name="Grupo 1180055" clip-path="url(#clip-path)">
            <path id="Trazado_999864" data-name="Trazado 999864" d="M60.434,158.031a84.042,84.042,0,1,1,87.707-.692Z" transform="translate(-4.142 -0.408)" fill="#a8c7ef"/>
            <path id="Trazado_999865" data-name="Trazado 999865" d="M143.68,155.278a219.5,219.5,0,0,0,1.394,27.253l.306.486h88.682a2.314,2.314,0,0,0-1-3.258,21.654,21.654,0,0,0-12.4-1.863,34.349,34.349,0,0,0,9.329-6.972c.919-.974,1.863-2.212.884-3.66a2.97,2.97,0,0,0-2.3-1.263,73.263,73.263,0,0,0-17.124.95c.914-3.829,3.432-7.081,4.724-10.8,1.606-4.628.482-11.192-5.842-11.114a9.559,9.559,0,0,0-2.357.373,24.075,24.075,0,0,0-13.981,10.4c.8-8.313,1.515-17.1-2.061-24.65a11.248,11.248,0,0,0-5.091-5.668c-3.323-1.521-7.3-.336-10.4,1.623-4.923,3.113-8.5,8.036-10.939,13.326s-3.842,11-5.23,16.656c-1.653-3.769-3.457-7.736-7.37-9.6a6.615,6.615,0,0,0-6.088.043c-2.9,1.634-3.1,4.844-3.138,7.735" transform="translate(-30.232 -26.262)" fill="#5175ac"/>
            <path id="Trazado_999866" data-name="Trazado 999866" d="M90.8,155.328a219.648,219.648,0,0,1-1.394,27.253l-.306.486H.418a2.315,2.315,0,0,1,1-3.258,21.655,21.655,0,0,1,12.4-1.863,34.36,34.36,0,0,1-9.329-6.972c-.919-.974-1.863-2.212-.884-3.66a2.97,2.97,0,0,1,2.3-1.263,73.26,73.26,0,0,1,17.124.95c-.914-3.829-3.431-7.081-4.724-10.8-1.605-4.628-.481-11.192,5.842-11.114a9.554,9.554,0,0,1,2.357.373,24.073,24.073,0,0,1,13.981,10.4c-.8-8.313-1.515-17.1,2.062-24.65a11.242,11.242,0,0,1,5.091-5.668c3.323-1.521,7.3-.336,10.4,1.623,4.923,3.113,8.5,8.036,10.939,13.326s3.841,11,5.229,16.656c1.653-3.769,3.457-7.736,7.37-9.6a6.617,6.617,0,0,1,6.088.043c2.9,1.634,3.1,4.844,3.138,7.735" transform="translate(-0.022 -26.273)" fill="#5175ac"/>
            <path id="Trazado_999867" data-name="Trazado 999867" d="M86.286,162.619l-12.624,5.339q2.79-5.988,6.01-11.768c.231-.414-.43-.733-.659-.321A182.225,182.225,0,0,0,68.2,178.926l-3.66-37.366a.367.367,0,0,0-.731.055l4.446,45.4a.367.367,0,0,0,.731-.055l-.63-6.434c0-.009.012-.014.016-.024q2.259-5.975,4.932-11.771a.307.307,0,0,0,.322.037l12.9-5.458c.433-.183.189-.876-.248-.691" transform="translate(-13.428 -29.72)" fill="#fff"/>
            <path id="Trazado_999868" data-name="Trazado 999868" d="M46.156,190.193l-3.887-6.838a.3.3,0,0,0-.145-.256l-2.144-3.771q.75-7.066,1.5-14.131c.05-.467-.67-.61-.72-.141l-1.4,13.183-8.387-14.755c-.233-.41-.836.009-.6.418l8.858,15.584c-.007.071-.015.143-.023.214a.386.386,0,0,0,.386.424l1.609,2.831-10.579-1.317c-.467-.058-.61.662-.141.72l11.172,1.391,3.9,6.861c.234.411.836-.008.6-.417" transform="translate(-6.354 -34.367)" fill="#fff"/>
            <path id="Trazado_999869" data-name="Trazado 999869" d="M104.609,178.231q-3.1,2.953-6.2,5.9l6.125-13.868c.19-.432-.468-.754-.659-.322l-3.394,7.683q-.245-2.351-.491-4.7a.367.367,0,0,0-.732.055l.552,5.273a.344.344,0,0,0,.258.31l-3.043,6.891-.118.112a.287.287,0,0,0-.079.333l-2.806,6.354c-.191.432.468.754.659.321l2.959-6.7,7.522-7.167c.342-.326-.217-.8-.557-.478" transform="translate(-19.779 -35.719)" fill="#fff"/>
            <path id="Trazado_999870" data-name="Trazado 999870" d="M193.234,145.551l-11.371,17.786q2.076-13.589,4.153-27.179c.072-.466-.648-.608-.72-.141q-2.613,17.095-5.225,34.189l-8.841-13.341c-.261-.394-.865.022-.6.417l9.234,13.935a.389.389,0,0,0,.048.047L177.795,185.1c-.071.466.648.609.72.141q1.553-10.164,3.107-20.328a.37.37,0,0,0,.192-.149l12.08-18.9c.255-.4-.407-.715-.659-.321" transform="translate(-35.892 -28.562)" fill="#fff"/>
            <path id="Trazado_999871" data-name="Trazado 999871" d="M222.274,157.589l-7.651,14.186q-.686-5.882-1.372-11.765c-.054-.467-.786-.415-.731.055l1.459,12.514a.344.344,0,0,0,.1.205l-6.32,11.719-.138.1a.336.336,0,0,0-.131.4q-1.291,2.4-2.583,4.791c-.225.417.436.736.659.321l2.755-5.108,12.371-8.65a.367.367,0,0,0-.416-.6L209.1,183.569l13.838-25.659c.225-.417-.436-.736-.659-.321" transform="translate(-43.109 -33.121)" fill="#fff"/>
            <path id="Trazado_999872" data-name="Trazado 999872" d="M238.376,183.968l-7.641,3.452,5.207-5.792c.317-.352-.24-.83-.556-.478l-3.468,3.857q.343-2.454.686-4.908c.066-.467-.655-.61-.72-.141q-.377,2.7-.754,5.394a.351.351,0,0,0,.159.355q-1.125,1.252-2.251,2.5a.4.4,0,0,0-.073.082l-5.121,5.7c-.316.352.241.83.557.478l5.118-5.694,9.1-4.114c.426-.193.184-.886-.248-.691" transform="translate(-47.084 -37.808)" fill="#fff"/>
            <path id="Trazado_999873" data-name="Trazado 999873" d="M52.3,141.836q-.143,2.638-.287,5.274c-.025.47.707.411.732-.055q.143-2.638.287-5.274c.025-.47-.707-.411-.732.055" transform="translate(-10.944 -29.767)" fill="#316d7c"/>
            <path id="Trazado_999874" data-name="Trazado 999874" d="M52.918,152.311c-.055-.467-.786-.415-.732.055q.4,3.364.79,6.726c.055.468.787.415.732-.055q-.4-3.362-.79-6.726" transform="translate(-10.981 -31.983)" fill="#316d7c"/>
            <path id="Trazado_999875" data-name="Trazado 999875" d="M55.433,147.629c-.009-.472-.74-.415-.732.055q.058,3.166.115,6.331c.009.473.741.416.732-.055q-.058-3.165-.115-6.331" transform="translate(-11.511 -30.997)" fill="#316d7c"/>
            <path id="Trazado_999876" data-name="Trazado 999876" d="M25.6,154.414a8.056,8.056,0,0,0-.022,8.173c.233.411.836-.008.6-.417a7.324,7.324,0,0,1,.077-7.435c.239-.408-.422-.726-.659-.321" transform="translate(-5.149 -32.454)" fill="#316d7c"/>
            <path id="Trazado_999877" data-name="Trazado 999877" d="M28.834,171.007l-1.451-3.429c-.182-.433-.875-.189-.69.248l1.45,3.429c.183.433.876.189.691-.248" transform="translate(-5.61 -35.216)" fill="#316d7c"/>
            <path id="Trazado_999878" data-name="Trazado 999878" d="M29.169,166.306q-.658-1.781-1.316-3.562a.367.367,0,0,0-.691.247l1.316,3.563a.367.367,0,0,0,.691-.248" transform="translate(-5.711 -34.197)" fill="#316d7c"/>
            <path id="Trazado_999879" data-name="Trazado 999879" d="M43.066,158.567l-4.2-2.937c-.384-.268-.865.285-.478.557l4.2,2.937c.384.268.865-.286.478-.557" transform="translate(-8.049 -32.734)" fill="#316d7c"/>
            <path id="Trazado_999880" data-name="Trazado 999880" d="M41.414,160.786,38.567,158.6c-.373-.287-.854.268-.478.557l2.847,2.182c.374.286.854-.268.478-.557" transform="translate(-7.986 -33.359)" fill="#316d7c"/>
            <path id="Trazado_999881" data-name="Trazado 999881" d="M18.839,179.263a27.667,27.667,0,0,0-6.473-.236c-1.143.1-3.519.062-4.148,1.335-1.2,2.437,4.517,4.944,6.038,5.666a.367.367,0,0,0,.321-.66,23.892,23.892,0,0,1-3.595-2.069,13.485,13.485,0,0,1-1.3-.992q-1.08-.522-.3-1.4.123-1.171,1.362-.956a26.063,26.063,0,0,1,7.947.027c.467.069.609-.651.141-.72" transform="translate(-1.695 -37.653)" fill="#316d7c"/>
            <path id="Trazado_999882" data-name="Trazado 999882" d="M20.02,190.8l-2.505-1.056c-.434-.183-.757.475-.321.659l2.505,1.056c.434.183.757-.475.321-.659" transform="translate(-3.574 -39.922)" fill="#316d7c"/>
            <path id="Trazado_999883" data-name="Trazado 999883" d="M20.258,187.489l-3.428-1.717a.367.367,0,0,0-.321.659l3.428,1.717a.367.367,0,0,0,.321-.659" transform="translate(-3.432 -39.084)" fill="#316d7c"/>
            <path id="Trazado_999884" data-name="Trazado 999884" d="M25.755,195.024l-16.623.833a.367.367,0,0,0,.055.731l16.623-.832a.367.367,0,0,0-.055-.732" transform="translate(-1.853 -41.039)" fill="#316d7c"/>
            <path id="Trazado_999885" data-name="Trazado 999885" d="M38.733,194.721l-5.541.366a.367.367,0,0,0,.055.732l5.541-.366a.367.367,0,0,0-.055-.732" transform="translate(-6.916 -40.975)" fill="#316d7c"/>
            <path id="Trazado_999886" data-name="Trazado 999886" d="M34.4,192.792l-4.878.186c-.472.018-.416.749.055.732l4.878-.186c.472-.018.416-.75-.055-.732" transform="translate(-6.144 -40.57)" fill="#316d7c"/>
            <path id="Trazado_999887" data-name="Trazado 999887" d="M62.383,152.988c-.061-.467-.793-.414-.732.055q.467,3.56.932,7.121c.061.466.793.414.731-.055l-.931-7.121" transform="translate(-12.973 -32.125)" fill="#316d7c"/>
            <path id="Trazado_999888" data-name="Trazado 999888" d="M64.375,165.643c-.056-.467-.788-.415-.732.055q1.036,8.649,2.071,17.3c.056.467.788.415.732-.055Z" transform="translate(-13.392 -34.788)" fill="#316d7c"/>
            <path id="Trazado_999889" data-name="Trazado 999889" d="M61.127,159.962c-.09-.458-.822-.408-.732.055q.7,3.566,1.4,7.132c.09.458.822.408.731-.055Z" transform="translate(-12.707 -33.594)" fill="#316d7c"/>
            <path id="Trazado_999890" data-name="Trazado 999890" d="M48.673,187.855l-3.446-5.611c-.247-.4-.85.015-.6.417l3.445,5.611c.247.4.851-.015.6-.417" transform="translate(-9.378 -38.316)" fill="#316d7c"/>
            <path id="Trazado_999891" data-name="Trazado 999891" d="M51.967,193.914l-1.289-2.652c-.2-.419-.9-.178-.691.248l1.289,2.652c.2.419.9.178.691-.248" transform="translate(-10.511 -40.202)" fill="#316d7c"/>
            <path id="Trazado_999892" data-name="Trazado 999892" d="M53.47,189.864,51.335,185c-.188-.43-.88-.186-.69.248l2.134,4.869c.189.43.881.186.691-.248" transform="translate(-10.65 -38.882)" fill="#316d7c"/>
            <path id="Trazado_999893" data-name="Trazado 999893" d="M61.026,126.438a12.7,12.7,0,0,0-6.083,6.109.367.367,0,0,0,.659.321,11.91,11.91,0,0,1,5.671-5.739c.421-.2.179-.9-.248-.691" transform="translate(-11.554 -26.599)" fill="#316d7c"/>
            <path id="Trazado_999894" data-name="Trazado 999894" d="M61.421,129.46l-3.753,3.631c-.34.328.219.8.556.478l3.754-3.63c.34-.328-.219-.8-.557-.478" transform="translate(-12.113 -27.22)" fill="#316d7c"/>
            <path id="Trazado_999895" data-name="Trazado 999895" d="M214.88,156.144l-4.6,5.029c-.32.349.238.827.556.478l4.6-5.028c.319-.349-.238-.827-.557-.478" transform="translate(-44.23 -32.832)" fill="#316d7c"/>
            <path id="Trazado_999896" data-name="Trazado 999896" d="M224.208,151.615l-4.1,2.085c-.415.212-.174.9.247.691l4.1-2.085c.415-.211.173-.9-.248-.691" transform="translate(-46.272 -31.896)" fill="#316d7c"/>
            <path id="Trazado_999897" data-name="Trazado 999897" d="M220.383,155.537l-3.708,2.084c-.411.231.008.834.417.6l3.708-2.084c.411-.231-.007-.835-.417-.6" transform="translate(-45.56 -32.719)" fill="#316d7c"/>
            <path id="Trazado_999898" data-name="Trazado 999898" d="M232.254,160.083a20.566,20.566,0,0,1-2.438,7.142c-.232.413.429.732.659.321a21.127,21.127,0,0,0,2.5-7.322c.069-.467-.651-.609-.72-.141" transform="translate(-48.35 -33.626)" fill="#316d7c"/>
            <path id="Trazado_999899" data-name="Trazado 999899" d="M226.907,173.079l-1.467,2.761c-.223.418.438.737.659.321q.734-1.38,1.467-2.761c.223-.418-.438-.737-.659-.321" transform="translate(-47.43 -36.38)" fill="#316d7c"/>
            <path id="Trazado_999900" data-name="Trazado 999900" d="M227.9,165.709l-2.139,5.132c-.181.434.478.758.66.321q1.068-2.567,2.138-5.132c.182-.434-.478-.758-.659-.321" transform="translate(-47.5 -34.827)" fill="#316d7c"/>
            <path id="Trazado_999901" data-name="Trazado 999901" d="M242.846,177.974l-5.008.684c-.466.063-.414.8.054.732l5.009-.684c.466-.064.414-.8-.055-.732" transform="translate(-49.98 -37.451)" fill="#316d7c"/>
            <path id="Trazado_999902" data-name="Trazado 999902" d="M250.523,178.4l-2.9-.231c-.466-.037-.611.683-.141.72l2.9.231c.466.037.611-.683.141-.72" transform="translate(-52.016 -37.491)" fill="#316d7c"/>
            <path id="Trazado_999903" data-name="Trazado 999903" d="M247.074,180.492l-3.561.042c-.472.006-.415.737.055.732l3.561-.042c.472-.006.415-.737-.055-.732" transform="translate(-51.174 -37.981)" fill="#316d7c"/>
            <path id="Trazado_999904" data-name="Trazado 999904" d="M237.8,195.117l-6.992.233c-.472.016-.416.748.055.732l6.992-.233c.472-.016.416-.748-.055-.732" transform="translate(-48.502 -41.059)" fill="#316d7c"/>
            <path id="Trazado_999905" data-name="Trazado 999905" d="M250.468,194.966l-7.122.036c-.472,0-.415.734.055.732l7.122-.036c.472,0,.415-.734-.055-.732" transform="translate(-51.139 -41.027)" fill="#316d7c"/>
            <path id="Trazado_999906" data-name="Trazado 999906" d="M243.082,193.348l-4.748.264a.367.367,0,0,0,.055.732l4.748-.264a.367.367,0,0,0-.055-.732" transform="translate(-50.084 -40.686)" fill="#316d7c"/>
            <path id="Trazado_999907" data-name="Trazado 999907" d="M214.763,190.138l-4.337,2.337c-.415.223,0,.826.417.6l4.337-2.336c.415-.223,0-.826-.417-.6" transform="translate(-44.244 -40.001)" fill="#316d7c"/>
            <path id="Trazado_999908" data-name="Trazado 999908" d="M223.134,184.075l-5.092,3.408a.367.367,0,0,0,.417.6l5.092-3.408a.367.367,0,0,0-.417-.6" transform="translate(-45.85 -38.722)" fill="#316d7c"/>
            <path id="Trazado_999909" data-name="Trazado 999909" d="M220.284,189.534l-5.2,2.78c-.415.223,0,.825.417.6l5.2-2.78c.415-.222,0-.824-.417-.6" transform="translate(-45.224 -39.874)" fill="#316d7c"/>
            <path id="Trazado_999910" data-name="Trazado 999910" d="M154.231,146.029v.007h-86.5c.279-.527.529-1.048.768-1.553l85.736-2.438Z" transform="translate(-14.252 -29.891)" fill="#e8e6da"/>
            <path id="Trazado_999911" data-name="Trazado 999911" d="M154.7,133.859v3.07l-84.759,3.33a26.72,26.72,0,0,0,1.71-7.2Z" transform="translate(-14.717 -28.001)" fill="#e8e6da"/>
            <path id="Trazado_999912" data-name="Trazado 999912" d="M154.639,121.2v2.051l-83.025,3.479a18.467,18.467,0,0,0-1.949-7.143Z" transform="translate(-14.66 -25.164)" fill="#e8e6da"/>
            <path id="Trazado_999913" data-name="Trazado 999913" d="M154.436,137.959v3.226L68.7,143.623c.372-.8.7-1.576.977-2.334Z" transform="translate(-14.457 -29.031)" fill="#f4f3ed"/>
            <path id="Trazado_999914" data-name="Trazado 999914" d="M155.152,124.223V132L72.1,131.2a22.074,22.074,0,0,0,.024-3.5Z" transform="translate(-15.173 -26.141)" fill="#f4f3ed"/>
            <path id="Trazado_999915" data-name="Trazado 999915" d="M154.231,116.579v3.984L69.257,118.95a11.836,11.836,0,0,0-1.53-2.371Z" transform="translate(-14.252 -24.532)" fill="#f4f3ed"/>
            <path id="Trazado_999916" data-name="Trazado 999916" d="M177.286,116.579s2.734,2.854,2.734,12.22-2.734,11.871-2.734,11.871V116.579Z" transform="translate(-37.307 -24.532)" fill="#e5e4d3"/>
            <path id="Trazado_999917" data-name="Trazado 999917" d="M213.914,116.149V140.59a1.668,1.668,0,0,1-1.7,1.613V114.536a1.668,1.668,0,0,1,1.7,1.613" transform="translate(-44.656 -24.102)" fill="#5175ac"/>
            <rect id="Rectángulo_456881" data-name="Rectángulo 456881" width="5.416" height="27.666" transform="translate(162.138 90.434)" fill="#f9a138"/>
            <rect id="Rectángulo_456882" data-name="Rectángulo 456882" width="7.388" height="27.666" transform="translate(154.75 90.434)" fill="#5175ac"/>
            <rect id="Rectángulo_456883" data-name="Rectángulo 456883" width="2.595" height="27.666" transform="translate(152.154 90.434)" fill="#f9a138"/>
            <rect id="Rectángulo_456884" data-name="Rectángulo 456884" width="7.225" height="27.666" transform="translate(144.929 90.434)" fill="#5175ac"/>
            <path id="Trazado_999918" data-name="Trazado 999918" d="M159.182,114.536V142.2H69.432a1.668,1.668,0,0,1-1.7-1.612v-.343h86.5v-.007s2.734-2.505,2.734-11.871-2.734-12.22-2.734-12.22h-86.5a1.668,1.668,0,0,1,1.7-1.613Z" transform="translate(-14.252 -24.102)" fill="#f9a138"/>
            <path id="Trazado_999919" data-name="Trazado 999919" d="M186.5,134.529c1.47.633,3.476.941,3.347-.881-.074-1.044-1.29-1.234-2.067-.961a4.73,4.73,0,0,0-1.57.976c-.055-.039-.112-.073-.165-.115a3.506,3.506,0,0,1-1.066-1.411,4.045,4.045,0,0,1,.516-3.643c1.248,1.248,3.169,2.257,4.146.639a1.647,1.647,0,0,0-.6-2.141,3,3,0,0,0-3.187.33c-.1.071-.2.149-.3.228a3.837,3.837,0,0,1-.45-.789,3.963,3.963,0,0,1,.525-3.814,2.9,2.9,0,0,0,3.237.481c1.887-.974.418-2.952-1.308-2.621a3.917,3.917,0,0,0-2.014,1.082,2.9,2.9,0,0,1-.729-1.732,3.022,3.022,0,0,1,4.494-2.741.367.367,0,0,0,.321-.659,3.745,3.745,0,0,0-5.533,2.891,3.867,3.867,0,0,0,.988,2.766,4.859,4.859,0,0,0-.672,4.6,4.193,4.193,0,0,0,.65,1.013,4.2,4.2,0,0,0,.081,5.69,2.989,2.989,0,0,0,.592.433,6.051,6.051,0,0,0-1.163,1.9c-1.01,2.777.924,6.072,4.081,5.429.456-.093.407-.826-.055-.732a2.98,2.98,0,0,1-3.588-2.955,4.451,4.451,0,0,1,.961-2.756,2.887,2.887,0,0,1,.528-.5m1.129-12.252q.876,1.336-1.045.387a2.887,2.887,0,0,1-.461-.261,3.761,3.761,0,0,1,.393-.329q.968-1.048,1.112.2m.217,6.823-.835-.281a3.842,3.842,0,0,1-1.049-.776,1.9,1.9,0,0,1,.694-.313q1.074-.783,1.189,1.371m-.328,4.537.1.625a3.638,3.638,0,0,1-.566-.16,2.3,2.3,0,0,0,.469-.465" transform="translate(-38.717 -24.48)" fill="#316d7c"/>
            <path id="Trazado_999920" data-name="Trazado 999920" d="M202.375,129.268c.247-2.443-2.827-1.464-4.149-.489a3.787,3.787,0,0,1-.719-2.148,3.639,3.639,0,0,1,.607-1.953,2.655,2.655,0,0,0,3.266.469,1.694,1.694,0,0,0,.7-1.972c-.456-1.058-1.785-.914-2.658-.541a4.209,4.209,0,0,0-1.4.976,3.989,3.989,0,0,1-.748-4.457,4.513,4.513,0,0,1,4.134-2.368.367.367,0,0,0-.055-.731c-2.878.17-5.51,2.133-5.178,5.285a5.465,5.465,0,0,0,1.4,2.821,4.4,4.4,0,0,0-.19,4.675,2.788,2.788,0,0,0,.327.432,4.564,4.564,0,0,0,.106,5.949,4.666,4.666,0,0,0-.929,1.513,4.448,4.448,0,0,0,4.833,5.484.367.367,0,0,0-.055-.732c-3.319.258-5.315-3.5-3.439-5.868.081.069.159.14.246.2a2.834,2.834,0,0,0,2.787.541,1.587,1.587,0,0,0,.82-2.05c-.829-1.641-2.516-.831-3.753.362a3.989,3.989,0,0,1-.846-1.694,3.631,3.631,0,0,1,.776-3.2c1.443,1.15,3.878,1.848,4.117-.512M199.262,124c.085.666-.155.7-.713.125,0-.006.009-.013.013-.017q.951-1.2.7-.107m.745,10.36c-.259,1.173-.691,1.415-1.292.75a4.142,4.142,0,0,1,.481-.367l.811-.383m-1.083-4.84-.2-.2a4,4,0,0,1,.787-.528q1.182-.663-.59.73" transform="translate(-41.275 -24.421)" fill="#316d7c"/>
            <path id="Trazado_999921" data-name="Trazado 999921" d="M101.837,191.4v3.664h86.5a18.447,18.447,0,0,1-1.4-2.527v-.007h-.006Z" transform="translate(-21.43 -40.278)" fill="#e8e6da"/>
            <path id="Trazado_999922" data-name="Trazado 999922" d="M101.837,183.628v2.3l84.1,2.051a14.215,14.215,0,0,1-.361-4.192l-.029-.008Z" transform="translate(-21.43 -38.641)" fill="#e8e6da"/>
            <path id="Trazado_999923" data-name="Trazado 999923" d="M101.837,177.813V179.8l84.195-.156a14.447,14.447,0,0,1,.907-2.5Z" transform="translate(-21.43 -37.278)" fill="#e8e6da"/>
            <path id="Trazado_999924" data-name="Trazado 999924" d="M101.837,186.537v3.843l85.1,1.13a15.807,15.807,0,0,1-1.006-2.921Z" transform="translate(-21.43 -39.253)" fill="#f4f3ed"/>
            <path id="Trazado_999925" data-name="Trazado 999925" d="M101.837,180.47v2.46l83.706.148.029.008a13.262,13.262,0,0,1,.46-2.773Z" transform="translate(-21.43 -37.944)" fill="#f4f3ed"/>
            <path id="Trazado_999926" data-name="Trazado 999926" d="M101.837,174.176v3.011l85.1-.662h.006v-.007a11.887,11.887,0,0,1,1.4-2.342Z" transform="translate(-21.43 -36.652)" fill="#f4f3ed"/>
            <path id="Trazado_999927" data-name="Trazado 999927" d="M98.381,182.983c0,9.366,2.728,8.459,2.728,8.459V174.174s-2.728-.557-2.728,8.808" transform="translate(-20.703 -36.651)" fill="#e5e4d3"/>
            <rect id="Rectángulo_456885" data-name="Rectángulo 456885" width="4.707" height="20.836" transform="translate(53.886 135.911)" fill="#36395e"/>
            <rect id="Rectángulo_456886" data-name="Rectángulo 456886" width="4.666" height="20.836" transform="translate(70.482 135.911)" fill="#f9a138"/>
            <path id="Trazado_999928" data-name="Trazado 999928" d="M64.755,173.746v17.61a1.669,1.669,0,0,0,1.71,1.613h1.047V172.133H66.465a1.673,1.673,0,0,0-1.71,1.613" transform="translate(-13.627 -36.222)" fill="#f9a138"/>
            <rect id="Rectángulo_456887" data-name="Rectángulo 456887" width="7.225" height="20.836" transform="translate(58.592 135.911)" fill="#f9a138"/>
            <rect id="Rectángulo_456888" data-name="Rectángulo 456888" width="4.666" height="20.836" transform="translate(65.817 135.911)" fill="#36395e"/>
            <path id="Trazado_999929" data-name="Trazado 999929" d="M95.176,172.133v20.836h90.059a1.659,1.659,0,0,0,1.7-1.613v-.342h-86.5s-2.728.906-2.728-8.459,2.728-8.808,2.728-8.808h86.5a1.664,1.664,0,0,0-1.7-1.613Z" transform="translate(-20.028 -36.222)" fill="#36395e"/>
            <path id="Trazado_999930" data-name="Trazado 999930" d="M74.854,173.728q-.021,4.188-.043,8.375c0,.472.73.415.732-.055q.021-4.188.043-8.375c0-.472-.73-.415-.732.055" transform="translate(-15.743 -36.478)" fill="#dd740b"/>
            <path id="Trazado_999931" data-name="Trazado 999931" d="M74.934,186.214q-.032,3.791-.063,7.583c0,.472.728.415.732-.055q.031-3.791.063-7.583c0-.472-.728-.415-.732.055" transform="translate(-15.755 -39.105)" fill="#dd740b"/>
            <path id="Trazado_999932" data-name="Trazado 999932" d="M77.55,179.561c0-.472-.734-.415-.732.055l.037,8.309c0,.472.734.415.732-.055q-.019-4.155-.037-8.309" transform="translate(-16.165 -37.717)" fill="#dd740b"/>
            <path id="Trazado_999933" data-name="Trazado 999933" d="M79.567,188.915c-.011-.472-.743-.416-.732.055q.067,2.835.133,5.671c.011.472.742.415.731-.055l-.133-5.671" transform="translate(-16.589 -39.685)" fill="#dd740b"/>
            <path id="Trazado_999934" data-name="Trazado 999934" d="M79.354,183.821c-.021-.472-.752-.416-.732.055q.052,1.2.1,2.407c.021.472.752.416.732-.055q-.052-1.2-.1-2.407" transform="translate(-16.544 -38.613)" fill="#dd740b"/>
            <path id="Trazado_999935" data-name="Trazado 999935" d="M91.148,174.09c0-.472-.732-.415-.732.055q0,4.682.009,9.364c0,.472.732.415.731-.055q0-4.682-.008-9.364" transform="translate(-19.026 -36.565)" fill="#dd740b"/>
            <path id="Trazado_999936" data-name="Trazado 999936" d="M90.217,187.593l-.279,6.495c-.021.471.711.411.731-.055q.14-3.247.28-6.495c.02-.471-.712-.411-.732.055" transform="translate(-18.926 -39.395)" fill="#dd740b"/>
            <path id="Trazado_999937" data-name="Trazado 999937" d="M92.952,184.572c0-.472-.735-.415-.732.055l.024,3.429c0,.472.735.415.731-.055q-.011-1.715-.023-3.429" transform="translate(-19.406 -38.771)" fill="#dd740b"/>
            <path id="Trazado_999938" data-name="Trazado 999938" d="M66.085,173.1q-.216,5.209-.43,10.418c-.019.471.712.411.732-.055q.214-5.209.43-10.418c.019-.471-.713-.411-.732.055" transform="translate(-13.816 -36.347)" fill="#dd740b"/>
            <path id="Trazado_999939" data-name="Trazado 999939" d="M65.59,187.759q0,2.44,0,4.88c0,.472.731.415.731-.055l0-4.88c0-.472-.731-.415-.732.055" transform="translate(-13.801 -39.43)" fill="#dd740b"/>
            <path id="Trazado_999940" data-name="Trazado 999940" d="M95.714,152.3v2.609l-21.507-1.152V152.3Z" transform="translate(-15.616 -32.048)" fill="#e8e6da"/>
            <path id="Trazado_999941" data-name="Trazado 999941" d="M95.714,156.967V160.5l-21.507-.461v-1.918Z" transform="translate(-15.616 -33.031)" fill="#e8e6da"/>
            <path id="Trazado_999942" data-name="Trazado 999942" d="M95.714,164.357v1.925l-21.507.684v-2.378Z" transform="translate(-15.616 -34.586)" fill="#e8e6da"/>
            <rect id="Rectángulo_456889" data-name="Rectángulo 456889" width="21.507" height="2.535" transform="translate(58.591 133.376)" fill="#e8e6da"/>
            <path id="Trazado_999943" data-name="Trazado 999943" d="M95.714,166.8v1.68H74.207v-1Z" transform="translate(-15.616 -35.099)" fill="#f4f3ed"/>
            <path id="Trazado_999944" data-name="Trazado 999944" d="M95.714,161.316v2.3l-21.507.231v-3Z" transform="translate(-15.616 -33.849)" fill="#f4f3ed"/>
            <path id="Trazado_999945" data-name="Trazado 999945" d="M95.714,155.295v1.078l-21.507,1.152v-3.382Z" transform="translate(-15.616 -32.437)" fill="#f4f3ed"/>
            <rect id="Rectángulo_456890" data-name="Rectángulo 456890" width="21.507" height="2.148" transform="translate(58.591 118.1)" fill="#f4f3ed"/>
            <rect id="Rectángulo_456891" data-name="Rectángulo 456891" width="10.535" height="17.81" transform="translate(152.987 118.1)" fill="#5175ac"/>
            <rect id="Rectángulo_456892" data-name="Rectángulo 456892" width="3.578" height="17.81" transform="translate(149.409 118.1)" fill="#f9a138"/>
            <rect id="Rectángulo_456893" data-name="Rectángulo 456893" width="2.295" height="17.81" transform="translate(147.114 118.1)" fill="#5175ac"/>
            <rect id="Rectángulo_456894" data-name="Rectángulo 456894" width="6.587" height="17.81" transform="translate(140.527 118.1)" fill="#f9a138"/>
            <rect id="Rectángulo_456895" data-name="Rectángulo 456895" width="39.466" height="17.81" transform="translate(101.062 118.1)" fill="#5175ac"/>
            <rect id="Rectángulo_456896" data-name="Rectángulo 456896" width="3.578" height="17.81" transform="translate(97.483 118.1)" fill="#f9a138"/>
            <rect id="Rectángulo_456897" data-name="Rectángulo 456897" width="2.439" height="17.81" transform="translate(95.043 118.1)" fill="#5175ac"/>
            <rect id="Rectángulo_456898" data-name="Rectángulo 456898" width="4.436" height="17.81" transform="translate(90.608 118.1)" fill="#f9a138"/>
            <path id="Trazado_999946" data-name="Trazado 999946" d="M101.446,163.172v-13.6h10.509v17.81H101.446v-4.215Z" transform="translate(-21.348 -31.476)" fill="#5175ac"/>
            <path id="Trazado_999947" data-name="Trazado 999947" d="M148.692,170.039l-17.311-.3c-.472-.009-.414.723.055.731l17.311.3c.472.008.414-.724-.055-.732" transform="translate(-27.578 -35.719)" fill="#316d7c"/>
            <path id="Trazado_999948" data-name="Trazado 999948" d="M162.043,169.793l-6.234.11c-.472.008-.415.74.055.731l6.234-.109c.472-.009.415-.74-.055-.732" transform="translate(-32.719 -35.73)" fill="#316d7c"/>
            <path id="Trazado_999949" data-name="Trazado 999949" d="M156.352,167.852l-4.55-.032c-.472,0-.414.729.055.732l4.55.032c.472,0,.415-.729-.055-.732" transform="translate(-31.875 -35.315)" fill="#316d7c"/>
            <path id="Trazado_999950" data-name="Trazado 999950" d="M110.552,169.764l-8.114.311c-.472.018-.416.75.055.732l8.114-.312c.472-.017.416-.749-.055-.731" transform="translate(-21.487 -35.724)" fill="#316d7c"/>
            <path id="Trazado_999951" data-name="Trazado 999951" d="M107.684,167.481l-3.363.207a.367.367,0,0,0,.055.732l3.363-.208a.367.367,0,0,0-.055-.731" transform="translate(-21.884 -35.243)" fill="#316d7c"/>
            <path id="Trazado_999952" data-name="Trazado 999952" d="M203.162,169.849l-8.013.047c-.473,0-.415.734.055.731l8.013-.046c.472,0,.415-.734-.055-.732" transform="translate(-40.997 -35.742)" fill="#316d7c"/>
            <path id="Trazado_999953" data-name="Trazado 999953" d="M202.35,167.34l-4.947.063c-.472.006-.415.737.055.732l4.947-.063c.472-.006.415-.738-.055-.732" transform="translate(-41.471 -35.214)" fill="#316d7c"/>
            <path id="Trazado_999954" data-name="Trazado 999954" d="M205.829,151.668c0-.472-.734-.415-.732.055q.019,5.243.038,10.485c0,.472.733.415.732-.055q-.019-5.242-.038-10.485" transform="translate(-43.159 -31.847)" fill="#316d7c"/>
            <path id="Trazado_999955" data-name="Trazado 999955" d="M0,198.561l203.436-.039s-13.558,13.537-103.254,13.537S0,198.561,0,198.561" transform="translate(0 -41.775)" fill="#dfeae9"/>
            <path id="Trazado_999956" data-name="Trazado 999956" d="M164.248,80.092c-2.354.047-4.145-2.713-3.622-5.037.536-2.381,2.817-4.05,5.192-4.6a19.685,19.685,0,0,1,7.27.143c-1.653-3.076-3.345-6.291-3.492-9.784s1.748-7.334,5.127-8.23c2.709-.722,5.63.64,7.529,2.7s2.99,4.726,4.038,7.322a31.509,31.509,0,0,1,1.743-7.24,10.6,10.6,0,0,1,4.764-5.548c4.314-2.168,9.966.316,12.285,4.548s1.809,9.567-.186,13.968A8.384,8.384,0,0,1,220.931,72.5c-.389,3.934-3.916,7.615-7.867,7.84H164.257Z" transform="translate(-33.782 -10.314)" fill="#daf7f3"/>
            <path id="Trazado_999957" data-name="Trazado 999957" d="M15.793,71.437a8.2,8.2,0,0,1-3.358-.351,2.952,2.952,0,0,1-2.008-2.678c.073-1.338,1.329-2.285,2.536-2.865a14.884,14.884,0,0,1,9.1-1.2,13.867,13.867,0,0,1-4.232-5.176,6.945,6.945,0,0,1,.347-6.469,6.941,6.941,0,0,1,4.859-2.8,14.212,14.212,0,0,1,5.708.6A30.337,30.337,0,0,1,39.61,56.11,8.976,8.976,0,0,1,51.064,43.18a9.245,9.245,0,0,1,4.947,9.637c3.491-3.855,7.144-7.823,11.952-9.8a7.107,7.107,0,0,1,4.916-.511,6.288,6.288,0,0,1,3.548,3.822,10.815,10.815,0,0,1-4.011,12.592,16.188,16.188,0,0,1,9.122-.947c3.02.705,5.82,2.917,6.56,5.928s-1.12,6.612-4.167,7.192l-.009.744Z" transform="translate(-2.194 -8.891)" fill="#daf7f3"/>
            <path id="Trazado_999958" data-name="Trazado 999958" d="M210.415,71.738c-3.846-1.195-7.8,1.754-10.3,4.995a25.213,25.213,0,0,0,1.063-7.752c-.047-2.088-.3-6.109-3.236-6.125-2.639-.015-4.044,3.488-4.718,5.523a17.336,17.336,0,0,0-.87,5.363,15.332,15.332,0,0,0-2.278-3.6c-1.594-1.869-4.237-3.98-6.823-2.764-1.923.9-2.655,3.272-2.375,5.256a6.387,6.387,0,0,0,1.018,2.609,3.863,3.863,0,0,0-4.958,1.423c-1.788,2.548,1.352,5.674,3.922,4.086.4-.248-.016-.852-.417-.6a2.231,2.231,0,0,1-3.293-2.192c.272-1.524,2.039-2.276,3.4-2.275a4.611,4.611,0,0,1,2.06.514,22.355,22.355,0,0,0,3.713,3.226.367.367,0,0,0,.478-.556,16.563,16.563,0,0,0-3.405-2.876,7.451,7.451,0,0,1-1.533-2.426c-.743-2.025-.167-5.148,2.259-5.69,2.695-.6,5.039,2.064,6.393,4.059a14.865,14.865,0,0,1,1.994,4.327,18.98,18.98,0,0,0,.519,2.546.369.369,0,0,0,.711-.152,17.408,17.408,0,0,0-.509-2.51,16.714,16.714,0,0,1,.155-5.519,16.465,16.465,0,0,1,1.179-3.665c.526-1.141,1.982-4,3.732-3.336,2.675,1.02,2.261,5.691,2.074,7.939a25.334,25.334,0,0,1-2.111,8.125.367.367,0,0,0,.66.322c1.609-3.367,4.651-6.592,8.385-7.531,2.25-.565,5.345.2,4.766,3.206-.5,2.583-3.22,3.651-5.4,4.479a.367.367,0,0,0,.248.691c2.293-.873,4.942-1.964,5.737-4.531a3.516,3.516,0,0,0-2.246-4.584" transform="translate(-37.123 -13.227)" fill="#b1ddd5"/>
            <path id="Trazado_999959" data-name="Trazado 999959" d="M81.426,65.2c-.819-2.1-3.494-2-5.327-1.846A25.337,25.337,0,0,0,67.956,65.5c1.193-3.038,2.546-6.085,3.479-9.2.567-1.893-.058-4-2.429-3.728-2.416.276-4.783,3.03-6.333,4.722a29.871,29.871,0,0,0-4.654,6.852,23.063,23.063,0,0,0-2.326-6.265c-.752-1.358-2-3.758-3.936-3.458-1.481.231-2.015,1.966-2.385,3.186a27.6,27.6,0,0,0-1.145,8,16.558,16.558,0,0,0-4.617-3.693c-1.627-.864-4.542-2.238-6.407-1.512a2.438,2.438,0,0,0-1.116,3.356,3.457,3.457,0,0,0,1.971,1.836,16.065,16.065,0,0,0-4.467.779c-1.291.451-2.984,1.188-3.06,2.775a3.242,3.242,0,0,0,2.243,2.976c1.872.65,3.856-.42,5.457-1.281.415-.223,0-.826-.417-.6-1.472.792-3.467,1.895-5.137,1.049a1.73,1.73,0,0,1-1-2.368c.374-1.195.692-1.3,1.88-1.748a21.142,21.142,0,0,1,7.509-.9.369.369,0,0,0,.043-.726c-1.568-.2-3.817-.46-4.411-2.233-.486-1.452,1.251-2.271,2.437-2.23a8.226,8.226,0,0,1,2.354.679A15.884,15.884,0,0,1,48.3,66.8a.37.37,0,0,0,.668-.236,27.688,27.688,0,0,1,.455-6.124c.28-1.445.518-3.705,1.595-4.766,2.084-2.052,4.4,3.18,4.874,4.236A22.9,22.9,0,0,1,57.5,65.282a.37.37,0,0,0,.7.133,29.137,29.137,0,0,1,8-10.459c.385-.314.776-.64,1.19-.915l.957-.548q1.671-.893,1.929.959c.7,1.374.506,1.494.021,2.818-.207.565-.428,1.125-.643,1.687l-2.7,7.085c-.1.263.136.659.453.506a25.863,25.863,0,0,1,5.381-1.937c1.726-.4,6.027-1.466,7.334.153q.952.473.2,1.5.191,1.032-.623,1.294a4.128,4.128,0,0,1-1.27.508c-.938.275-1.909.465-2.859.692l-6.538,1.563c-.458.109-.208.8.248.69a99.081,99.081,0,0,0,9.853-2.4C80.6,68.1,82.1,66.932,81.426,65.2" transform="translate(-6.424 -11.057)" fill="#b1ddd5"/>
            <path id="Trazado_999960" data-name="Trazado 999960" d="M69.977,0a18.921,18.921,0,1,0,0,37.842,18.693,18.693,0,0,0,7.373-1.5,18.41,18.41,0,0,0,2.692-1.409,19.636,19.636,0,0,0,1.812-1.284,19.094,19.094,0,0,0,2.5-2.436,18.092,18.092,0,0,0,1.291-1.687A18.925,18.925,0,0,0,69.977,0M80.344,31.437A16.256,16.256,0,1,1,86.227,18.92a16.315,16.315,0,0,1-5.884,12.516" transform="translate(-10.742)" fill="#5175ac"/>
            <g id="Grupo_1180054" data-name="Grupo 1180054" transform="translate(42.982 2.663)" opacity="0.46">
              <g id="Grupo_1180053" data-name="Grupo 1180053">
                <g id="Grupo_1180052" data-name="Grupo 1180052" clip-path="url(#clip-path-3)">
                  <path id="Trazado_999961" data-name="Trazado 999961" d="M70.691,3.373A16.254,16.254,0,1,1,54.437,19.627,16.249,16.249,0,0,1,70.691,3.373" transform="translate(-54.437 -3.373)" fill="#9bc9e2"/>
                </g>
              </g>
            </g>
            <path id="Trazado_999962" data-name="Trazado 999962" d="M137.007,166.246c.4-1.372.858-3.022,1.262-4.4h.007v.007a16.069,16.069,0,0,0,3.015.88c.015,0,.022.008.037.008a39,39,0,0,1,8.862,10.073,42.387,42.387,0,0,1-13.183-6.566" transform="translate(-28.831 -34.057)" fill="#fff"/>
            <path id="Trazado_999963" data-name="Trazado 999963" d="M132.054,140.922a182.35,182.35,0,0,1,1.651-23.25,16.355,16.355,0,0,1,1.32-4.879,6.207,6.207,0,0,1,3.646-3.323,187.268,187.268,0,0,1-22.948,1.064c-2.333-.1-4.769-.322-6.721-1.592a9.3,9.3,0,0,1-3.793-6.911,23.437,23.437,0,0,1,.94-8.048c.3-1.233.645-2.67.939-4.123l.294.059c1.643.014,3.294.014,4.937-.015l2.3,3.382a2.372,2.372,0,0,0,3.294.631l.411-.279a2.339,2.339,0,0,0,.983-1.482c3.022.359,22.927,2.831,31.892,6.867l.469.212c-.33,1.049-.66,2.1-1,3.147q-6.438,20.271-14.094,40.116c-1.511-.47-3.03-.932-4.534-1.4a1.461,1.461,0,0,1,.007-.176" transform="translate(-22.124 -18.909)" fill="#312a5e"/>
            <path id="Trazado_999964" data-name="Trazado 999964" d="M139.092,154.754c1.5.47,3.022.932,4.534,1.4-.66,1.694-1.32,3.4-2,5.084a16.173,16.173,0,0,1-3.015-.88v-.007c.205-1.915.4-3.713.477-5.6" transform="translate(-29.169 -32.565)" fill="#f2b481"/>
            <path id="Trazado_999965" data-name="Trazado 999965" d="M104.646,77.582a2.7,2.7,0,0,1-2.421-.3,7.325,7.325,0,0,1-2-2.216A157.145,157.145,0,0,1,90.9,59.3l-.021-.073A2.679,2.679,0,0,0,92.3,58.25l12.538,18.415a2.2,2.2,0,0,0-.191.917" transform="translate(-19.125 -12.258)" fill="#f9a138"/>
            <path id="Trazado_999966" data-name="Trazado 999966" d="M108.505,81.572l2.663,3.911a3.651,3.651,0,0,1-2.186-1.2,2.693,2.693,0,0,1-.535-.976,2.589,2.589,0,0,1-.133-.822,2.215,2.215,0,0,1,.191-.917" transform="translate(-22.793 -17.165)" fill="#f2b481"/>
            <path id="Trazado_999967" data-name="Trazado 999967" d="M194.623,147.782a55.023,55.023,0,0,1,11.709-2.347,56.223,56.223,0,0,1-13.082,8.921l-.007-.029-2.465-5.392a5.792,5.792,0,0,0,3.844-1.152" transform="translate(-40.146 -30.604)" fill="#fff"/>
            <path id="Trazado_999968" data-name="Trazado 999968" d="M193.779,147.2c.007,0,.022-.007.029-.007a5.791,5.791,0,0,1-3.844,1.152c-1.027-1.225-2.047-2.451-3.059-3.69a44.249,44.249,0,0,0,5.3-2c.52,1.519,1.049,3.03,1.57,4.549" transform="translate(-39.331 -30.019)" fill="#f2b481"/>
            <path id="Trazado_999969" data-name="Trazado 999969" d="M178.512,131.125c.022.051.036.11.058.161a44.152,44.152,0,0,1-5.3,2c-4.438-5.4-8.759-10.894-13.264-16.243-2.179-2.59-4.417-5.282-5.4-8.525a12.633,12.633,0,0,1-.235-6.361l-.125-.036c.337-1.049.667-2.1,1-3.148l-.469-.212c-8.966-4.035-28.869-6.508-31.892-6.867a2.365,2.365,0,0,0-.359-1.812l-.426-.631q4.887-.22,9.765-.682c.2-.015.4-.037.594-.059l.008.111a147.707,147.707,0,0,1,25.531.895c7.667,13.345,15.26,26.94,20.52,41.407" transform="translate(-25.693 -18.65)" fill="#292749"/>
            <path id="Trazado_999970" data-name="Trazado 999970" d="M114.526,18.511a12.888,12.888,0,0,1-7.036,4.138l-.125.007a56.857,56.857,0,0,0,.595,5.891l-.22.029a9.834,9.834,0,0,1,1.233-11.518,9.852,9.852,0,0,1,11.438-1.878c2.407,1.284,4.145,3.506,5.906,5.583s3.771,4.152,6.39,4.922c1.379.411,2.854.426,4.255.741a4.8,4.8,0,0,1,3.448,2.354,5.1,5.1,0,0,1-.19,3.852,16.541,16.541,0,0,0-1.255,3.749,11.612,11.612,0,0,0,.455,3.9,8.283,8.283,0,0,1,.154,3.9c-.814,2.986-3.675,2.634-5.3,2.465a62.8,62.8,0,0,0-2.377-9.185l-.265-.22a67.52,67.52,0,0,0-10.183-.616l-.675.051c-.014-.081-.036-.162-.051-.242a39.787,39.787,0,0,1-.851-6.962,4.435,4.435,0,0,0,1.959-3.338,2.33,2.33,0,0,0-.139-1.1,1.23,1.23,0,0,0-.8-.726,1.383,1.383,0,0,0-.983.205,3.974,3.974,0,0,0-.763.7,10.1,10.1,0,0,1-4.615-6.706" transform="translate(-22.395 -2.972)" fill="#312a5e"/>
            <path id="Trazado_999971" data-name="Trazado 999971" d="M116.4,46.548a44.317,44.317,0,0,0,3.022-4.159c.015.081.037.161.051.242l.675-.051a67.425,67.425,0,0,1,10.183.617l.264.22a63.656,63.656,0,0,1,3.389,20.4v.029q-3.268,2.267-6.676,4.313-5.084,3.059-10.448,5.62c-.535-1.056-1.071-2.121-1.607-3.177-.007-.014-.014-.036-.021-.051l-.155.133a10.011,10.011,0,0,1-2.956.645c-.11.015-.22.022-.323.029l-3.4-5L100.277,54.42l.117-.081c1.263-2.362,3.7-7.256,5.473-9.258l.044.029A26.419,26.419,0,0,1,112,43.467l.007.03a20.126,20.126,0,0,0,4.314,2.985Z" transform="translate(-21.102 -8.92)" fill="#f9a138"/>
            <path id="Trazado_999972" data-name="Trazado 999972" d="M120.737,80.641q5.359-2.553,10.447-5.62v.008q-.021,5.392-.051,10.785l.008.095q-4.876.463-9.765.683l-2.7-3.962a18.786,18.786,0,0,0,2.032-1.973c.007-.008.022-.008.029-.015" transform="translate(-24.973 -15.787)" fill="#f9a138"/>
            <path id="Trazado_999973" data-name="Trazado 999973" d="M120.119,30.648a39.639,39.639,0,0,0,.851,6.962,44.217,44.217,0,0,1-3.022,4.159l-.081-.066a20.125,20.125,0,0,1-4.313-2.986l-.007-.029a.517.517,0,0,1,.11-.015v-.007c.058-1.424.125-2.846.183-4.277h-.073a11.824,11.824,0,0,1-2.677-.455,3.943,3.943,0,0,1-2.15-1.563,5.677,5.677,0,0,1-.653-2.135c-.029-.176-.051-.345-.073-.521a56.851,56.851,0,0,1-.594-5.891l.125-.008a12.884,12.884,0,0,0,7.036-4.137,10.1,10.1,0,0,0,4.614,6.705,4.019,4.019,0,0,1,.763-.7,1.384,1.384,0,0,1,.984-.205,1.229,1.229,0,0,1,.8.726,2.334,2.334,0,0,1,.14,1.1,4.441,4.441,0,0,1-1.959,3.338" transform="translate(-22.646 -4.141)" fill="#f2b481"/>
            <path id="Trazado_999974" data-name="Trazado 999974" d="M121.225,92.118a2.34,2.34,0,0,1-.983,1.482l-.411.279a2.372,2.372,0,0,1-3.294-.631l-2.3-3.382q3.1-.044,6.207-.19l.426.631a2.365,2.365,0,0,1,.359,1.812" transform="translate(-24.038 -18.871)" fill="#5175ac"/>
            <path id="Trazado_999975" data-name="Trazado 999975" d="M117.255,84.657l2.7,3.962q-3.1.142-6.206.19l-1.82-2.677a3.807,3.807,0,0,0,.4.058,7,7,0,0,0,2.9-.441,6.685,6.685,0,0,0,2.032-1.093" transform="translate(-23.553 -17.815)" fill="#5175ac"/>
            <path id="Trazado_999976" data-name="Trazado 999976" d="M118.154,78.2a1.93,1.93,0,0,0,.176-.081c.535,1.056,1.071,2.12,1.607,3.176-.007.007-.022.007-.029.015a18.712,18.712,0,0,1-2.032,1.973l-3-4.409c.1-.007.212-.015.322-.029a9.987,9.987,0,0,0,2.957-.646" transform="translate(-24.173 -16.438)" fill="#f2b481"/>
            <path id="Trazado_999977" data-name="Trazado 999977" d="M113.544,79.073l3,4.409a6.682,6.682,0,0,1-2.032,1.094,6.993,6.993,0,0,1-2.9.44,3.593,3.593,0,0,1-.4-.058l-2.663-3.911c0-.014.007-.021.014-.036a3.277,3.277,0,0,1,2.34-1.651,19.629,19.629,0,0,1,2.634-.286" transform="translate(-22.844 -16.639)" fill="#f2b481"/>
            <path id="Trazado_999978" data-name="Trazado 999978" d="M106.8,67.826l3.4,5a19.617,19.617,0,0,0-2.633.286,3.274,3.274,0,0,0-2.34,1.651.072.072,0,0,0-.015.036L92.676,56.381a5.506,5.506,0,0,0,.543-.829,9.99,9.99,0,0,0,1.225-4.776,4.382,4.382,0,0,0-.206-1.409l4.439,6.522Z" transform="translate(-19.502 -10.388)" fill="#5175ac"/>
            <path id="Trazado_999979" data-name="Trazado 999979" d="M111.02,85.946l1.819,2.677c-1.643.03-3.294.03-4.937.015l-.294-.058a33.882,33.882,0,0,0,.682-4.805h.008a2.689,2.689,0,0,0,.535.975,3.651,3.651,0,0,0,2.186,1.2" transform="translate(-22.644 -17.629)" fill="#f9a138"/>
            <path id="Trazado_999980" data-name="Trazado 999980" d="M89.522,48.768l.007-.007a3.92,3.92,0,0,1,.734-.7,2.1,2.1,0,0,1,1.93-.345,1.191,1.191,0,0,1,.33.183l.749,1.1a4.4,4.4,0,0,1,.205,1.409,10,10,0,0,1-1.225,4.776,5.63,5.63,0,0,1-.543.829l-3.631-5.341a6.9,6.9,0,0,1,1.445-1.9" transform="translate(-18.534 -10.017)" fill="#f2b481"/>
            <path id="Trazado_999981" data-name="Trazado 999981" d="M94.456,49.074l-.749-1.1a2.094,2.094,0,0,1,.749,1.1" transform="translate(-19.719 -10.095)" fill="#f2b481"/>
            <path id="Trazado_999982" data-name="Trazado 999982" d="M91.332,46.256a1.182,1.182,0,0,0-.33-.183,2.1,2.1,0,0,0-1.93.344,3.945,3.945,0,0,0-.734.7l-.007.008a6.9,6.9,0,0,0-1.446,1.9l-2.935-4.306L82.419,42.47a16.3,16.3,0,0,0,4.527-2.655l1.511,2.216Z" transform="translate(-17.344 -8.378)" fill="#5175ac"/>
            <path id="Trazado_999983" data-name="Trazado 999983" d="M87.863,51.485l3.631,5.341a2.668,2.668,0,0,1-1.416.976h-.007a2.44,2.44,0,0,1-2.494-1.188,4.3,4.3,0,0,1-.455-2.854,7.12,7.12,0,0,1,.741-2.274" transform="translate(-18.321 -10.834)" fill="#f2b481"/>
            <path id="Trazado_999984" data-name="Trazado 999984" d="M110.171,26.846c-.555-.169-.811.365-.837.824-.029.052.011,1.464.6,1.543.608.081.8-.581.821-1.056s-.049-1.15-.58-1.311" transform="translate(-23.006 -5.643)" fill="#312a5e"/>
            <path id="Trazado_999985" data-name="Trazado 999985" d="M110.374,25.185a1.929,1.929,0,0,0-1.75.675c-.3.362.252.841.557.478a1.169,1.169,0,0,1,1.053-.433c.466.056.61-.663.141-.72" transform="translate(-22.839 -5.296)" fill="#312a5e"/>
            <path id="Trazado_999986" data-name="Trazado 999986" d="M117.1,27.583a1.106,1.106,0,0,0-.393-.757.608.608,0,0,0-.752.054,1,1,0,0,0-.278.855c0,.532.179,1.176.706,1.284.791.161.811-.945.717-1.435" transform="translate(-24.341 -5.623)" fill="#312a5e"/>
            <path id="Trazado_999987" data-name="Trazado 999987" d="M115.828,25.185a1.928,1.928,0,0,1,1.75.675c.3.362-.252.841-.556.478a1.17,1.17,0,0,0-1.053-.433c-.467.056-.61-.663-.141-.72" transform="translate(-24.313 -5.296)" fill="#312a5e"/>
            <path id="Trazado_999988" data-name="Trazado 999988" d="M114.443,34.47a1.5,1.5,0,0,1-2.339.088c-.328-.34-.8.219-.478.556A2.231,2.231,0,0,0,115,34.948c.3-.367-.26-.847-.557-.478" transform="translate(-23.467 -7.226)" fill="#312a5e"/>
            <path id="Trazado_999989" data-name="Trazado 999989" d="M120.261,31.267a1.517,1.517,0,0,0-1.851-1.158,1.416,1.416,0,0,0-.557.3,1.47,1.47,0,0,0-.76,1.679,1.6,1.6,0,0,0,1.917,1.118,1.661,1.661,0,0,0,1.251-1.941" transform="translate(-24.63 -6.325)" fill="#e08b4b"/>
            <path id="Trazado_999990" data-name="Trazado 999990" d="M113,31.558c-.937.292-.426-1.5-.373-1.811q.137-.829.278-1.657a.367.367,0,0,0-.72-.141c-.17,1.013-1.384,5.064,1.062,4.3.45-.141.2-.831-.247-.691" transform="translate(-23.512 -5.821)" fill="#e08b4b"/>
            <path id="Trazado_999991" data-name="Trazado 999991" d="M132.287,50.441c-1.394.14-2.227-1.1-3.506-1.318a3.689,3.689,0,0,0-2.5.625c-1.734,1.019-2.859,2.327-5.105,1.8-1.521-.355-2.855-1.261-4.4-1.529a5.416,5.416,0,0,0-3.054.412c-2.017.787-3.262.5-5.244-.188-1.743-.6-3.69-.842-4.89.835-.272.381.281.862.557.478,1.89-2.642,5.354.478,7.848.2a18.243,18.243,0,0,0,2.776-.935c1.9-.523,3.566.51,5.285,1.128a5.186,5.186,0,0,0,5.207-.551c1.567-1.1,2.689-1.965,4.669-.978a3.963,3.963,0,0,0,2.422.749.367.367,0,0,0-.055-.732" transform="translate(-21.781 -10.329)" fill="#f7c34f"/>
            <path id="Trazado_999992" data-name="Trazado 999992" d="M133.185,56.87c-1.788-1.975-4.364-.875-6.44-.04a7.546,7.546,0,0,1-5.526.041,13.931,13.931,0,0,0-4.272-.994,10.649,10.649,0,0,0-3.895,1.108c-2.317.939-3.979.606-6.283-.23-2.131-.774-4.6-1.313-6.2.71-.292.37.263.85.557.478,2.276-2.88,5.936.232,8.68.459,2.6.214,4.639-1.8,7.192-1.793,2.508,0,4.716,1.649,7.238,1.588,2.683-.064,6.149-3.33,8.466-.77.317.349.792-.211.478-.557" transform="translate(-21.147 -11.734)" fill="#f7c34f"/>
            <path id="Trazado_999993" data-name="Trazado 999993" d="M134.953,62.989c-3-1.233-5.272,1.69-8.213,1.3-2.632-.346-4.336-2.531-7.172-1.924a22.021,22.021,0,0,0-3.543,1.38,6.47,6.47,0,0,1-5.545-.245c-1.782-.742-3.815-1.306-5.316.268-.327.343.231.82.556.478,2.087-2.187,5.063.685,7.4.85,2.4.17,4.35-1.514,6.607-2,2.746-.589,4.557,1.692,7.139,1.936,2.733.259,5.033-2.512,7.77-1.388.435.179.759-.48.321-.659" transform="translate(-22.109 -13.102)" fill="#f7c34f"/>
            <path id="Trazado_999994" data-name="Trazado 999994" d="M132.734,71.821a11.026,11.026,0,0,0-5.4-.908c-2.092.2-3.89,1.305-5.923,1.708-3.587.709-7.631-3.261-10.923-.434-.355.3.058.912.417.6,3-2.574,6.917,1.152,10.312.626a40.65,40.65,0,0,0,4.521-1.463,10.078,10.078,0,0,1,6.674.527c.433.185.756-.475.321-.659" transform="translate(-23.222 -14.913)" fill="#f7c34f"/>
            <path id="Trazado_999995" data-name="Trazado 999995" d="M131.409,82.262c-3.615-1.653-6.944,2.057-10.5.622-.436-.176-.76.482-.321.659,3.619,1.463,7-2.222,10.5-.622.43.2.751-.463.321-.659" transform="translate(-25.332 -17.219)" fill="#f7c34f"/>
            <path id="Trazado_999996" data-name="Trazado 999996" d="M131.208,61.79l-3.55-13.547c-.119-.456-.81-.207-.691.248L130.532,62.1l-10.978,9.2c-.358.3.054.908.417.6l11.3-9.469a.4.4,0,0,0-.062-.64" transform="translate(-25.129 -10.101)" fill="#dd740b"/>
            <path id="Trazado_999997" data-name="Trazado 999997" d="M110.013,50.589a.367.367,0,0,0-.659-.321c-1.317,2.847-4.03,5.381-4.039,8.7a4.176,4.176,0,0,0,3.294,4.282l.133,4.148c.015.472.747.416.732-.055l-.14-4.352v0a.306.306,0,0,0-.272-.412c-3.56-.318-3.308-4.407-2.116-6.765.914-1.808,2.216-3.375,3.069-5.221" transform="translate(-22.161 -10.535)" fill="#dd740b"/>
            <path id="Trazado_999998" data-name="Trazado 999998" d="M131.142,75.307l-9.718,5.3c-.414.226,0,.828.417.6l9.718-5.3c.414-.226-.006-.828-.417-.6" transform="translate(-25.516 -15.837)" fill="#dd740b"/>
            <path id="Trazado_999999" data-name="Trazado 999999" d="M39.814,180.2l-10.922-3.158a1.033,1.033,0,0,1-.7-1.276l21.274-73.576a1.034,1.034,0,0,1,1.276-.7l10.922,3.158a1.033,1.033,0,0,1,.7,1.276L41.091,179.494a1.035,1.035,0,0,1-1.277.7" transform="translate(-5.923 -21.347)" fill="#f9a138"/>
            <rect id="Rectángulo_456900" data-name="Rectángulo 456900" width="15.28" height="13.385" transform="translate(36.49 105.22) rotate(-73.872)" fill="#36395e"/>
            <rect id="Rectángulo_456901" data-name="Rectángulo 456901" width="15.28" height="13.385" transform="translate(26.095 141.17) rotate(-73.872)" fill="#36395e"/>
            <path id="Trazado_1000000" data-name="Trazado 1000000" d="M53.791,145.612a1.958,1.958,0,0,0-1.519-1.249,24.521,24.521,0,0,0,.441-3.934c.006-.715-.094-1.587-.882-1.864-1.932-.681-3.094,2.9-3.7,5.448.01-.976-.012-1.942-.9-2.517a1.605,1.605,0,0,0-2.163.556c-.994,1.219-1.4,3.368-1.727,4.849a26.311,26.311,0,0,0-.561,6.936.4.4,0,0,0,.788-.05,25.348,25.348,0,0,1,1-8.475c.192-.638.321-1.8.784-2.171.923-.748,1.882.154,1.982,1.1a5.172,5.172,0,0,0,.395,2.235.4.4,0,0,0,.716-.135,27.134,27.134,0,0,1,.782-3.107c.126-.387,1.4-4.881,2.661-2.546.268.5-.346,2.441-.429,3.028-.037.26-.073.52-.111.779a1.855,1.855,0,0,0-.22,3.438.4.4,0,0,0,.567-.27c.017-.118.037-.238.055-.356.748-.01,1.413-1.954,1.6-.017A7.993,7.993,0,0,1,53.4,148.4a8.762,8.762,0,0,1-.808,3.278,8.891,8.891,0,0,1-3.764,4.047c-.442.253-.008.912.432.661,3.315-1.893,6.362-6.884,4.535-10.775" transform="translate(-8.998 -29.141)" fill="#dd740b"/>
            <path id="Trazado_1000001" data-name="Trazado 1000001" d="M64.94,108.195c-.927-1.331-2.293-.059-3.307,1.132.314-1.323.538-2.9-.385-3.437-1.319-.766-2.591.969-3.346,2.321-.255-.928-.8-1.769-1.923-1.6-1.921.287-1.5,3.707-1.473,4.973.013.508.8.459.789-.05-.019-.761-.29-2.269.1-2.892q.02-1.146,1.729-.448a5.21,5.21,0,0,1,.183,1.308.4.4,0,0,0,.745.156c.244-.526,2.073-4.253,2.955-2.043.265.662-.438,2.51-.563,3.225a.4.4,0,0,0,.68.345l1.36-1.445.907-.963q1.194.554.666,1.238a7.164,7.164,0,0,1-1.093,1.829l-1.349,2.245c-.262.437.441.8.7.362.876-1.457,2.317-3.131,2.77-4.778a1.664,1.664,0,0,0-.15-1.476" transform="translate(-11.457 -22.243)" fill="#dd740b"/>
            <path id="Trazado_1000002" data-name="Trazado 1000002" d="M43.755,186.427c-.446-2.33-2.457-.114-3.614,1.364a10.8,10.8,0,0,0-.06-3.965,1.534,1.534,0,0,0-1.315-1.173c-2.241-.308-2.448,2.523-2.988,4.259-.622-1.656-1.8-4.51-3.306-3.2-.825.715-.845,2.527-.948,3.5a21.083,21.083,0,0,0,.13,5.305c.073.5.861.455.789-.05a20,20,0,0,1-.058-5.784c.152-1.054.049-2.958,1.877-1.092a9.926,9.926,0,0,1,1.121,2.494.4.4,0,0,0,.726.055,5.024,5.024,0,0,0,.725-1.719c.035-.2.07-.394.106-.591q.053-1.705,2.428-1.478a7.049,7.049,0,0,1-.032,1.912q-.036,1.425-.07,2.849a.4.4,0,0,0,.687.24,12.832,12.832,0,0,1,1.607-2.045c.328-.267.958-.846,1.313-.017.143.332-.645,1.7-.8,2.028a17.825,17.825,0,0,1-3.521,4.948c-.358.362.229.89.586.53a18.7,18.7,0,0,0,3.2-4.241c.563-1.041,1.662-2.863,1.42-4.126" transform="translate(-6.611 -38.431)" fill="#dd740b"/>
          </g>
        </g>
      </g>
    </g>
  </g>
</svg>
