<svg xmlns="http://www.w3.org/2000/svg" xmlns:xlink="http://www.w3.org/1999/xlink" width="96" height="96" viewBox="0 0 96 96">
  <defs>
    <clipPath id="clip-path">
      <rect id="Rectángulo_455533" data-name="Rectángulo 455533" width="95.999" height="92.163" fill="#19538d"/>
    </clipPath>
  </defs>
  <g id="Grupo_1179982" data-name="Grupo 1179982" transform="translate(-383.746 -8399)">
    <circle id="Elipse_13674" data-name="Elipse 13674" cx="41.5" cy="41.5" r="41.5" transform="translate(389.746 8406)" fill="#19538d"/>
    <g id="Grupo_1179062" data-name="Grupo 1179062" transform="translate(383.745 8399)">
      <rect id="Rectángulo_455531" data-name="Rectángulo 455531" width="96" height="96" transform="translate(0 0)" fill="none"/>
      <g id="Grupo_1179061" data-name="Grupo 1179061" transform="translate(0 2.203)">
        <path id="Trazado_998445" data-name="Trazado 998445" d="M114.467,95.838H96.727l2.4-4.484h17.739Z" transform="translate(-23.693 -22.7)" fill="#19538d"/>
        <path id="Trazado_998446" data-name="Trazado 998446" d="M1.458,86.893,0,89.861H19.558l1.458-2.968Z" transform="translate(0 -21.618)" fill="#19538d"/>
        <path id="Trazado_998447" data-name="Trazado 998447" d="M117.539,31.293H98.809l1.469-3.326h18.73Z" transform="translate(-24.246 -6.956)" fill="#19538d"/>
        <path id="Trazado_998448" data-name="Trazado 998448" d="M28.088,11.547H3.483L4.952,8.221H29.557Z" transform="translate(-0.925 -2.184)" fill="#19538d"/>
        <g id="Grupo_1179060" data-name="Grupo 1179060" transform="translate(0)">
          <g id="Grupo_1179059" data-name="Grupo 1179059" clip-path="url(#clip-path)">
            <path id="Trazado_998449" data-name="Trazado 998449" d="M48.653,99.141a40.772,40.772,0,0,1-39.711-49.9H3.518A46.036,46.036,0,0,0,84.512,87.248h-7.1A40.6,40.6,0,0,1,48.653,99.141" transform="translate(-0.653 -12.277)" fill="#19538d"/>
            <path id="Trazado_998450" data-name="Trazado 998450" d="M110.835,87.933h6.025c.484-.964.923-1.952,1.34-2.953h-5.792c-.487,1.007-1.008,1.994-1.573,2.953" transform="translate(-27.709 -21.189)" fill="#19538d"/>
            <path id="Trazado_998451" data-name="Trazado 998451" d="M95.384,46.081a46.043,46.043,0,0,0-90.011-13.7h5.589A40.752,40.752,0,1,1,87.147,61.291h5.644a45.915,45.915,0,0,0,2.592-15.209" transform="translate(-1.343)" fill="#19538d"/>
            <path id="Trazado_998452" data-name="Trazado 998452" d="M108.562,81.649v2.5h3.277q.594-1.228,1.106-2.5Z" transform="translate(-27.141 -20.358)" fill="#19538d"/>
            <path id="Trazado_998453" data-name="Trazado 998453" d="M126.164,81.649h-4.551q-.444,1.268-.958,2.5h5.509Z" transform="translate(-30.164 -20.358)" fill="#19538d"/>
          </g>
        </g>
        <path id="Trazado_998444" data-name="Trazado 998444" d="M2.2,37.025,0,41.509H13.317l2.2-4.484Z" transform="translate(0 -9.2)" fill="#19538d"/>
      </g>
    </g>
    <g id="Grupo_1177669" data-name="Grupo 1177669" transform="translate(403.444 8418.662)">
      <g id="Grupo_1099618" data-name="Grupo 1099618" transform="translate(0.267 -0.036)">
        <rect id="Rectángulo_401104" data-name="Rectángulo 401104" width="56.349" height="57.028" transform="translate(0)" fill="none"/>
      </g>
      <g id="actualizando" transform="translate(2.267 2.954)">
        <g id="Page-1_10_" transform="translate(0 0.01)">
          <g id="_x30_11---Computer-Updating">
            <path id="Shape_27_" d="M49.79.01H3.569A2.653,2.653,0,0,0,1,2.734v37.35a2.653,2.653,0,0,0,2.568,2.724H18.447l-1.712,3.424H13.84a2.568,2.568,0,0,0,0,5.136H39.519a2.568,2.568,0,0,0,0-5.136H36.624l-1.712-3.424H49.79a2.653,2.653,0,0,0,2.568-2.724V2.734A2.653,2.653,0,0,0,49.79.01ZM3.569,1.722H49.79a.956.956,0,0,1,.856,1.012V35.96H2.713V2.734a.956.956,0,0,1,.856-1.012ZM40.375,48.8a.856.856,0,0,1-.856.856H13.84a.856.856,0,1,1,0-1.712H39.519A.856.856,0,0,1,40.375,48.8ZM34.71,46.231H18.649l1.712-3.424H33ZM49.79,41.1H3.569a.956.956,0,0,1-.856-1.012V37.672H50.646v2.412A.956.956,0,0,1,49.79,41.1Z" transform="translate(-1 -0.01)" fill="#fff"/>
            <path id="Shape_26_" d="M210.892,104.147a5.136,5.136,0,1,0-5.142-5.136A5.136,5.136,0,0,0,210.892,104.147Zm0-8.559a3.424,3.424,0,1,1-3.43,3.424A3.424,3.424,0,0,1,210.892,95.588Z" transform="translate(-185.212 -84.461)" fill="#fff"/>
            <path id="Shape_25_" d="M155.985,50.26a1.712,1.712,0,0,0-1.376,1.679v2.02a1.712,1.712,0,0,0,1.376,1.679l.821.164a8.529,8.529,0,0,0,.347.841l-.463.7a1.719,1.719,0,0,0,.214,2.16l1.429,1.429a1.72,1.72,0,0,0,2.16.214l.7-.467a8.661,8.661,0,0,0,.833.342l.166.829a1.712,1.712,0,0,0,1.679,1.376h2.02a1.712,1.712,0,0,0,1.679-1.376l.166-.829a8.687,8.687,0,0,0,.833-.342l.7.467a1.719,1.719,0,0,0,2.16-.214l1.429-1.429a1.718,1.718,0,0,0,.214-2.16l-.463-.7a8.513,8.513,0,0,0,.342-.841l.82-.164a1.712,1.712,0,0,0,1.381-1.679v-2.02a1.712,1.712,0,0,0-1.375-1.679l-.82-.164a8.537,8.537,0,0,0-.348-.841l.464-.7a1.719,1.719,0,0,0-.214-2.16l-1.429-1.428a1.717,1.717,0,0,0-2.16-.214l-.7.467a8.664,8.664,0,0,0-.833-.342l-.166-.829a1.712,1.712,0,0,0-1.679-1.376h-2.02a1.712,1.712,0,0,0-1.679,1.376l-.166.829a8.689,8.689,0,0,0-.833.342l-.7-.467a1.718,1.718,0,0,0-2.16.214L156.9,46.4a1.718,1.718,0,0,0-.214,2.16l.464.7a8.54,8.54,0,0,0-.348.841Zm1.649,1.416a.856.856,0,0,0,.655-.6,6.823,6.823,0,0,1,.6-1.455.856.856,0,0,0-.035-.894l-.743-1.113,1.429-1.429,1.119.746a.851.851,0,0,0,.89.036A6.818,6.818,0,0,1,163,46.368a.856.856,0,0,0,.605-.656l.268-1.324h2.02l.265,1.324a.856.856,0,0,0,.605.656,6.8,6.8,0,0,1,1.448.595.851.851,0,0,0,.89-.036l1.12-.746,1.429,1.429-.743,1.113a.856.856,0,0,0-.033.9,6.818,6.818,0,0,1,.6,1.455.856.856,0,0,0,.655.6l1.314.261v2.02l-1.315.263a.856.856,0,0,0-.655.6,6.733,6.733,0,0,1-.6,1.455.856.856,0,0,0,.035.894l.743,1.113-1.429,1.429-1.119-.746a.856.856,0,0,0-.89-.036,6.862,6.862,0,0,1-1.448.6.856.856,0,0,0-.605.655l-.267,1.321h-2.02l-.265-1.324a.856.856,0,0,0-.605-.655,6.86,6.86,0,0,1-1.448-.6.856.856,0,0,0-.89.036l-1.12.746-1.429-1.429.743-1.113a.856.856,0,0,0,.032-.891,6.726,6.726,0,0,1-.6-1.455.856.856,0,0,0-.655-.6l-1.314-.261v-2.02Z" transform="translate(-139.201 -38.397)" fill="#fff"/>
            <path id="Shape_24_" d="M46.244,286.746H83.906a2.568,2.568,0,1,0,0-5.136H46.244a2.568,2.568,0,1,0,0,5.136Zm38.518-2.568a.856.856,0,0,1-.856.856H72.778v-1.712H83.906a.856.856,0,0,1,.856.856Zm-38.518-.856H71.067v1.712H46.244a.856.856,0,0,1,0-1.712Z" transform="translate(-39.395 -253.364)" fill="#fff"/>
            <g id="Grupo_1180178" data-name="Grupo 1180178" transform="translate(8.571 3.423)">
              <path id="Path_14_" d="M355.093,122.69l.233-.233a13.561,13.561,0,0,1-3.99,9.293.856.856,0,0,0,1.21,1.212,15.268,15.268,0,0,0,4.493-10.535l.267.267a.856.856,0,0,0,1.21-1.21l-1.712-1.712a.856.856,0,0,0-1.21,0l-1.712,1.712a.856.856,0,0,0,1.21,1.21v0Z" transform="translate(-324.54 -110.957)" fill="#fff" fill-rule="evenodd"/>
              <path id="Path_13_" d="M88.4,47.583a.856.856,0,0,0,1.21,0l1.712-1.712a.856.856,0,0,0-1.21-1.21l-.233.233A13.561,13.561,0,0,1,93.87,35.6a.856.856,0,0,0-1.21-1.212,15.268,15.268,0,0,0-4.493,10.539L87.9,44.66a.856.856,0,0,0-1.21,1.21Z" transform="translate(-86.449 -34.138)" fill="#fff" fill-rule="evenodd"/>
            </g>
          </g>
        </g>
      </g>
    </g>
  </g>
</svg>
