<svg xmlns="http://www.w3.org/2000/svg" width="65" height="65" viewBox="0 0 65 65">
  <g id="Grupo_1180180" data-name="Grupo 1180180" transform="translate(-521.711 -10958)">
    <path id="Trazado_999712" data-name="Trazado 999712" d="M0,0H65V65H0Z" transform="translate(521.711 10958)" fill="#62249e"/>
    <g id="libro" transform="translate(534.711 10953.537)">
      <path id="Trazado_1000373" data-name="Trazado 1000373" d="M39.181,26.827A3.154,3.154,0,0,0,37.771,25.8a3.85,3.85,0,0,1-.119,1.363L30.482,50.75a1.718,1.718,0,0,1-.836.992,2.651,2.651,0,0,1-1.338.371H6.249q-2.868,0-3.441-1.673a1.089,1.089,0,0,1,.024-1.028,1.053,1.053,0,0,1,.908-.359H24.508a4.4,4.4,0,0,0,3.071-.825,9.333,9.333,0,0,0,1.709-3.668l6.548-21.652a3.408,3.408,0,0,0-.43-3.107,3.148,3.148,0,0,0-2.725-1.338H14.495a6.645,6.645,0,0,0-1.219.215l.024-.072a4.988,4.988,0,0,0-1.135-.132,1.6,1.6,0,0,0-.86.275,2.767,2.767,0,0,0-.633.561,4.114,4.114,0,0,0-.466.765q-.227.466-.382.861t-.358.837a5.385,5.385,0,0,1-.394.729q-.144.191-.406.5t-.43.55a1.346,1.346,0,0,0-.215.43,1.557,1.557,0,0,0,.048.633,1.97,1.97,0,0,1,.071.609,9.062,9.062,0,0,1-.657,2.306,9.852,9.852,0,0,1-1.016,2.02q-.1.119-.526.538a1.912,1.912,0,0,0-.526.729q-.1.119-.012.669a3.451,3.451,0,0,1,.06.765,9.791,9.791,0,0,1-.6,2.151,14.621,14.621,0,0,1-1,2.2,3.918,3.918,0,0,1-.406.55,2.01,2.01,0,0,0-.406.669,2.107,2.107,0,0,0,.012.669,1.869,1.869,0,0,1-.012.717,12.972,12.972,0,0,1-.717,2.187A15.956,15.956,0,0,1,1.255,43.58a5.753,5.753,0,0,1-.394.562,5.832,5.832,0,0,0-.394.561,1.488,1.488,0,0,0-.191.5,1.188,1.188,0,0,0,.072.466,1.326,1.326,0,0,1,.071.514q-.024.334-.1.885t-.072.644A4.336,4.336,0,0,0,.3,50.75a6.715,6.715,0,0,0,2.378,3.142,5.849,5.849,0,0,0,3.549,1.278H28.284a4.77,4.77,0,0,0,2.927-1.039,4.932,4.932,0,0,0,1.828-2.569L39.611,29.91A3.38,3.38,0,0,0,39.181,26.827Zm-25.428.048.5-1.53a1.066,1.066,0,0,1,.394-.538,1,1,0,0,1,.61-.227H29.79a.521.521,0,0,1,.478.227.623.623,0,0,1,.048.538l-.5,1.53a1.067,1.067,0,0,1-.395.538,1,1,0,0,1-.609.227H14.279a.521.521,0,0,1-.478-.227A.623.623,0,0,1,13.753,26.875ZM11.77,32.993l.5-1.529a1.067,1.067,0,0,1,.394-.538,1,1,0,0,1,.61-.227h14.53a.521.521,0,0,1,.478.227.623.623,0,0,1,.048.538l-.5,1.529a1.066,1.066,0,0,1-.394.538,1,1,0,0,1-.61.227H12.3a.52.52,0,0,1-.478-.227A.622.622,0,0,1,11.77,32.993Z" transform="translate(0)" fill="#fff"/>
    </g>
  </g>
</svg>
