<svg xmlns="http://www.w3.org/2000/svg" width="65" height="65" viewBox="0 0 65 65">
  <g id="Grupo_1180182" data-name="Grupo 1180182" transform="translate(-1013.711 -10958)">
    <g id="Grupo_1180184" data-name="Grupo 1180184">
      <path id="Trazado_999714" data-name="Trazado 999714" d="M0,0H65V65H0Z" transform="translate(1013.711 10958)" fill="#62249e"/>
      <g id="verificar" transform="translate(1026.711 10971)">
        <path id="Trazado_1000375" data-name="Trazado 1000375" d="M17.681,3.317H15.857a4.57,4.57,0,0,0-8.789,0H5.244A1.253,1.253,0,0,0,4,4.56V7.048a2.916,2.916,0,0,0,2.9,2.9h9.121a2.916,2.916,0,0,0,2.9-2.9V4.56A1.253,1.253,0,0,0,17.681,3.317Z" transform="translate(2.633)" fill="#fff"/>
        <path id="Trazado_1000376" data-name="Trazado 1000376" d="M23.631,3h-.415V5.073a4.558,4.558,0,0,1-4.56,4.56H9.535a4.558,4.558,0,0,1-4.56-4.56V3H4.56A4.558,4.558,0,0,0,0,7.56V28.289a4.558,4.558,0,0,0,4.56,4.56H15.488a14.49,14.49,0,0,1-1.376-5.8H6.219a1.244,1.244,0,0,1,0-2.487h8.026a15.177,15.177,0,0,1,.73-2.9H6.219a1.244,1.244,0,0,1,0-2.487h9.95a14.432,14.432,0,0,1,2.305-2.9H6.219a1.244,1.244,0,0,1,0-2.487H21.873a14.3,14.3,0,0,1,6.318-1.642V7.56A4.558,4.558,0,0,0,23.631,3Z" transform="translate(0 1.975)" fill="#fff"/>
        <path id="Trazado_1000377" data-name="Trazado 1000377" d="M21.693,10.5A11.193,11.193,0,1,0,32.887,21.693,11.206,11.206,0,0,0,21.693,10.5Zm5.393,8.97-5.8,6.633a1.656,1.656,0,0,1-1.192.565h-.055a1.657,1.657,0,0,1-1.172-.486l-3.317-3.317a1.658,1.658,0,0,1,2.345-2.345l2.063,2.063,4.637-5.3a1.659,1.659,0,1,1,2.5,2.186Z" transform="translate(6.912 6.912)" fill="#fff"/>
      </g>
    </g>
  </g>
</svg>
