<svg xmlns="http://www.w3.org/2000/svg" xmlns:xlink="http://www.w3.org/1999/xlink" width="96" height="96" viewBox="0 0 96 96">
  <defs>
    <clipPath id="clip-path">
      <rect id="Rectángulo_455533" data-name="Rectángulo 455533" width="95.999" height="92.163" fill="#19538d"/>
    </clipPath>
  </defs>
  <g id="Grupo_1181714" data-name="Grupo 1181714" transform="translate(-383.745 -8399)">
    <circle id="Elipse_13674" data-name="Elipse 13674" cx="41.5" cy="41.5" r="41.5" transform="translate(389.746 8406)" fill="#19538d"/>
    <g id="Grupo_1179062" data-name="Grupo 1179062" transform="translate(383.745 8399)">
      <rect id="Rectángulo_455531" data-name="Rectángulo 455531" width="96" height="96" transform="translate(0 0)" fill="none"/>
      <g id="Grupo_1179061" data-name="Grupo 1179061" transform="translate(0 2.203)">
        <path id="Trazado_998445" data-name="Trazado 998445" d="M114.467,95.838H96.727l2.4-4.484h17.739Z" transform="translate(-23.693 -22.7)" fill="#19538d"/>
        <path id="Trazado_998446" data-name="Trazado 998446" d="M1.458,86.893,0,89.861H19.558l1.458-2.968Z" transform="translate(0 -21.618)" fill="#19538d"/>
        <path id="Trazado_998447" data-name="Trazado 998447" d="M117.539,31.293H98.809l1.469-3.326h18.73Z" transform="translate(-24.246 -6.956)" fill="#19538d"/>
        <path id="Trazado_998448" data-name="Trazado 998448" d="M28.088,11.547H3.483L4.952,8.221H29.557Z" transform="translate(-0.925 -2.184)" fill="#19538d"/>
        <g id="Grupo_1179060" data-name="Grupo 1179060" transform="translate(0)">
          <g id="Grupo_1179059" data-name="Grupo 1179059" clip-path="url(#clip-path)">
            <path id="Trazado_998449" data-name="Trazado 998449" d="M48.653,99.141a40.772,40.772,0,0,1-39.711-49.9H3.518A46.036,46.036,0,0,0,84.512,87.248h-7.1A40.6,40.6,0,0,1,48.653,99.141" transform="translate(-0.653 -12.277)" fill="#19538d"/>
            <path id="Trazado_998450" data-name="Trazado 998450" d="M110.835,87.933h6.025c.484-.964.923-1.952,1.34-2.953h-5.792c-.487,1.007-1.008,1.994-1.573,2.953" transform="translate(-27.709 -21.189)" fill="#19538d"/>
            <path id="Trazado_998451" data-name="Trazado 998451" d="M95.384,46.081a46.043,46.043,0,0,0-90.011-13.7h5.589A40.752,40.752,0,1,1,87.147,61.291h5.644a45.915,45.915,0,0,0,2.592-15.209" transform="translate(-1.343)" fill="#19538d"/>
            <path id="Trazado_998452" data-name="Trazado 998452" d="M108.562,81.649v2.5h3.277q.594-1.228,1.106-2.5Z" transform="translate(-27.141 -20.358)" fill="#19538d"/>
            <path id="Trazado_998453" data-name="Trazado 998453" d="M126.164,81.649h-4.551q-.444,1.268-.958,2.5h5.509Z" transform="translate(-30.164 -20.358)" fill="#19538d"/>
          </g>
        </g>
        <path id="Trazado_998444" data-name="Trazado 998444" d="M2.2,37.025,0,41.509H13.317l2.2-4.484Z" transform="translate(0 -9.2)" fill="#19538d"/>
      </g>
    </g>
    <g id="Grupo_1177669" data-name="Grupo 1177669" transform="translate(403.444 8418.662)">
      <g id="Grupo_1099618" data-name="Grupo 1099618" transform="translate(0 0)">
        <rect id="Rectángulo_401104" data-name="Rectángulo 401104" width="56.349" height="57.028" transform="translate(0)" fill="none"/>
      </g>
      <path id="descuentos-en-linea" d="M56.6,80.306H53.749V50a2.045,2.045,0,0,0-2.041-2.043H43.537a3.357,3.357,0,0,0-.2-.414,2.958,2.958,0,0,0-2.026-1.46l-1.375-.277a1.173,1.173,0,0,1-.944-.954l-.254-1.31a3.026,3.026,0,0,0-3.931-2.3l-1.333.447a1.171,1.171,0,0,1-1.293-.352l-.875-1.01a2.946,2.946,0,0,0-2.271-1.044h-.017a2.947,2.947,0,0,0-2.265,1.022l-.929,1.054a1.172,1.172,0,0,1-1.3.34l-1.264-.438a3.024,3.024,0,0,0-3.949,2.257l-.28,1.381a1.168,1.168,0,0,1-.951.944l-1.315.254a2.941,2.941,0,0,0-2.038,1.444,3.14,3.14,0,0,0-.2.407H6.366A2.046,2.046,0,0,0,4.323,50V73.331a.909.909,0,0,0,1.818,0V50a.231.231,0,0,1,.227-.227H14.4c.022.087.047.175.076.262l.447,1.329a1.269,1.269,0,0,1,.067.394H9.6a1.478,1.478,0,0,0-1.475,1.477V76.845A1.476,1.476,0,0,0,9.6,78.32H48.472a1.476,1.476,0,0,0,1.475-1.475V53.238a1.478,1.478,0,0,0-1.475-1.477H43.066a1.251,1.251,0,0,1,.068-.458l.437-1.266c.029-.086.056-.174.077-.26h8.06a.228.228,0,0,1,.224.227v30.3H6.139V75.831a.909.909,0,1,0-1.818,0v4.475H1.471A1.482,1.482,0,0,0-.01,81.786v2.6a4.083,4.083,0,0,0,4.08,4.076H54a4.081,4.081,0,0,0,4.076-4.076v-2.6A1.482,1.482,0,0,0,56.6,80.306ZM17.113,47.891l1.317-.254a2.971,2.971,0,0,0,2.386-2.37l.28-1.376a1.207,1.207,0,0,1,1.576-.9l1.265.438a2.978,2.978,0,0,0,3.255-.857l.928-1.054a1.144,1.144,0,0,1,.9-.407h.008a1.148,1.148,0,0,1,.906.416l.876,1.011a2.971,2.971,0,0,0,3.246.883l1.33-.446a1.155,1.155,0,0,1,1,.1,1.138,1.138,0,0,1,.574.811l.254,1.313a2.979,2.979,0,0,0,2.369,2.389l1.375.277a1.2,1.2,0,0,1,.9,1.576l-.438,1.27a2.985,2.985,0,0,0,.17,2.378l.024.042a3.094,3.094,0,0,0,.665.829l1.052.929a1.211,1.211,0,0,1-.006,1.816l-1.011.876a2.982,2.982,0,0,0-.886,3.246l.448,1.334a1.2,1.2,0,0,1-.913,1.567l-1.317.254a2.98,2.98,0,0,0-2.386,2.367l-.28,1.377a1.2,1.2,0,0,1-1.576.9L34.141,68.2a2.972,2.972,0,0,0-3.255.855l-.931,1.054a1.136,1.136,0,0,1-.9.408h-.008a1.148,1.148,0,0,1-.908-.418l-.876-1.007A2.969,2.969,0,0,0,25,68.038a3.1,3.1,0,0,0-.987.163l-1.327.449a1.212,1.212,0,0,1-1.571-.916l-.254-1.31A2.971,2.971,0,0,0,18.5,64.033l-1.381-.28a1.128,1.128,0,0,1-.8-.585,1.141,1.141,0,0,1-.093-.989l.437-1.264a2.973,2.973,0,0,0-.855-3.253l-1.054-.928a1.211,1.211,0,0,1,.006-1.816l1.014-.878a2.971,2.971,0,0,0,.883-3.246L16.2,49.464a1.186,1.186,0,0,1-.066-.481c0-.015,0-.029,0-.044a1.216,1.216,0,0,1,.163-.467,1.122,1.122,0,0,1,.809-.581ZM48.131,76.5H9.94V53.577h3.577a3.025,3.025,0,0,0,.024,4.513l1.054.929a1.168,1.168,0,0,1,.34,1.3L14.5,61.58a3.024,3.024,0,0,0,2.257,3.948l1.377.28a1.166,1.166,0,0,1,.944.954l.254,1.315a3.028,3.028,0,0,0,3.932,2.289l1.327-.449a1.175,1.175,0,0,1,1.3.355l.876,1.009a2.944,2.944,0,0,0,2.271,1.044h.017a2.931,2.931,0,0,0,2.26-1.024l.93-1.052a1.174,1.174,0,0,1,1.3-.34l1.259.432a3.019,3.019,0,0,0,3.953-2.255l.28-1.376a1.175,1.175,0,0,1,.951-.945L41.3,65.51a3.021,3.021,0,0,0,2.292-3.931l-.446-1.33a1.178,1.178,0,0,1,.354-1.3l1.012-.877a3.026,3.026,0,0,0,.069-4.5h3.548V76.5Zm-13.7,5.618v.548a.552.552,0,0,1-.551.551H24.189a.557.557,0,0,1-.548-.551v-.548Zm21.831,2.263a2.261,2.261,0,0,1-2.259,2.259H4.07a2.263,2.263,0,0,1-2.262-2.259V82.123H21.824v.548A2.37,2.37,0,0,0,24.19,85.04h9.693a2.372,2.372,0,0,0,2.369-2.369v-.548H56.264ZM18.482,55.808A10.555,10.555,0,0,1,39.5,54.443a.908.908,0,0,1-1.8.234,8.739,8.739,0,1,0,0,2.262.908.908,0,0,1,1.8.234,10.555,10.555,0,0,1-21.022-1.365Zm6.888,4.534,5.76-9.973a.909.909,0,0,1,1.574.909l-5.76,9.973a.909.909,0,0,1-1.574-.909Zm3.072-7.959a2.569,2.569,0,1,0-2.571,2.571A2.572,2.572,0,0,0,28.442,52.383Zm-3.322,0a.753.753,0,1,1,.751.754A.752.752,0,0,1,25.12,52.383ZM32.2,61.8a2.569,2.569,0,1,0-2.567-2.571A2.572,2.572,0,0,0,32.2,61.8Zm0-3.322a.753.753,0,1,1-.751.751A.752.752,0,0,1,32.2,58.482Z" transform="translate(0.01 -37.018)" fill="#fff"/>
    </g>
  </g>
</svg>
