<svg xmlns="http://www.w3.org/2000/svg" xmlns:xlink="http://www.w3.org/1999/xlink" width="96" height="96" viewBox="0 0 96 96">
  <defs>
    <clipPath id="clip-path">
      <rect id="Rectángulo_455533" data-name="Rectángulo 455533" width="95.999" height="92.163" fill="#19538d"/>
    </clipPath>
    <clipPath id="clip-path-2">
      <rect id="Rectángulo_457254" data-name="Rectángulo 457254" width="53.952" height="53.954" fill="#fff"/>
    </clipPath>
  </defs>
  <g id="Grupo_1181713" data-name="Grupo 1181713" transform="translate(-383.745 -8399)">
    <circle id="Elipse_13674" data-name="Elipse 13674" cx="41.5" cy="41.5" r="41.5" transform="translate(389.746 8406)" fill="#19538d"/>
    <g id="Grupo_1179062" data-name="Grupo 1179062" transform="translate(383.745 8399)">
      <rect id="Rectángulo_455531" data-name="Rectángulo 455531" width="96" height="96" transform="translate(0 0)" fill="none"/>
      <g id="Grupo_1179061" data-name="Grupo 1179061" transform="translate(0 2.203)">
        <path id="Trazado_998445" data-name="Trazado 998445" d="M114.467,95.838H96.727l2.4-4.484h17.739Z" transform="translate(-23.693 -22.7)" fill="#19538d"/>
        <path id="Trazado_998446" data-name="Trazado 998446" d="M1.458,86.893,0,89.861H19.558l1.458-2.968Z" transform="translate(0 -21.618)" fill="#19538d"/>
        <path id="Trazado_998447" data-name="Trazado 998447" d="M117.539,31.293H98.809l1.469-3.326h18.73Z" transform="translate(-24.246 -6.956)" fill="#19538d"/>
        <path id="Trazado_998448" data-name="Trazado 998448" d="M28.088,11.547H3.483L4.952,8.221H29.557Z" transform="translate(-0.925 -2.184)" fill="#19538d"/>
        <g id="Grupo_1179060" data-name="Grupo 1179060" transform="translate(0)">
          <g id="Grupo_1179059" data-name="Grupo 1179059" clip-path="url(#clip-path)">
            <path id="Trazado_998449" data-name="Trazado 998449" d="M48.653,99.141a40.772,40.772,0,0,1-39.711-49.9H3.518A46.036,46.036,0,0,0,84.512,87.248h-7.1A40.6,40.6,0,0,1,48.653,99.141" transform="translate(-0.653 -12.277)" fill="#19538d"/>
            <path id="Trazado_998450" data-name="Trazado 998450" d="M110.835,87.933h6.025c.484-.964.923-1.952,1.34-2.953h-5.792c-.487,1.007-1.008,1.994-1.573,2.953" transform="translate(-27.709 -21.189)" fill="#19538d"/>
            <path id="Trazado_998451" data-name="Trazado 998451" d="M95.384,46.081a46.043,46.043,0,0,0-90.011-13.7h5.589A40.752,40.752,0,1,1,87.147,61.291h5.644a45.915,45.915,0,0,0,2.592-15.209" transform="translate(-1.343)" fill="#19538d"/>
            <path id="Trazado_998452" data-name="Trazado 998452" d="M108.562,81.649v2.5h3.277q.594-1.228,1.106-2.5Z" transform="translate(-27.141 -20.358)" fill="#19538d"/>
            <path id="Trazado_998453" data-name="Trazado 998453" d="M126.164,81.649h-4.551q-.444,1.268-.958,2.5h5.509Z" transform="translate(-30.164 -20.358)" fill="#19538d"/>
          </g>
        </g>
        <path id="Trazado_998444" data-name="Trazado 998444" d="M2.2,37.025,0,41.509H13.317l2.2-4.484Z" transform="translate(0 -9.2)" fill="#19538d"/>
      </g>
    </g>
    <g id="Grupo_1177669" data-name="Grupo 1177669" transform="translate(403.444 8418.662)">
      <g id="Grupo_1099618" data-name="Grupo 1099618" transform="translate(0 0)">
        <rect id="Rectángulo_401104" data-name="Rectángulo 401104" width="54.309" height="54.963" transform="translate(0)" fill="none"/>
      </g>
      <g id="Grupo_1181730" data-name="Grupo 1181730" transform="translate(1.5 0.335)">
        <g id="Grupo_1181730-2" data-name="Grupo 1181730" clip-path="url(#clip-path-2)">
          <path id="Trazado_1002186" data-name="Trazado 1002186" d="M191.275,134.47h-8.694v-3.933L181.8,114.31l-.8-1.6V95.928h1.581v12.646a1.186,1.186,0,1,0,2.371,0V92.766a1.186,1.186,0,1,0-2.371,0v1.578H181V92.766A2.779,2.779,0,0,1,183.765,90h1.978a4.765,4.765,0,0,1,4.742,4.74v13.876l0,.042-2.276,21.07h.7a2.382,2.382,0,0,1,2.371,2.369Zm-7.113-1.581h5.532v-.79a.8.8,0,0,0-.792-.79h-4.74Zm-.037-3.161h2.489l2.29-21.2V94.742a3.182,3.182,0,0,0-2.618-3.113,2.752,2.752,0,0,1,.247,1.135v15.809a2.766,2.766,0,0,1-3.952,2.5v1.266l.781,1.563Z" transform="translate(-161.927 -80.516)" fill="#fff"/>
          <rect id="Rectángulo_457247" data-name="Rectángulo 457247" width="3.952" height="1.581" transform="translate(23.816 27.267)" fill="#fff"/>
          <rect id="Rectángulo_457248" data-name="Rectángulo 457248" width="3.952" height="1.581" transform="translate(19.864 17.783)" fill="#fff"/>
          <path id="Trazado_1002187" data-name="Trazado 1002187" d="M179.031,11.065a5.532,5.532,0,1,1,0-11.065h3.161a2.382,2.382,0,0,1,2.371,2.369V5.532a5.539,5.539,0,0,1-5.532,5.532m3.159-9.484h-3.159a3.952,3.952,0,1,0,3.952,3.952V2.371a.8.8,0,0,0-.792-.79" transform="translate(-155.216)" fill="#fff"/>
          <path id="Trazado_1002188" data-name="Trazado 1002188" d="M16.194,255.244H8.29v-3.927l-.771-12.16a2.777,2.777,0,0,1-.019-.3V227.766A2.78,2.78,0,0,1,10.264,225h1.978a4.765,4.765,0,0,1,4.742,4.74v9.142L16.1,245.76H13.73l-.593,4.742h.685a2.382,2.382,0,0,1,2.371,2.369Zm-6.323-1.581h4.742v-.79a.8.8,0,0,0-.793-.79H9.871ZM9.822,250.5h1.722l.593-4.742H9.522Zm-.4-6.323h5.287l.7-5.4v-9.038a3.182,3.182,0,0,0-2.618-3.113,2.75,2.75,0,0,1,.247,1.135v11.067A2.766,2.766,0,0,1,9.245,241.4ZM9.093,239a1.186,1.186,0,0,0,2.358-.173V227.766a1.186,1.186,0,1,0-2.371,0v11.037Z" transform="translate(-6.71 -201.29)" fill="#fff"/>
          <rect id="Rectángulo_457249" data-name="Rectángulo 457249" width="3.952" height="1.581" transform="translate(5.532 36.751)" fill="#fff"/>
          <rect id="Rectángulo_457250" data-name="Rectángulo 457250" width="3.952" height="1.581" transform="translate(1.581 30.428)" fill="#fff"/>
          <path id="Trazado_1002189" data-name="Trazado 1002189" d="M5.532,146.063a5.532,5.532,0,1,1,5.532-5.532,5.539,5.539,0,0,1-5.532,5.532m0-9.484a3.952,3.952,0,1,0,3.952,3.952,3.956,3.956,0,0,0-3.952-3.952" transform="translate(0 -120.772)" fill="#fff"/>
          <rect id="Rectángulo_457251" data-name="Rectángulo 457251" width="7.903" height="1.581" transform="translate(37.224 30.428)" fill="#fff"/>
          <path id="Trazado_1002190" data-name="Trazado 1002190" d="M362.522,41.065a5.532,5.532,0,1,1,5.532-5.532,5.539,5.539,0,0,1-5.532,5.532m0-9.484a3.952,3.952,0,1,0,3.952,3.952,3.956,3.956,0,0,0-3.952-3.952" transform="translate(-319.371 -26.839)" fill="#fff"/>
          <path id="Trazado_1002191" data-name="Trazado 1002191" d="M356.014,161.309h-8.694v-3.931l-.781-14.647-.8-1.6V124.742A4.765,4.765,0,0,1,350.48,120h2.266v1.581h-2.264a3.18,3.18,0,0,0-3.161,3.164v16.013l.78,1.561.759,14.248h2.505l.8-6.348,1.568.2-.776,6.15h.684a2.382,2.382,0,0,1,2.371,2.369Zm-7.113-1.581h5.532v-.79a.8.8,0,0,0-.793-.79H348.9Zm5.032-10.88-1.568-.2.2-1.568,1.568.2Zm.4-3.136-1.568-.2.893-7.071.006-.031,1.5-7.219,1.548.322-1.5,7.188Z" transform="translate(-309.306 -107.354)" fill="#fff"/>
          <path id="Trazado_1002192" data-name="Trazado 1002192" d="M396.7,137.547a2.775,2.775,0,0,1-2.335-1.267l-7.725-12.034a2.766,2.766,0,1,1,4.656-2.989l7.725,12.033a2.779,2.779,0,0,1-.832,3.821l0,0a2.753,2.753,0,0,1-1.485.434m-7.734-15.981a1.185,1.185,0,0,0-1,1.826l7.724,12.032a1.186,1.186,0,1,0,1.995-1.283l-7.724-12.031a1.186,1.186,0,0,0-1-.545" transform="translate(-345.504 -107.342)" fill="#fff"/>
          <path id="Trazado_1002193" data-name="Trazado 1002193" d="M469.521,296.977H467.94V274.02a.79.79,0,0,0-1.581,0V275.6h-1.581V274.02a2.371,2.371,0,1,1,4.742,0Z" transform="translate(-415.801 -243.023)" fill="#fff"/>
          <rect id="Rectángulo_457252" data-name="Rectángulo 457252" width="3.953" height="1.581" transform="matrix(0.828, -0.561, 0.561, 0.828, 47.937, 26.069)" fill="#fff"/>
          <rect id="Rectángulo_457253" data-name="Rectángulo 457253" width="12.109" height="1.581" transform="matrix(0.992, -0.125, 0.125, 0.992, 0.691, 18.974)" fill="#fff"/>
          <path id="Trazado_1002194" data-name="Trazado 1002194" d="M189.145,42.85l-1.344-.832L190.6,37.5h5.973v1.581h-5.092Z" transform="translate(-168.011 -33.548)" fill="#fff"/>
          <path id="Trazado_1002195" data-name="Trazado 1002195" d="M372.966,79.623l-1.256-.96L374.51,75h5.923V76.58h-5.142Z" transform="translate(-332.54 -67.096)" fill="#fff"/>
          <path id="Trazado_1002196" data-name="Trazado 1002196" d="M377.32,190.366h-1.581v-1.581h1.581Zm0-3.161h-1.581v-1.581h1.581Z" transform="translate(-336.144 -166.063)" fill="#fff"/>
        </g>
      </g>
    </g>
  </g>
</svg>
