<svg xmlns="http://www.w3.org/2000/svg" xmlns:xlink="http://www.w3.org/1999/xlink" width="96" height="96" viewBox="0 0 96 96">
  <defs>
    <clipPath id="clip-path">
      <rect id="Rectángulo_455533" data-name="Rectángulo 455533" width="95.999" height="92.163" fill="#19538d"/>
    </clipPath>
  </defs>
  <g id="Grupo_1181718" data-name="Grupo 1181718" transform="translate(-383.746 -8399)">
    <circle id="Elipse_13674" data-name="Elipse 13674" cx="41.5" cy="41.5" r="41.5" transform="translate(389.746 8406)" fill="#19538d"/>
    <g id="Grupo_1179062" data-name="Grupo 1179062" transform="translate(383.745 8399)">
      <rect id="Rectángulo_455531" data-name="Rectángulo 455531" width="96" height="96" transform="translate(0 0)" fill="none"/>
      <g id="Grupo_1179061" data-name="Grupo 1179061" transform="translate(0 2.203)">
        <path id="Trazado_998445" data-name="Trazado 998445" d="M114.467,95.838H96.727l2.4-4.484h17.739Z" transform="translate(-23.693 -22.7)" fill="#19538d"/>
        <path id="Trazado_998446" data-name="Trazado 998446" d="M1.458,86.893,0,89.861H19.558l1.458-2.968Z" transform="translate(0 -21.618)" fill="#19538d"/>
        <path id="Trazado_998447" data-name="Trazado 998447" d="M117.539,31.293H98.809l1.469-3.326h18.73Z" transform="translate(-24.246 -6.956)" fill="#19538d"/>
        <path id="Trazado_998448" data-name="Trazado 998448" d="M28.088,11.547H3.483L4.952,8.221H29.557Z" transform="translate(-0.925 -2.184)" fill="#19538d"/>
        <g id="Grupo_1179060" data-name="Grupo 1179060" transform="translate(0)">
          <g id="Grupo_1179059" data-name="Grupo 1179059" clip-path="url(#clip-path)">
            <path id="Trazado_998449" data-name="Trazado 998449" d="M48.653,99.141a40.772,40.772,0,0,1-39.711-49.9H3.518A46.036,46.036,0,0,0,84.512,87.248h-7.1A40.6,40.6,0,0,1,48.653,99.141" transform="translate(-0.653 -12.277)" fill="#19538d"/>
            <path id="Trazado_998450" data-name="Trazado 998450" d="M110.835,87.933h6.025c.484-.964.923-1.952,1.34-2.953h-5.792c-.487,1.007-1.008,1.994-1.573,2.953" transform="translate(-27.709 -21.189)" fill="#19538d"/>
            <path id="Trazado_998451" data-name="Trazado 998451" d="M95.384,46.081a46.043,46.043,0,0,0-90.011-13.7h5.589A40.752,40.752,0,1,1,87.147,61.291h5.644a45.915,45.915,0,0,0,2.592-15.209" transform="translate(-1.343)" fill="#19538d"/>
            <path id="Trazado_998452" data-name="Trazado 998452" d="M108.562,81.649v2.5h3.277q.594-1.228,1.106-2.5Z" transform="translate(-27.141 -20.358)" fill="#19538d"/>
            <path id="Trazado_998453" data-name="Trazado 998453" d="M126.164,81.649h-4.551q-.444,1.268-.958,2.5h5.509Z" transform="translate(-30.164 -20.358)" fill="#19538d"/>
          </g>
        </g>
        <path id="Trazado_998444" data-name="Trazado 998444" d="M2.2,37.025,0,41.509H13.317l2.2-4.484Z" transform="translate(0 -9.2)" fill="#19538d"/>
      </g>
    </g>
    <g id="Grupo_1177669" data-name="Grupo 1177669" transform="translate(403.444 8418.662)">
      <g id="Grupo_1099618" data-name="Grupo 1099618" transform="translate(0.267 0)">
        <rect id="Rectángulo_401104" data-name="Rectángulo 401104" width="56.349" height="57.028" transform="translate(0)" fill="none"/>
      </g>
      <g id="fecha-tope_1_" data-name="fecha-tope (1)" transform="translate(-9.322 -0.078)">
        <path id="Trazado_1002207" data-name="Trazado 1002207" d="M61.944,182.659a3.433,3.433,0,1,0-3.433-3.433A3.436,3.436,0,0,0,61.944,182.659Zm0-5.2a1.77,1.77,0,1,1-1.77,1.77A1.772,1.772,0,0,1,61.944,177.456Z" transform="translate(-42.611 -156.311)" fill="#fff"/>
        <path id="Trazado_1002208" data-name="Trazado 1002208" d="M155.833,182.659a3.433,3.433,0,1,0-3.433-3.433A3.436,3.436,0,0,0,155.833,182.659Zm0-5.2a1.77,1.77,0,1,1-1.77,1.77A1.772,1.772,0,0,1,155.833,177.456Z" transform="translate(-126.094 -156.311)" fill="#fff"/>
        <path id="Trazado_1002209" data-name="Trazado 1002209" d="M249.721,182.659a3.433,3.433,0,1,0-3.433-3.433A3.436,3.436,0,0,0,249.721,182.659Zm0-5.2a1.77,1.77,0,1,1-1.77,1.77A1.772,1.772,0,0,1,249.721,177.456Z" transform="translate(-209.577 -156.311)" fill="#fff"/>
        <path id="Trazado_1002210" data-name="Trazado 1002210" d="M347.042,179.227a3.433,3.433,0,1,0-3.433,3.433A3.436,3.436,0,0,0,347.042,179.227Zm-5.2,0a1.77,1.77,0,1,1,1.77,1.77A1.772,1.772,0,0,1,341.839,179.227Z" transform="translate(-293.06 -156.311)" fill="#fff"/>
        <path id="Trazado_1002211" data-name="Trazado 1002211" d="M61.944,269.7a3.433,3.433,0,1,0-3.433-3.433A3.436,3.436,0,0,0,61.944,269.7Zm0-5.2a1.77,1.77,0,1,1-1.77,1.77A1.772,1.772,0,0,1,61.944,264.5Z" transform="translate(-42.611 -233.707)" fill="#fff"/>
        <path id="Trazado_1002212" data-name="Trazado 1002212" d="M155.833,269.7a3.433,3.433,0,1,0-3.433-3.433A3.436,3.436,0,0,0,155.833,269.7Zm0-5.2a1.77,1.77,0,1,1-1.77,1.77A1.772,1.772,0,0,1,155.833,264.5Z" transform="translate(-126.094 -233.707)" fill="#fff"/>
        <path id="Trazado_1002213" data-name="Trazado 1002213" d="M61.944,356.744a3.433,3.433,0,1,0-3.433-3.433A3.436,3.436,0,0,0,61.944,356.744Zm0-5.2a1.77,1.77,0,1,1-1.77,1.77A1.772,1.772,0,0,1,61.944,351.541Z" transform="translate(-42.611 -311.102)" fill="#fff"/>
        <path id="Trazado_1002214" data-name="Trazado 1002214" d="M150.672,354.964a.839.839,0,0,0,1.175,0l2.23-2.23,2.23,2.23a.832.832,0,0,0,1.175-1.175l-2.23-2.23,2.23-2.23a.832.832,0,0,0-1.175-1.175l-2.23,2.23-2.23-2.23a.832.832,0,0,0-1.175,1.175l2.23,2.23-2.23,2.23A.831.831,0,0,0,150.672,354.964Z" transform="translate(-124.34 -309.349)" fill="#fff"/>
        <path id="Trazado_1002215" data-name="Trazado 1002215" d="M63.981,37.446a.832.832,0,0,0-1.563.566,12.581,12.581,0,0,1,.751,4.256,12.766,12.766,0,0,1-12.62,12.659,12.617,12.617,0,1,1,9.976-20.345.832.832,0,0,0,1.313-1.019,14.505,14.505,0,0,0-1.895-2.012V8.844A3.545,3.545,0,0,0,56.4,5.3H51.41V2.385c0-3.175-4.933-3.185-4.933,0V5.3H37.731V2.385c0-3.175-4.933-3.185-4.933,0V5.3H24.051V2.385c0-3.175-4.933-3.185-4.933,0V5.3H14.13a3.545,3.545,0,0,0-3.541,3.541V38.505a.832.832,0,0,0,1.662,0V16.918h46.03V30.294a14.414,14.414,0,0,0-12.3-1.522,14.15,14.15,0,0,0-3.227,1.566,3.433,3.433,0,0,0-6.047,2.224,3.449,3.449,0,0,0,1.381,2.75,14.377,14.377,0,0,0-.541,12.913H14.13a1.881,1.881,0,0,1-1.879-1.879V42.606a.832.832,0,0,0-1.662,0v3.741a3.545,3.545,0,0,0,3.541,3.541H38.45A14.282,14.282,0,0,0,63.981,37.446ZM48.139,2.385a.8.8,0,0,1,1.608,0V9.593a.8.8,0,0,1-1.608,0Zm-13.68,0a.8.8,0,0,1,1.608,0V9.593a.8.8,0,0,1-1.608,0Zm-13.679,0a.8.8,0,0,1,1.608,0V9.593a.8.8,0,0,1-1.608,0ZM12.251,15.256V8.844A1.881,1.881,0,0,1,14.13,6.965h4.988V9.593c0,3.175,4.933,3.185,4.933,0V6.965H32.8V9.593c0,3.181,4.933,3.181,4.933,0V6.965h8.746V9.593c0,3.175,4.933,3.185,4.933,0V6.965H56.4a1.881,1.881,0,0,1,1.879,1.879v6.412H12.251ZM38.374,32.563a1.77,1.77,0,0,1,3.042-1.231A14.521,14.521,0,0,0,39,33.91,1.779,1.779,0,0,1,38.374,32.563Z" transform="translate(0 0)" fill="#fff"/>
        <path id="Trazado_1002216" data-name="Trazado 1002216" d="M349.923,434.965a2.644,2.644,0,0,0,.008,5.288h.009a2.644,2.644,0,1,0-.017-5.288Zm.991,2.641a.982.982,0,0,1-.979.985h0a.981.981,0,0,1,0-1.963h0a.981.981,0,0,1,.982.978Z" transform="translate(-299.382 -386.758)" fill="#fff"/>
        <path id="Trazado_1002217" data-name="Trazado 1002217" d="M352.27,283.53a2.688,2.688,0,1,0-5.376,0v11.094a2.688,2.688,0,1,0,5.376,0Zm-1.662,11.094a1.026,1.026,0,1,1-2.051,0V283.53a1.026,1.026,0,1,1,2.051,0Z" transform="translate(-299.033 -249.717)" fill="#fff"/>
      </g>
    </g>
  </g>
</svg>
