<svg xmlns="http://www.w3.org/2000/svg" xmlns:xlink="http://www.w3.org/1999/xlink" width="96" height="96" viewBox="0 0 96 96">
  <defs>
    <clipPath id="clip-path">
      <rect id="Rectángulo_455533" data-name="Rectángulo 455533" width="95.999" height="92.163" fill="#19538d"/>
    </clipPath>
  </defs>
  <g id="Grupo_1181717" data-name="Grupo 1181717" transform="translate(-383.746 -8399)">
    <circle id="Elipse_13674" data-name="Elipse 13674" cx="41.5" cy="41.5" r="41.5" transform="translate(389.746 8406)" fill="#19538d"/>
    <g id="Grupo_1179062" data-name="Grupo 1179062" transform="translate(383.745 8399)">
      <rect id="Rectángulo_455531" data-name="Rectángulo 455531" width="96" height="96" transform="translate(0 0)" fill="none"/>
      <g id="Grupo_1179061" data-name="Grupo 1179061" transform="translate(0 2.203)">
        <path id="Trazado_998445" data-name="Trazado 998445" d="M114.467,95.838H96.727l2.4-4.484h17.739Z" transform="translate(-23.693 -22.7)" fill="#19538d"/>
        <path id="Trazado_998446" data-name="Trazado 998446" d="M1.458,86.893,0,89.861H19.558l1.458-2.968Z" transform="translate(0 -21.618)" fill="#19538d"/>
        <path id="Trazado_998447" data-name="Trazado 998447" d="M117.539,31.293H98.809l1.469-3.326h18.73Z" transform="translate(-24.246 -6.956)" fill="#19538d"/>
        <path id="Trazado_998448" data-name="Trazado 998448" d="M28.088,11.547H3.483L4.952,8.221H29.557Z" transform="translate(-0.925 -2.184)" fill="#19538d"/>
        <g id="Grupo_1179060" data-name="Grupo 1179060" transform="translate(0)">
          <g id="Grupo_1179059" data-name="Grupo 1179059" clip-path="url(#clip-path)">
            <path id="Trazado_998449" data-name="Trazado 998449" d="M48.653,99.141a40.772,40.772,0,0,1-39.711-49.9H3.518A46.036,46.036,0,0,0,84.512,87.248h-7.1A40.6,40.6,0,0,1,48.653,99.141" transform="translate(-0.653 -12.277)" fill="#19538d"/>
            <path id="Trazado_998450" data-name="Trazado 998450" d="M110.835,87.933h6.025c.484-.964.923-1.952,1.34-2.953h-5.792c-.487,1.007-1.008,1.994-1.573,2.953" transform="translate(-27.709 -21.189)" fill="#19538d"/>
            <path id="Trazado_998451" data-name="Trazado 998451" d="M95.384,46.081a46.043,46.043,0,0,0-90.011-13.7h5.589A40.752,40.752,0,1,1,87.147,61.291h5.644a45.915,45.915,0,0,0,2.592-15.209" transform="translate(-1.343)" fill="#19538d"/>
            <path id="Trazado_998452" data-name="Trazado 998452" d="M108.562,81.649v2.5h3.277q.594-1.228,1.106-2.5Z" transform="translate(-27.141 -20.358)" fill="#19538d"/>
            <path id="Trazado_998453" data-name="Trazado 998453" d="M126.164,81.649h-4.551q-.444,1.268-.958,2.5h5.509Z" transform="translate(-30.164 -20.358)" fill="#19538d"/>
          </g>
        </g>
        <path id="Trazado_998444" data-name="Trazado 998444" d="M2.2,37.025,0,41.509H13.317l2.2-4.484Z" transform="translate(0 -9.2)" fill="#19538d"/>
      </g>
    </g>
    <g id="Grupo_1177669" data-name="Grupo 1177669" transform="translate(403.444 8418.662)">
      <g id="Grupo_1099618" data-name="Grupo 1099618" transform="translate(0 0)">
        <rect id="Rectángulo_401104" data-name="Rectángulo 401104" width="56.349" height="57.028" transform="translate(0)" fill="none"/>
      </g>
      <g id="fecha-tope" transform="translate(0.934 1.618)">
        <path id="Trazado_1002197" data-name="Trazado 1002197" d="M49.3,32.576V8.134a3.615,3.615,0,0,0-3.615-3.615H42.068V2.712A2.711,2.711,0,0,0,39.357,0h-.9a2.711,2.711,0,0,0-2.711,2.711V4.519H27.608V2.712A2.711,2.711,0,0,0,24.9,0h-.9a2.711,2.711,0,0,0-2.711,2.711V4.519h-7.23V2.712A2.711,2.711,0,0,0,11.341,0h-.9A2.711,2.711,0,0,0,7.726,2.712V4.519H4.111A3.615,3.615,0,0,0,.5,8.134V42.476A3.615,3.615,0,0,0,4.111,46.09h27.68A11.749,11.749,0,1,0,49.3,32.576ZM37.549,2.712a.9.9,0,0,1,.9-.9h.9a.9.9,0,0,1,.9.9V8.134a.9.9,0,0,1-.9.9h-.9a.9.9,0,0,1-.9-.9Zm-14.46,0a.9.9,0,0,1,.9-.9h.9a.9.9,0,0,1,.9.9V8.134a.9.9,0,0,1-.9.9h-.9a.9.9,0,0,1-.9-.9Zm-13.556,0a.9.9,0,0,1,.9-.9h.9a.9.9,0,0,1,.9.9V8.134a.9.9,0,0,1-.9.9h-.9a.9.9,0,0,1-.9-.9ZM2.3,8.134A1.807,1.807,0,0,1,4.111,6.326H7.726V8.134a2.711,2.711,0,0,0,2.711,2.711h.9a2.711,2.711,0,0,0,2.711-2.711V6.326h7.23V8.134a2.711,2.711,0,0,0,2.711,2.711h.9a2.711,2.711,0,0,0,2.711-2.711V6.326h8.134V8.134a2.711,2.711,0,0,0,2.711,2.711h.9a2.711,2.711,0,0,0,2.711-2.711V6.326h3.615A1.807,1.807,0,0,1,47.49,8.134V14.46H2.3ZM4.111,44.283A1.807,1.807,0,0,1,2.3,42.476V16.268H47.49V31.624c-.029-.012-.06-.021-.091-.032-.188-.077-.379-.145-.571-.211-.091-.033-.181-.069-.278-.1-.288-.091-.578-.174-.87-.242A11.761,11.761,0,0,0,31.223,42.476a11.614,11.614,0,0,0,.085,1.335c.01.09.019.181.031.271.009.067.014.136.024.2Zm38.861,8.134a9.9,9.9,0,0,1-9.457-6.869c-.056-.185-.113-.369-.164-.6a9.519,9.519,0,0,1-.32-2.477A9.953,9.953,0,0,1,45.268,32.8c.271.063.537.141.8.228a9.94,9.94,0,0,1-3.1,19.389Zm0,0" transform="translate(0 0)" fill="#fff"/>
        <path id="Trazado_1002198" data-name="Trazado 1002198" d="M75.992,179.2H70.569a1.808,1.808,0,0,0-1.807,1.807v5.422a1.808,1.808,0,0,0,1.807,1.808h5.423a1.808,1.808,0,0,0,1.807-1.808v-5.422A1.807,1.807,0,0,0,75.992,179.2Zm-5.423,7.23v-5.422h5.423v5.422Zm0,0" transform="translate(-61.036 -160.221)" fill="#fff"/>
        <path id="Trazado_1002199" data-name="Trazado 1002199" d="M195.46,179.2h-5.422a1.807,1.807,0,0,0-1.807,1.807v5.422a1.808,1.808,0,0,0,1.807,1.808h5.422a1.808,1.808,0,0,0,1.807-1.808v-5.422A1.807,1.807,0,0,0,195.46,179.2Zm-5.422,7.23v-5.422h5.422v5.422Zm0,0" transform="translate(-167.852 -160.221)" fill="#fff"/>
        <path id="Trazado_1002200" data-name="Trazado 1002200" d="M75.992,281.6H70.569a1.808,1.808,0,0,0-1.807,1.807v5.422a1.808,1.808,0,0,0,1.807,1.807h5.423a1.807,1.807,0,0,0,1.807-1.807v-5.422A1.807,1.807,0,0,0,75.992,281.6Zm-5.423,7.23v-5.422h5.423v5.422Zm0,0" transform="translate(-61.036 -251.778)" fill="#fff"/>
        <path id="Trazado_1002201" data-name="Trazado 1002201" d="M195.46,281.6h-5.422a1.807,1.807,0,0,0-1.807,1.807v5.422a1.807,1.807,0,0,0,1.807,1.807h5.422a1.807,1.807,0,0,0,1.807-1.807v-5.422A1.807,1.807,0,0,0,195.46,281.6Zm-5.422,7.23v-5.422h5.422v5.422Zm0,0" transform="translate(-167.852 -251.778)" fill="#fff"/>
        <path id="Trazado_1002202" data-name="Trazado 1002202" d="M309.5,188.237h5.423a1.808,1.808,0,0,0,1.807-1.808v-5.422a1.807,1.807,0,0,0-1.807-1.807H309.5a1.807,1.807,0,0,0-1.807,1.807v5.422A1.808,1.808,0,0,0,309.5,188.237Zm0-7.23h5.423v5.422H309.5Zm0,0" transform="translate(-274.665 -160.221)" fill="#fff"/>
        <path id="Trazado_1002203" data-name="Trazado 1002203" d="M359.634,358.694l-5.9,6.5-1.8-1.977a.9.9,0,0,0-1.337,1.217l2.464,2.711a.9.9,0,0,0,1.339,0l6.572-7.23a.9.9,0,1,0-1.337-1.216Zm0,0" transform="translate(-312.812 -320.441)" fill="#fff"/>
        <path id="Trazado_1002204" data-name="Trazado 1002204" d="M35.533,301.379a.9.9,0,0,0,.9-.9v-.9a.9.9,0,0,0-1.807,0v.9A.9.9,0,0,0,35.533,301.379Zm0,0" transform="translate(-30.518 -267.037)" fill="#fff"/>
        <path id="Trazado_1002205" data-name="Trazado 1002205" d="M39.148,345.851H36.436v-3.615a.9.9,0,1,0-1.807,0v3.615a1.807,1.807,0,0,0,1.807,1.807h2.711a.9.9,0,0,0,0-1.807Zm0,0" transform="translate(-30.518 -305.183)" fill="#fff"/>
        <path id="Trazado_1002206" data-name="Trazado 1002206" d="M104.706,384h-.9a.9.9,0,0,0,0,1.807h.9a.9.9,0,0,0,0-1.807Zm0,0" transform="translate(-91.557 -343.332)" fill="#fff"/>
      </g>
    </g>
  </g>
</svg>
