<svg xmlns="http://www.w3.org/2000/svg" xmlns:xlink="http://www.w3.org/1999/xlink" width="96" height="96" viewBox="0 0 96 96">
  <defs>
    <clipPath id="clip-path">
      <rect id="Rectángulo_455533" data-name="Rectángulo 455533" width="95.999" height="92.163" fill="#19538d"/>
    </clipPath>
  </defs>
  <g id="Grupo_1181712" data-name="Grupo 1181712" transform="translate(-383.745 -8399)">
    <circle id="Elipse_13674" data-name="Elipse 13674" cx="41.5" cy="41.5" r="41.5" transform="translate(389.746 8406)" fill="#19538d"/>
    <g id="Grupo_1179062" data-name="Grupo 1179062" transform="translate(383.745 8399)">
      <rect id="Rectángulo_455531" data-name="Rectángulo 455531" width="96" height="96" transform="translate(0 0)" fill="none"/>
      <g id="Grupo_1179061" data-name="Grupo 1179061" transform="translate(0 2.203)">
        <path id="Trazado_998445" data-name="Trazado 998445" d="M114.467,95.838H96.727l2.4-4.484h17.739Z" transform="translate(-23.693 -22.7)" fill="#19538d"/>
        <path id="Trazado_998446" data-name="Trazado 998446" d="M1.458,86.893,0,89.861H19.558l1.458-2.968Z" transform="translate(0 -21.618)" fill="#19538d"/>
        <path id="Trazado_998447" data-name="Trazado 998447" d="M117.539,31.293H98.809l1.469-3.326h18.73Z" transform="translate(-24.246 -6.956)" fill="#19538d"/>
        <path id="Trazado_998448" data-name="Trazado 998448" d="M28.088,11.547H3.483L4.952,8.221H29.557Z" transform="translate(-0.925 -2.184)" fill="#19538d"/>
        <g id="Grupo_1179060" data-name="Grupo 1179060" transform="translate(0)">
          <g id="Grupo_1179059" data-name="Grupo 1179059" clip-path="url(#clip-path)">
            <path id="Trazado_998449" data-name="Trazado 998449" d="M48.653,99.141a40.772,40.772,0,0,1-39.711-49.9H3.518A46.036,46.036,0,0,0,84.512,87.248h-7.1A40.6,40.6,0,0,1,48.653,99.141" transform="translate(-0.653 -12.277)" fill="#19538d"/>
            <path id="Trazado_998450" data-name="Trazado 998450" d="M110.835,87.933h6.025c.484-.964.923-1.952,1.34-2.953h-5.792c-.487,1.007-1.008,1.994-1.573,2.953" transform="translate(-27.709 -21.189)" fill="#19538d"/>
            <path id="Trazado_998451" data-name="Trazado 998451" d="M95.384,46.081a46.043,46.043,0,0,0-90.011-13.7h5.589A40.752,40.752,0,1,1,87.147,61.291h5.644a45.915,45.915,0,0,0,2.592-15.209" transform="translate(-1.343)" fill="#19538d"/>
            <path id="Trazado_998452" data-name="Trazado 998452" d="M108.562,81.649v2.5h3.277q.594-1.228,1.106-2.5Z" transform="translate(-27.141 -20.358)" fill="#19538d"/>
            <path id="Trazado_998453" data-name="Trazado 998453" d="M126.164,81.649h-4.551q-.444,1.268-.958,2.5h5.509Z" transform="translate(-30.164 -20.358)" fill="#19538d"/>
          </g>
        </g>
        <path id="Trazado_998444" data-name="Trazado 998444" d="M2.2,37.025,0,41.509H13.317l2.2-4.484Z" transform="translate(0 -9.2)" fill="#19538d"/>
      </g>
    </g>
    <g id="Grupo_1177669" data-name="Grupo 1177669" transform="translate(403.444 8418.662)">
      <g id="Grupo_1099618" data-name="Grupo 1099618" transform="translate(0.267 0)">
        <rect id="Rectángulo_401104" data-name="Rectángulo 401104" width="56.349" height="57.028" transform="translate(0)" fill="none"/>
      </g>
      <g id="correo-electronico" transform="translate(-19.049 1.003)">
        <g id="Grupo_1181721" data-name="Grupo 1181721" transform="translate(35.635 6.827)">
          <g id="Grupo_1181720" data-name="Grupo 1181720">
            <path id="Trazado_1002181" data-name="Trazado 1002181" d="M168.448,63.527h-20.8a1.4,1.4,0,0,0-1.4,1.4v4.5a1.4,1.4,0,0,0,1.4,1.4h20.8a1.4,1.4,0,0,0,1.4-1.4v-4.5h0A1.4,1.4,0,0,0,168.448,63.527Zm-.216,5.68H147.868V65.139h20.363Z" transform="translate(-146.256 -63.527)" fill="#fff"/>
          </g>
        </g>
        <g id="Grupo_1181723" data-name="Grupo 1181723" transform="translate(35.635 16.953)">
          <g id="Grupo_1181722" data-name="Grupo 1181722">
            <path id="Trazado_1002182" data-name="Trazado 1002182" d="M169.037,157.756H147.062a.806.806,0,1,0,0,1.612h21.975a.806.806,0,1,0,0-1.612Z" transform="translate(-146.256 -157.756)" fill="#fff"/>
          </g>
        </g>
        <g id="Grupo_1181725" data-name="Grupo 1181725" transform="translate(35.635 21.19)">
          <g id="Grupo_1181724" data-name="Grupo 1181724">
            <path id="Trazado_1002183" data-name="Trazado 1002183" d="M169.037,197.18H147.062a.806.806,0,0,0,0,1.612h21.975a.806.806,0,1,0,0-1.612Z" transform="translate(-146.256 -197.18)" fill="#fff"/>
          </g>
        </g>
        <g id="Grupo_1181727" data-name="Grupo 1181727" transform="translate(35.635 25.427)">
          <g id="Grupo_1181726" data-name="Grupo 1181726">
            <path id="Trazado_1002184" data-name="Trazado 1002184" d="M169.037,236.6H147.062a.806.806,0,1,0,0,1.612h21.975a.806.806,0,1,0,0-1.612Z" transform="translate(-146.256 -236.604)" fill="#fff"/>
          </g>
        </g>
        <g id="Grupo_1181729" data-name="Grupo 1181729" transform="translate(22.316)">
          <g id="Grupo_1181728" data-name="Grupo 1181728">
            <path id="Trazado_1002185" data-name="Trazado 1002185" d="M71.736,36.454a.806.806,0,0,0,.806-.806V21.628s0-.005,0-.008A2.64,2.64,0,0,0,71.458,19.5l-6.564-4.774V2.221A2.223,2.223,0,0,0,62.672,0H49.31a.806.806,0,1,0,0,1.612H62.672a.61.61,0,0,1,.609.609V26.358l-4.9,3.3H36.474l-4.9-3.3V2.221a.61.61,0,0,1,.609-.609H45.548a.806.806,0,1,0,0-1.612H32.185a2.224,2.224,0,0,0-2.221,2.221v12.5L23.4,19.5a2.64,2.64,0,0,0-1.084,2.129V52.39a2.635,2.635,0,0,0,2.632,2.632H69.91a2.635,2.635,0,0,0,2.632-2.632V39.409a.806.806,0,1,0-1.612,0V52.39h0a1.022,1.022,0,0,1-.769.987L50.384,37.007,70.93,23.142V35.648A.806.806,0,0,0,71.736,36.454ZM24.348,20.8l5.616-4.085v8.555L24,21.248A1.019,1.019,0,0,1,24.348,20.8ZM24.7,53.378a1.022,1.022,0,0,1-.769-.988V23.142L44.474,37.007Zm42.975.033H27.186L46.332,37.562h0l.7-.576a.636.636,0,0,1,.8,0ZM49.089,35.936l-.232-.192a2.243,2.243,0,0,0-2.858,0l-.232.192-6.906-4.66H55.995Zm15.8-10.665V16.716L70.51,20.8a1.02,1.02,0,0,1,.346.447Z" transform="translate(-22.316)" fill="#fff"/>
          </g>
        </g>
      </g>
    </g>
  </g>
</svg>
