<svg xmlns="http://www.w3.org/2000/svg" xmlns:xlink="http://www.w3.org/1999/xlink" width="353" height="268" viewBox="0 0 353 268">
  <defs>
    <clipPath id="clip-path">
      <path id="Trazado_1000654" data-name="Trazado 1000654" d="M294.614,0H.846L0,240.633l294.614.1Z" fill="none"/>
    </clipPath>
  </defs>
  <g id="Grupo_1182467" data-name="Grupo 1182467" transform="translate(-913.711 -18549)">
    <g id="Grupo_1180524" data-name="Grupo 1180524" transform="translate(-104.476 18135)">
      <rect id="Rectángulo_456944" data-name="Rectángulo 456944" width="353" height="268" transform="translate(1018.187 414)" fill="none"/>
      <g id="Grupo_1180380" data-name="Grupo 1180380" transform="translate(1031.187 417)">
        <g id="Grupo_1180376" data-name="Grupo 1180376" transform="translate(0 0)">
          <ellipse id="Elipse_13860" data-name="Elipse 13860" cx="123.815" cy="123.815" rx="123.815" ry="123.815" transform="translate(79.507 6.626)" fill="#9ecfff"/>
          <g id="Grupo_1180375" data-name="Grupo 1180375">
            <rect id="Rectángulo_456677" data-name="Rectángulo 456677" width="327.137" height="262.081" fill="none"/>
            <g id="Grupo_1180370" data-name="Grupo 1180370" transform="translate(10.377 21.342)">
              <g id="Enmascarar_grupo_1178533" data-name="Enmascarar grupo 1178533" clip-path="url(#clip-path)">
                <path id="Trazado_1000506" data-name="Trazado 1000506" d="M107.375,152.546H53.458a5.585,5.585,0,0,1-5.281-7.189L73.926,56.6a5.519,5.519,0,0,1,5.281-4.016h53.917a5.585,5.585,0,0,1,5.281,7.189L112.656,148.53a5.52,5.52,0,0,1-5.281,4.016" transform="translate(98.941 9.971)" fill="#101010"/>
                <path id="Trazado_1000507" data-name="Trazado 1000507" d="M106.658,152.546H59.694a5.585,5.585,0,0,1-5.281-7.189L80.162,56.6a5.519,5.519,0,0,1,5.281-4.016h46.964a5.585,5.585,0,0,1,5.281,7.189L111.939,148.53a5.52,5.52,0,0,1-5.281,4.016" transform="translate(92.239 9.971)" fill="#c2b3a3"/>
                <rect id="Rectángulo_456813" data-name="Rectángulo 456813" width="50.59" height="4.854" transform="translate(148.372 229.99)" fill="#101010"/>
                <path id="Trazado_1000508" data-name="Trazado 1000508" d="M128.233,197.209a4.626,4.626,0,1,1-5.32-3.807,4.626,4.626,0,0,1,5.32,3.807" transform="translate(24.703 36.661)" fill="#101010"/>
                <rect id="Rectángulo_456814" data-name="Rectángulo 456814" width="4.854" height="70.21" transform="translate(171.377 161.767)" fill="#101010"/>
                <path id="Trazado_1000509" data-name="Trazado 1000509" d="M85.707,197.209a4.626,4.626,0,1,1-5.32-3.807,4.626,4.626,0,0,1,5.32,3.807" transform="translate(117.818 36.661)" fill="#101010"/>
                <path id="Trazado_1000510" data-name="Trazado 1000510" d="M133.336,138.149H76.268a4.819,4.819,0,1,1,0-9.638h57.067a4.819,4.819,0,1,1,0,9.638" transform="translate(71.464 24.368)" fill="#101010"/>
                <path id="Trazado_1000511" data-name="Trazado 1000511" d="M181.592,186.541H166.815L142.378,200.08l42.019-.519Z" transform="translate(-59.159 35.372)" fill="#101010"/>
                <path id="Trazado_1000512" data-name="Trazado 1000512" d="M184.419,202.255l-.146-4.769L142.256,198l.146,4.769Z" transform="translate(-59.035 37.447)" fill="#fff"/>
                <line id="Línea_3377" data-name="Línea 3377" x2="4.842" y2="1.37" transform="translate(97.444 226.899)" fill="none" stroke="#fff" stroke-linecap="round" stroke-linejoin="round" stroke-width="0.795"/>
                <line id="Línea_3378" data-name="Línea 3378" x2="4.842" y2="1.37" transform="translate(102.176 224.384)" fill="none" stroke="#fff" stroke-linecap="round" stroke-linejoin="round" stroke-width="0.795"/>
                <path id="Trazado_1000513" data-name="Trazado 1000513" d="M144.736,169.467H159.8l2.113,20.312H146.848Z" transform="translate(-39.476 32.134)" fill="#ecaea4"/>
                <path id="Trazado_1000514" data-name="Trazado 1000514" d="M183.089,110.2s1.579,21.941-21.116,21.941h-24.1l5.045,63.624H114.582l-7.048-69.526c-1.518-8.331,4.65-16.04,12.836-16.04Z" transform="translate(-16.148 20.897)" fill="#273780"/>
                <path id="Trazado_1000515" data-name="Trazado 1000515" d="M147.724,186.1H132.948L108.511,199.64l42.019-.519Z" transform="translate(14.998 35.288)" fill="#101010"/>
                <path id="Trazado_1000516" data-name="Trazado 1000516" d="M150.552,201.815l-.146-4.769-42.017.519.146,4.769Z" transform="translate(15.121 37.364)" fill="#fff"/>
                <line id="Línea_3379" data-name="Línea 3379" x2="4.842" y2="1.37" transform="translate(137.733 226.375)" fill="none" stroke="#fff" stroke-linecap="round" stroke-linejoin="round" stroke-width="0.795"/>
                <line id="Línea_3380" data-name="Línea 3380" x2="4.842" y2="1.37" transform="translate(142.465 223.86)" fill="none" stroke="#fff" stroke-linecap="round" stroke-linejoin="round" stroke-width="0.795"/>
                <path id="Trazado_1000517" data-name="Trazado 1000517" d="M110.869,169.027h15.061l5.82,20.312H116.687Z" transform="translate(30.974 32.051)" fill="#ecaea4"/>
                <path id="Trazado_1000518" data-name="Trazado 1000518" d="M154.6,110.2s1.579,21.941-21.116,21.941h-24.1L120.05,195.77H91.714L79.044,126.244c-1.518-8.331,4.65-16.04,12.836-16.04Z" transform="translate(46.234 20.897)" fill="#3a4b9e"/>
                <path id="Trazado_1000519" data-name="Trazado 1000519" d="M147.686,62.2c-16.8,11.9-34.41,35.344-34.41,35.344l-1.455,10.394h17.932L148.935,87.15Z" transform="translate(12.655 11.794)" fill="#508b5f"/>
                <path id="Trazado_1000520" data-name="Trazado 1000520" d="M159.422,61.529s-9.429,4.306-11.557,2.272c-3.721-3.555-6.012-15.594-6.012-15.594s17.359-4.893,17.179-4.66.39,17.981.39,17.981" transform="translate(-33.559 8.256)" fill="#d38580"/>
                <path id="Trazado_1000521" data-name="Trazado 1000521" d="M139.24,61.241c-.081-.92,4.252-10.384,5.765-13.944a1.623,1.623,0,0,0-1.1-2.145,1.874,1.874,0,0,0-2.153.673l-4.838,6.846Z" transform="translate(-13.377 8.544)" fill="#d38580"/>
                <path id="Trazado_1000522" data-name="Trazado 1000522" d="M146.41,52.361l-1.657-14.655a1.82,1.82,0,0,0-1.972-1.618,1.568,1.568,0,0,0-1.431,1.621l.34,10.836Z" transform="translate(-19.948 6.841)" fill="#d38580"/>
                <path id="Trazado_1000523" data-name="Trazado 1000523" d="M152.2,46.79l-3.048-10.626a1.812,1.812,0,0,0-2.139-1.292,1.561,1.561,0,0,0-1.187,1.757l1.9,12.138Z" transform="translate(-31.033 6.604)" fill="#d38580"/>
                <path id="Trazado_1000524" data-name="Trazado 1000524" d="M157.3,49.01l-4.105-10.535a1.986,1.986,0,0,0-2.442-1.186,1.729,1.729,0,0,0-1.085,2.2l3.147,9.883Z" transform="translate(-40.624 7.053)" fill="#d38580"/>
                <path id="Trazado_1000525" data-name="Trazado 1000525" d="M156.8,48.807l-3.371-6.527a1.4,1.4,0,0,1,.843-1.809,1.6,1.6,0,0,1,1.9.735l4.521,7.562Z" transform="translate(-48.509 7.657)" fill="#d38580"/>
                <path id="Trazado_1000526" data-name="Trazado 1000526" d="M147.773,48.445a6.842,6.842,0,0,0-6.218,5.83" transform="translate(-21.555 9.186)" fill="none" stroke="#1e0a00" stroke-linecap="round" stroke-linejoin="round" stroke-width="0.393"/>
                <path id="Trazado_1000527" data-name="Trazado 1000527" d="M151.213,58.662l2.551,17.776-12.807,2.834-1.247-20.61Z" transform="translate(-25.349 11.123)" fill="#d38580"/>
                <path id="Trazado_1000528" data-name="Trazado 1000528" d="M151.46,62.9l5.613,33.468L145.848,107.8H138.78l-5.2-43.238Z" transform="translate(-21.372 11.928)" fill="#508b5f"/>
                <path id="Trazado_1000529" data-name="Trazado 1000529" d="M109.053,58.93l13.257,3.89a8.85,8.85,0,0,1,6.732,8.268l-4.354,48.84H75.173l5.761-50.862c.64-3.861,2.3-6.836,6.187-7.3L94.5,60.9Z" transform="translate(76.144 11.174)" fill="#508b5f"/>
                <line id="Línea_3381" data-name="Línea 3381" y1="21.28" x2="2.485" transform="translate(154.033 85.854)" fill="none" stroke="#1e0a00" stroke-linecap="round" stroke-linejoin="round" stroke-width="0.421"/>
                <path id="Trazado_1000530" data-name="Trazado 1000530" d="M50.517,63c15.325,10.856,30.24,29.649,34.864,35.568a8.03,8.03,0,0,1-6.33,12.969H72.4a8.028,8.028,0,0,1-5.9-2.584L48.127,89.044Z" transform="translate(150.279 11.945)" fill="#508b5f"/>
                <line id="Línea_3382" data-name="Línea 3382" x1="9.227" y1="9.358" transform="translate(193.843 96.652)" fill="none" stroke="#1e0a00" stroke-linecap="round" stroke-linejoin="round" stroke-width="0.421"/>
                <path id="Trazado_1000531" data-name="Trazado 1000531" d="M110.382,94.026s-21.64-4.211-26.7,11.739H108.12Z" transform="translate(84.683 17.734)" fill="#d38580"/>
                <path id="Trazado_1000532" data-name="Trazado 1000532" d="M53.647,90.024l31.515-1.606A5.405,5.405,0,0,1,89.612,90.5l6.763,7.421a5.409,5.409,0,0,1-4.334,8.735l-39.1.062Z" transform="translate(134.118 16.765)" fill="#508b5f"/>
                <path id="Trazado_1000533" data-name="Trazado 1000533" d="M94.128,88.661,68.28,89.979l-.19,4.492" transform="translate(119.485 16.812)" fill="none" stroke="#1e0a00" stroke-linecap="round" stroke-linejoin="round" stroke-width="0.421"/>
                <path id="Trazado_1000534" data-name="Trazado 1000534" d="M99.022,40.651s-.5,8.5-6.969,6.789l-1.714-1.993Z" transform="translate(88.123 7.708)"/>
                <path id="Trazado_1000535" data-name="Trazado 1000535" d="M118.321,41.231a4.28,4.28,0,1,1-3.779-4.728,4.278,4.278,0,0,1,3.779,4.728" transform="translate(45.664 6.917)" fill="#c16e6a"/>
                <path id="Trazado_1000536" data-name="Trazado 1000536" d="M91.976,51.663l1.043,12.7L94.7,73.437,107.573,62.4l-5.818-21.745Z" transform="translate(77.625 7.708)" fill="#d38580"/>
                <path id="Trazado_1000537" data-name="Trazado 1000537" d="M97.672,58.868l8.958-9.889-9.68,1.105Z" transform="translate(72.651 9.287)" fill="#1e0a00"/>
                <path id="Trazado_1000538" data-name="Trazado 1000538" d="M101.795,23.418A9.937,9.937,0,0,0,93.9,33.587c.148,5.575.691,14.635,2.636,18.066,2.9,5.1,8.067,7.736,15.1,5.077,0,0,8.375-1.886,8.127-14.405-.268-13.549-9.969-20.344-17.968-18.907" transform="translate(63.14 4.405)" fill="#d38580"/>
                <path id="Trazado_1000539" data-name="Trazado 1000539" d="M97.734,42.121l-1.566-6.249s-1.188-12.23-5.209-12.418c0,0-1.723-2.175,4.913-1.125s12.813,4.842,7.522,17.38Z" transform="translate(81.258 4.18)"/>
                <path id="Trazado_1000540" data-name="Trazado 1000540" d="M114.82,39.764a.979.979,0,1,1-.828-1.111.981.981,0,0,1,.828,1.111" transform="translate(45.51 7.327)" fill="#171717"/>
                <path id="Trazado_1000541" data-name="Trazado 1000541" d="M107.644,39.106a.979.979,0,1,1-.828-1.111.981.981,0,0,1,.828,1.111" transform="translate(61.223 7.203)" fill="#171717"/>
                <path id="Trazado_1000542" data-name="Trazado 1000542" d="M110.829,40.074l-.569,2.787a.6.6,0,0,0,.5.709l1.36-.161" transform="translate(51.341 7.599)" fill="none" stroke="#1e0a00" stroke-linecap="round" stroke-linejoin="round" stroke-width="0.421"/>
                <path id="Trazado_1000543" data-name="Trazado 1000543" d="M103.289,35.043l7.729.744a4.415,4.415,0,0,0-3.615-2.33,4.825,4.825,0,0,0-4.114,1.587" transform="translate(60.722 6.34)"/>
                <path id="Trazado_1000544" data-name="Trazado 1000544" d="M116.57,35.042l-4.035,1.073s.126-1.719,1.529-2.082a2.732,2.732,0,0,1,2.507,1.009" transform="translate(44.17 6.442)"/>
                <path id="Trazado_1000545" data-name="Trazado 1000545" d="M110.249,43.726a3.963,3.963,0,0,1-4.415,1.752" transform="translate(58.463 8.291)" fill="none" stroke="#1e0a00" stroke-linecap="round" stroke-linejoin="round" stroke-width="0.421"/>
                <path id="Trazado_1000546" data-name="Trazado 1000546" d="M109.564,40.8s-5.075-5.333-4.29-9.072c.641-3.055-1.988-2.884-3.408-2.5a26.957,26.957,0,0,1-3.453.729c-2.8.375-7.4.807-10.538.176,0,0-1.315-.946.5-4.838s5.716-5.547,13.512-5.547c6.448,0,10.352.639,14.042,3.3,2.624,1.893,7.947,9.176,1.511,20.024Z" transform="translate(70.127 3.745)"/>
                <path id="Trazado_1000547" data-name="Trazado 1000547" d="M98.686,40.627a4.7,4.7,0,1,1-4.146-5.187,4.7,4.7,0,0,1,4.146,5.187" transform="translate(89.637 6.715)" fill="#d38580"/>
                <path id="Trazado_1000548" data-name="Trazado 1000548" d="M95.5,37.9a3.44,3.44,0,0,0-3.775,3.546" transform="translate(89.986 7.185)" fill="none" stroke="#1e0a00" stroke-linecap="round" stroke-linejoin="round" stroke-width="0.38"/>
                <path id="Trazado_1000549" data-name="Trazado 1000549" d="M160.328,104.413H126.192v-3.852h34.136a1.926,1.926,0,1,1,0,3.852" transform="translate(-17.76 19.068)" fill="#121314"/>
                <path id="Trazado_1000550" data-name="Trazado 1000550" d="M214.549,110.416H168.06a5.8,5.8,0,0,1-5.59-4.247L152.8,71.44a2,2,0,0,1,1.926-2.535H201.8a2.385,2.385,0,0,1,2.305,1.778Z" transform="translate(-101.624 13.066)" fill="#445158"/>
                <path id="Trazado_1000551" data-name="Trazado 1000551" d="M184.4,87.01a3.585,3.585,0,1,1-3.585-3.584A3.585,3.585,0,0,1,184.4,87.01" transform="translate(-100.615 15.819)" fill="#83949a"/>
                <rect id="Rectángulo_456815" data-name="Rectángulo 456815" width="244.256" height="7.621" transform="translate(20.795 123.481)" fill="#fff"/>
                <line id="Línea_3383" data-name="Línea 3383" y2="108.596" transform="translate(226.832 131.101)" fill="none" stroke="#221913" stroke-miterlimit="10" stroke-width="1.952"/>
                <line id="Línea_3384" data-name="Línea 3384" y2="108.596" transform="translate(54.63 131.101)" fill="none" stroke="#221913" stroke-miterlimit="10" stroke-width="1.952"/>
                <path id="Trazado_1000552" data-name="Trazado 1000552" d="M4.825,44.831H41.012a6.364,6.364,0,0,0,6.363-6.364V4.824A4.825,4.825,0,0,0,42.55,0H4.825A4.825,4.825,0,0,0,0,4.824V40.006a4.825,4.825,0,0,0,4.825,4.825" transform="translate(247.239 0)" fill="#fff"/>
              </g>
            </g>
            <path id="codigo" d="M1.078,6.977,12.9.156a1.157,1.157,0,0,1,1.156,0L25.876,6.977a1.156,1.156,0,0,1,.578,1V21.621a1.156,1.156,0,0,1-.578,1L14.055,29.443a1.157,1.157,0,0,1-1.156,0L1.078,22.622a1.156,1.156,0,0,1-.578-1V7.978a1.156,1.156,0,0,1,.578-1ZM2.812,20.953l10.665,6.154,10.665-6.154V8.646L13.477,2.492,2.812,8.646ZM18.159,12.7l2.1,2.1-2.1,2.1a1.156,1.156,0,0,0,1.635,1.635l2.913-2.913a1.156,1.156,0,0,0,0-1.635l-2.913-2.913A1.156,1.156,0,0,0,18.159,12.7ZM8.8,16.9,6.7,14.8l2.1-2.1a1.156,1.156,0,1,0-1.635-1.635L4.248,13.982a1.156,1.156,0,0,0,0,1.635L7.161,18.53A1.156,1.156,0,0,0,8.8,16.9Zm7.735,1.426-4.039-8.078a1.156,1.156,0,0,0-2.068,1.034l4.039,8.078a1.156,1.156,0,0,0,2.068-1.034Zm0,0" transform="translate(267.555 28.916)" fill="#19538d"/>
          </g>
        </g>
        <g id="Grupo_1180379" data-name="Grupo 1180379" transform="translate(28.465)">
          <path id="Trazado_1000657" data-name="Trazado 1000657" d="M173.015,44.582h86.134a3.043,3.043,0,0,0,3.044-3.044V15.654a3.043,3.043,0,0,0-3.044-3.042H173.015a3.044,3.044,0,0,0-3.044,3.042V41.538a3.045,3.045,0,0,0,3.044,3.044" transform="translate(-169.971 -12.612)" fill="#3a4b9e"/>
          <line id="Línea_3398" data-name="Línea 3398" x1="60.705" transform="translate(16.914 10.967)" fill="none" stroke="#fff" stroke-miterlimit="10" stroke-width="2"/>
          <line id="Línea_3399" data-name="Línea 3399" x1="21.738" transform="translate(55.881 19.541)" fill="none" stroke="#fff" stroke-miterlimit="10" stroke-width="2"/>
          <path id="Trazado_1000658" data-name="Trazado 1000658" d="M191.238,27.688v12l-15.087-12Z" transform="translate(-110.693 0.8)" fill="#3a4b9e"/>
        </g>
      </g>
    </g>
  </g>
</svg>
