<svg xmlns="http://www.w3.org/2000/svg" xmlns:xlink="http://www.w3.org/1999/xlink" width="96" height="96" viewBox="0 0 96 96">
  <defs>
    <clipPath id="clip-path">
      <rect id="Rectángulo_455533" data-name="Rectángulo 455533" width="95.999" height="92.163" fill="#19538d"/>
    </clipPath>
  </defs>
  <g id="Grupo_1181719" data-name="Grupo 1181719" transform="translate(-383.746 -8399)">
    <circle id="Elipse_13674" data-name="Elipse 13674" cx="41.5" cy="41.5" r="41.5" transform="translate(389.746 8406)" fill="#19538d"/>
    <g id="Grupo_1179062" data-name="Grupo 1179062" transform="translate(383.745 8399)">
      <rect id="Rectángulo_455531" data-name="Rectángulo 455531" width="96" height="96" transform="translate(0 0)" fill="none"/>
      <g id="Grupo_1179061" data-name="Grupo 1179061" transform="translate(0 2.203)">
        <path id="Trazado_998445" data-name="Trazado 998445" d="M114.467,95.838H96.727l2.4-4.484h17.739Z" transform="translate(-23.693 -22.7)" fill="#19538d"/>
        <path id="Trazado_998446" data-name="Trazado 998446" d="M1.458,86.893,0,89.861H19.558l1.458-2.968Z" transform="translate(0 -21.618)" fill="#19538d"/>
        <path id="Trazado_998447" data-name="Trazado 998447" d="M117.539,31.293H98.809l1.469-3.326h18.73Z" transform="translate(-24.246 -6.956)" fill="#19538d"/>
        <path id="Trazado_998448" data-name="Trazado 998448" d="M28.088,11.547H3.483L4.952,8.221H29.557Z" transform="translate(-0.925 -2.184)" fill="#19538d"/>
        <g id="Grupo_1179060" data-name="Grupo 1179060" transform="translate(0)">
          <g id="Grupo_1179059" data-name="Grupo 1179059" clip-path="url(#clip-path)">
            <path id="Trazado_998449" data-name="Trazado 998449" d="M48.653,99.141a40.772,40.772,0,0,1-39.711-49.9H3.518A46.036,46.036,0,0,0,84.512,87.248h-7.1A40.6,40.6,0,0,1,48.653,99.141" transform="translate(-0.653 -12.277)" fill="#19538d"/>
            <path id="Trazado_998450" data-name="Trazado 998450" d="M110.835,87.933h6.025c.484-.964.923-1.952,1.34-2.953h-5.792c-.487,1.007-1.008,1.994-1.573,2.953" transform="translate(-27.709 -21.189)" fill="#19538d"/>
            <path id="Trazado_998451" data-name="Trazado 998451" d="M95.384,46.081a46.043,46.043,0,0,0-90.011-13.7h5.589A40.752,40.752,0,1,1,87.147,61.291h5.644a45.915,45.915,0,0,0,2.592-15.209" transform="translate(-1.343)" fill="#19538d"/>
            <path id="Trazado_998452" data-name="Trazado 998452" d="M108.562,81.649v2.5h3.277q.594-1.228,1.106-2.5Z" transform="translate(-27.141 -20.358)" fill="#19538d"/>
            <path id="Trazado_998453" data-name="Trazado 998453" d="M126.164,81.649h-4.551q-.444,1.268-.958,2.5h5.509Z" transform="translate(-30.164 -20.358)" fill="#19538d"/>
          </g>
        </g>
        <path id="Trazado_998444" data-name="Trazado 998444" d="M2.2,37.025,0,41.509H13.317l2.2-4.484Z" transform="translate(0 -9.2)" fill="#19538d"/>
      </g>
    </g>
    <g id="Grupo_1177669" data-name="Grupo 1177669" transform="translate(403.444 8418.662)">
      <g id="Grupo_1099618" data-name="Grupo 1099618" transform="translate(0.267 -0.078)">
        <rect id="Rectángulo_401104" data-name="Rectángulo 401104" width="56.349" height="57.028" transform="translate(0)" fill="none"/>
      </g>
      <g id="Growth-analytics-stock-graph-document" transform="translate(-0.733 -1.078)">
        <path id="Trazado_1002218" data-name="Trazado 1002218" d="M56.582,48.3v9.1H54.762V48.3a1.819,1.819,0,1,0-3.639,0v1.819a.91.91,0,0,1-1.819,0V47.388a1.819,1.819,0,1,0-3.639,0v2.729a.91.91,0,0,1-1.819,0V46.478a1.819,1.819,0,0,0-3.639,0v3.639a.91.91,0,0,1-1.819,0V37.381a1.819,1.819,0,0,0-3.639,0V52.846a.91.91,0,0,1-1.7.455l-1.819-3.148a1.767,1.767,0,0,0-1.1-.855,1.819,1.819,0,0,0-2.047,2.674L30.992,57l-1.583.91-.3-.519H17.465v-.009h-.91V52.527A4.537,4.537,0,0,0,15.9,50.19l-1.947-3.239a.938.938,0,0,1-.009-.928l4.094-7.087a1.819,1.819,0,0,0-.664-2.493,1.874,1.874,0,0,0-1.383-.182,1.819,1.819,0,0,0-1.1.855L9.432,46.569l-1.574-.91.509-.891V28.63L4.574,36.863a8.222,8.222,0,0,0-.755,3.42V57.394H2V40.283A10.084,10.084,0,0,1,2.919,36.1l4.13-8.96a2.792,2.792,0,0,1,1.319-1.31V11h1.819V41.62l3.129-5.413a3.591,3.591,0,0,1,2.211-1.7,3.639,3.639,0,0,1,4.094,5.34l-3.83,6.623,1.674,2.784a6.391,6.391,0,0,1,.91,3.275v3.047h9.688l-1.556-2.693a3.639,3.639,0,0,1,6.3-3.639l.118.209V37.381a3.639,3.639,0,0,1,7.278,0V43.33a3.632,3.632,0,0,1,4.94,1.274A3.617,3.617,0,0,1,50.214,45V41.02h1.819v3.766a3.721,3.721,0,0,1,.91-.127A3.639,3.639,0,0,1,56.582,48.3Z" transform="translate(0 -0.813)" fill="#fff"/>
        <path id="Trazado_1002219" data-name="Trazado 1002219" d="M10.819,4.729a.91.91,0,0,1,.91-.91H49.936a.91.91,0,0,1,.91.91V38.388h1.819V4.729A2.729,2.729,0,0,0,49.936,2H11.729A2.729,2.729,0,0,0,9,4.729V8.368h1.819Z" transform="translate(-0.632)" fill="#fff"/>
        <path id="Trazado_1002221" data-name="Trazado 1002221" d="M47.659,29.833H15.819V8H14V30.742a.91.91,0,0,0,.91.91H47.659Z" transform="translate(-1.084 -0.542)" fill="#fff"/>
        <path id="Trazado_1002222" data-name="Trazado 1002222" d="M20,8h1.819V9.819H20Z" transform="translate(-1.626 -0.542)" fill="#fff"/>
        <path id="Trazado_1002223" data-name="Trazado 1002223" d="M24,8h7.278V9.819H24Z" transform="translate(-1.987 -0.542)" fill="#fff"/>
        <path id="Trazado_1002224" data-name="Trazado 1002224" d="M20,12H30.916v1.819H20Z" transform="translate(-1.626 -0.903)" fill="#fff"/>
        <path id="Trazado_1002225" data-name="Trazado 1002225" d="M24,38h9.1v1.819H24Z" transform="translate(-1.987 -3.251)" fill="#fff"/>
        <path id="Trazado_1002226" data-name="Trazado 1002226" d="M24,42h5.458v1.819H24Z" transform="translate(-1.987 -3.612)" fill="#fff"/>
        <path id="Trazado_1002227" data-name="Trazado 1002227" d="M32,42h1.819v1.819H32Z" transform="translate(-2.709 -3.612)" fill="#fff"/>
        <path id="Trazado_1002228" data-name="Trazado 1002228" d="M24,46h9.1v1.819H24Z" transform="translate(-1.987 -3.974)" fill="#fff"/>
        <rect id="Rectángulo_457255" data-name="Rectángulo 457255" width="13" height="7" transform="translate(18 16)" fill="#fff"/>
        <rect id="Rectángulo_457256" data-name="Rectángulo 457256" width="13" height="7" transform="translate(34 16)" fill="#fff"/>
      </g>
    </g>
  </g>
</svg>
